/* XPM */
static char *f0ff4ebd347e4997aa5e761e53ce8ee1JTjGXY1T6dVwLV9R[] = {
/* columns rows colors chars-per-pixel */
"64 64 227 2 ",
"   c #060102",
".  c #090202",
"X  c #0A0609",
"o  c #0C090B",
"O  c #140805",
"+  c #1F0F09",
"@  c #160F10",
"#  c #19181A",
"$  c #230F07",
"%  c #230F08",
"&  c #231007",
"*  c #21110B",
"=  c #2F140A",
"-  c #361204",
";  c #3A1708",
":  c #3D1A0B",
">  c #261913",
",  c #3B1D10",
"<  c #362219",
"1  c #0D1222",
"2  c #0F162A",
"3  c #131828",
"4  c #161E35",
"5  c #181E36",
"6  c #1E2535",
"7  c #21232C",
"8  c #2A282A",
"9  c #2F2E32",
"0  c #302F33",
"q  c #38383B",
"w  c #421E0D",
"e  c #421F11",
"r  c #44210E",
"t  c #49230E",
"y  c #452312",
"u  c #4A2614",
"i  c #4D2815",
"p  c #46261A",
"a  c #4C2C1A",
"s  c #512A16",
"d  c #532D1B",
"f  c #4E311E",
"g  c #53321E",
"h  c #5A361C",
"j  c #643A1C",
"k  c #6A3E1D",
"l  c #4E3322",
"z  c #553522",
"x  c #5A3622",
"c  c #573824",
"v  c #5B3A25",
"b  c #5D3D29",
"n  c #663A24",
"m  c #623D26",
"M  c #623F28",
"N  c #6E421F",
"B  c #71421F",
"V  c #5B4131",
"C  c #684124",
"Z  c #65422A",
"A  c #6B452D",
"S  c #6E482F",
"D  c #734522",
"F  c #7C4B25",
"G  c #774928",
"H  c #71492E",
"J  c #694735",
"K  c #6D4931",
"L  c #734C32",
"P  c #794E33",
"I  c #765137",
"U  c #7C5236",
"Y  c #7D553A",
"T  c #1C305A",
"R  c #223A6B",
"E  c #433F42",
"W  c #284177",
"Q  c #454548",
"!  c #535558",
"~  c #6A534A",
"^  c #75584A",
"/  c #79645B",
"(  c #566171",
")  c #787070",
"_  c #78797D",
"`  c #814F28",
"'  c #84522A",
"]  c #8B552B",
"[  c #8B562B",
"{  c #935B2E",
"}  c #985C2F",
"|  c #825536",
" . c #825639",
".. c #85593B",
"X. c #8A5C3D",
"o. c #8D613F",
"O. c #9A6234",
"+. c #A66837",
"@. c #875D43",
"#. c #925F40",
"$. c #8D6243",
"%. c #8B664B",
"&. c #956343",
"*. c #9A6544",
"=. c #9D6946",
"-. c #96694B",
";. c #9E6A4A",
":. c #886A58",
">. c #966E53",
",. c #9B7459",
"<. c #A06B47",
"1. c #A36D4A",
"2. c #A6714D",
"3. c #A9734E",
"4. c #A57555",
"5. c #AB7552",
"6. c #AD7A53",
"7. c #B17D56",
"8. c #B17E59",
"9. c #8C776C",
"0. c #987B68",
"q. c #B5825A",
"w. c #B9855D",
"e. c #8D817F",
"r. c #998378",
"t. c #BE8B63",
"y. c #A88A77",
"u. c #B28D74",
"i. c #C18E65",
"p. c #C28F68",
"a. c #C2926D",
"s. c #3A5586",
"d. c #2D5AAD",
"f. c #335DAE",
"g. c #2E5CB2",
"h. c #315EB1",
"j. c #3862AF",
"k. c #3763B6",
"l. c #3966BD",
"z. c #3C69BD",
"x. c #4B5E85",
"c. c #566C95",
"v. c #65758D",
"b. c #767981",
"n. c #426CB9",
"m. c #587AB6",
"M. c #3C6AC4",
"N. c #3B6BCB",
"B. c #3E6FD2",
"V. c #3E70D1",
"C. c #4672C4",
"Z. c #4B77CC",
"A. c #4A79D7",
"S. c #7B848D",
"D. c #77889E",
"F. c #7586A0",
"G. c #7F90AC",
"H. c #5D85CB",
"J. c #5682D7",
"K. c #678AC9",
"L. c #7392CB",
"P. c #638CD7",
"I. c #6C92D4",
"U. c #6992DD",
"Y. c #7699D5",
"T. c #7EA0DB",
"R. c #5685E4",
"E. c #5886E6",
"W. c #709AE5",
"Q. c #7DA5E9",
"!. c #7DA6ED",
"~. c #7FA8F0",
"^. c #8D8C8E",
"/. c #9A8C88",
"(. c #8E9297",
"). c #999597",
"_. c #A7958B",
"`. c #B89785",
"'. c #A79996",
"]. c #B09A90",
"[. c #AFA09D",
"{. c #B8A49B",
"}. c #8D96A4",
"|. c #A29CA2",
" X c #9AA2A7",
".X c #A9A4A8",
"XX c #B8AAA6",
"oX c #A9ACB4",
"OX c #B0AFB6",
"+X c #BAB5B8",
"@X c #C5A998",
"#X c #C3AFA8",
"$X c #C4B8B7",
"%X c #8DAAD7",
"&X c #BABCC4",
"*X c #87A9E3",
"=X c #99B8E8",
"-X c #81ABF2",
";X c #A2BFED",
":X c #C6BFC1",
">X c #BAC5D0",
",X c #A8C3ED",
"<X c #A6C5F1",
"1X c #AAC6F1",
"2X c #ADCAF3",
"3X c #B5CDF1",
"4X c #B5D1F6",
"5X c #C7C4C9",
"6X c #D1C7C4",
"7X c #C8CBD4",
"8X c #D0CED6",
"9X c #C7D1DE",
"0X c #CCD2DC",
"qX c #D3D4DB",
"wX c #CED6E3",
"eX c #CAD6E8",
"rX c #D1D7E4",
"tX c #D4DAE5",
"yX c #D3DCEB",
"uX c #CFDCF1",
"iX c #D9E3ED",
"pX c #D6E2F4",
"aX c #D9E4F6",
"sX c #DBE8F7",
"dX c #D9E5F9",
"fX c #E2EAF3",
"gX c #E8F4FB",
/* pixels */
"@ $ $ & & $ & & & * * $ & & $ $ & & $ & & $ & & $ & & $ $ & $ $ & & $ $ $ $ * * * & & * & & * & * * * * & % % % % % % % % % % * ",
"* y i i i i i i i i i i i i i i i i i i i i i i i i i i i i i d / aX&Xc i : : t r w t r w r r r : w ; : w w r : : : ; w w w : * ",
"* x L | &.;.;.=.&.X.....#.&.&.&.&.*.=.*.&.X...X.X.&.=.<.;.;.;.2.`.aX8X,.&.i i ' ' F { F k F F F C C r g A U P b Z m g P P A z * ",
"+ u $.q.t.t.t.t.t.w.q.6.w.w.8.5.3.3.3.2.;.&.;.2.5.q.w.w.w.i.i.i.@XaXqXa.7.d i } } ] +.] F ' ' ,.7X+Xd z L X.U S Z K Z X.X.L v * ",
"+ n t.i.t.q.6.5.5.7.q.w.w.8.3.1.=.&.X.X.X... .=.<.;.*.#.&.=.6.q.`.aX8Xt.q.d i { { ' +.{ D ' ' 0.pX7Xz z L X.L S M K K X.X.K z * ",
"* A w.q.5.3.2.2.<.<.<.<.<.<.<.=.<.3.7.w.t.t.2.&.&.*.=.=.;.*.&.&.y.aXpX7X5XZ i ] ] F } O.F r.5X7XdX7Xz z P X.S S M A A X.X.Z z * ",
"* n 5.7.q.7.6.5.5.6.8.q.8.5.5.2.<.1.2.3.5.5.5.5.<.=.3.<.;.;.=.=.y.aXaXaXrXJ s ] ] ' ] +.` _.pXaXaX7Xd z U ..A A M A Z ....Z z * ",
"* n 3.<.&.*.=.<.<.XX$Xu.2.2.=.=.<.1.1.<.<.=.*.*.*.*.3.<.*.2.`.$X5XaXdXdXrXJ i ' ] ] ` u.XX5XaX7Xr.0.u g Y Y A m b A Z  ...Z z * ",
"+ w n | X.*.<.3.5.8XdX`.*.&.<.<.&.P X.3.3.3.3.3.3.=.X.*.2.;.].sXsXsXsXsXqXJ i F { } F XXaXdXaX+X' D t g Y U S v M S Z U X.A z * ",
"* n 8.q.7.2.;.=.1.8XdX$X{.u.1.*.X. .*.<.=.*.&.*.=.1.<.*.L z ~ b._ b.b._ ) < = D } u._.5XdXdXaX+X' D t g K S A x b L Z U X.L z * ",
"* H i.p.i.i.t.t.t.8XdXdXdXXX<.<.=.=.*.*.*.=.=.=.*.*.=.=.l .               . . j O.$XaXdXdXdXaX+X' D u g A L S c b A M P X.P v * ",
"* H i.i.i.i.t.t.p.$X6XtXdX6X`.u.1.1.1.1.1.1.<.;.=.*.U L < . . . .   . . . . . u A OXaXdXdX0XXX_.' F u g S Y S v Z b b H X.U v * ",
"* n 2.2.5.5.5.5.5.7.8.:XdXaXaX$X*.&.&.&.&.&.&.&. .P > . . . . .     . . . . . . X  XpXdXdXXX' B ' F u g A ..K v A b v A X.U v * ",
"% w s a s s s d d d d /.&X9XaXOX~ ^ ^ ~ u w w y y , O . 7 q q q q q q q q q q @   b.oX9XdXXX' D F F u z :.0.:./ 9.:.A Z X.Y v * ",
"% y c z z z z z z z z z z /.dXdXdXdXaX7Xg a a a O . . X ^.gXgXgXgXgXgXgXgXgXfXq .     S.aXXX' G D F u b wXdXdXdXdXdXP A ..Y v * ",
"+ a L L A Z Z Z K L U  ...[.dXdXdXdXaX0X>.:.%.@.> . . X b.uXuXdXdXdXdXdXdXeXeX0 . .   ^.aXXX%.%.@.$.J ~ wXaXdXdXwX7XL A U Y b * ",
"+ d X.X.X.X.X.X.X.X.X.X.#.[.dXaXdXdXdXdXpXpXpXtX9   .   T g.L.sXdXdXdXaXuXj.d.1   .   S.pXaXpXpXaXaXaXaXaXdXaXdX9.K S S P  .b * ",
"+ i ..X...| U U P P K A Z /.wXyXdXdXdXaX0XwX0X7X8       R z.Y.aXpXdXdXuXeXn.k.2   .   _ wXwX0XwXdXdXdXaXwXrXrXwX9.L Z A L ..M * ",
"+ w m A S A Z Z A Z M v Z I @./.dXdXaX>X# # # # X     X v.<XY.k.K.sX3Xn.n.W.Q.6   .   @ # # # ! pXaXaXyX^ ^ %.^ I P Z A H ..Z * ",
"+ r m A S A A S H S Z v A A S r.dXaXyX&X  . .         X v.2XY.h.K.aX3Xk.l.W.Q.6   . .     . . Q tXyXyXwXJ K ..Z U P A A H X.Z * ",
"+ u Z Z m v v v v v b Z S K K r.aX&X0 9     . . . . . X v.2X;X=X*Xm.Z.W.W.!.Q.6 . . . .       @ q Q ~ ~ c A  .A ..P A A L ..Z * ",
"+ y A S S S A Z m v v c c b Z r.iXoX  . X X . . X X X o v.2X1X1X*Xd.z.!.!.Q.Q.6 X X X . .   X X . + r y z S U H ..L S A U Y v * ",
"* x  . .U P H H S S L L I U ..^ ! Q   # D.F.W W v.D.D.F.%X1X1X1X*Xh.n.!.!.!.Q.m.c.c.c.s.R x.D.( X O $ % z L | P  .P L S U L c * ",
"* v ......@.@.X.U L Y .. .Y I l     . 7 4X,Xk.k.=X2X2X1X1X1X1X1X*Xg.z.!.!.!.!.-X-X-X-XJ.h.I.2X}.o . . . l P U P P U P A U L z * ",
"* g Z Z Z '.'.'.'.).).).).)././     . 7 4X,XI.I.I.I.=X2X1X1X1X1X*Xh.z.!.!.!.!.!.~.P.J.P.I.*X2XG.X . . . f U U A S ..L A U L c * ",
"+ : y y y dXdXdXdXdXdXaXdXaXaX(.  . . 7 4X1X1X1Xn.d.*X2X1X1X1X1X*Xg.n.!.!.!.!.!.-XC.d.Y.1X2X1X}.o . . . a P  .M A ..S S U P v * ",
"* u a g g .X.X.X).wXdXdXdXdXsX(.  . . 7 4X1X1X1XI.H.Y.T.T.T.T.T.I.h.l.P.P.P.P.P.P.H.H.*X1X1X1XG.X . . . a P  .m S  .A A P U v * ",
"* a b U L S Z A v 5XaXaXaXaXaX(.  . . 7 4X1X1X1X1X1XZ.d.g.g.g.g.g.h.h.g.g.d.d.h.d.*X2X2X1X1X1XG.X . . . a P  .v K U b S P U v * ",
"* a b ..U A Z Z K .X5X&XOXOX+X_   . . 7 4X1X1X1X=X*XH.C.C.C.C.C.n.h.k.z.z.z.z.z.k.Y.*X=X1X1X1XG.o . . . a U  .v L P b S L  .M * ",
"* a b .. .Z A Z S K &.Y a y ' h . . . 7 4X1X1X<Xn.h.U.~.~.~.!.!.U.h.l.R.E.E.E.R.E.M.d.Y.1X1X2XG.X . . . f  .U v P L v S L ..Z * ",
"* d Z ..U Z S L L Z X.L y w ' h . . . 7 4X1X=X=XC.l.U.!.!.!.!.!.U.h.l.R.R.R.R.R.R.M.g.I.=X;X1XG.X . . . z  .H m P S b A L X.Z * ",
"* d U X.L M S P L b ..K y : ] h . .   7 2X=Xj.k.A.R.R.R.W.!.!.!.U.h.l.R.R.R.R.V.N.N.N.l.f.K.1XG.o . . . z  .A Z L S M Z P X.Z * ",
"* g U X.Z Z Z L K b ..S y w ] v # @ . 7 ,X=Xf.f.Z.J.J.J.W.-X!.!.U.h.l.R.R.R.R.M.l.l.M.k.d.K.,XD.o . O . c ..A M L L Z M  ...M * ",
"* g .. .Z Z Z L K b ..Z u : ' 0.>X(.  o 7 7 1 1 3 2 2 3 c.-X!.!.U.h.l.R.R.R.R.T 1 1 1 1 1 3 7 3 X + r = m X.S Z P L Z Z X.P M * ",
"* g  .U Z Z Z U A m X.Z u : ` y.pXoXo o . . .   . . . . x.-X!.!.U.h.l.R.R.R.E.5   . . .   . . X o > u - Z X.L Z S Z Z L X.A c * ",
"* d U U A Z A U Z A X.m u : F u.aXwXoX(.. . . . . .   . x.-X!.!.U.h.l.R.R.R.E.5       . . .   q oX'.g : A X.U m A Z A L X.K z * ",
"* a P U A Z S U Z H X.v u : F `.dXdXaX>X              . x.-X!.!.U.h.l.R.R.R.R.5   .           Q iX7Xz : A X.X.g A Z S S  .S z * ",
"* a S | A Z P P Z L X.9.|.).XX5XdXdXdXeX(.(.(.^.>     . x.-X!.!.U.h.l.R.R.R.R.5   .   ! (.(.(.oXaXyX|.).J I I i b Z Z Z Z c z * ",
"* a A  .A A  .L Z L X..XaXaXaXaXdXdXaXaXaXaXpXtX9     . x.-X!.!.U.h.l.R.R.R.R.5   .   S.iXaXpXaXdXdXaXeXb u y : w y y r w : r * ",
"* a A  .A S ..H K r.].7XaXdXdXdXdX0X_.]._._._.].>     . x.-X!.!.U.h.l.R.R.R.R.5   .   ~ '.&XaXdXdXdXdXpX'.'.@.P P P P H H H n * ",
"* a Z ..A H ..S  .5XaXaXdXdXdXdXaX5XD ' D D F ' * .   . x.-X!.!.U.d.l.R.R.R.R.5   .   Z 2.{.aXdXdXdXdXdXaXaXu.q.q.q.q.q.q.6.X.* ",
"* a Z ..A L U 0./.0XdX&X.X|.+X$X+X{.F F F D ' ` * .   . x.-XW.P.J.M.M.A.A.R.R.5   . . b &.y.+X+X$X5XaXdXdXaX@X@Xa.t.w.q.t.i.&.* ",
"* a K ..Z L I 0XpXaXaX9.c w ` O.| +.' D D ` ] ' * .   . x.-XJ.g.M.E.A.h.k.J.R.5   . . v ;.5.8.4.$.0.yXaXdXaXpXaXy.*.X.&.=.6.#.* ",
"* d U ..Z S L +X5X5X5X/ z ; G } ' O.{ D B ] >.-.> .   . x.W.J.l.C.E.J.l.M.A.A.4 . . . Z 8.w.w.w.q.q.5X7X8X7XpXdX].y.*.1.2.2. .* ",
"* g U | M A L $.I Y Y v z ; D { ' ] } F B $.0X0X9       R k.C.R.R.R.R.R.R.k.h.2 . . . b *.=.=.=.=.<.2.4.8.;.0XaXaXpXX.=.&.*.H * ",
"* g  .| M A H U A U P x z ; D ] F ' ] ` D o.wXtX9     . R k.C.R.R.R.R.R.R.k.h.2   .   V 4.5.3.2.2.1.<.#.=.2.5XtXtXrXX.*.<.2.| * ",
"* d U  .M A S P Z U U v z : D ` ` ' ` F D $.wXtX9 . .   R N.N.N.N.N.N.N.N.M.M.2   .   _ rX#X5.=.*.=.3.3.*.X.>.>.4.4.&.1.2.<.P * ",
"* a U ..Z S A A Z U  .M c : D D ' D ` ` F $.wXyX0 X     W A.V.B.V.V.V.B.V.N.C.4   X . S.aXXX=.;.;.*.&.=.1.1.<.2.3.<.<.*. .P n * ",
"* a P ..Z L Z A A P X.A c : D D F D ' %.0X0XaXaX7X>XE . o 1 1 1 1 1 1 1 1 1 1 X X ^.>XyXdXyXqX$X;.*.=.=.<.3.5.5.7.q.w.q.7.3.X.* ",
"* a L X.A I A A S A X.S v : N D D ` ' -.aXaXdXdXaXiXQ       . . . . . . . . . . X  XaXdXdXdXdX5X2.*.X.| X.<.5.q.q.7.3.2.1.2.X.* ",
"* a L X.S S A S A Z ..L v w N F k >.5X5XdXdXdXpXu.:.p , > .   . . . . . . . . a v %.:.OXaXaXaX+XA M A A n n A S S A A A S H n * ",
"* a L X.L M Z S Z m  .L v w D ` D ,.dXaXdXdXdXyX4.C - : *                   . ; y y e ^.aXdXaXoXy : : w e y u u a a a p u u y * ",
"* a L X.U b v Z v M U U v r D ,.+X+XdXrXu.y.u.u.O.k - u ) ).).}.}.}.}.).^.V l Z L L P :.r.OXaX+XJ Z Z A K L U U U L Z v b b g * ",
"* a S X. .M Z Z z M L U v w D y.dXdXaX8X{ ] { } ] k - a XXsXsXsXsXsXsXaXqX>.X.X.X..... ..._.aX&X@. . . . .Y U  ...X...|  .U d * ",
"* a Z X...Z S A g Z L S v w N %.]._.].`.] ] ] } ] k - a 0.{.:XdXdXdXtX[.].@.U S A Z Z M M / ).9.A A A A A S A Z Z S U  . .L h * ",
"* a Z ..X.Z K A z Z K Y b w k D ' D ' O.] { ] { ] k - u P Y _.dXdXaX5XJ Z v M L P L A A A S K L L S S A Z Z Z Z A Z M Z Z A c * ",
"* a v U X.Z A A z A P X.Z w k D ' F ' ] { { ' { { k - : g A /.dXdXaX7XI Z v Z A A Z A S L L S P U  . .U L A Z Z Z A S A Z Z c * ",
"* a v U X.A A Z v S U X.Z w k D F ` ` F { } ` ] { k - u Z Z /.dXdXaX5XI Z Z S S A A S P U ....U P S S L P P P P L L P A Z A x * ",
"* a v U X.L A Z m S U ..b r N F D ` ' F { +.F ' } k - u A K /.dXyX&X.XV v v b Z Z Z Z Z Z A P U U L Z M m m Z A A S A A Z b y * ",
"* a b  .X.P S Z Z S .. .b w k F F F ' D ' +.' ' O.k - y P U /.dX+XL K A A Z A A P  ..... .U U U U P U U U U H Z m M Z S P L x * ",
"* a Z ..X.P S Z A H X.U v w j D F F ] F F +.{ ] +.B - i  .$.].dX+XY L K U U ..X.X. .U P L S L P U U U U U |  .......X.X.X.X.M * ",
"* a A X.X.H M A S U X. .b w k k ' ` ] F F +.O.{ +.D - u K L _.dX+X..U A S L A A Z Z b v z z z z v c z g g z v b Z Z A A S S c * ",
"* u x m m d u x g d v c g w j i j k k h j D k j D j - y z z e.dXOXv z z g g g d a a a a u u y y y r : : : : : : ; ; - ; ; w u * ",
"* * * * * * * * * * * * * * * * * * * * * * * * * * * * * * * * * * * * * * * * * * * * * * * * * * * * * * * * * * * * * * * * "
};
