/* XPM */
static char *a6771aeab94e42cbc5dccf6f1408a325FcMILoYP2V60dB1U[] = {
/* columns rows colors chars-per-pixel */
"64 64 201 2 ",
"   c #040000",
".  c #0B0403",
"X  c #0F0805",
"o  c #0C0909",
"O  c #110502",
"+  c #1F0001",
"@  c #120905",
"#  c #1A0E07",
"$  c #140C09",
"%  c #1E0F09",
"&  c #17100E",
"*  c #1E110A",
"=  c #131010",
"-  c #1A1514",
";  c #1C1A1A",
":  c #230F07",
">  c #2D0802",
",  c #230F08",
"<  c #370305",
"1  c #231007",
"2  c #21110B",
"3  c #2A160A",
"4  c #2D1A0D",
"5  c #361204",
"6  c #391506",
"7  c #3C1708",
"8  c #321B0D",
"9  c #3D1A0B",
"0  c #2E1C13",
"q  c #211F1F",
"w  c #361F14",
"e  c #342116",
"r  c #392110",
"t  c #3A2619",
"y  c #2A2929",
"u  c #3C2D27",
"i  c #363535",
"p  c #3D3B3B",
"a  c #470002",
"s  c #4B0002",
"d  c #5B0002",
"f  c #421E0D",
"g  c #421F11",
"h  c #6B0002",
"j  c #730002",
"k  c #770205",
"l  c #44210E",
"z  c #4A230F",
"x  c #442312",
"c  c #4B2614",
"v  c #4E2815",
"b  c #492618",
"n  c #442B1B",
"m  c #4C2C1A",
"M  c #502712",
"N  c #522914",
"B  c #522C1A",
"V  c #4C301F",
"C  c #53321E",
"Z  c #5A3519",
"A  c #5B351B",
"S  c #613517",
"D  c #613619",
"F  c #653C1D",
"G  c #6A3D1D",
"H  c #4D3221",
"J  c #553522",
"K  c #593622",
"L  c #573924",
"P  c #5C3B25",
"I  c #5D3D29",
"U  c #403E3E",
"Y  c #663A24",
"T  c #623D26",
"R  c #623F28",
"E  c #6E421F",
"W  c #71431F",
"Q  c #644027",
"!  c #6F4220",
"~  c #65422A",
"^  c #6B452D",
"/  c #6E482F",
"(  c #744521",
")  c #784722",
"_  c #774823",
"`  c #7C4B25",
"'  c #72452C",
"]  c #72492E",
"[  c #7A4A2D",
"{  c #654434",
"}  c #6C4632",
"|  c #6E4930",
" . c #674638",
".. c #694A3A",
"X. c #744C32",
"o. c #794E33",
"O. c #775035",
"+. c #7C5235",
"@. c #7E5438",
"#. c #7E583D",
"$. c #474646",
"%. c #4C4C4C",
"&. c #585757",
"*. c #7C5D4C",
"=. c #615650",
"-. c #636262",
";. c #6E6D6D",
":. c #706F6F",
">. c #757474",
",. c #7C7A7A",
"<. c #890003",
"1. c #940004",
"2. c #9C0004",
"3. c #A80105",
"4. c #B60004",
"5. c #C40005",
"6. c #CB0004",
"7. c #D30005",
"8. c #DC0005",
"9. c #E60006",
"0. c #EC0006",
"q. c #F10006",
"w. c #814E26",
"e. c #824F28",
"r. c #835127",
"t. c #855229",
"y. c #8B552B",
"u. c #8E592D",
"i. c #935A2E",
"p. c #955B2E",
"a. c #815437",
"s. c #825639",
"d. c #85593A",
"f. c #8B5C3D",
"g. c #975D30",
"h. c #9A5F31",
"j. c #915E3E",
"k. c #8C603E",
"l. c #9D6232",
"z. c #92623F",
"x. c #A26434",
"c. c #A76837",
"v. c #AA6937",
"b. c #AB6A38",
"n. c #8E5F41",
"m. c #925F40",
"M. c #8F6143",
"N. c #956242",
"B. c #9A6544",
"V. c #9D6946",
"C. c #986748",
"Z. c #9E6A49",
"A. c #876855",
"S. c #8F725D",
"D. c #A06B47",
"F. c #A36D4A",
"G. c #A6714D",
"H. c #A9734E",
"J. c #A77351",
"K. c #AB7551",
"L. c #AE7A54",
"P. c #B17D56",
"I. c #B27E59",
"U. c #8F7060",
"Y. c #947663",
"T. c #977965",
"R. c #997A66",
"E. c #9D7D6A",
"W. c #A07F6C",
"Q. c #B68157",
"!. c #B5825A",
"~. c #BA855D",
"^. c #B9865D",
"/. c #BC895E",
"(. c #9F816C",
"). c #A2826E",
"_. c #BE8B62",
"`. c #A48572",
"'. c #A68975",
"]. c #A98A76",
"[. c #AB8D79",
"{. c #B1937F",
"}. c #C18D64",
"|. c #C28F68",
" X c #C29063",
".X c #858484",
"XX c #8C8C8C",
"oX c #949494",
"OX c #9C9B9B",
"+X c #AE9380",
"@X c #B79B86",
"#X c #BDA38D",
"$X c #A6A5A5",
"%X c #B3B3B3",
"&X c #BEBBBB",
"*X c #C2C2C2",
"=X c #CDCDCD",
"-X c #D5D5D5",
";X c #D8D7D7",
":X c #DCDCDC",
">X c #FEFEFE",
/* pixels */
"$ : : 1 1 : 1 1 : 1 1 : 1 1 : : 1 1 : 1 1 : 1 1 : 1 1 : : 1 : : 1 1 : : , , 2 2 2 1 1 2 1 1 2 1 2 2 1 2 1 , , , , , , , , , , 2 ",
"2 x v v v v v v v v v v v v v v v v v v v v v v v v v v v v N N v v v v v 9 9 z l f z l f l l l 9 f 6 9 f f l 9 9 9 7 f f f 9 2 ",
"2 K X.s.N.C.Z.C.B.f.d.d.n.N.N.N.N.B.C.B.N.f.d.f.f.N.V.F.Z.Z.Z.F.F.Z.C.B.N.N v t.t.` i.` G ` ` ` F F l C ^ O.o.P ~ T C o.o.^ L 2 ",
"% c M.!._._._._._.^.!.L.^.^.I.K.H.H.H.G.Z.N.Z.G.K.!.^.^./.}.}.}.}._.}.}.L.B v h.p.u.v.y.) t.r.t.) G z C X.f.@./ ~ | Q f.f.X.L 2 ",
"% T _.}._.!.L.K.K.P.!.^.^.P.H.F.V.N.f.f.f.d.s.C.F.Z.B.m.N.V.L.!.H.B.G.^.P.B v p.i.t.x.p.) r.w.` ) ) c C X.f.X./ R | | f.f.} L 2 ",
"2 ^ ^.!.K.H.G.G.F.F.F.F.F.D.V.V.F.H.P.^._.^.G.N.N.B.V.V.Z.B.N.N.z.B.F.G.F.B v u.y.` h.l.) r.r.) ` ` c C o.f./ / R ^ ^ f.f.~ L 2 ",
"2 T K.P.!.!.L.K.K.L.I.!.I.K.L.G.F.F.G.H.K.K.K.K.F.C.H.F.Z.Z.B.N.N.C.Z.Z.B.B v y.y.r.y.x.` w.e.` ) ) z C +.d.^ ^ T ^ ~ d.d.~ L 2 ",
"2 Y H.D.N.B.V.D.F.D.V.F.G.G.V.V.F.F.F.D.D.V.B.B.B.B.H.F.B.F.J.D.f.B.m.Z.B.v v t.y.y.w.x.t.t.) t.) ( z C @.s.^ T P ^ ~ s.d.~ L 2 ",
"% f Y a.f.B.D.H.H.P.H.F.B.N.F.F.N.o.f.H.H.H.H.H.H.V.f.B.G.Z.B.f.B.B.H.H.D.B v ` i.g.` l.y.i.E r.` ( z C @.+./ L R / ~ +.f.^ L 2 ",
"2 Y I.!.P.G.Z.V.F.L.V.j.Z.H.F.B.f.s.B.F.B.B.N.N.V.F.F.B.B.B.F.F.B.D.D.N.a.c v ` p.l.` g.i.p.W ` ` ( z C | / ^ K P X.~ +.f.X.L 2 ",
"2 ' }.|.}.}._._._.^.P.F.D.V.V.D.V.B.B.N.B.V.V.V.B.N.V.F.F.F.G.H.K.K.F.N.f.B v ` g.x._ g.p.i._ ) w._ c C ^ X./ L P ^ R o.f.o.L 2 ",
"2 ' }.}.}.}._._.}.}._._.!.P.K.G.F.F.G.F.F.F.D.D.B.B.F.H.P.^.^._._.^.I.L.D.B v ` h.x.` h.g.y.` ( r._ c C / @./ L ~ P P ] f.+.L 2 ",
"2 Y G.J.J.K.K.K.L.P.P.L.K.F.V.B.B.N.N.N.N.N.N.N.s.o.o.s.N.C.G.C.z.f.n.N.C.B v w.l.x._ l.h.t.r.W r.` c C ^ s./ L ~ P L ^ f.+.L 2 ",
", f B m B B B B B B B N N N c c N c c c c f f x c c m c v N N N B B B B B 9 v r.l.x._ l.h.w.t.( ` ` z C ~ d./ P / ^ ^ ~ f.@.I 2 ",
", x L J J J J J J J J J J C J J J K K K C m m m m C C K P ~ ~ Q T K J J J f v w.x.l.) x.i.` t.) ( ` z C ~ d.o.Q / ^ o.^ d.@.I 2 ",
"% m X.X.^ ~ ~ ~ | X.+.s.s.s.s.s.d.f.f.d.s.O.o.o.o.+.@.s.d.f.f.d.+.L * @ X O 8 ` x.h.) h.t.e.` ` E ` z 4 # * 0 J / ^ X.^ +.@.I 2 ",
"% B f.f.f.f.f.f.f.f.f.f.f.d.@.o.X.' / ] o.o.o.O.O.o.X./ ^ / o.@.H   o $.&.=   # i.i.) t.` w.( r.) x     o ;     0 ~ / / o.s.I 2 ",
"* v d.f.d.s.+.+.o.X./ ^ ~ / / / ^ ^ ^ ^ / / / / ^ ^ ^ ^ ^ ^ ~ P   $.-X:X:X;XXXo @ ( ` F B F ) ` 3   p %X:X:X=X-.  n ~ ^ X.d.R 2 ",
"% f T ^ / ^ ~ ~ ^ ~ R L ~ ] X./ ^ ~ ^ ^ ^ o.+.O.o./ ~ T P P T w   -X:X:X:X:X:X%X; X #       X #   ,.:X:X:X:X:X:Xq X ~ ^ ] d.~ 2 ",
"% l T ^ / ^ ^ / ] / ~ P ^ ^ ^ ^ / o.+.@.+.o.X.+.s.s.@.+.o.o.] 2   :X:X:X:X:X:X:X*Xq   <.7.2.. o OX:X:X:X:X:X:X-X%.  ~ ^ ] f.~ 2 ",
"% c ~ ~ T P L L L L P ~ / | | / / X.o.@.d.f.s.X.^ ~ ^ / X.X.] V   =X:X:X:X:X:X:X:XoXi 3.0.0.3.$.:X:X:X:X:X-X-X-Xy   ^ ^ X.d.~ 2 ",
"% x ^ / / / ^ ~ T P L K K P ~ ^ ] / / / / X.X./ ^ ~ ~ P K P P P   y -X:X:X:X:X:X:X-.>X&X0.0.7.< -X:X:X:X-X-X-XoX  t / ^ +.@.P 2 ",
"2 K s.s.+.o.] ] / / X.X.O.@.d.f.f.d.s.@.@.s.s.d.f.f.f.f.d.s.+.+.P   - ,.$X%X%XOX.X; %X:.0.0.0.1.&.OX%X*X*X$X-.  * X.X.^ +.X.L 2 ",
"2 K s.d.d.f.f.f.O.] @.@.@.+.O.X.^ R P P T ~ ^ ^ ^ ~ ~ ^ / X.o.+.+.~ 2             d 3.9.q.0.0.4.              0 X.+.o.^ +.X.J 2 ",
"2 C ~ ~ ~ ~ ^ ^ ~ P P I P P L L L L L J J J J J V m m m m m m m m B B B n 3 8 C   1.7.9.q.0.9.j   4 8 2 0 H o.^ / d.X.^ +.X.L 2 ",
"% 9 x x x x x x x x x x x f f 9 9 9 9 7 6 5 5 5 5 5 5 5 5 5 5 5 5 5 5 5 9 6 v ` 2   d 8.7.7.<.  . i.M 9 J +.s.R ^ d./ / +.o.L 2 ",
"2 b m C C J K J 9 P T K m 9 D M D G G G f N S G G Z 9 I ..I I { { { m J  .m v ` ` @   + s <     D i.z 9 C o.s.P / s.^ ^ o.+.L 2 ",
"2 m P +.X.^ ~ ^ C +.f.o.m 7 W W w.t.t.t.D x.v.v.i.G x Y.@X'.).).(.].*.*.`. .v t.y.G 8 X . O 2 F h.y.z 9 C +.s.P | +.I / o.+.L 2 ",
"2 m I d.+.^ ~ ~ ^ ] f.o.c 7 ) w.r.t.r.y.W g.b.v.p.G x T.#X(.W.W.E.).R.A.].{ M i.y.) w.G t.y.e.) h.y.z 7 J +.s.L X.o.P | X.s.R 2 ",
"2 m I d.s.~ ^ ~ / ^ f.o.x 7 w.w.t.t.w.p._ ` x.v.l.! x E.#X[.R.E.`.T.`.E.+X..M g.i.) l.t.i.t.` _ t.y.v 7 K s.O.L o.X.P | X.d.~ 2 ",
"2 B ~ s.+.~ / X.X.R f.X.x 9 t.t.w.r.` l.w.` g.c.l.( x R.#X'.).W.E.T.`.`.+X..M g.h.` x.h.y.i.) ` ` p.M 6 L s.] T o./ P ^ X.f.~ 2 ",
"2 B +.f.X.R / o.X.P d.| x 9 y.y.` ` t.l.r.w.u.x.x.( x R.@XY.].].E.E.R.'.'. .M h.x.e.x.t.i.p.) e.) h.N 6 P d.^ ~ X./ R ~ o.f.~ 2 ",
"2 C @.f.~ ~ ~ X.| P d./ x f y.t.` ` y.l.` h.y.h.x.( x T.@XY.{.[.).).E.).Y.{ M p.x.y.p.` l.i.) r.` h.N 6 T d.^ R X.X.~ R s.d.R 2 ",
"2 C s.s.~ ~ ~ X.| P d.~ b 9 t.w.` ( y.i.t.v.y.u.x.( x U.{.).#X`.).].R.E.S.{ M i.v.h.y._ h.y.) r.w.p.M 5 R f.| ~ o.X.~ ~ f.o.R 2 ",
"2 C s.+.~ ~ ~ +.^ n @       8 r.w.( y.y.p.h.y.t.x.( w e $ $ & =.E.A.E.E.).{ M u.v.v.y.( i.y.` t.` y.v 6 ^ f.X.~ / ~ ~ X.f.^ L 2 ",
"2 B +.+.^ ~ ^ +.0   - .XoXU   X F ) t.i.` ) r.` l.4     i &.=   - R.`.W.)...M t.v.b.x.) t.t.r.t.w.t.v 6 ^ f.@.T ^ ~ ^ X.f.| J 2 ",
"2 m o.@.^ ~ / ^   &.:X:X:X:X&X;   C e.Z 4 r F ( *   -.=X:X:X:X$X  u E.).)...M w.c.b.v.W w.t.y.t.) ` c 9 ^ f.f.C ^ ~ / / s./ J 2 ",
"2 m / s.^ ~ o.n o :X:X:X:X:X:X-Xi   .     O   X o OX:X:X:X:X:X:XU   ..`.E. .v _ u.y.` N ! ` ` ` Z ( z b ~ o.O.v P ~ ~ ~ ~ L J 2 ",
"2 m ^ s.^ ^ s.t o :X:X:X:X:X:X:X-Xp a k 3.5.h = %X:X:X:X:X:X:X-X>.  9 J { V f z f 7 7 7 f z z l 9 z f x x x x 9 f x x l f 9 l 2 ",
"2 m ^ s.^ / d.K   %X:X:X:X:X:X:X:XOX-.i 5.7.1.i :X:X:X:X:X-X-X-X;   ' ^ ^ ^ / ' ' ' ] [ [ [ ] ^ ' ' ' ] [ o.[ o.o.o.[ [ ] ' T 2 ",
"2 m ~ s.^ ] d.^ X o *X:X:X:X:X:X:X$.>X:X5.8.8.+ %X:X:X:X-X-X-X,.  { L.G.Z.N.G.K.G.F.F.H.G.G.F.B.B.V.G.L.!.!.!.I.!.!.!.!.!.L.f.2 ",
"2 m ~ d.^ X.+.] +.X   $.>..X.X:.&.k ,.%.5.8.8.1.y ;.XX$XOX.XU   t _._.}.}._._._.!.L.H.D.N.f.f.s.N.H.L.L.K.G.K.!._._.^.!._.}.M.2 ",
"2 m | d.~ X.] s.s.X.t .           7.j h 8.8.7.3.            $ I V.B.N.N.B.Z.V.C.B.N.N.B.Z.J.L.G.f.f.B.N.f.m.j.j.N.B.j.N.V.L.n.2 ",
"2 B +.d.~ / / d.+.o.X.K m 5 F t.  <.4.6.8.7.8.4.  3 > m #.M.P.!.!.!.P.!.!.!.I.L.K.H.H.L.!.^.^.^.!.G.N.V.H.F.D.B.N.B.B.F.G.G.s.2 ",
"2 C @.s.R ^ X.d./ o.X.K J 7 ) i.8   s 4.6.5.6.j X Z 5 Y G.P.K.F.Z.Z.Z.F.F.G.K.K.G.V.V.Z.V.V.C.C.V.F.F.Z.H.B.Z.H.F.N.j.V.N.B.[ 2 ",
"2 C s.s.R ^ ] +.^ +.o.K J 7 ) y.` 3   > 1.k s O Z F 5 Z N.N.f.B.F.G.G.H.G.G.F.B.V.F.D.N.Z.H.H.G.G.F.F.m.B.G.D.G.D.f.f.B.D.G.a.2 ",
"2 B +.s.T ^ / o.~ @.@.P J 9 _ e.w.t.C 3 @ * r i.r.F 5 c s.F.Z.N.j.N.Z.K.V.N.m.F.F.j.a.] f.H.H.B.B.V.G.H.N.j.N.m.B.V.N.F.G.F.o.2 ",
"2 m +.s.~ / ^ ^ ~ @.s.R L 9 ( ) t.( w.w.) r.` l.t.F 5 T !.}.}./.!.L.L.P.H.B.F.F.G.F.B.N.B.N.N.V.Z.B.N.V.F.F.F.F.G.F.F.B.s.o.Y 2 ",
"2 m o.d.~ X.~ ^ ^ o.f.^ L 9 ! ( ` ) r.w.y.r.r.x.y.F 5 Y !.}. X X X X X}./.P.J.F.F.F.V.V.D.D.D.Z.B.B.Z.B.F.H.K.L.P.!.^.!.P.H.f.2 ",
"2 m X.f.^ O.^ ^ / ^ f./ L 9 E _ ( r.w.t.l.r.y.x.i.F 5 Y L.!.!.Q.Q.Q.Q.^.^.^.!.P.H.F.F.F.F.F.F.F.D.B.f.a.j.D.K.!.!.P.H.G.F.G.f.2 ",
"2 m X.f./ / ^ / ^ Q d.X.L f E e.G r.` u.x.t.i.x.i.F 5 N ] X.X.o.o.+.a.a.a.+.o.X.' ' ^ / / / ^ Y Y ^ ^ ^ T T ^ / / ^ ^ ^ ' ' T 2 ",
"2 m X.f.X.R ~ / ~ T s.X.L f ( e.) ` ` g.l.t.i.x.i.F 5 9 c b b b b b b b x x x x x g f f f f 9 9 9 9 9 f g x c c m m m b c c x 2 ",
"2 m X.f.@.P L ~ P R +.+.L l ( w.` ) w.l.g.t.i.l.u.F 5 c ~ ~ I L L L I ~ ^ / / / X.X.o.o.+.o./ ~ R R ~ ^ | X.+.+.+.X.~ P I I C 2 ",
"2 m / f.s.R ~ ~ J R X.+.L f E ` ` ) w.x.i.y.i.h.y.F 5 v @.d.@.+.+.+.s.d.f.f.f.f.f.d.s.s.s.s.d.s.s.s.s.s.s.@.+.s.d.f.d.s.s.+.B 2 ",
"2 m ~ f.d.~ / ^ C ~ X./ L f E ` r.W r.x.y.y.y.g.y.F 5 v s.k.f.f.f.f.f.f.s.s.o./ ^ ~ ~ R R ~ ~ ~ ^ ^ ^ ^ ^ / ^ ~ ~ / +.s.s.X.Z 2 ",
"2 m ~ d.f.~ | ^ J ~ | @.I f G ) t.W r.l.y.i.y.p.u.F 5 c o.+.+./ ~ ~ R R T P R X.o.X.^ ^ ^ / / X.X./ / ^ ~ ~ ~ ~ ^ ~ R ~ ~ ^ K 2 ",
"2 m P @.f.~ ^ ^ J ^ o.f.~ f G ) r.) r.y.p.p.t.i.u.F 5 9 C ~ ^ ^ ^ / / / ~ L ~ ^ ^ ~ ^ / X.X./ o.@.s.s.@.X.^ ~ ~ ~ ^ / ^ ~ ~ K 2 ",
"2 m L +.f.^ ^ ~ L / +.f.~ f G ( ) r.w.` p.h.w.y.i.G 5 b ~ ~ ~ ~ ~ ~ ~ ~ ~ ~ / / ^ ^ / o.@.d.d.+.o./ / X.o.o.o.o.X.o.o.^ ~ ^ K 2 ",
"2 m P +.f.X.^ ~ T / @.d.I l E ) ) w.t.) i.x.` t.g.G 5 c ^ ^ ^ ~ R K J J L L T ~ ~ ~ ~ ~ ~ ^ o.+.+.X.~ R T T ~ ^ ^ ^ ^ ^ ~ P x 2 ",
"2 m I s.f.o./ ~ ~ / d.s.I f G ` ` ` t._ t.v.t.t.l.G 5 x o.o.^ ^ ^ / / ^ ^ ~ ^ ^ o.s.d.d.s.@.+.+.O.o.+.@.+.O.] ~ T R ~ / o.X.K 2 ",
"2 m ~ d.f.o./ ~ ^ ] f.@.P f F ) ) ` y.) ` v.p.y.x.W 5 v s.f.f.d.s.+.X./ O.@.s.f.f.s.+.o.X./ X.o.+.@.@.@.@.s.s.d.d.d.f.f.f.f.R 2 ",
"2 m ^ f.f.] R ^ / +.f.s.I f G F t.e.y.` ) c.l.i.v.( 5 b | X.o.+.@.s.+.^ / ] ^ ^ ~ ~ P L J J J J L K J C C J P P ~ ~ ^ ^ / / K 2 ",
"2 b K T T B c K C B K K C f D v F G G Z F ( F D ! D 5 x J C J J J J J J C C C B m m m m b b x x x l 9 9 9 9 9 7 6 6 6 6 7 f c 2 ",
"2 2 2 2 2 2 2 2 2 2 2 2 2 2 2 2 2 2 2 2 2 2 2 2 2 2 2 2 2 2 2 2 2 2 2 2 2 2 2 2 2 2 2 2 2 2 2 2 2 2 2 2 2 2 2 2 2 2 2 2 2 2 2 2 "
};
