/* XPM */
static char *a0e56f80987d4e4dd15092d4b55e3ab7I9mpDl5lf3zZKmnf[] = {
/* columns rows colors chars-per-pixel */
"64 64 203 2 ",
"   c #040000",
".  c #0C0403",
"X  c #0F0805",
"o  c #0C0909",
"O  c #130000",
"+  c #1C0704",
"@  c #120A07",
"#  c #130C09",
"$  c #1E0F09",
"%  c #1D110B",
"&  c #181313",
"*  c #1C1A1A",
"=  c #270203",
"-  c #230F07",
";  c #230F08",
":  c #380001",
">  c #231007",
",  c #21110B",
"<  c #361204",
"1  c #3A1607",
"2  c #3C1709",
"3  c #351C0C",
"4  c #3D1A0B",
"5  c #2A1A11",
"6  c #221B1B",
"7  c #321E13",
"8  c #3E200E",
"9  c #362114",
"0  c #3A2415",
"q  c #3B271A",
"w  c #282626",
"e  c #342C28",
"r  c #363434",
"t  c #3D3B3B",
"y  c #4A0002",
"u  c #5A0002",
"i  c #540B0D",
"p  c #421E0D",
"a  c #411F11",
"s  c #6A0003",
"d  c #730003",
"f  c #7D0003",
"g  c #44210E",
"h  c #4B230F",
"j  c #442312",
"k  c #4B2614",
"l  c #4E2815",
"z  c #492618",
"x  c #432B1C",
"c  c #4D2C1A",
"v  c #502712",
"b  c #522914",
"n  c #522C1A",
"m  c #4A301E",
"M  c #5E3417",
"N  c #53321E",
"B  c #5A341C",
"V  c #603617",
"C  c #663C1D",
"Z  c #6A3E1D",
"A  c #463126",
"S  c #553522",
"D  c #5A3622",
"F  c #573823",
"G  c #5B3B25",
"H  c #5E3D29",
"J  c #403333",
"K  c #403E3E",
"L  c #5F3E30",
"P  c #6B2829",
"I  c #663A24",
"U  c #633D26",
"Y  c #623F28",
"T  c #6E411F",
"R  c #71431F",
"E  c #5E4538",
"W  c #634027",
"Q  c #6D4220",
"!  c #65422A",
"~  c #6B452D",
"^  c #6E482F",
"/  c #744521",
"(  c #784722",
")  c #774823",
"_  c #7C4B25",
"`  c #71452E",
"'  c #71492E",
"]  c #7A4A2F",
"[  c #654434",
"{  c #6C4631",
"}  c #6E4930",
"|  c #69493A",
" . c #744C32",
".. c #7A4E33",
"X. c #775034",
"o. c #7C5235",
"O. c #7E5438",
"+. c #474646",
"@. c #4B4B4B",
"#. c #514D4D",
"$. c #585656",
"%. c #7C5D4C",
"&. c #635B5B",
"*. c #7C5354",
"=. c #626161",
"-. c #6C6A6A",
";. c #726D6E",
":. c #757474",
">. c #7C7A7A",
",. c #870003",
"<. c #930004",
"1. c #AC0004",
"2. c #B80005",
"3. c #C40005",
"4. c #CD0005",
"5. c #D40005",
"6. c #DA0005",
"7. c #E40006",
"8. c #EB0006",
"9. c #814E26",
"0. c #824F28",
"q. c #835027",
"w. c #855229",
"e. c #8B552B",
"r. c #8E582D",
"t. c #935A2E",
"y. c #945A2E",
"u. c #815437",
"i. c #825639",
"p. c #85593A",
"a. c #8B5C3D",
"s. c #965D30",
"d. c #9A5F31",
"f. c #915E3E",
"g. c #8C603E",
"h. c #9D6132",
"j. c #92623F",
"k. c #A26434",
"l. c #A66837",
"z. c #AA6937",
"x. c #A96938",
"c. c #845E41",
"v. c #8E5F41",
"b. c #925F40",
"n. c #8F6243",
"m. c #956242",
"M. c #9A6544",
"N. c #9D6946",
"B. c #966748",
"V. c #9E6A49",
"C. c #866857",
"Z. c #89695A",
"A. c #8F725D",
"S. c #A06B47",
"D. c #A36D4A",
"F. c #A6714D",
"G. c #AA734E",
"H. c #AB7551",
"J. c #AA7855",
"K. c #AE7A54",
"L. c #B17C56",
"P. c #B17E59",
"I. c #8F7060",
"U. c #947663",
"Y. c #977965",
"T. c #997A66",
"R. c #9C7D69",
"E. c #A07F6C",
"W. c #B68157",
"Q. c #B5825A",
"!. c #B9865D",
"~. c #BA865D",
"^. c #BC895E",
"/. c #9F806C",
"(. c #A2816E",
"). c #BE8B62",
"_. c #A48572",
"`. c #A68975",
"'. c #A98A76",
"]. c #A68A78",
"[. c #AD8D79",
"{. c #B1937F",
"}. c #C18D64",
"|. c #C28F68",
" X c #C29063",
".X c #858484",
"XX c #8C8C8C",
"oX c #949494",
"OX c #9C9B9B",
"+X c #AE9380",
"@X c #B69A85",
"#X c #BDA38D",
"$X c #A2A2A2",
"%X c #ACABAB",
"&X c #B5ADAD",
"*X c #B3B3B3",
"=X c gray74",
"-X c #C2C2C2",
";X c #CDCDCD",
":X c #D5D5D5",
">X c #D8D7D7",
",X c #DCDCDC",
"<X c #FEFEFE",
/* pixels */
"# - - > > - > > - > > - > > - - > > - > > - > > - > > - - > - - > > - - ; ; , , , > > , > > , > , , > > > ; ; ; ; ; ; ; ; ; ; , ",
", j l l l l l l l l l l l l l l l l l l l l l l l l l l l l b b l l l l l 4 4 h g p h g p g g g 4 p 1 4 p p g 4 4 4 1 p p p 4 , ",
", D  .i.m.V.V.B.m.a.p.p.v.m.m.m.m.M.M.M.m.a.p.a.a.m.N.D.V.V.V.D.D.V.V.M.m.b l w.w._ t._ Z _ _ _ C C g N ~ X...G ! U N ....~ F , ",
"$ k n.Q.).).).).).~.Q.K.~.~.P.H.G.G.G.F.V.m.V.F.H.Q.~.~.^.}.}.}.}.).}.}.K.n l d.y.r.x.e.( w.q.w.) Z h N  .a.O.^ ! } W a.a. .G , ",
"$ I ).}.).Q.K.H.H.P.Q.~.~.P.G.D.N.m.a.a.a.p.i.M.D.V.M.b.m.N.K.Q.G.M.F.~.P.n l y.t.w.l.y.) q.9._ ) ) j N  .a. .^ Y } } a.a.{ F , ",
", ~ ~.Q.H.G.F.F.D.D.D.D.D.S.N.N.D.G.P.~.).~.F.m.m.M.N.N.V.M.m.m.j.M.D.F.D.n l r.e._ d.h.( w.q.( _ _ j N ..a.^ ^ Y ~ ~ a.a.! F , ",
", I H.P.Q.P.J.J.J.K.P.Q.P.H.K.F.D.D.F.G.J.J.H.H.D.M.G.D.V.V.M.m.m.M.V.V.M.n l e.e.q.e.k._ 9.0._ ) ) h N X.p.~ ~ U ~ ! p.p.! F , ",
", I G.S.m.M.N.S.D.S.N.D.F.F.N.N.D.D.D.S.S.N.M.M.M.M.G.D.M.D.H.S.a.M.b.V.M.l l w.e.e.9.k.w.w.) w.) / h N O.i.~ U G ~ ! i.p.! F , ",
"$ p I u.a.M.S.G.G.L.G.D.m.m.D.D.m...a.G.G.G.G.G.G.N.a.M.F.V.m.a.M.M.G.G.S.n l _ t.s._ h.e.t.T q._ / h N O.X.^ F Y ^ ! X.a.~ F , ",
", I P.Q.P.F.V.N.D.K.N.f.V.G.D.M.a.i.M.D.M.M.m.m.N.D.D.M.M.M.D.D.M.S.S.m.u.j l _ y.h._ s.t.y.R _ _ / h N } ^ ~ D G  .! X.a. .F , ",
", ` }.|.}.}.).).).~.P.D.S.N.N.S.N.M.M.m.M.N.N.N.M.m.N.D.D.D.F.G.J.J.D.m.a.n l _ s.k.) s.y.t.) ) 9./ j N ~  .^ F G ~ Y ..a...G , ",
", ` }.}.}.}.).).}.}.).).Q.L.J.F.D.D.F.D.D.D.S.S.M.M.D.G.P.~.~.).).~.P.K.S.n l _ d.k._ d.s.e._ / q._ k N ^ O.^ G ! G G ' a.o.G , ",
", I F.F.H.J.J.J.K.L.L.K.J.D.N.M.M.m.m.m.m.m.m.m.i.....i.m.V.F.M.j.a.v.m.B.n l 9.h.k._ h.d.w.q.R q._ k N ~ i.^ G ! G G ~ a.o.G , ",
"; p n c n n n n n n n b b b k k b k k k k p p j k k c l l b b b n n n n n 4 l q.k.k.) h.d.9.w./ _ _ h N ! p.^ G ^ ~ ~ ! a.O.G , ",
"; j F S S S S S S S S S S N S S S D D D N c c c c N S D G ! ! W U D S S S p l 9.k.h.) k.t._ w.) ) _ h N ! p...W ^ ~ ..~ p.O.G , ",
"$ c  . .~ ! ! ! H 5 % % A i.i.p.p.a.a.p.i.X.......F % @ @ , } p.X.^ } } ! 4 l _ k.d.) d.w.0._ _ R _ h c ! p.i.Y ^ ~  .~ o.O.H , ",
"$ n a.a.a.a.a.q     * o   . x .. .` ^ ' ....X.' %   & $.@..   x a.a.a.p.^ g l _ h.t.) w._ 9./ q.( ( h c H O.a.! ~ ! ^ ^ ..i.H , ",
"% l p.a.p.i.S   =.;X,X,X*Xt   , ! ~ S c G ^ G X o XX>X,X,X:X+.  Y ^ ' ~ ! g l _ d.w._ _ ( 9.) w._ 9.h l G ..a.! ^ ^ ! ~  .p.Y , ",
"$ p U ~ } ~ . 6 >X,X,X,X,X,X>.  # .       # . * *X,X,X,X,X,X:X  9 ~ ~ ~ ! p l / y.0.w.) ( w.w.q.0.w.h z F } p.! ....! ~ ' p.! , ",
"$ g U ~ } !   @.>X>X>X>X>X,X,XOXo <.5.3.u   6 -X,X,X,X,X,X,X>X  , ~ U Y ! a l ) r.9.w.) ) t.e.0.e.w.h k S ~ p.! o...~ ~ ' a.! , ",
"$ k ! ! U G   w :X:X:X>X>X>X>X,X+.f 3.3.5 r oX,X,X,X,X,X,X,X;X  m ' ^ ^ ! j l _ w.w.e.) R e.k.0.t.w.h j S ~ i.~ p...~ ~  .p.! , ",
"$ j ~ ^ ^ ^ 0   oX:X:X:X>X>X>X:X; 6.6.6.=X<X=.,X,X,X,X,X,X:Xw   G U ! ! N 4 b q.w.w.e.( R 9.l.t.y.e.h j S ^ o.' p. .^ ~ X.O.G , ",
", D i.i.o...^ $   =.%X-X-X*XOX&.2.8.7.7.;.&X* .XOX%X*X$X>.&   G o.O.p.a.o.g b w.w.w.0.) _ ) h.d.r.y.k j D  .i...i... .~ X. .F , ",
", D p.p.p.a.a.p.7             = 8.8.8.7.6.4.d =           % G ..o.o.i.i...g b w.w.w.) / _ ) e.d.e.h.v j G ..o.....X. .~ X. .S , ",
", N ! ! ! ! ~ ~ ! D q 7 7 0 %   5.8.8.7.7.6.:   7 7 7 9 x c c c c n n S D 8 b w.e.9./ Z _ ( _ r.w.k.b a S o.o.~ ^ p. .~ X. .D , ",
"$ 4 j j j j j j j j j j j p 4   = 6.8.4.5.,.  X < < < < < < < < < < < < 4 1 l _ e._ Z _ _ 0._ q.e.h.v 4 S X.i.Y ~ p.^ ^ X...G , ",
", z c N N S D S 4 G U D c 4 V 3   y 2.1.f . X M Z M 4 L | H H [ [ [ c S [ c l _ r.T _ ) _ e._ _ r.t.h 4 N ..i.G ^ i.~ ~ ..X.G , ",
", c G o. .~ ! ~ N o.a...c 2 R R Q , . . X 0 l.x.t.Z j U.@X`.(.(./.'.%.%._.| l w.e.Z 9.C _ e._ ) d.e.h 4 N o.i.G } X.H ^ ..o.G , ",
", c H p.o.~ ! ! ~ ' a...k 2 ) 9.q.w.q.e.R s.x.x.y.Z j Y.#X/.E.E.R.(.T.C.].[ b t.e.) 9.Z w.e.0.) d.e.h 1 S o.i.G  ...G }  .i.Y , ",
", c H p.i.! ~ ! ^ ~ a...j 2 9.9.w.w.9.y.) _ l.x.h.Q j R.#X[.T.R._.Y._.R.+X| b s.t.( h.w.t.w._ ) w.e.k 1 D i.X.G .. .G }  .p.! , ",
", n ! p.o.! ^  . .Y a. .j 4 w.w.9.w.9.h.9._ s.l.h./ j T.#X`.(.E.R.Y._._.+X| b s.d._ l.d.e.t.( _ _ t.b 1 G i.' U ..^ G ~  .a.! , ",
", n X.a. .Y ^ .. .G p.} j 4 e.e._ _ w.h.q.9.r.k.k./ j T.@XU.'.'.R.R.T.`.`.| b d.k.0.k.w.t.y.) 0.( s.b 1 G p.~ !  .^ Y ! ..a.! , ",
", N O.a.! ! !  .} G p.^ j p e.w._ _ e.h._ d.e.d.k./ j Y.@XU.{.[.(.(.R.(.U.[ b y.l.e.y._ h.t.) q._ d.b < U p.~ Y  . .! Y i.p.Y , ",
", N p.i.! ! !  .} G p.! z 4 w.9._ / e.t.w.x.e.r.k./ j I.{.(.#X_.(.'.T.R.A.[ b t.x.d.e.) d.e.( q.9.y.b < Y a.} ! .. .! ! a...Y , ",
", N i.X.! ! ! X.~ U a.W z 4 9.w._ / e.e.y.d.e.w.k./ j Z._.[.+X_.E @ o @ e E b r.x.x.e./ t.e._ w._ 9       @ c ! ^ ! !  .a.~ F , ",
", n o.o.~ ! ~ X.! ~ a.G j 2 _ s._ ) w.t._ ( q._ h./ j C.(.[.'.&   & $.r     , w.x.z.k.) w.w.q.Q X   K oX.X&   5 ~ ! ~  .a.} S , ",
", c ..O.~ ! ^ X.! ' a.D j 1 ( k._ _ w.e.Z Z ( _ h.Q j Z._.[.J   $X>X,X,X;X=.  $ h.e.B 3 N w.B   * =X,X,X,X,X$.  H ! ^ ^ i.^ S , ",
", c ^ i.~ ! ....W  .a.D z 1 ( h.) 0.9.q.T _ T 9.r.C j Z._._.  K >X>X,X>X,X,XOX. .   O O   .   r :X,X,X,X,X,X>X. 9 ! ! ! ! F S , ",
", c ~ i.~ ~ i. .!  .p.D c 2 9.d._ 0._ q._ _ T e.q.Q 4 H [ c   :.:X>X>X>X>X,X,X*Xi 2.8.8.5.u t :X,X,X,X,X,X,X,Xo - j j g p 4 g , ",
", c ~ i.~ ^ p.' ^ ' p.G c 2 w.s.9.w.( w.R T _ e.q.) < k ~ ~   * :X:X:X>X>X,X,X,XJ 6.7.3.P *.OX,X,X,X,X,X,X,X*X  U ..] ] ] ` I , ",
", c ! p.~ ' p.~ o.' p.G c 4 w.s.w.s.) q.R / _ e.w./ < j ..D.!   >.:X:X:X>X>X>X*Xy 8.8.3.>X<X@.,X,X,X,X,X,X-Xo @ K.Q.Q.Q.Q.K.a., ",
", c ! p.~  .o.' p...i.G N 2 9.d.w.k.( _ ( ) w.e.w./ < D K.).).q   K .X$X$XXX-.e 3.7.8.4.#.>.o $.;..X.X:.+.  @ J.).).~.Q.).}.n., ",
", c } p.!  .' i.i...X.G N 2 _ h.w.l.w.) ) 0.e.w.w./ < Y Q.}.Q.F.G @             8.8.7.3.3.1.d O         . x a.f.m.M.f.m.N.K.v., ",
", n X.p.! ^ ^ p.X... .D S 2 ( y.q.h.y.) T w.w.w.w.Z < I K.L.P.Q.Q.Q.n.p.c.B.x   <.5.6.5.5.3.,.. F.n.i.m.G.D.S.M.m.M.M.D.F.F.i., ",
", N O.i.Y ~  .p.^ .. .D S 2 ) t.w.e.d._ T w.q.w._ C < I F.P.J.D.V.V.V.D.D.F.V.@   d 7.7.4.d   q N.D.D.V.G.M.V.G.D.m.f.N.m.M.] , ",
", N i.i.Y ~ ' o.~ X...D S 2 ) e._ w.e.9.T q._ t._ C < B m.m.a.M.D.F.F.G.F.F.D. .@ + y s u O 9 F.F.D.D.b.M.F.S.F.S.a.a.M.S.F.u., ",
", n o.i.U ~ ^ ..! O.O.G S 4 / 0.9.w.9._ R w.( d.q.C < k i.D.V.m.f.m.V.J.N.m.b.D.M.x % # 5 } G.M.M.N.F.G.m.f.m.b.M.N.m.D.F.D..., ",
", c X.p.! ^ ~ ~ ! O.i.Y F 4 / ( w./ 9.9.( q._ h.w.C < I Q.}.}.^.Q.K.K.P.G.M.D.D.F.D.M.m.M.m.m.N.V.M.m.N.D.D.D.D.F.D.D.M.i...I , ",
", c ..p.!  .! ~ ~ ..a.~ F 4 Q / _ ) q.9.e.q.q.k.e.C < I Q.}. X X X X X}.^.P.H.D.D.D.N.N.S.S.S.V.M.M.V.M.D.G.J.K.L.Q.~.Q.L.G.a., ",
", c  .a.~ X.~ ~ ^ ~ a.^ G 4 T ) / q.9.w.h.q.e.k.t.C < I K.Q.Q.W.W.W.W.~.~.~.Q.L.G.D.D.D.D.D.D.D.S.M.a.u.f.S.J.Q.Q.P.G.F.D.F.a., ",
", c  .a.^ ^ ~ ^ ~ W p. .G p T 0.Z q._ r.k.w.t.k.t.C < b '  . .....o.u.u.u.o... .` ` ~ ^ ^ ^ ~ I I ~ ~ ~ I I ~ ^ ^ ~ ~ ~ ` ` I , ",
", c  .a. .Y ! ^ ! U i. .G p / 0.) _ _ s.h.w.t.k.t.C < 4 k z z z z z z z j j j j j a p p p p 4 4 4 4 4 p a j k k c c c z k k j , ",
", c  .a.O.G G ! G Y X.X.G g / 9._ ( 9.h.s.w.t.h.r.C < k ! ! H G G G H ! ~ ^ ^ ^  . .....X...^ ! Y ! ! ~ } ..X.o.o. .! G H H N , ",
", c ^ a.i.Y ! ! S Y  .X.G p T _ _ ) 9.k.t.e.t.d.e.C < l O.p.O.X.X.o.i.p.a.a.a.a.a.p.p.i.i.i.p.p.i.i.i.i.i.O.o.u.p.a.p.i.i.X.n , ",
", c ! a.p.! ^ ~ N !  .^ G p T _ q.R q.k.e.e.e.s.e.C < l i.g.a.a.a.a.a.a.i.i...^ ~ ! ! Y Y ! ! ! ~ ~ ~ ~ ~ ^ ~ ! ! ^ X.i.i. .B , ",
", c ! p.a.! } ~ S ! } O.H p Z ( w.R q.h.e.t.e.y.r.C < k ..o.X.^ ! ! Y Y U G Y  ... .~ ~ ~ ^ ^  . .^ ^ ~ ! ! ! ! ~ ! Y ! ! ~ D , ",
", c G O.a.! ~ ~ S ~ ..a.! p Z ) q.( q.e.y.y.w.t.r.C < 4 N ! ~ ~ ~ ^ ^ ^ ! G ! ~ ~ ! ~ ^  . .^ ..o.i.i.O. .~ ! ! ! ~ ^ ~ ! ! D , ",
", c G o.a.~ ~ ! G ^ X.a.! p Z / ( q.9._ y.d.9.e.t.Z < z ! ! ! ! ! ! ! ! ! ! ^ ^ ~ ~ ^ ..O.p.p.o...^ ^  ......... .....~ ! ~ D , ",
", c G o.a. .~ ! U ^ O.p.H g T ( ) 9.w.( t.l._ w.s.Z < k ~ ~ ~ ! Y D S S G G U ! ! ! ! ! ! ~ ..o.o. .! Y U U ! ~ ~ ~ ~ ~ ! G j , ",
", c H i.a...^ ! ! ^ p.i.H p Z _ _ _ w.) w.x.w.w.h.Z < j ....^ ~ ~ ^ ^ ~ ~ ! ~ ~ ..i.p.p.i.O.X.X.X...X.O.o.X.' ! U Y ! ^ .. .D , ",
", c ! p.a...^ ! ~ ' a.O.G p C ) ( _ e.( _ x.y.e.l.R < l i.a.a.p.i.X. .^ X.O.p.a.a.i.o... .^  ...X.O.O.O.O.i.i.p.p.p.a.a.a.a.Y , ",
", c ~ a.a.' Y ~ ^ X.a.i.H p Z C w.0.e._ ( l.h.t.x./ < z }  ...X.O.i.X.~ ^ ' ~ ~ ! ! G G S S S S G D S N N S G G ! ! ~ ~ ^ ^ D , ",
", z D U U n k D N n D D N p V l C Z Z M C / C V Q V < j S N S S S S S S N N N n c c c c z z j j j g 4 4 4 4 4 1 1 1 < 1 1 p k , ",
", , , , , , , , , , , , , , , , , , , , , , , , , , , , , , , , , , , , , , , , , , , , , , , , , , , , , , , , , , , , , , , , "
};
