/* XPM */
static char *_d7039d6ef3e4bdcdbe927bbec72506ePPYbIhPgo8s9EuDC[] = {
/* columns rows colors chars-per-pixel */
"64 64 157 2 ",
"   c #030303",
".  c #090705",
"X  c #0E0805",
"o  c #0C0B0B",
"O  c #180101",
"+  c #130B07",
"@  c #190C06",
"#  c #140D0A",
"$  c #1E0F09",
"%  c #16110D",
"&  c #1B120C",
"*  c #141414",
"=  c #1A1715",
"-  c #1F1A16",
";  c #1B1B1B",
":  c #250101",
">  c #230F07",
",  c #230F08",
"<  c #330000",
"1  c #3B0000",
"2  c #231007",
"3  c #21110B",
"4  c #2D1409",
"5  c #26180D",
"6  c #361304",
"7  c #381506",
"8  c #3A1709",
"9  c #361C0D",
"0  c #3D1B0B",
"q  c #221710",
"w  c #251A12",
"e  c #2A1B12",
"r  c #231E1C",
"t  c #311A10",
"y  c #2E2015",
"u  c #20201F",
"i  c #2E2119",
"p  c #322116",
"a  c #392315",
"s  c #372519",
"d  c #392619",
"f  c #3E291C",
"g  c #232323",
"h  c #2A2A2A",
"j  c #333333",
"k  c #421E0D",
"l  c #411F11",
"z  c #44200E",
"x  c #4A230E",
"c  c #452312",
"v  c #4A2614",
"b  c #4E2815",
"n  c #492618",
"m  c #422A1C",
"M  c #4C2C1A",
"N  c #502916",
"B  c #532D1B",
"V  c #4E311E",
"C  c #5C3317",
"Z  c #53321D",
"A  c #5A361C",
"S  c #5D391D",
"D  c #603617",
"F  c #61371A",
"G  c #643B1D",
"H  c #6A3E1D",
"J  c #463225",
"K  c #4B3222",
"L  c #4F3929",
"P  c #543622",
"I  c #5B3622",
"U  c #563925",
"Y  c #5B3B25",
"T  c #563A28",
"R  c #5C3D29",
"E  c #623623",
"W  c #633D26",
"Q  c #683C25",
"!  c #623F28",
"~  c #66401F",
"^  c #6D411F",
"/  c #70411F",
"(  c #5E412D",
")  c #654026",
"_  c #6E4221",
"`  c #65422B",
"'  c #6B452D",
"]  c #6E482F",
"[  c #744421",
"{  c #794723",
"}  c #774821",
"|  c #7C4B24",
" . c #71452E",
".. c #71492E",
"X. c #7A4A2F",
"o. c #6C4730",
"O. c #6D4931",
"+. c #744C32",
"@. c #7A4E32",
"#. c #745036",
"$. c #7C5235",
"%. c #7D5439",
"&. c #7E5C41",
"*. c #804D25",
"=. c #814F28",
"-. c #825027",
";. c #855229",
":. c #8B542B",
">. c #8F582D",
",. c #935B2E",
"<. c #815537",
"1. c #825639",
"2. c #85593A",
"3. c #8B5C3D",
"4. c #975D30",
"5. c #9A5F31",
"6. c #915E3E",
"7. c #9C6132",
"8. c #93613F",
"9. c #A46635",
"0. c #A66837",
"q. c #A96937",
"w. c #8E5F42",
"e. c #915F40",
"r. c #8F6143",
"t. c #956242",
"y. c #996544",
"u. c #9C6846",
"i. c #9A6748",
"p. c #9E6A49",
"a. c #A06B47",
"s. c #A26D4A",
"d. c #A6714D",
"f. c #A9734E",
"g. c #A67150",
"h. c #A47552",
"j. c #AB7551",
"k. c #AD7850",
"l. c #AD7A54",
"z. c #AE7D56",
"x. c #B17D55",
"c. c #B17D57",
"v. c #B17E59",
"b. c #B47F58",
"n. c #B2815A",
"m. c #B6835A",
"M. c #B7845D",
"N. c #BB875F",
"B. c #BC875E",
"V. c #BB8B61",
"C. c #BF8B62",
"Z. c #BF8C63",
"A. c #BE8C64",
"S. c #C08A62",
"D. c #C08D63",
"F. c #C18E64",
"G. c #C28F68",
/* pixels */
"# > > 2 2 > 2 2 , 3 3 > 2 2 > > 2 2 > 2 2 > 2 2 > 2 2 > > 2 > > 2 2 > > , , 3 3 3 2 2 3 2 2 3 2 3 3 2 3 2 , , , , , , , , , , 3 ",
"3 c b b b b b N b b b b b b b b b b b b b b b b b b b b b b N N b b b b b 0 0 x z k x z k z z z 0 k 7 0 k k z 0 0 0 8 k k k 0 3 ",
"3 I +.<.t.i.p.i.t.3.2.2.w.t.t.t.t.y.i.y.t.3.2.3.3.t.u.s.p.p.p.s.s.p.i.y.t.N b ;.;.| ,.| H | | | G G z Z ' $.@.Y ` ! Z @.@.' U 3 ",
"$ v r.n.V.C.C.C.  N.n.z.M.N.b.k.f.f.f.d.p.t.p.d.k.m.N.N.B.S.D.D.D.Z.D.S.l.B b 5.,.>.q.:.{ ;.-.;.{ H x Z +.U   ] ` O.) 3.3.+.Y 3 ",
"$ Q C.F.Z.m.#.w h w %.N.N.v.j.s.u.t.3.3.3.2.1.i.s.p.y.e.t.u.l.n.f.y.d.N.c.B N 4.,.;.9.,.{ -.*.| { { v Z q r h % ! O.O.3.3.o.U 3 ",
"3 ' N.m.k.f.(   j * J +.s.O.O.O.O.f.c.h.&.&.+.` ` y.u.u.p.y.t.t.8.y.s.d.s.B 9 G S Z ) 7.{ | A Z Z S v a = g j   ! ' ' 3.3.` U 3 ",
"3 Q k.c.m.c.(   j j = % v.  . .   s.d.O.        . i.f.s.p.p.y.t.y.i.p.p.y.B           9.| _       5 x   j j j   ! ' ` 2.2.` U 3 ",
"3 E f.a.t.y.T   j g *     j h h j         g j j j   f.s.y.s.g.a.3.y.e.p.R . j j h g       o j g j g     g h j   Y ' ` 1.2.` U 3 ",
"$ k Q <.3.y.R   g .   o j j j h ; . . * j j g h j   3.y.d.p.t.3.y.y.f.f.`   j g h j j     . ; j j j j   . * g   ! ] ` $.3.' U 3 ",
"3 Q v.M.c.d.$.K *     . h j j h u . . * h j g h h   s.+.P P T T P T U 3.K   h g h j h     . ; h j j h     o * e Y O.` $.3.+.U 3 ",
"3  .F.G.F.F.A.C..     . g j h g g   . * g j g g g   u.m               %.U   g g h j g     o g g j j g       . U Y ' ! @.3.@.Y 3 ",
"3  .F.F.F.F.A.A.F.    o j g ; ; g   . * j g ; ; g j   ; h h j j j h h o * j g ; u g j     o g ; g h j     d ] Y ` Y Y ..3.$.Y 3 ",
"3 Q d.g.g.j.j.j.j.c.K o j j h g ;     * j g g ; ; g   ; h j j j j j h o * g ; g g g j .   . ; g j j j   R 1.] Y ` Y Y ' 3.$.Y 3 ",
", k N M 3 v N B B B c t * j h g g = . * h g ; ; ; ;   ; h j j j j j h o o ; ; ; g g h . * ; g g j h * p ` 2.] ! ] ' ` e 3.%.R 3 ",
", c P M o m V P P P P V + h h g g g o o g g ; ; ; ;   g j j j j j j j o o ; ; ; ; g g . ; g g h h g X Z ` 2.@.) ] ! R o +.$.R 3 ",
"$ M P   j . y ` O.@.$.1.1.  g j g ; ; *   ; ; ; ; ;   g j j j j j j j o o ; ; ; ; ; . ; ; ; g j o 5 x M ` 2.1.! ] p . j   U R 3 ",
"$ B R   j j ;   3.3.3.3.3.2.e     ; ; ; ;   * ; ;   h h j j j j j j j h ;   ; ; o . ; ; ; *     S { x M R %.3.`   ; j j   R R 3 ",
"& b R   h j h g & +.] ' ` ] Y P P . o . o g o o o g h h h j j j j j h h g g o o * ; o o o % S ~ { *.x b Y @.3.% g h j h   R ! 3 ",
"$ k m   h j j j * M P Y ` ..+.] ' 5 . . o ; .     ; ; g h h j j j h h ; ; ;     * ; o   & a ;.-.=.;.x n U ! ( * j j j h   R ` 3 ",
"$ z m   h j j j j   d Y ' ' ' ' ] @.% * h             ; h h j j j h h o             h   M ,.>.=.>.;.x v P f   j j j j h   R ` 3 ",
"$ +     h h h j h                     o ;   j j j j j g ; h h h h h ; h j j j j ; . ;                         h j h h h     # 3 ",
". r g * . g h h . * * * * * * *     ; ; . h j h h h h h h ; h h g ; j h h h h j j h . g o     * * * * * * * * . h h g . * g u . ",
"  g g g ; ; ; ; ; g g g g g * * =   g ;   j g ; ; ; ; g h g g g g g h ; ; ; ; g h j   h * . ; o ; g g g g g g * ; ; ; ; g g g   ",
"  g h j j .     j j j j j j * o j   g ;   j ; o       ; h j ; ; ; j h o       ; g j   h * o j   g j j j j j j h     . j j h g   ",
"  g h h j j j j j j j j j h o     h ; *   ; ; o     1 O . ; h h g ;   < :     ; ; *   ; g g     g h j j j j j j j h h j h h g   ",
"  * *   h j j j j j h h h j g *   h ; *   h h g ;           ; ; *           ; h h g   ; g g   ; h j h j j j j j j j j h   * *   ",
"+ # * ; h h h h h h h h h h * o ; ; ; * o * ; g g ; ; ; ; ; h h g ; ; ; ; ; g ; ; * o ; ; ; ; o g h h h h h h h h h h h ; * % + ",
"3 $ * g g g g g g g g g g g * o g ; ; ; * . * ; g j j j j h j j j h j j j h g * o . * ; ; ; g . ; g g g g g g g g g g g g * & 3 ",
"3 M m               .       ; g ; ; ; *   ; .     h h h j j j j j j j h g ;     o *   ; ; ; ; h o                         T ! 3 ",
"3 M R 2.1.` d   ; ; ; *   h ; ; ;                   h h h j j j j j h h ;                 . ; ; g ;   ; ; ; ; ;   f Y o.+.2.` 3 ",
"3 B ` 2.$.` f   ; ; o o ; ; o . o o .               ; g h j j j j j h ; *                 . o o ; ; ; o * ; ; ;   f Y ' +.3.` 3 ",
"3 B $.3.+.! f   ; ; * o ; * .   . * .             o ; g h j j j j j h ; * o                 . . * * ; o ; ; ; ;   f ! ` @.3.` 3 ",
"3 Z %.3.` ` d   h h h g       . * * .             h h h j j h h h j j h h h               . * * .     h h h h h   f ` ! 1.2.! 3 ",
"3 Z 2.1.` ` ` +.  h h h h h h g   * * o           h j g ; ; h h g ; ; h h h             o * *   g h h h h h h   @.+.` ` 3.@.! 3 ",
"3 Z 1.$.` ` ` $.  ; ; ; ; ; ; *   * * o           . h h g ; h h g ; g h ; .             o * *   * ; ; ; ; ; ;   ] ` ` +.3.' P 3 ",
"3 B $.$.' ` ' $.  o o o o o o o   o * o             ; ; ; ; h h g ; ; ; *               o * o   o o o o o o o   ' ` ' +.3.O.P 3 ",
"3 M @.%.' ` ] $.                    * o                 o h h h h h                     o *                     ' ` ] ] 1.] P 3 ",
"3 M ] <.' ` m   j h h j j j h h j   * o               * *   h h ;   ; .                 o *   j h h j j j h h j   d ` ` ` P P 3 ",
"3 M ' 1.' ' 1.+.                    * * *               . ;     o ;                   * * *                     k c c z k 0 z 3 ",
"3 M ' 1.' ] 2...f m q . ; ; ; ; *   * * *               . o o o o o                   * * *   * ; ; * ; . & m m @.@.X.X.X. .Q 3 ",
"3 M ` 2.' ..2.' $...d o j j j h h   * * *                   * * *                     * * *   h j j h j . L m.v.m.M.m.m.n.z.3.3 ",
"3 M ` 2.' +.$...2.@.d . h j h h h   * * *                                             * * *   h j j j h . J j.M.A.Z.N.m.C.F.r.3 ",
"3 M O.2.` +...<.1.@.$.P   ; ; ; ;   * * *                                             * * *   ; ; ; ;   $.6.6.6.t.y.6.t.u.l.w.3 ",
"3 B $.2.` ] ] 2.$.@.K %   o o o o   . o * o                                         o * o .   o o o o   p ` p.y.y.y.y.s.d.d.1.3 ",
"3 Z %.<.! ' +.2.] R i o o o o o o o . o * *                                         * * o . o o o o o o o f %.f.s.t.6.u.t.y.X.3 ",
"3 Z 1.<.! ' ..$.'   ; j h j j j h j o o * *                                         * * o o j h j j j h j ;   d.a.3.3.y.a.d.1.3 ",
"3 B $.1.! ' ] @.` %.s                 o * *                                         * * o                 f t.e.y.u.t.s.d.s.@.3 ",
"3 M $.2.` ] ' ' ` %.@.P M   ; g h g o o * * * * * * * * * * * . . * * * * * * * * * * * o . g h g ;   2.3.t.s.s.d.s.s.y.1.@.E 3 ",
"3 M @.2.` +.` ' ' @.2.` U @ - ; h h * o o * * * * * * * * * * . . * * * * * * * * * * o o * h j g r f u.s.f.j.j.c.m.N.m.c.f.3.3 ",
"3 M +.3.' #.' ' ] ' 3.] Y 0 5 o h h h ;   * * * * * * * * * * . . * * * * * * * * * *   ; h j j o p 3.<.6.a.j.m.m.c.f.d.s.d.3.3 ",
"3 M +.3.] ] ' ] ' ) 2.+.Y k 5 o h j h ;   * * * * * * * * * * . . * * * * * * * * * *   ; h j h o 5 ' ' Q Q ' ] ] ' ' '  . .Q 3 ",
"3 M +.3.@.! ` ] ` ! 1.@.Y k [ G   j h ;   g g g ; ; u u g g g * * g u u g g g g g g g   ; h j   4 0 0 k l c v v M M M n v v c 3 ",
"3 M +.3.%.Y Y ` Y ! $.$.Y z [ G   h h ;   g g g g g g g g g g * * g g g g g g g g g g   ; h h   K ! ` ' O.@.$.%.$.@.` Y R R Z 3 ",
"3 M ] 3.1.! ` ` P ! @.$.Y k ^ G . g g ; . ; g g g g g g g g g * * g g g g g g g g g ; . ; g g . ` 1.1.1.1.%.$.1.2.3.2.<.1.$.B 3 ",
"3 M ` 3.2.` ] ' Z ` +.] Y k ^ | -.  * ; ;   ; g g g g g g g g * * g g g g g g g g ;   ; ; *   ` ' ' ' ' ' ] ' ` ` ] $.1.1.+.A 3 ",
"3 M ` 2.3.` O.' P ` O.%.R k H { ;.                                                            +.+.] ] ' ` ` ` ` ' ` ! ` ` ' I 3 ",
"3 M Y %.3.` ' ' P ' @.3.` k H { -.Z + o * * ; ; ; ; ; ; ; ; ; ; ; ; ; ; ; ; ; ; ; ; * * o X K @.$.1.1.%.+.' ` ` ` ' ] ' ` ` I 3 ",
"3 M Y $.3.' ' ` Y ] $.3.` k H [ { -.& o * * g g g g g g g g g g g g g g g g g g g g * * o % 2.$.@.] ] +.@.@.@.@.+.+.@.' ` ' I 3 ",
"3 M Y $.3.+.' ` ! ] %.2.R z ^ { { *.&                                                     # @.$.$.+.` ! ! ! ` ' ' ] ' ' ` Y c 3 ",
"3 M R 1.3.@.] ` ` ] 2.1.R k H | | | ;.} ;.q.;.;.7.H 6 c @.@.] ' ' ] ] ' ' ` ' ' @.1.2.2.1.%.$.$.$.@.$.%.$.$...` ! ! ` ] @.+.I 3 ",
"3 M ` 2.3.@.] ` ' ] 3.%.Y k G { { | :.{ | q.,.>.9./ 6 b 1.3.3.2.1.$.+.] $.%.2.3.3.1.$.@.+.] +.@.$.%.%.%.%.<.<.2.2.2.3.3.3.3.! 3 ",
"3 M ' 3.3...! ' ] $.3.1.R k H G ;.*.:.| { 0.7.,.q.[ 6 n O.+.@.$.%.1.$.' ] ..' ' ` ` Y Y P P P P Y I P Z Z P Y Y ` ` ' ' ] ] I 3 ",
"3 n I W W B v I Z B Y I Z k D b G H H C G [ G F _ F 6 c P Z P P P P P P Z Z Z B M M M M n v c c c z 0 0 0 0 0 8 7 7 7 7 8 k v 3 ",
"3 3 3 3 3 3 3 3 3 3 3 3 3 3 3 3 3 3 3 3 3 3 3 3 3 3 3 3 3 3 3 3 3 3 3 3 3 3 3 3 3 3 3 3 3 3 3 3 3 3 3 3 3 3 3 3 3 3 3 3 3 3 3 3 "
};
