/* XPM */
static char *b2178d98e5f24625bca05976ce1b8abf7yUCrtFADXtfeoFI[] = {
/* columns rows colors chars-per-pixel */
"64 64 229 2 ",
"   c #080404",
".  c #150F0D",
"X  c #1E0F09",
"o  c #1E1009",
"O  c #1C1515",
"+  c #230F07",
"@  c #230F08",
"#  c #231007",
"$  c #21110B",
"%  c #2F170A",
"&  c #381506",
"*  c #351608",
"=  c #3D1B0B",
"-  c #241917",
";  c #2A1A12",
":  c #221C1C",
">  c #341E12",
",  c #2E201A",
"<  c #3C2415",
"1  c #34241D",
"2  c #3A2519",
"3  c #292323",
"4  c #2A2524",
"5  c #2D2A2A",
"6  c #352621",
"7  c #382721",
"8  c #352924",
"9  c #3B2B25",
"0  c #322B2B",
"q  c #3D2E29",
"w  c #36312E",
"e  c #3F312B",
"r  c #373331",
"t  c #3A3433",
"y  c #3D3C3C",
"u  c #421E0D",
"i  c #411F11",
"p  c #44200E",
"a  c #49220E",
"s  c #452312",
"d  c #4A2514",
"f  c #4E2815",
"g  c #492618",
"h  c #442B1B",
"j  c #4C2C1A",
"k  c #502916",
"l  c #522E1B",
"z  c #4D301E",
"x  c #53321E",
"c  c #59331C",
"v  c #603619",
"b  c #653B1C",
"n  c #6A3E1D",
"m  c #422E25",
"M  c #4B3325",
"N  c #44342D",
"B  c #553522",
"V  c #5A3622",
"C  c #563823",
"Z  c #5B3B25",
"A  c #573A28",
"S  c #5D3E28",
"D  c #443533",
"F  c #4A3B37",
"G  c #453B3A",
"H  c #4B3D3B",
"J  c #503F3D",
"K  c #673B26",
"L  c #633D26",
"P  c #623F28",
"I  c #6E411F",
"U  c #70411F",
"Y  c #4E443E",
"T  c #54423E",
"R  c #674125",
"E  c #65422B",
"W  c #6B452D",
"Q  c #6E482F",
"!  c #744521",
"~  c #7C4B24",
"^  c #754729",
"/  c #72492E",
"(  c #674833",
")  c #6D4930",
"_  c #744C32",
"`  c #794E33",
"'  c #7C5235",
"]  c #765138",
"[  c #7D553A",
"{  c #444444",
"}  c #4B4342",
"|  c #4C4C4C",
" . c #534542",
".. c #584643",
"X. c #564C48",
"o. c #5D4C4C",
"O. c #5C524D",
"+. c #5E4F50",
"@. c #545454",
"#. c #5F5351",
"$. c #5C5C5C",
"%. c #604D4A",
"&. c #6D554B",
"*. c #645453",
"=. c #685655",
"-. c #655A55",
";. c #6C5B5A",
":. c #725E5D",
">. c #69625E",
",. c #7E6655",
"<. c #74605F",
"1. c #636363",
"2. c #6B6562",
"3. c #6B6B6B",
"4. c #756262",
"5. c #7A6666",
"6. c #7E6A6A",
"7. c #75716E",
"8. c #747373",
"9. c #797776",
"0. c #7C7C7C",
"q. c #814E27",
"w. c #855229",
"e. c #865329",
"r. c #8B552B",
"t. c #935A2E",
"y. c #815537",
"u. c #885932",
"i. c #825639",
"p. c #85593A",
"a. c #8A5C3D",
"s. c #975D30",
"d. c #995F31",
"f. c #915E3F",
"g. c #8B603E",
"h. c #9B6133",
"j. c #A56736",
"k. c #895F44",
"l. c #915E40",
"z. c #8D6246",
"x. c #946242",
"c. c #996544",
"v. c #9D6946",
"b. c #966749",
"n. c #9D6B49",
"m. c #947057",
"M. c #A16B45",
"N. c #A26D4A",
"B. c #A6714D",
"V. c #A9734E",
"C. c #A77656",
"Z. c #AB7652",
"A. c #AD7A54",
"S. c #B17D56",
"D. c #B17E59",
"F. c #826D6D",
"G. c #8A746B",
"H. c #957D6D",
"J. c #857272",
"K. c #897475",
"L. c #8D7778",
"P. c #837D79",
"I. c #8D7979",
"U. c #917E73",
"Y. c #927E7E",
"T. c #A07E64",
"R. c #B5825A",
"E. c #B9855D",
"W. c #87827E",
"Q. c #97827B",
"!. c #AB856D",
"~. c #BE8B62",
"^. c #B4886B",
"/. c #B88F74",
"(. c #BB9479",
"). c #C08D64",
"_. c #C28F68",
"`. c #C2946E",
"'. c #927F80",
"]. c #838282",
"[. c #898684",
"{. c #8C8C8C",
"}. c #968282",
"|. c #998686",
" X c #9B8788",
".X c #9D8A8A",
"XX c #998E88",
"oX c #99928F",
"OX c #949494",
"+X c #9A9693",
"@X c #9E9995",
"#X c #9C9B9B",
"$X c #A08D8E",
"%X c #AD9585",
"&X c #A89C95",
"*X c #B5A399",
"=X c #A5A4A4",
"-X c #AAA6A3",
";X c #AEA9A5",
":X c #ACACAC",
">X c #B5ADA7",
",X c #B8B1AD",
"<X c #B4B4B4",
"1X c #B9B5B4",
"2X c #BABABA",
"3X c #C49E85",
"4X c #C5A285",
"5X c #C9AB97",
"6X c #D3B49B",
"7X c #C8B6AA",
"8X c #D2B8A8",
"9X c #CBBDB4",
"0X c #C3BDBA",
"qX c #CBC3BC",
"wX c #D8C6B8",
"eX c #C4C4C4",
"rX c #CBC5C1",
"tX c #CCCCCC",
"yX c #D8CCC5",
"uX c #DED2CA",
"iX c #D3D3D2",
"pX c #DCDAD9",
"aX c #E2D1C6",
"sX c #E8E5E3",
"dX c #ECEBEB",
"fX c #F0EAE7",
"gX c #F5F5F5",
"hX c #F8F7F7",
"jX c #FFFFFF",
/* pixels */
". + + # # + # # + # # + # # + + # # + # # + # # + # # + + # + + # # + + @ @ $ $ $ # # # # # $ # $ $ # $ # @ @ @ @ @ @ @ @ @ @ $ ",
"$ s f f f f f f f f f f f f f f f f f f f f f f f f f f f f f f f f f f f = = a p u a p u p p p = u & = u u p = = = & u u u = $ ",
"$ V _ y.x.n.n.v.x.a.p.p.l.x.x.x.x.c.v.c.x.a.p.a.a.x.v.N.n.n.n.N.N.n.n.c.x.f f w.w.~ t.~ n ~ ~ ~ b b p x W ' _ S E P x ` ` W C $ ",
"X d z.R.~.~.~.~.~.E.R.A.E.E.D.Z.V.V.V.B.n.x.n.B.Z.R.E.E.E.).).).).~.).).A.l f d.s.r.j.r.~ w.q.w.! n a x _ a.[ Q E ) R a.a._ Z $ ",
"X K ~.).~.R.A.Z.Z.D.R.E.E.D.V.N.v.x.a.a.a.p.i.v.N.n.c.x.!.sXgXgXgXgXfX4XD.l f t.t.w.j.t.! w.q.~ ! ! d x _ a._ Q P ) ) a.a.) C $ ",
"$ W E.R.Z.V.B.B.N.N.N.N.N.M.v.v.N.V.D.E.~.E.B.x.x.c.N./.9X{.0.].].0.{.9X(.c f r.r.~ d.h.~ w.w.~ ~ ~ a x _ a.Q Q P W W a.a.E C $ ",
"$ K Z.D.R.D.A.Z.Z.A.D.R.D.A.Z.B.N.N.B.V.Z.Z.Z.Z.N.n.3X7XOX@.| | | | @.OX7XF.l r.r.w.r.j.~ q.q.~ ! ! a x ] p.W W P W E p.p.E C $ ",
"$ K V.M.x.c.v.M.N.M.v.N.B.B.v.v.N.N.N.M.M.v.c.c.c.N.aX:X{ $.1.1.1.1.$.{ :X9XV w.r.r.q.j.w.w.! w.! ! a x [ i.W P S W E i.p.E C $ ",
"X u K y.a.c.M.V.V.S.V.B.C.!./.^.n.` a.V.V.V.V.V.V.B.yX:X{ 1.8.8.8.8.1.{ :X9Xc ~ t.s.~ h.r.t.I u.m.m.&.( i.] Q Z P Q E ] a.W C $ ",
"$ K D.R.D.B.n.v.N.A.C.m.5XuXuXwX!.z.n.N.v.c.x.c.v.Z.aX:X| ].=X:X:X=X].| :X0XP ~ t.h.~ t.t.h.' T.qXyXrXXX,.[ Q V S _ E ] a._ C $ ",
"$ / )._.).).~.~.~.`.aXuX-X9.8.].9XaX5Xc.c.v.v.v.c.n.yX:X@.=X2X2X2X2X=X@.:XdX*Xg.t.j.! s.s.5XyX7X].8.9.&XqXqXk.Z S W P _ a.` Z $ ",
"$ / ).).).)._.6XwXwX=X#X8.| | @.{.#X,X5XA.(.8X8X8X8XfX:X@.:X2X2X2X2X:X$.:XjXdX7X5X6XT.M.4X,X#X{.@.| | 8.#X=X>X&XH.E S / a.' Z $ ",
"$ K B.B.D.(.3X9XiX<X| Y @.1.1.1.| y 8.rX*X7XtXtXtXtXiX{.$.:X2X2X2X2X:X$.{.iXtXtXtXtX,X4XqX8.y | 1.1.1.@.{ | :XtX,XG.,.] a.' Z $ ",
"@ u k Z G.qXtXP.| @.$.1.3.8.3.3.1.1.@.1.2X[.| | @.@.@.{ $.:X2X2X2X2X:X$.{ @.@.@.@.| [.2X1.@.1.1.3.3.8.3.1.$.@.| W.tXrXQ.b.[ S $ ",
"@ s ( U.-X9.3.$.@.$.3.3.{.=X#X{.8.3.1.$.1.$.@.@.@.@.@.| $.:X2X2X1X2X:X$.| $.@.@.@.@.$.1.$.1.3.8.{.#X=X{.3.3.$.@.$.3.9.;X%Xz.S $ ",
"X l %X;X9.@.@.$.1.8.+X#X#X#X#X=X#X{.8.$.{ @.1.1.1.1.1.| $.:X2X1X2X2X:X$.@.1.1.$.1.1.@.{ $.8.{.#X=X#X#X#X#X+X8.1.$.@.@.9.>X%XE $ ",
"X V 9X:X| $.1.].{.+X=X=X0.$.8.:X2X<X+X3.| 1.].{.{.{.{.].{.:X<X1X2X2X<X{.[.{.{.{.{.].1.| 3.+X:X2X:X8.$.0.=X=X+X{.0.1.$.| :X9X( $ ",
"o x 9X<X$.8.[.#X:X#X8.3.3.3.].:X<X:X:X{.@.9.:X1X1X1X1X1X1X<X<X<X<X<X2X1X1X<X<X1X1X:X9.@.{.:X:X<X:X].3.3.3.8.#X:X#X[.8.$.:X9X( $ ",
"X d &X+X1.=X:XOX].8.$.$.{.<X:X=X{.].#X=X$.{.2X2X2X2X2X2X2X1X1X<X:X<X1X1X<X<X1X2X2X2X{.$.=X#X].{.=X:X<X{.$.$.8.].OX:X=X1.+X*X( $ ",
"X p 7 5 $.{.OX1.{ $.=X:X<X:X{.3.@.@.9.[.@.{.2X2X2X2X2X2X2X2X1X1X1X1X:X:X<X1X2X2X2X2X{.@.[.9.$.@.3.{.:X<X:X=X$.{ 1.OX{.$.5 N E $ ",
"X X 6 3 5 @.$.0.OX#X2X=X{.8.@.| @.$.1.@.| 0.:X2X2X2X2X2X2X2X1X2X2X1X1X1X1X1X2X2X2X:X0.| @.1.$.@.| @.8.{.=X2X#XOX0.$.@.5 3 6 $ $ ",
"X   D H 3 O 4 1.#X=X{.8.$.y 0 | 1.| 5 : 4 @.8.].].].].0.{.<X2X2X2X2X<X{.9.0.].].].8.@.4 : 5 | 1.| 0 y $.8.{.=X#X1.4 : 3 H D   $ ",
"$   G ;. .: - 3 | 8.$.t 5 3 3 y { 5 O - - 5 r r r r w r $.:X2X2X2X2X:X$.r w r r r r 5 - - O 0 { y 3 3 5 t $.8.| 3 - : H =.G   $ ",
"$    .J.5.=.X.6 3 y r - O 0 G 3 O D o.o.X.e , , , , , 0 $.:X2X2X2X2X:X$.0 , , , , , e X.o.o.D O : G 0 O - r y 3 6 X.o.=.5. .  $ ",
"$    .Y.}.Y.F.%.0 . O D  .*.;. .H =.F.6.5.*. . . . . .G $.=X2X1X2X2X:X$.G  . . . . .*.5.6.F.=.H  .;.*. .D O . 0 o.4.F.L.I...  $ ",
"X    .K.Y..X}.F.o.t D =.J.Y.I.5.4.K.}.}.}.F.4.4.4.4.=.} $.:X1X1X1X2X:X$.} =.4.4.4.4.F.Y.}.}.K.4.5.I.Y.J.=.D t o.4.4.I.Y.K. .  $ ",
"$   H #.%.L..X|.L.J.J.F.K.}. X}.Y.|.$X$X.X}.Y.Y.Y.Y.;.} $.:X1X<X1X2X:X$.} ;.Y.Y.Y.Y.}..X$X$X|.Y.Y.Y.|. XI.J.J.L.I.K.J.%.#.H   $ ",
"$ X q e D 4.Y.|.|..X|.K.F.K.|.|.|.|.|.|.|.|.|.|. X|.4.} $.:X2X<X<X1X:X$.} 4.|. X|.|.|.|.|.|.|.|.}.K.I.|.|. X X|. X}.4.D e q $ $ ",
"$ h 2 q  .X.;.4.<.<.<.:.:.:.<.<.:.:.:.:.:.:.:.:.:.:.o.G $.:X2X1X1X<X=X$.G o.:.:.:.:.:.:.:.:.:.:.<.:.:.<.<.<.<.<.4.;.X. .q z Z $ ",
"$ j A A 2 1 1 1 1 6 6 6 6 6 1 1 9 e e e e e e e e e 9 w $.:X2X2X1X2X:X$.w 9 e e e e e e e e e q 1 1 6 1 1 1 6 1 1 1 1 1 M ` E $ ",
"$ l E _ Z j z % 1 D D D D D 8 1 P.-X-X-X-X-X-X-X-X-X;X9.$.:X2X2X2X2X:X$.9.;X-X-X-X-X-X-X-X-X-XP.1 7 D D D D D 1 > z h z E a.E $ ",
"$ l ] a._ P E < q *.+.o.o.+.F N 0XjXjXjXjXjXjXjXjXjXjX:X@.:X2X2X2X2X:X@.:XjXjXjXjXjXjXjXjXjXjX0XD G +.o.o.+.*.q < E P E ` a.E $ ",
"$ x [ a.E E P < q *.=.=.=.;.T N 0XjXjXjXjXjXjXjXjXjXjX=X| =X2X2X2X2X=X| =XjXjXjXjXjXjXjXjXjXjX0XN J ;.=.=.=.*.q < W E P i.p.P $ ",
"$ x i.i.E E P h q o.6.6.6.6.*.H -XdXjXjXjXjXjXjXjXjXjX2X1.0.+X=X=X+X0.1.2XjXjXjXjXjXjXjXjXjXdX-XH *.6.6.6.6.o.9 h Q W E a.` P $ ",
"$ x i.' E E E _ h 9 5.F.F.F.6.;.F -XjXjXjXjXjXjXjXjXjXgXeX$.@.@.@.@.$.eXgXjXjXjXjXjXjXjXjXjX-XF ;.6.F.F.F.5.9 2 E E E _ a.W C $ ",
"$ l ' ' W E W ] h , =.6.F.6.F.:.1 oXjXjXjXjXjXjXjXjXjXjXgXtXeXeXeXeXtXgXjXjXjXjXjXjXjXjXjXjXoX1 :.F.6.F.6.=., < W E W _ a.) B $ ",
"$ j _ [ W E Q ' B h D :.F.J.I.4.7 +XjXjXjXjXjXjXjXjXjXjXjXjXjXjXjXjXjXjXjXjXjXjXjXjXjXjXjXjX+X7 4.I.J.F.:.D M j W E Q Q i.Q B $ ",
"$ j Q y.W E ` _ R P ; *.K.Y.|.4.6 @XjXjXjXjXjXjXjXjXjXjXjXjXjXjXjXjXjXjXjXjXjXjXjXjXjXjXjXjX@X6 4.|.Y.K.*.; E f S E E E E C B $ ",
"$ j W i.W W i._ E P ; *.Y..X|.5.D W.pXjXjXjXjXjXjXjXjXjXjXjXjXjXjXjXjXjXjXjXjXjXjXjXjXjXjXpXW.N 5.|..XY.*.; = = u s s p u = p $ ",
"$ j W i.W Q p./ Q P 2 T J.$X|.J.:.T P.hXjXjXjXjXjXjXjXjXjXjXjXjXjXjXjXjXjXjXjXjXjXjXjXjXhXP.T :.J.}..XJ.T > K ` ` ` ` / ^ ^ K $ ",
"$ j E p.W / p.W ' Q E 7 ;..X.X}.J.9 #.gXjXjXjXjXjXjXjXjXjXjXjXjXjXjXjXjXjXjXjXjXjXjXjXjXgX#.9 K.Y.I.}.;.M p.A.D.R.R.R.R.R.A.a.$ ",
"$ j E p.W _ ' / p._ _ > T I.|.Y.F.q -.gXjXjXjXjXjXjXjXjXjXjXjXjXjXjXjXjXjXjXjXjXjXjXjXjXgX-.q K.|.}.J.T h n.Z.R.~.~.E.R.~.).z.$ ",
"$ j ) p.E _ / y.i.` _ < q ;.Q.K.6.9 -.jXjXjXjXjXjXjXjXjXjXjXjXjXjXjXjXjXjXjXjXjXjXjXjXjXjX-.9 J..X X=.N C a.f.f.x.c.f.x.v.A.l.$ ",
"$ l ] p.E Q Q p.] _ _ B 2 H K.K.F.D *.sXjXjXjXjXjXjXjXjXjXjXjXjXjXjXjXjXjXjXjXjXjXjXjXjXsX*.D K..XY.T Z n.N.M.c.c.c.c.N.B.B.i.$ ",
"$ x [ y.P W _ p.Q ` _ B < 9 =.F.}.J...O.pXjXjXjXjXjXjXjXjXjXjXjXjXjXjXjXjXjXjXjXjXjXjXpXO...J.|.|.;.m S N.c.n.V.N.x.f.v.x.c./ $ ",
"$ x i.y.P W / ' W ] ` V j > F J..X}. .8 iXjXjXjXjXjXjXjXjXjXjXjXjXjXjXjXjXjXjXjXjXjXjXiX9 ..L.Y.L.T A ' c.B.M.B.M.a.a.c.M.B.y.$ ",
"$ l ' i.P W Q _ E [ [ Z B % N L.$XY...e iXjXjXjXjXjXjXjXjXjXjXjXjXjXjXjXjXjXjXjXjXjXjXiXe ..K.Y.6.N ) N.c.f.x.l.c.v.x.N.B.N.` $ ",
"$ j ] i.E Q W W E [ i.P B % q 6. XY. .e pXgXdXdXdXdXdXdXdXdXjXjXjXjXdXdXdXdXdXdXjXjXjXtXq  .Y.}.;.9 E c.N.N.N.N.B.N.N.c.i.` K $ ",
"$ j _ p.E _ E W W _ a.W C * 2 ..K.Y.%.F ,XiXtXtXtXtXtXtXtXiXdXjXjXdXiXtXtXtXtXiXdXjXsX@XN *.}.I...m _ c.N.V.Z.Z.S.R.E.R.S.V.a.$ ",
"$ j _ a.W ` W W Q W a.Q Z = x 2 =.J.6.=. .+XtXtXtXtXtXtXtXtXiXdXdXiXtXtXtXtXtXtXiXdX,XY *.I..X6.N ) i.y.f.M.Z.R.R.D.V.B.N.B.a.$ ",
"$ j _ a.Q Q W Q W R p._ Z u c <  .J.}.:.6 [.iXtXtXtXtXtXtXtXtXdXdXtXtXtXtXtXtXtXtXpXoX7 :.|.I.o., x W W K K W Q Q W W W W / K $ ",
"$ j _ a._ P E Q E P i._ Z u b x m 4..X:.7 P.2X2X2X2X2X2X2X2X2XiXiX2X2X2X2X2X2X2X2X2X0.8 :..X4.7 % = = u i s d f j j j g d d s $ ",
"$ j _ a.[ S Z E Z P ] ] Z p ! ^ < X.'.:.7 7.:X=X=X=X=X=X=X=X:X2X2X=X=X=X=X=X=X=X=X:X7.7 :.'.o.> Z P E W ) _ ] [ ' _ E Z S S x $ ",
"$ j Q a.i.P E E B P _ ] Z u I ^ g N =.:.e 2.#X:X:X:X:X:X:X:X:X2X2X:X:X:X:X:X:X:X:X#X2.e ;.=.N j ] i.i.i.i.[ ' i.p.a.p.y.i.] l $ ",
"$ j E a.p.E Q W x E _ Q Z u I ~ ! < q o.H D >.+X#X#X#X#X#X#X#X:X:X#X#X#X#X#X#X#X+X>.D H o.q 2 Z W W W W W Q W E E Q ] i.i._ c $ ",
"$ j E p.a.E ) W B E ) [ S u n ~ w.s ; 6 6 ; 7 Y  . . . . .}  .X.X. .}  . . . . .Y 7 ; 6 6 ; h _ _ Q Q W E E E E W E P E E W V $ ",
"$ j Z [ a.E W W B W _ a.E u n ! w.b s ; q D G T  .T T T T T T T T T T T T T T  .T G D q ; < Z _ ' i.i.[ _ W E E E W Q W E E V $ ",
"$ j Z ' a.W W E Z Q ] a.E u n ! ~ q.b ; N H  .o.%.%.%.%.%.%.%.%.%.%.%.%.%.%.%.%.o. .H N ; E i.' _ Q Q _ _ _ _ _ _ _ _ Q E W V $ ",
"$ j Z ' a._ W E P Q [ p.S p I ~ ! q.K $ $ $ $ $ $ $ $ $ $ $ $ $ $ $ $ $ $ $ $ $ $ $ $ $ $ B _ ' ' _ E P P P E W W Q W W E S s $ ",
"$ j S i.a.` Q E E Q p.i.S u n ~ ~ ~ w.! w.j.w.w.h.n & s _ _ Q W W Q Q W W E W W _ i.p.p.i.[ ] ] ' _ ] [ ' ' / E P P E Q _ _ V $ ",
"$ j E p.a._ Q E W / a.[ Z u b ! ~ ~ r.~ ~ j.t.r.j.U & f i.a.a.p.i.] _ Q ' [ i.a.a.i.' _ _ Q _ _ ] [ [ [ [ y.y.p.p.p.a.a.a.a.P $ ",
"$ j W a.a./ P W Q ] a.i.S u n b w.w.r.~ ~ j.h.t.j.! & g ) _ _ ] [ i.] W Q / W W E E S Z B B B B Z V B x x B Z S E E W W Q Q V $ ",
"$ g V L L l d V x l Z V x u v f b n n c b ! b v ! v & s B x B B B B B B x x x l j j j j g d s s s p = = = = = & & & & & & u d $ ",
"$ $ $ $ $ $ $ $ $ $ $ $ $ $ $ $ $ $ $ $ $ $ $ $ $ $ $ $ $ $ $ $ $ $ $ $ $ $ $ $ $ $ $ $ $ $ $ $ $ $ $ $ $ $ $ $ $ $ $ $ $ $ $ $ "
};
