/* XPM */
static char *bd7925d0eb6940cdd32388ebfe9e03e7qjEK8BuLFV406zMy[] = {
/* columns rows colors chars-per-pixel */
"64 64 166 2 ",
"   c #170E0A",
".  c #1F0F09",
"X  c #1E1009",
"o  c #230F07",
"O  c #230F08",
"+  c #231007",
"@  c #21110B",
"#  c #361204",
"$  c #3A1607",
"%  c #3C1708",
"&  c #3D1A0B",
"*  c #3E200E",
"=  c #421E0D",
"-  c #411F11",
";  c #44210E",
":  c #4A230F",
">  c #442312",
",  c #4B2614",
"<  c #4E2815",
"1  c #492618",
"2  c #4C2C1A",
"3  c #502712",
"4  c #522914",
"5  c #522C1A",
"6  c #4F301F",
"7  c #5C3317",
"8  c #53321E",
"9  c #5C341B",
"0  c #613517",
"q  c #613619",
"w  c #663C1D",
"e  c #6A3E1D",
"r  c #502E20",
"t  c #553522",
"y  c #5A3622",
"u  c #573923",
"i  c #5C3B25",
"p  c #5E3D29",
"a  c #5F3E30",
"s  c #623623",
"d  c #623D26",
"f  c #683C25",
"g  c #623F28",
"h  c #6E411F",
"j  c #71431F",
"k  c #634027",
"l  c #6E4220",
"z  c #65422A",
"x  c #6B452D",
"c  c #6E482F",
"v  c #744521",
"b  c #784722",
"n  c #774823",
"m  c #7C4B25",
"M  c #72452C",
"N  c #72492E",
"B  c #7A4A2D",
"V  c #654434",
"C  c #6C4632",
"Z  c #6E4930",
"A  c #674639",
"S  c #684738",
"D  c #6A4A3A",
"F  c #744C32",
"G  c #794E33",
"H  c #775035",
"J  c #7C5235",
"K  c #7E5438",
"L  c #745241",
"P  c #7C5D4C",
"I  c #814E26",
"U  c #824F28",
"Y  c #835027",
"T  c #855229",
"R  c #8B552B",
"E  c #8E582D",
"W  c #90572D",
"Q  c #935A2E",
"!  c #985D2F",
"~  c #815437",
"^  c #825639",
"/  c #85593A",
"(  c #8B5C3D",
")  c #965D30",
"_  c #9A5F31",
"`  c #915E3E",
"'  c #8C603E",
"]  c #9D6132",
"[  c #92623F",
"{  c #A26434",
"}  c #A86736",
"|  c #A76837",
" . c #AA6937",
".. c #A56838",
"X. c #AB6A38",
"o. c #8E5F41",
"O. c #925F40",
"+. c #8F6143",
"@. c #956242",
"#. c #9A6544",
"$. c #9D6946",
"%. c #966648",
"&. c #9A6748",
"*. c #9E6A49",
"=. c #876755",
"-. c #866957",
";. c #89695A",
":. c #8F725D",
">. c #A06B47",
",. c #A36D4A",
"<. c #A6714D",
"1. c #A5724D",
"2. c #A6744E",
"3. c #A9734D",
"4. c #A9754F",
"5. c #AB744F",
"6. c #A77351",
"7. c #AD7850",
"8. c #AC7952",
"9. c #AD7A54",
"0. c #AF7A54",
"q. c #AF7D56",
"w. c #AC7C58",
"e. c #B17C56",
"r. c #B17D57",
"t. c #B17E59",
"y. c #B47F58",
"u. c #8F7060",
"i. c #947663",
"p. c #987565",
"a. c #977965",
"s. c #997A66",
"d. c #9D7D6A",
"f. c #A07F6C",
"g. c #B68157",
"h. c #B28159",
"j. c #B78259",
"k. c #B5825C",
"l. c #B7845D",
"z. c #BA845C",
"x. c #BB875F",
"c. c #BC875E",
"v. c #BC895E",
"b. c #9F816C",
"n. c #A2816E",
"m. c #BB8B61",
"M. c #BE8B62",
"N. c #BF8B62",
"B. c #BF8C63",
"V. c #A58572",
"C. c #A98775",
"Z. c #A98A76",
"A. c #A68A78",
"S. c #AD8C79",
"D. c #B1937F",
"F. c #C08B62",
"G. c #C08D63",
"H. c #C18E65",
"J. c #C28F68",
"K. c #C29063",
"L. c #AE9380",
"P. c #B39582",
"I. c #B79B85",
"U. c #B79D89",
"Y. c #BA9E89",
"T. c #BDA38D",
/* pixels */
"  o o + + o + + o + + o + + o o + + o + + o + + o + + o o + o o + + o o O O @ @ @ + + @ + + @ + @ @ + + + O O O O O O O O O O @ ",
"@ > < < < < < < < < < < < < < < < < < < < < < < < < < < < < 4 4 < < < < < & & : ; = : ; = ; ; ; & = $ & = = ; & & & % = = = & @ ",
"@ y F ^ @.&.*.&.@.( / / o.@.@.@.@.#.&.#.@.( / ( ( @.$.,.*.*.*.,.,.*.&.#.@.4 < T T m Q m e m m m w w ; 8 x H G i z d 8 G G x u @ ",
". , +.h.m.N.N.N.N.x.h.q.l.x.y.7.4.4.3.<.*.@.*.<.7.j.x.x.c.F.G.G.G.B.G.F.9.5 < _ ! E  .R b T Y T n e : 8 F ( K c z Z k ( ( F u @ ",
". f N.H.B.j.q.7.7.r.k.x.x.r.4.,.$.@.( ( ( / ^ &.,.*.#.O.@.$.9.h.4.#.<.x.r.5 < ! Q T ..Q n Y I m n n > 8 F ( F c g Z Z ( ( C u @ ",
"@ x x.j.7.4.<.<.,.,.,.,.,.>.$.$.,.4.r.x.N.x.2.@.@.#.$.$.*.#.@.@.[ #.,.<.,.5 < E R m _ ] b T Y b m m > 8 G ( c c g x x ( ( z u @ ",
"@ f 7.r.j.r.9.7.7.9.t.h.t.7.7.<.,.,.<.3.7.7.7.7.,.&.4.,.*.*.#.@.@.&.*.*.#.5 < R R Y R { m I U m n n : 8 J / x x d x z / / z u @ ",
"@ s 3.>.@.#.$.>.,.>.$.,.<.<.$.$.,.,.,.>.>.$.#.#.#.#.3.,.#.,.6.>.( #.O.*.#.< < T R R I { T T n T n v : 8 K ^ x d i x z ^ / z u @ ",
". = f ~ ( #.>.3.4.r.3.,.@.@.,.,.@.G ( 3.4.4.4.4.4.$.( #.<.*.@.( #.#.3.4.>.5 < m Q ) m ] R Q h Y m v : 8 K J c u g c z J ( x u @ ",
"@ f t.k.r.<.*.$.,.7.$.` *.4.,.#.( ^ #.,.#.#.@.@.$.,.,.#.#.#.,.,.#.>.>.@.~ > < m Q ] m ) Q Q j m m v : 8 Z c x y i F z J ( F u @ ",
"@ M H.J.H.H.N.m.N.x.r.,.>.$.$.>.$.#.#.@.#.$.$.$.#.@.$.,.,.,.<.3.7.7.,.@.( 5 < m ) { n ) ! Q n n I v > 8 x F c u i x g G ( G u @ ",
"@ M H.H.H.H.B.B.H.H.B.N.j.r.7.<.,.,.<.,.,.,.>.>.#.#.,.4.r.x.x.N.N.x.y.7.>.5 < m _ { m _ ! R m v Y m > 8 c K c u z i i N ( J u @ ",
"@ f <.6.6.7.7.7.7.r.r.9.7.,.$.#.#.@.@.@.@.@.@.@.^ G G ^ @.&.<.&.[ ( o.@.%.5 < I ] { m ] _ T Y j Y m , 8 x ^ c u z i u x ( J u @ ",
"O = 5 2 5 5 5 5 5 5 5 4 4 4 , , 4 , , , , = = > , , 2 , < 4 4 4 5 5 5 5 5 & < Y ] { n ] _ I T v m m : 8 z / c i c x x z ( K p @ ",
"O > u t t t t t t t t t t 8 t t t y y y 8 2 2 2 2 8 8 y i z z k d y t t t = < I { ] n { Q m T n n m : 8 z / G k c x G x / K p @ ",
". 2 F F x z z z Z F J ^ ^ ^ ^ ^ / ( ( / ^ H G G G J K ^ / ( ( / J c Z Z z & < m { _ n _ T U m m j m : 2 z ^ ^ g c x F x J K p @ ",
". 5 ( ( ( ( ( ( ( ( ( ( ( / K G F M c N G G G H H G F c c c G K ( ( ( / c ; < m ] Q n T m I v Y b b : 2 p K ( z x z c c G ^ p @ ",
"X < / ( / ^ J J G F c x z c c c x x x x x c c c x x x x x x z g z c N x z ; < m _ T m m b I n T m I : < u G ( z c c z x F / g @ ",
". = d x c x z z x z g u z N F c x z x x x G J H G c z d i i d z x x x x z = < v ! U T n b T T Y U T : 1 u Z / z G G z x N / z @ ",
". ; d x c x x c N c z i x x x x c G J K J G F J ^ ^ K J G G N F G x d g z - < n E I T n n Q R U R T : , t x / z J G x x N ( z @ ",
". , z z d i u u u u i z c Z Z c c F G K / ( ^ F x z x c F F N N N N c c z > < m T T R n j R { U Q T : > t x ^ x / G x x F / z @ ",
". > x c c c x z d i u y y i z x N c c c c F F c x z z i y i i i i d z z 8 & 3 Y T T R b j I } Q Q R : > t c J N / F c x J K i @ ",
"@ y ^ ^ J G N N c c F F H K / ( ( / ^ K K ^ ^ / ( ( ( ( / ^ J J J K / ( J ; 3 T T T U n m n ] _ W Q < > y F ^ G ^ G F x J F u @ ",
"@ y ^ / / ( ( ( H N K K K J H F x g i i d z x x x z z x c F G G J J ^ ^ G ; 3 T T T n v m n R _ R ] 3 > u G J G G J F x J F t @ ",
"@ 8 z z z z x x z i i p i i u u u u u t t t t t 6 2 2 2 2 2 2 2 2 5 5 t y * 3 T R I v e m b m E T { 3 - t J J x c / F x J F u @ ",
". & > > > > > > > > > > > = = & & & & % $ # # # # # # # # # # # # # # # & $ < m R m e m m U m Y R ] 3 & t J ^ g x / c c J G u @ ",
"@ 1 2 8 8 t y t & i d y 2 & q 3 q e e e = 4 0 e e 7 & a D p p V V V 2 t S 2 < m E h m n m R m m E Q : & 8 G ^ i c ^ x x G J u @ ",
"@ 2 i J F x z z 8 J ( G 2 % j j I T T T q {  . .W e > i.U.A.n.n.b.Z.P P V.S < T R e I w m R m n _ R : & 8 J ^ i Z J p c G J u @ ",
"@ 2 p / J x z z x N ( G , % n I Y T Y R j ) X. .! e > a.T.b.f.f.d.n.d.-.A.V 3 Q R n I e T R U n _ R : % t J ^ u F G i Z F ^ g @ ",
"@ 2 p / ^ z x z c x ( G > % I I T T I ! n m .. .] l > d.T.S.s.d.V.a.V.d.L.S 3 ) Q b ] T Q T m n T R < % y ^ H u G F i Z F / z @ ",
"@ 5 z ^ J z c F F g ( F > & T T I Y m ] I m ) | ] v > s.T.A.n.f.d.a.V.V.P.D 3 ) _ m .._ R Q b m m Q 3 $ u ^ N d G c i x F ( z @ ",
"@ 5 J ( F g c G F i / Z > & R R m m T ] Y I E { { v > s.Y.i.Z.Z.d.d.s.A.A.A 3 _ { U { T Q ! n U b _ 4 $ i / x z F c g z G ( z @ ",
"@ 8 K ( z z z F Z i / c > = R T m m R ] m _ R _ { v > a.I.i.D.S.n.n.d.n.i.V 3 ! ..R ! m ] Q n Y m _ 4 # d / x g F F z g ^ / g @ ",
"@ 8 ^ ^ z z z F Z i / z 1 & T I m v R Q T  .R E { v > u.D.n.T.V.n.Z.s.d.:.V 3 Q  ._ R n _ R b Y I ! 3 # g ( Z z G F z z ( G g @ ",
"@ 8 ^ J z z z J x d ( k 1 & I T m v R R Q _ R T { v > ;.V.S.P.V.d.=.d.d.b.V 3 E  . .R v Q R m T m R < # z ( F z c z z F ( x u @ ",
"@ 5 J J z z x J z x ( i > % m ) m n T Q m b Y m ] v > -.n.S.S.C.n.d.V.f.n.S 3 T  .X.{ n T T Y T I T < $ x ( K d x z x F ( Z t @ ",
"@ 2 G K x z c H z N ( y > $ b { m m T R e e b m ] l > ;.V.S.S.S.C.d.d.n.n.S 3 I | X. .j I T R T b m , & x ( ( 8 x z c c ^ c t @ ",
"@ 2 c ^ x z G G k F ( y 1 $ b ] n U I Y h m h I E w > ;.V.C.V.f.p.L D V.d.A < n E R m 4 l m m m 7 v : 1 z G H < i z z z z u t @ ",
"@ 2 x ^ x x ^ F z F / y 2 % I _ m U m Y m m h R Y l & p V 5 & % $ $ & t V r = : = % % % = : : ; & : = > > > > & = > > ; = & ; @ ",
"@ 2 x ^ x c / N c N / i 2 % T ) I T b T j h m R Y n # , x M M B B B M x x x c N M M M B B B M x M M M M B G B G G G B B M M f @ ",
"@ 2 z / x N / x J N ^ i 2 & T ) T ) n Y j v m R T v # > G ,.9.h.h.t.9.<.*.@.<.7.<.,.,.3.<.<.,.#.#.$.<.9.j.k.j.t.j.k.j.j.h.q.( @ ",
"@ 2 z / x F J N / G ^ i 8 % I _ T { b m b n T R T v # y w.B.H.H.N.N.N.H.H.N.B.N.j.7.3.>.@.( ( ^ @.3.7.9.7.<.7.k.B.B.x.j.N.H.+.@ ",
"@ 2 Z / z F N ^ ^ G J u 8 % m ] T ..T n n U R T T v # g k.G.j.<.$.#.@.@.#.*.$.&.#.@.@.#.*.6.9.<.( ( #.@.( O.` ` @.#.` @.$.9.o.@ ",
"@ 5 J / z c c / J G F y t % b ! Y ] ! n h T T T T e # f 9.r.r.j.j.j.r.h.h.h.t.9.7.4.4.9.j.l.x.x.j.<.@.$.3.,.>.#.@.#.#.,.<.<.^ @ ",
"@ 8 K ^ g x F / c G F y t % n Q T R _ m h T Y T m w # s <.r.7.,.*.*.*.,.,.<.7.7.<.$.$.*.$.$.&.&.$.,.,.*.4.#.*.3.,.@.` $.@.#.B @ ",
"@ 8 ^ ^ g x N J x J G y t % n R m T R I h Y m Q m w # 9 @.@.( #.,.<.<.3.<.<.,.#.$.,.>.@.*.3.3.<.<.,.,.O.#.<.*.<.>.( ( #.>.<.^ @ ",
"@ 5 J ^ d x c G z K K i t & v U I T I m j T b _ Y w # , ^ ,.*.@.` @.*.7.$.@.O.,.,.` ~ N ( 3.3.#.#.$.<.3.@.` @.O.#.$.@.,.<.,.G @ ",
"@ 2 J ^ z c x x z K ^ g u & v b T v I I b Y m ] T w # f k.H.G.v.j.q.9.r.4.#.,.,.<.,.#.@.#.@.@.$.*.#.@.$.,.,.,.,.<.,.,.#.^ G s @ ",
"@ 2 G / z F z x x G ( x u & l v m n Y I R Y Y { R w # f k.G.K.K.K.K.K.G.v.r.6.,.,.,.$.$.>.>.>.*.#.#.*.#.,.3.7.7.r.j.x.j.r.3.( @ ",
"@ 2 F ( x H x x c x ( c u & h n v Y I T ] Y R { Q w # f q.k.j.g.g.g.g.x.x.x.j.r.3.,.,.,.,.,.,.,.>.#.( ~ ` >.7.j.j.r.4.<.,.<.( @ ",
"@ 2 F ( c c x c x k / F u = h U e Y m E { T Q { Q w # 4 N F F G G J ~ ~ ~ J G F M M x c c c x s s x x x f f x c c x x x M M f @ ",
"@ 2 F ( F g z c z d ^ F u = v U n m m ) ] T Q { Q w # & , 1 1 1 1 1 1 1 > > > > > - = = = = & & & & & = - > , < 2 2 2 1 , , > @ ",
"@ 2 F ( K i u z i g J J u ; v I m b I ] ) T Q ] W w # , z z p u u u p z x c c c F F G G J G c z g g z x Z F J J J F z i p p 8 @ ",
"@ 2 c ( ^ g z z t g F J u = h m m n I { Q R Q _ R w # < K / K J J J ^ / ( ( ( ( ( / ^ ^ ^ ^ / ^ ^ ^ ^ ^ ^ K J ~ / ( / ^ ^ J 5 @ ",
"@ 2 z ( / z c x 8 z F c u = h m Y j Y { R R R ! R w # < ^ ' ( ( ( ( ( ( ^ ^ G c x z z g g z z z x x x x x c x z z c J ^ ^ F 9 @ ",
"@ 2 z / ( z Z x t z Z K p = e b T j Y ] R Q R Q E w # , G J J c z z g g d i g F G F x x x c c F F c c x z z z z x z g z z x y @ ",
"@ 2 i K ( z x x t x G ( z = e n Y b Y R Q Q T Q E w # & 8 z x x x c c c z u z x x z x c F F c G K ^ ^ K F x z z z x c x z z y @ ",
"@ 2 u J ( x x z u c J ( z = e v b Y I m Q _ I R Q e # 1 z z z z z z z z z z c c x x c G K / / J G c c F G G G G F G G x z x y @ ",
"@ 2 i J ( F x z d c K / p ; h b n I T b Q ..m T ) e # , x x x z g y t t u u d z z z z z z x G J J F z g d d z x x x x x z i > @ ",
"@ 2 p ^ ( G c z z c / ^ p = e m m m T n T  .T T ] e # > G G x x x c c x x z x x G ^ / / ^ K J J H G J K J H N z d g z c G F y @ ",
"@ 2 z / ( G c z x N ( K i = w n b m R b m  .! R ..j # < ^ ( ( / ^ J F c H K ^ ( ( ^ J G F c F G J K K K K ^ ^ / / / ( ( ( ( g @ ",
"@ 2 x ( ( N g x c J ( K p = e w T U R m b | ] Q  .v # 1 Z F G J K ^ J x c N x x z z i u t t t t u y t 8 8 t i i z z x x c c y @ ",
"@ 1 y d d 5 , y 8 5 y y 8 = q < w e e 7 w v w q l q # > t 8 t t t t t t 8 8 8 5 2 2 2 2 1 1 > > > ; & & & & & % $ $ # $ % = , @ ",
"@ @ @ @ @ @ @ @ @ @ @ @ @ @ @ @ @ @ @ @ @ @ @ @ @ @ @ @ @ @ @ @ @ @ @ @ @ @ @ @ @ @ @ @ @ @ @ @ @ @ @ @ @ @ @ @ @ @ @ @ @ @ @ @ "
};
