/* XPM */
static char *result[] = {
/* columns rows colors chars-per-pixel */
"64 64 182 2 ",
"   c #040303",
".  c #090101",
"X  c #0C0B0B",
"o  c #120604",
"O  c #140A06",
"+  c #1B0C06",
"@  c #130D0C",
"#  c #1E0F09",
"$  c #16110E",
"%  c #1C120C",
"&  c #141313",
"*  c #1B1515",
"=  c #1F1A16",
"-  c #1B1B1B",
";  c #230F07",
":  c #230F08",
">  c #231007",
",  c #281107",
"<  c #21110B",
"1  c #2B150B",
"2  c #361304",
"3  c #381506",
"4  c #321608",
"5  c #3A1709",
"6  c #371909",
"7  c #3C1B0C",
"8  c #221710",
"9  c #251A12",
"0  c #2C1B11",
"q  c #221D1C",
"w  c #341E14",
"e  c #29201A",
"r  c #312117",
"t  c #382418",
"y  c #3A2619",
"u  c #3E291C",
"i  c #251F20",
"p  c #1E2020",
"a  c #232323",
"s  c #2C2626",
"d  c #2A2A2A",
"f  c #322C2C",
"g  c #333333",
"h  c #3A3434",
"j  c #3F3A3A",
"k  c #421E0D",
"l  c #411F11",
"z  c #44210E",
"x  c #4A230F",
"c  c #452212",
"v  c #4A2514",
"b  c #4D2815",
"n  c #452718",
"m  c #432A1B",
"M  c #4C2C1A",
"N  c #522D1B",
"B  c #4D321F",
"V  c #53321D",
"C  c #5B351B",
"Z  c #61371A",
"A  c #653B1C",
"S  c #6A3E1D",
"D  c #4B3222",
"F  c #4B3627",
"G  c #553623",
"H  c #5B3622",
"J  c #563924",
"K  c #5B3B25",
"L  c #5C3D28",
"P  c #413C3C",
"I  c #623623",
"U  c #633D26",
"Y  c #683C25",
"T  c #623F28",
"R  c #6D411F",
"E  c #70411F",
"W  c #5E422E",
"Q  c #654127",
"!  c #6F4321",
"~  c #65422B",
"^  c #6B452D",
"/  c #6E482F",
"(  c #744421",
")  c #7B4B24",
"_  c #794826",
"`  c #71452E",
"'  c #72492E",
"]  c #6C4630",
"[  c #6D4930",
"{  c #744C32",
"}  c #7A4E32",
"|  c #745036",
" . c #7C5235",
".. c #7C5439",
"X. c #4A4545",
"o. c #464B4C",
"O. c #4F4A4A",
"+. c #504C4C",
"@. c #555454",
"#. c #595555",
"$. c #5D5A5A",
"%. c #615D5D",
"&. c #5E6263",
"*. c #666262",
"=. c #696565",
"-. c #656B6B",
";. c #6E6B6B",
":. c #726E6E",
">. c #757272",
",. c #787676",
"<. c #7C7A7A",
"1. c #835127",
"2. c #855229",
"3. c #8A542A",
"4. c #945B2F",
"5. c #815537",
"6. c #825639",
"7. c #85593A",
"8. c #8A5C3D",
"9. c #915E3E",
"0. c #9D6233",
"q. c #A66737",
"w. c #A96836",
"e. c #8E5F42",
"r. c #915E40",
"t. c #8F6143",
"y. c #956342",
"u. c #996544",
"i. c #9C6846",
"p. c #9A6748",
"a. c #9B6A4A",
"s. c #A16C47",
"d. c #A26D49",
"f. c #A6714D",
"g. c #A9734D",
"h. c #A67150",
"j. c #AB7552",
"k. c #AE7A54",
"l. c #B17D56",
"z. c #B27E59",
"x. c #817F7F",
"c. c #B5825A",
"v. c #B9855D",
"b. c #BE8B63",
"n. c #C18E66",
"m. c #C28F68",
"M. c #7F8587",
"N. c #848383",
"B. c #858C8D",
"V. c #8A8A8B",
"C. c #938F8F",
"Z. c #8F9394",
"A. c #949494",
"S. c #96999A",
"D. c #9C9D9D",
"F. c #A09F9F",
"G. c #9B9FA0",
"H. c #9EA2A3",
"J. c #A3A3A3",
"K. c #A9A6A6",
"L. c #A6A8A8",
"P. c #ACACAD",
"I. c #B4B5B5",
"U. c #B6B9B9",
"Y. c #BBBBBB",
"T. c #C0BFBF",
"R. c #C3C3C3",
"E. c #C9C7C7",
"W. c #CCCCCC",
"Q. c #CFD4D5",
"!. c #D3D4D4",
"~. c #D7D8D8",
"^. c #DCDCDC",
"/. c #E2E2E2",
"(. c #E7E8E8",
"). c #EEEEEE",
"_. c #F0EFEF",
"`. c #EEF1F1",
"'. c #F4F4F4",
"]. c #F8F7F7",
"[. c #F7F9F9",
"{. c #FFFFFF",
/* pixels */
"@ ; ; > > > > > > > > : > > : ; > > : > > : ; ; + . . . . . . . . . . . . . . + ; > > > > > , > > > > > > > > > > > ; : : : : < ",
"> c b b b b b b b b b b b b b b b b b b b y w 7 4 . . . . . . . . . . . . . . > 4 4 6 z k z z z 7 z 3 7 7 z c 6 l 7 5 k k k l < ",
": C ' 6.y.p.a.p.y.8.7.7.r.y.y.r.u.u.i.u.y.w . . . . . . . . . .   . . . . . . . . . + ) S ) ) ) A Z x V ~  .{ W ~ L V } } ^ H : ",
": v y.c.b.b.b.b.  v.z.l.v.v.z.k.h.u.] ~ U < . . @ X.+.+.+.+.+.+.O.O.O.O.+.+.X.* . . o V b N R 2.E R x V ' J   [ ~ [ Q 8.8.{ J < ",
"# Y n.n.b.c.| = d = ..b.v.l.j.d.i.^ o . . . . . s L.I.I.I.I.I.I.I.I.I.I.I.I.K.f . . . . . . V ) E ) x V 9 e d & L [ [ e.8.[ J % ",
"# ^ v.c.k.g.W   g & F [ a.[ [ ~ w t . . . X.:.C.K.~.^./.^./.^./.^./.^./././.^.K.C.:.%.. . . # , b C x t - e g   W [ ~ e.8.~ J < ",
": Y k.l.c.c.W   j g & & c.      . . . . . ,.Y.[.{.{.{.{.{.{.{.{.{.{.{.{.{.{.{.{.].R.J.. . . . .   9 x   d g j   U ^ ~ 7.e.L J < ",
"# I h.d.0.p.J   g d &     h X . . g D.T./.'.].{.{.{.{.{.{.{.{.{.{.{.{.{.{.{.{.{.{.].'./.E.J.j . o       p f g   L ^ Y ..7.~ J < ",
": k Y 5.8.y.L   d     X f f X . q +.Y.^.{.{.{.{.{.{.{.{.{.{.{.{.{.{.{.{.{.{.{.{.{.{.{.{./.Y.$.q X . d     & a   U / T ..7.^ G < ",
": Y l.z.l.h...D &       & . . = I.W.[.{.{.{.{.{.{.{.{.{.{.{.{.{.{.{.{.{.{.{.{.{.{.{.{.{.{.[.!.I.h . . .   X - 0 L [ ~  .8.{ G < ",
": ` m.m.n.m.b.b.      X @ . h @.W.^.{.{.{.{.{.{.{.{.{.{.{.{.{.{.{.{.{.{.{.{.{.{.{.{.{.{.{.{.^.W.*.j . .       H U ^ Q { e.} K : ",
": ` b.m.m.m.b.n.b.      . . D.Y.{.[.{.{.{.{.{.{.{.{.{.{.{.{.{.{.{.{.{.{.{.{.{.{.{.{.{.{.{.{.{.{.E.P.. . . % ] G Q L L ' 8.} H * ",
": Y h.h.h.j.j.j.j.k.w . . . Y.^.{.{.{.{.{.{.{.{.{.{.{.{.{.{.{.{.{.{.{.{.{.{.{.{.{.{.{.{.{.{.{.{./.!.. . . m ^ K ~ K K ^ r.5.K < ",
"# l N b < v N N N N 1 . . . /.{.{.{.{.{.{.{.{.{.{.{.{.{.{.{.{.{.{.{.{.{.{.{.{.{.{.{.{.{.{.{.{.{.{.{.. . . m ^ U { ~ ~ 0 8...L < ",
": l V D X m D G m < O . X.<.'.{.{.{.{.{.{.{.{.{.{.{.{.{.{.{.{.{.{.{.{.{.{.{.{.{.{.{.{.{.{.{.{.{.{.{.<.@.. # 0 M [ L L X { | L : ",
"# b F   g X 0 ~ G . . . ;.Y.].{.{.{.{.{.{.{.{.{.{.{.{.{.{.{.{.{.{.{.{.{.{.{.{.{.{.{.{.{.{.{.{.{.{.{.Y.<.. . . u [ r   g   K L % ",
"# N L   g g p   Q . . . C.{.{.{.{.{.{.{.{.{.{.{.{.{.{.{.{.{.{.{.{.{.{.{.{.{.{.{.{.{.{.{.{.{.{.{.{.{.].K.. . . n   = g g   J L < ",
"# N L   d g f - O . & d J.{.{.{.{.{.{.{.{.{.{.{.{.{.{.{.{.{.{.{.{.{.{.{.{.{.{.{.{.{.{.{.{.{.{.{.{.{.{.U.f = . X p d g d   L ~ < ",
"# k m   d g g . . . X.L.~.{.{.{.{.{.{.{.{.{.{.{.{.{.{.{.{.{.{.{.{.{.{.{.{.{.{.{.{.{.{.{.{.{.{.{.{.{.{./.L.$.. . . g g d   L ~ % ",
"# k m . d g g   . . O.I./.{.{.{.{.{.{.{.{.{.{.{.{.{.{.{.{.{.{.{.{.{.{.{.{.{.{.{.{.{.{.{.{.{.{.{.{.{.{./.I.*.. . . g g d   L ~ : ",
"# O     d d f   . . O.I.^.{.{.{.{.{.{.{.{.{.{.{.{.{.{.{.{.{.{.{.{.{.{.{.{.{.{.{.{.{.{.{.{.{.{.{.{.{.{./.Y.*.. . . d d d     @ < ",
"  p p -   a d . . . O.I./.{.{.{.{.{.{.{.{.{.{.{.{.{.{.{.{.{.{.{.{.{.{.{.{.{.{.{.{.{.{.{.{.{.{.{.{.{.{.(.I.*.. .   d d   - p a   ",
"  a a a - - - . . . O.P./.{.{.{.{.{.{.{.{.{.{.{.{.{.{.{.{.{.{.{.{.{.{.{.{.{.{.{.{.{.{.{.{.{.{.{.{.{.{.(.Y.*.. . . - - & a a a   ",
"  p d g g     . . . $.L.Y.!.{.{.{.{.{.{.{.{.{.{.{.{.{.{.{.{.{.{.{.{.{.{.{.{.{.{.{.{.{.{.{.{.{.{.{.{.[.Y.I.*.. . .   X g h d p   ",
"  a d d g g g . . . $.L.I.E.[.{.{.{.{.{.{.{.{.{.{.{.{.{.{.{.{.{.{.{.{.{.{.{.{.{.{.{.{.{.{.{.{.{.{.{.].I.I.%.. . . d d g d a a   ",
"  & X   d g g . . . O.S.K.Y.{.{.{.{.{.{.{.{.{.{.{.{.{.{.{.{.{.{.{.{.{.{.{.{.{.{.{.{.{.{.{.{.{.{.{.{./.K.V.+.. . . g g d   & &   ",
"O @ & - d d d X X . h N.S.U.{.{.{.{.{.{.{.{.{.{.{.{.{.{.{.{.{.{.{.{.{.{.{.{.{.{.{.{.{.{.{.{.{.{.{.{.T.F.>.P . X X d d d - @ & @ ",
"> @ & a a a a a * . . g >.I._.{.{.{.{.{.{.{.{.{.{.{.{.{.{.{.{.{.{.{.{.{.{.{.{.{.{.{.{.{.{.{.{.{.{.{.U.<.. X . & a a a a a * % > ",
"% M m           . . . . $.J.W.{.{.{.{.{.{.{.{.{.{.{.{.{.{.{.{.{.{.{.{.{.{.{.{.{.{.{.{.{.{.{.{.{.{.].J.;.. . .             L L < ",
"< M W 7.6.Q y   & . . . O.V.I.{.{.{.{.{.{.{.{.{.{.{.{.{.{.{.{.{.{.{.{.{.{.{.{.{.{.{.{.{.{.{.{.{.{.E.V.$.. . . @   u L ] [ 7.~ < ",
"% N ~ 7. .Q u   & & X . q j K.!.[.{.{.{.{.{.{.{.{.{.{.{.{.{.{.{.{.{.{.{.{.{.{.{.{.{.{.{.{.{.{.{.].I.f q . X & &   u K ^ { 8.~ < ",
"< N | 8.' Q u   - - @ . . & J.P.[.{.{.{.{.{.{.{.{.{.{.{.{.{.{.{.{.{.{.{.{.{.{.{.{.{.{.{.{.[.{.[.Y.P.. . . $ - -   u T ~  .8.~ < ",
"> V ..7.~ ~ y   d d * . . . V.H.U.{.{.{.{.{.{.{.{.{.{.{.{.{.{.{.{.{.{.{.{.{.{.{.{.{.{.{.{.{.{.~.H.S.. . . & d d   u ~ Q 7.7.T < ",
"< V 7.6.~ ~ Q {   d = X . . ;.G.H.P.[.{.{.{.{.{.{.{.{.{.{.{.{.{.{.{.{.{.{.{.{.{.{.{.{.[.{.{.~.H.H.<.. . . & d   { { ~ ~ 7. .L < ",
"< G 6. .~ ~ ~  .  - - & X . @ @.H.H.U.[.{.{.{.{.{.{.{.{.{.{.{.{.{.{.{.{.{.{.{.{.{.{.{.{.{.(.J.H.V.& . X - - -   [ ~ ~ { 8.^ J < ",
"% V  . .~ ~ ^ |   X & X X . . - H.H.H.P.{.{.{.{.{.{.{.{.{.{.{.{.{.{.{.{.{.{.{.{.{.[.{.[.~.J.H.H.o.. . . X & X   ^ Q ] [ e.[ G < ",
"< M { 6.^ Q /  .            . . @ B.H.H.I.'.{.[.{.{.{.{.{.{.{.{.{.{.{.{.{.{.{.{.{.{.{.Q.J.H.S.j . .             ^ Q ^ ^ 6./ G > ",
"< M / 6.^ ~ m   g d d g g g - & . - M.S.H.P./.(./.[.{.{.{.{.{.{.{.{.{.{.{.{.[.'.[.`.I.H.H.B.p . @ - g g g d d g   t ^ ^ Q G G % ",
"% M / 6.^ ^ 6.'   .             . . . . a D.L.K.Y.'.[.{.{.[.{.[.{.[.{.].{.[.[.).W.J.H.V.j   . . .               k z k k k 7 z < ",
"> M ^ 6.Q / 7./ m f 9   - p p p @   . . . - &.D.D.J.I.W.W.W.W.W.W.W.W.W.W.Y.K.,.M.Z.-.. . .   @ - - - -   = m m } } } } ' ` U < ",
"< M ~ 6.^ / 6./  .{ t X g g g d d   . . . . . . X.N.V.P.P.I.P.I.I.P.P.P.I.A.<.g . O . .   .   d f g d g X F c.z.c.c.c.z.z.l.8.: ",
"% M ] 7.^ {  .' 7.} t X a g d d d   X X . . . . o q s f f f f s f f f f s s q X . . . @ X &   d g g g a X D j.c.n.n.b.z.n.n.y.< ",
"< M [ 7.Q / ' ..6.{  .G   - & & -   & X . . . . . . . . . . . . . . . . . . . . . . . & & &   - - & -   ..r.r.9.0.u.r.r.p.k.e.# ",
"< V  .6.Q ^ / 8.{ { D %   X X X       X . . @ ).E.* . . . . . . . . . . . . .       X & X     X X X X   r ~ s.i.y.u.u.d.f.h.7.< ",
"> V  .6.~ ^ / 7./ L r X X X & X X X   X . . @ _.^.:.*.*.*.*.*.*.*.%.X.f . . . .     @ & X   X X X & X X X f 5.f.d.r.r.u.y.u.} : ",
"> V 6.6.Q ^ '  .~   p g d g g g d g X . . . $ _.{.{.{.{.{.{.{.{.{.].Y.,.. . . . . . . & X X g d d g g d f p . d.d.8.9.u.d.f.6.: ",
"< V  .6.Q ^ / { ~ 6.t                   . . @ W./.[.{.{.{.{.{.{.{.[./.T.V.:.%.q . . . @                 . m r.r.u.s.u.d.g.d.} < ",
"> M | 6.Q ^ ^ ^ ~  .| D D   - a d a X . . . @ L.R.].{.{.{.{.{.{.{.{.{.{.{.!.P.h . . . .   X a d d -   7.9.r.f.f.d.d.s.u.7.} I < ",
"< M { 8.~ ' ~ ^ ^ | 8.^ J + = p f d & X X   . P %.R.~.{.{.{.{.{.{.{.{.{.{.'./.Y.K.x.:.. . @ a g p q u i.d.h.j.j.l.c.v.c.l.f.8.< ",
"< M { 8.^  ./ ^ / ^ 8./ J 7 8 X a d d p   X . . s K.E.{.{.{.{.{.{.{.{.{.{.{.{.{.].T.J.. . . a g X e 7.5.r.d.j.c.c.l.j.d.d.f.8.< ",
"> M { t.{ ^ ^ [ ^ Q 7.' K 7 8 X d g d -   & & . . @ @ * * * * * * * * * * * * * q J.J.. . . a s X < ` ^ Y Y Y ^ ` ^ ` ^ ] ` Y : ",
"< B [ 8.{ T ~ ^ Q Q ..| C 7 R R   g d p   p - X X . . . . . . . . . . . . . . . o N.N.. . X a   1 7 5 k l l v b b b b v v v c # ",
"< M [ 8...W K ~ K Q |  .W z E R   f d -   a p e = . . . . . . . . . . . . . .   . . . . X d d   D Y ~ ] ] {  .6. .| ] L L L G : ",
"> M [ e.6.Q ~ ~ V Q {  .C 7 R A   d d -   p p p - & @ @ X . . . . . . . @ @ @ @ @ . . . & d d   ~ 6.6.6.6.....6.7.8.6. .7...N : ",
"% M ^ 7.7.~ / ^ V ~ / / W 7 R ) )   & - -   p p a a i p @ . . . . . . @ a p p p i . . - - &   ~ ] ] ^ ^ ] ] ^ T ~ /  .5...{ G < ",
"< M Q 7.7.~ [ ^ V ~ /  .W 7 R ) 2.                    . . . #.=.=.$.. . .                     { [ { ] ~ T T T ~ ^ Q Q ~ ~ ^ H < ",
"> M K  .7.~ ^ ^ J / { 8.W 7 R E 1.N O   $ & p p - - & . . . F.U.Y.J.@ . . & - - - - & & X X B {  .7.7.5.' ^ ~ ~ ~ / ^ ^ ~ ~ H > ",
"> M K  .8.^ ^ ~ J ^  .8.W z R E ) 1.$ X & & e p a a a * O . f X.W.^.V.#.. . @ - p e & & X $ 7. .' / / ' { |  .{ ' ' { ^ ~ ^ H < ",
"> M K  .9.[ ^ ~ W /  .7.W z R E E 1.+                   . . . q W.).K.;.. . .             @ {  . .' Q Q Q W Q ~ ^ ^ ^ ^ ~ U c < ",
"% B W 6.8. ./ ~ Q ^ 7.6.K z R 1.) ) 2._ 2.w.2.2.0.S 2 c u . . * A.J.O . . m ^ ^ { 7.7.7.6. . . . . . . . .} ' ~ Q Q ~ / { { K < ",
"> M ~ 7.8. ./ ~ ^ ' 8...K z A E ) ) 3.) ) w.4.3.q.R 2 b K w . @ *.:.X O 0 L 6.8.8.6...| ' ' ' |  ..... .5.5.6.7.7.8.7.e.8.8.Y % ",
"> M ] 8.8.' Y ^ / | 9.6.K z R R 3.1.3.) ) q.0.4.w.( 2 b ] { @ . . . . 0 ^ / ^ ^ ~ ~ L G G G J G C G J C V G K U T ~ ~ ] ] { H < ",
"* v G U L V b H V V W C V 7 C x A A S C A ( S Z ! Z 2 7 B B 0 < o . < w M G V B M M M M M n v c c c 7 7 7 7 7 3 3 3 3 3 7 7 v < ",
": < : # > > % % > > < % > > > , < < : < < < < < < < < < < : : # o . < < < < < > > % > > % > % > % > % > < < % < < : < < : < < < "
};
