/* XPM */
static char *f25eea3bbb244bc4f4d1e336fd25be19LtO4uWeYxykImplo[] = {
/* columns rows colors chars-per-pixel */
"64 64 189 2 ",
"   c #030000",
".  c #090101",
"X  c #0F0808",
"o  c #110603",
"O  c #150A05",
"+  c #1B0C06",
"@  c #130B0B",
"#  c #1D0E09",
"$  c #1F110A",
"%  c #171010",
"&  c #1B1414",
"*  c #1E1818",
"=  c #230D06",
"-  c #2B0E03",
";  c #230F08",
":  c #231007",
">  c #21110B",
",  c #29150A",
"<  c #2C140A",
"1  c #361304",
"2  c #3B1607",
"3  c #31170E",
"4  c #3B1709",
"5  c #341C0E",
"6  c #3D1B0B",
"7  c #2D1A11",
"8  c #231D1D",
"9  c #321D14",
"0  c #38200F",
"q  c #352015",
"w  c #3B2214",
"e  c #3E2619",
"r  c #242020",
"t  c #2B2525",
"y  c #2F2929",
"u  c #342D2D",
"i  c #353233",
"p  c #3B3535",
"a  c #3C3939",
"s  c #421E0D",
"d  c #411F11",
"f  c #44210E",
"g  c #4A230F",
"h  c #442312",
"j  c #4A2514",
"k  c #4D2815",
"l  c #492618",
"z  c #452B1C",
"x  c #4C2C1B",
"c  c #502F17",
"v  c #522D1A",
"b  c #4C301E",
"n  c #5C3317",
"m  c #53321D",
"M  c #5A351C",
"N  c #603617",
"B  c #60371A",
"V  c #653B1C",
"C  c #6A3E1D",
"Z  c #4E3221",
"A  c #553522",
"S  c #5A3622",
"D  c #573823",
"F  c #5B3B25",
"G  c #5D3D29",
"H  c #423D3D",
"J  c #623623",
"K  c #633D26",
"L  c #683D23",
"P  c #623F29",
"I  c #6E411F",
"U  c #70421F",
"Y  c #5C412E",
"T  c #644027",
"R  c #6D4221",
"E  c #65422A",
"W  c #6B452D",
"Q  c #6E482F",
"!  c #744521",
"~  c #784722",
"^  c #764924",
"/  c #7C4B24",
"(  c #72452D",
")  c #71492E",
"_  c #7B4A2D",
"`  c #6D4730",
"'  c #6D4930",
"]  c #744C32",
"[  c #794E33",
"{  c #775135",
"}  c #7C5235",
"|  c #7E5438",
" . c #474343",
".. c #4A4545",
"X. c #4D4A4A",
"o. c #524D4D",
"O. c #4F5051",
"+. c #545151",
"@. c #595555",
"#. c #5C5B5C",
"$. c #615E5E",
"%. c #656262",
"&. c #696666",
"*. c #65696A",
"=. c #6C6B6C",
"-. c #706E6E",
";. c #6F7677",
":. c #757171",
">. c #7D7C7C",
",. c #824E27",
"<. c #824F28",
"1. c #855229",
"2. c #88542A",
"3. c #8B552B",
"4. c #945B2E",
"5. c #985C2F",
"6. c #815537",
"7. c #825639",
"8. c #85593A",
"9. c #8A5C3D",
"0. c #965D30",
"q. c #9A5F31",
"w. c #915E3F",
"e. c #9C6233",
"r. c #A36535",
"t. c #A96836",
"y. c #A66838",
"u. c #8E5F41",
"i. c #925E40",
"p. c #8F6143",
"a. c #956242",
"s. c #9A6544",
"d. c #9D6947",
"f. c #9A6748",
"g. c #9E6A49",
"h. c #A16C47",
"j. c #A26D4A",
"k. c #A6714D",
"l. c #A9724D",
"z. c #A77351",
"x. c #AB7652",
"c. c #AE7A54",
"v. c #B17C56",
"b. c #B17E59",
"n. c #817E7E",
"m. c #B5825A",
"M. c #B9855D",
"N. c #BE8B63",
"B. c #C18E66",
"V. c #C28F68",
"C. c #848383",
"Z. c #888686",
"A. c #8B8B8B",
"S. c #908F8F",
"D. c #8D9394",
"F. c #949494",
"G. c #999797",
"H. c #9B9C9C",
"J. c #A29F9F",
"K. c #9C9FA0",
"L. c #9DA2A4",
"P. c #A2A3A3",
"I. c #A9A7A7",
"U. c #A2A7A8",
"Y. c #A6AAAA",
"T. c #ABAAAA",
"R. c #ABABAC",
"E. c #B0AEAE",
"W. c #AEAFB0",
"Q. c #ACB2B2",
"!. c #B4B4B4",
"~. c #B7BCBD",
"^. c #BABABA",
"/. c #C4C5C5",
"(. c #C9C7C7",
"). c #CDCCCC",
"_. c #D1CFCF",
"`. c #CDD1D1",
"'. c #D5D5D5",
"]. c #D7DADA",
"[. c gray86",
"{. c #DCDCDC",
"}. c #DFE1E1",
"|. c #E5E5E5",
" X c #ECECEC",
".X c #EEF1F1",
"XX c #F4F4F4",
"oX c gray99",
"OX c white",
/* pixels */
"@ ; ; : : ; : : ; : : ; : : ; ; : : ; : : + + + O . . . . . . . . . . . . . . O + + + > : : : : > > : : : ; ; ; ; ; ; ; ; ; ; > ",
"> h k k k k k k k k k k k k k k k k k k k o . . .                             . . . ; f s f f f 4 s 2 4 s s f 6 6 6 4 s s s 6 > ",
"> S ] 6.a.f.g.f.a.9.8.8.u.a.a.a.a.8.E E P o . . % H  . . . . . . . . . . . .H @ . . : m l m R / V V f m W { ] G E P m [ [ W A > ",
"# j p.m.N.N.N.N.N.M.m.c.M.M.b.x.l.] O o o       y P.T.T.T.T.T.T.T.T.T.T.T.T.H.8       X X O V 1.~ C g m ] 9.| Q E ' T 9.9.] D > ",
"# K N.B.N.m.c.x.x.v.m.M.M.v.l.u.A q . . . +.$.n.G.'.[.[.[.[.[.[.[.[.[.[.[.[.'.F.n.$.H . . . 3 h I ~ j m ] 9.] Q P ' ' 9.9.' A > ",
"> W M.m.x.l.k.k.j.j.j.j.j.h.d.} X         F.!.XXXXOXOXOXOXOXOXOXOXOXOXOXOXOXOXXXXXR.=.      . X ~ / j m ] 9.Q Q P W W 9.9.E A > ",
"> K x.v.m.m.c.x.x.c.b.m.b.x.7 >   i A.T.(. XXXOXOXOXOXOXOXOXOXOXOXOXOXOXOXOXOXOXOX.X|.(.I.Z.y   + , g m { 8.W W P W E 8.8.E A > ",
"> J l.h.a.s.d.h.j.h.d.j.j.g.. . X ..!.{.OXOXOXOXOXOXOXOXOXOXOXOXOXOXOXOXOXOXOXOXOXOXOXOX[.!.H X . o f m | 7.W P G W E 7.8.E A > ",
"# s L 6.9.s.h.l.l.v.l.j.z +   y H.^.XXOXOXOXOXOXOXOXOXOXOXOXOXOXOXOXOXOXOXOXOXOXOXOXOXOXOXXX^.H.%   o 7 | { Q D P Q E { 8.W A > ",
"> L b.m.v.k.g.d.j.x.9.] 9 . t +.(.{.OXOXOXOXOXOXOXOXOXOXOXOXOXOXOXOXOXOXOXOXOXOXOXOXOXOXOXOX[.(.H 8 . > D E W S G ] E { 9.] A > ",
"> ( B.V.B.B.N.N.N.M.E $ o . G.!.XXOXOXOXOXOXOXOXOXOXOXOXOXOXOXOXOXOXOXOXOXOXOXOXOXOXOXOXOXOXXXXXI.Z.. . + A Q D G W P ] 9.[ D > ",
"> ( B.B.B.B.N.N.B.B.Y . . . ).{.OXOXOXOXOXOXOXOXOXOXOXOXOXOXOXOXOXOXOXOXOXOXOXOXOXOXOXOXOXOXOXOX'.^.. . . Z Q D E G G ) 9.} D > ",
"> L k.z.z.x.x.x.x.v.G .     OXOXOXOXOXOXOXOXOXOXOXOXOXOXOXOXOXOXOXOXOXOXOXOXOXOXOXOXOXOXOXOXOXOXOX[.    . D Q D E F D W 9.} D > ",
"; s v x v v v v l 3 + . a @.OXOXOXOXOXOXOXOXOXOXOXOXOXOXOXOXOXOXOXOXOXOXOXOXOXOXOXOXOXOXOXOXOXOXOX X@.u . 9 e A Q W W E 9.| G > ",
"; h D A A A A A w . . . -.T.OXOXOXOXOXOXOXOXOXOXOXOXOXOXOXOXOXOXOXOXOXOXOXOXOXOXOXOXOXOXOXOXOXOXOXXXT.$.. . X z Q W ] W 8.| G > ",
"# x ] ] W E E E z .     H. XOXOXOXOXOXOXOXOXOXOXOXOXOXOXOXOXOXOXOXOXOXOXOXOXOXOXOXOXOXOXOXOXOXOXOXOX XZ.    . z Q W ] W } | G > ",
"# v 9.9.9.9.9.7.A . X @ E.OXOXOXOXOXOXOXOXOXOXOXOXOXOXOXOXOXOXOXOXOXOXOXOXOXOXOXOXOXOXOXOXOXOXOXOXOXOXG.@ X . z E E Q Q ] 7.G > ",
"$ k 8.8.8.6.} , + . ..Z.'.OXOXOXOXOXOXOXOXOXOXOXOXOXOXOXOXOXOXOXOXOXOXOXOXOXOXOXOXOXOXOXOXOXOXOXOXOXOX).C.p . + > Q E W ] 8.P > ",
"# s P W Q W E . . . &.^.|.OXOXOXOXOXOXOXOXOXOXOXOXOXOXOXOXOXOXOXOXOXOXOXOXOXOXOXOXOXOXOXOXOXOXOXOXOXOX|.^.o.. . . ] E W ) 8.E > ",
"# f P W Q W W . . . %.^.|.OXOXOXOXOXOXOXOXOXOXOXOXOXOXOXOXOXOXOXOXOXOXOXOXOXOXOXOXOXOXOXOXOXOXOXOXOXOX{.!.X.. . . ] W W ) 9.E > ",
"# l W E P F D . . . %.!.|.OXOXOXOXOXOXOXOXOXOXOXOXOXOXOXOXOXOXOXOXOXOXOXOXOXOXOXOXOXOXOXOXOXOXOXOXOXOX{.!.X.. . . ] W W ] 8.E > ",
"# h W Q Q Q W . . . %.!. XOXOXOXOXOXOXOXOXOXOXOXOXOXOXOXOXOXOXOXOXOXOXOXOXOXOXOXOXOXOXOXOXOXOXOXOXOXOX|.W.X.. . . ] Q W { | F > ",
"> S 7.7.} ] ) . . . %.^.).OXOXOXOXOXOXOXOXOXOXOXOXOXOXOXOXOXOXOXOXOXOXOXOXOXOXOXOXOXOXOXOXOXOXOXOXOX|.).T.@.. . . ] ] Q { ] D > ",
"> F 7.8.8.9.9.. . . %.!.!.OXOXOXOXOXOXOXOXOXOXOXOXOXOXOXOXOXOXOXOXOXOXOXOXOXOXOXOXOXOXOXOXOXOXOXOXOX).!.T.%.. . . } ] W { ] A > ",
"> m E E E W W . . . @.H.R. XOXOXOXOXOXOXOXOXOXOXOXOXOXOXOXOXOXOXOXOXOXOXOXOXOXOXOXOXOXOXOXOXOXOXOXOX/.T.H.@.. . . 8.] W { ] F > ",
"# 6 h h h h h . .   X.A.I.).OXOXOXOXOXOXOXOXOXOXOXOXOXOXOXOXOXOXOXOXOXOXOXOXOXOXOXOXOXOXOXOXOXOXOXOX^.P.F.... . . 8.Q Q { ] D > ",
"> l x m m A S w + . 8 i A.^.OXOXOXOXOXOXOXOXOXOXOXOXOXOXOXOXOXOXOXOXOXOXOXOXOXOXOXOXOXOXOXOXOXOXOXOX^.C.#.* . 7 z 7.W W [ { D > ",
"> x G } ] W W W w .     :.R.OXOXOXOXOXOXOXOXOXOXOXOXOXOXOXOXOXOXOXOXOXOXOXOXOXOXOXOXOXOXOXOXOXOXOX{.T.%.@   . z ' { P Q ] } F > ",
"> x G 8.} E E E z . .   &.H.{.OXOXOXOXOXOXOXOXOXOXOXOXOXOXOXOXOXOXOXOXOXOXOXOXOXOXOXOXOXOXOXOXOXOX^.H.#.  . . e ] ] G ` ] 7.P > ",
"> x G 7.7.E W W A , + . H #.!.OXOXOXOXOXOXOXOXOXOXOXOXOXOXOXOXOXOXOXOXOXOXOXOXOXOXOXOXOXOXOXOXOX XT.%.p . # 7 z ] ] F ` ] 8.E > ",
"> v W 7.} E Q ] Q D e . X @ !.[.OXOXOXOXOXOXOXOXOXOXOXOXOXOXOXOXOXOXOXOXOXOXOXOXOXOXOXOXOXOXOXOX~.I.8 X . z W G ] Q G W ] 9.E > ",
"> v { 9.] P Q ] ] G z .     I.Y..XOXOXOXOXOXOXOXOXOXOXOXOXOXOXOXOXOXOXOXOXOXOXOXOXOXOXOXOXOXOX{.U.G..   . A W E ] Q P E [ 9.E > ",
"> m | 8.E E E ] ' G e . . . F.L.~.XXOXOXOXOXOXOXOXOXOXOXOXOXOXOXOXOXOXOXOXOXOXOXOXOXOXOXOXOX'.U.U.C.  . . A W P ] ] E P 8.8.P > ",
"> m 7.7.E E E ] ' G E q o . ..K.H.^.OXOXOXOXOXOXOXOXOXOXOXOXOXOXOXOXOXOXOXOXOXOXOXOXOXOXOX{.H.K.C.H . o 9 ` ` E ] ] E E 9.[ P > ",
"> m 7.} E E E { W P 8.T + .   ;.R.H.(.XXOXOXOXOXOXOXOXOXOXOXOXOXOXOXOXOXOXOXOXOXOXOXOXOX].U.P.Q.i   . + E 9.] E Q E E ] 9.W D > ",
"> v } } W E W { E W 8.G 3 ;   r >.R.H.~..XOXOXOXOXOXOXOXOXOXOXOXOXOXOXOXOXOXOXOXOXOXOX}.H.P.U.%..   < - W 9.| P W E W ] 9.' A > ",
"> x ] | W E Q { E ) 8.F l 2 + O % *.L.L.~.|.OXOXOXOXOXOXOXOXOXOXOXOXOXOXOXOXOXXXOXOX'.Q.R.L.#.  O , j 4 W 9.9.m W E Q Q 7.Q A > ",
"> x Q 6.W E [ ] T ] 8.F l 2 V M     O.>.H.Y.`.XXXXOXOXOXOXOXOXOXOXOXOXOXOXOXOX'.).`.Y.=.#.X.    h M g l E ] { k G E W W E D A > ",
"> x W 7.W W 7.] E ] 8.F x 2 ,.1., +   * +.D.K.!./.{.|. X X X X X X X X X X|.'.!.T.A.=..     o + 4 g s h h h h 4 s h h f s 6 f > ",
"> x W 7.W Q 8.) Q ) 8.F x 2 3.4.^ v .     a #.X.o.F.T.(.(.(.(.(.(.(.(.(.(.P.F.>.%.i         z K W ( ( ( _ [ _ [ [ [ _ _ ( ( K > ",
"> x E 8.W ) 8.W } ) 7.G x 4 3.0.1.^ , , :       * @.=.n.n.n.n.n.n.n.n.n.n.%.#.t       . > e 8.s.s.d.k.c.m.m.m.b.m.m.m.m.m.c.9.> ",
"> x E 8.W ] } ) 8.] 6.G m 2 ,.q.1.e.~ ~ ~ .       X @ @ @ @ @ @ @ @ @ @ @ X .       . . A 8.8.8.a.l.x.c.x.k.x.m.N.N.M.m.N.B.p.> ",
"> x ' 8.E ] ) 6.6.[ { D m 2 / e.1.y.3.~ ~ w 5 5 ,                             H o.X   . P z.c.k.9.9.s.a.9.i.w.w.a.s.w.a.d.c.u.> ",
"> v { 8.E Q Q 8.{ ] ] S A 2 ~ 5.1.e.5.~ I 1.1.1.R X . . @ @ & & & & & & & & y  XOX%   . ' M.M.M.m.k.a.d.l.j.h.s.a.s.s.j.k.k.8.> ",
"> m | 6.P W ] 8.Q [ ] S A 2 ~ 4.1.3.q./ I h 5 0 ,        .:.H.J.J.J.J.J.J.J.I. XXX@ . . G d.d.d.d.j.j.g.l.s.g.l.j.a.w.d.a.s._ > ",
"> m 7.6.P W ) } W { [ S A 4 ~ 3./ 1.3./ B . . . X * 8 r F.'.OXOXOXOXOXOXOXOXOXOX|.@ . . G l.l.k.k.j.j.i.f.k.h.k.h.9.9.s.h.k.7.> ",
"> v } 7.P W Q ] E | | F A 4 ^ <.,.1.,.c :       8 >.H.^.[. XOXOXOXOXOXOXOXOXOX[./.@ . . A l.l.f.s.d.k.l.a.w.a.i.s.d.a.j.l.j.[ > ",
"> x { 7.E Q W W E | 7.P D 4 ! ~ 1.C R 5 . 8 8 y @.(.|.OXOXOXOXOXOXOXOXOXOXXX XT.A.@ o ; E a.a.d.g.s.a.d.j.j.j.j.l.j.j.s.8.[ J > ",
"> x ] 8.E ] W W W ] 9.W D 4 R ! / m + o . Z.P.[.|.OXOXOXOXOXOXOXOXOXOXOXOX'.^. .8 . 7 8.a.h.h.g.d.s.g.f.j.l.x.x.v.m.M.m.v.l.9.> ",
"> x ] 9.W { W W Q W 9.Q D 6 I ~ ! m . . . T./.'.'._.).).).).).).).).).).).G.C.*   , A j.j.j.j.j.h.s.9.6.w.h.x.m.m.v.l.k.j.k.8.> ",
"> x ] 9.Q Q W Q W T 8.] D s I <.C M . . . P.H.                                  o W W Q Q Q W L L L W W K K W Q Q W W W ( ( K > ",
"> x ] 9.] P E Q E P 7.] D s ! <.~ V 5 # . &.&..                               + ; d s s s s 6 4 6 6 6 d d h l j x x x l l l h > ",
"> x ] 9.| G D E G P { { D f ! ,./ ~ ,.M o     o o X . . . . . . . . . . X X + E ] ] ] [ } [ Q E P P E W ' ] { | } ] E F G G m > ",
"> x Q 9.7.P E E A P ] { D s I / / ~ ,./ m X o M m w = 3 > .         . 7 A A D 6.9.8.7.7.7.7.8.7.7.7.7.7.7.| } 7.8.9.8.6.7.{ v > ",
"> x E 9.8.E Q W m E ] Q D s I / 1.U 1.r.3.: > 5.3.V 1 k 9 . @ @ @ @ . z 8.6.] Q W E E P P E E E W W W W W Q W E E Q { 7.7.] M > ",
"> x E 8.9.E ' W A E ' | G s C ~ 1.U 1.e.3.L V 4.3.V - + O X =.>.>.=.. O , m P ] [ ] W W W Q Q ] ] Q Q W E E E E W E P E E W F > ",
"> x F | 9.E W W A W ] 9.E s C ~ 1.~ 1.3.4.4.1.4.3.B = . @ * E./.!.G.. . . b E W W E W Q ] ] Q ] | 8.7.| ] W E E E W Q W E E F > ",
"> x D } 9.W W E D Q { 9.E s C ! ~ 1.,./ 4.q.,.3.^ + . . $.G.|.).a 8 . 7 A P Q Q W W Q ] | 8.8.} ] Q Q ] ] ] ] ] ] ] ] Q E W S > ",
"> x F } 9.] W E P Q | 8.G f I ~ ~ ,.1.~ 4.r./ 1.^ + . . %.P. X(.*   . 7 D D P E E E E E E W ] } } ] E P P P E W W Q W W E G h > ",
"> x G 7.9.[ Q E E Q 8.7.G s C / / / 3.~ 3.t.3.1.e.C - .   . H.S.% . . w W E W W ] 7.8.8.7.| { { { ] { | } { ) E P P E Q ] ] S > ",
"> x E 8.9.] Q E W ) 9.| F s V ~ ~ / 3.~ / t.5.3.r.U - > + X &.$.@ X 9 Z { | 7.9.9.7.} ] ] Q ] ] { | | | | 6.7.8.8.8.9.9.9.9.P > ",
"> x W 9.9.) P W Q { 9.7.G s C C 3.<.3./ ~ y.e.4.t.! 1 l 7 . .   . + { W Q ) W W E E G D A A A A D F A m m A F G E E W W Q Q F > ",
"> l S K K v l S m v F F m s N k V C C n V ! C B R B 1 h 9 > . X > 7 A A m m m v x x x x l l h h h f 6 6 4 6 6 4 2 2 1 2 4 s l > ",
"> > > > > > > > > > > > > > > > > > > > > > > > > > > > > > . . # > > > > > > > > > > > > > > > > > > > > > > > > > > > > > > > "
};
