/* XPM */
static char *result[] = {
/* columns rows colors chars-per-pixel */
"64 64 182 2 ",
"   c #030202",
".  c #090101",
"X  c #0C0B0B",
"o  c #110604",
"O  c #150905",
"+  c #1B0B05",
"@  c #130C0B",
"#  c #1D0F09",
"$  c #16110E",
"%  c #1B120C",
"&  c #141313",
"*  c #1B1514",
"=  c #1F1A16",
"-  c #1B1B1B",
";  c #230F06",
":  c #2C0E02",
">  c #230F08",
",  c #231007",
"<  c #21110B",
"1  c #2D1409",
"2  c #361304",
"3  c #391607",
"4  c #3A1709",
"5  c #32190E",
"6  c #3D1B0C",
"7  c #221710",
"8  c #251A12",
"9  c #2B1B12",
"0  c #231D1D",
"q  c #321D13",
"w  c #2E2117",
"e  c #20201F",
"r  c #322116",
"t  c #382216",
"y  c #372519",
"u  c #3A2619",
"i  c #3E291C",
"p  c #232222",
"a  c #2B2525",
"s  c #2A2A2A",
"d  c #342D2D",
"f  c #333333",
"g  c #3B3535",
"h  c #3C3939",
"j  c #421E0D",
"k  c #411F11",
"l  c #44210E",
"z  c #4A230F",
"x  c #452312",
"c  c #4A2515",
"v  c #4D2815",
"b  c #492618",
"n  c #432A1B",
"m  c #4C2C1B",
"M  c #522D1B",
"N  c #4D321F",
"B  c #53311E",
"V  c #5B351B",
"C  c #603617",
"Z  c #61371A",
"A  c #643B1C",
"S  c #6A3E1D",
"D  c #4B3221",
"F  c #4B3627",
"G  c #553623",
"H  c #5B3622",
"J  c #563924",
"K  c #5B3B25",
"L  c #5C3D28",
"P  c #423D3D",
"I  c #623623",
"U  c #633D26",
"Y  c #683C25",
"T  c #623F29",
"R  c #6E411F",
"E  c #70411F",
"W  c #5E422E",
"Q  c #654127",
"!  c #65422B",
"~  c #6B452D",
"^  c #6E482F",
"/  c #734421",
"(  c #794826",
")  c #7C4B24",
"_  c #71452E",
"`  c #72492E",
"'  c #6D4630",
"]  c #6D4930",
"[  c #744C32",
"{  c #7A4E32",
"}  c #745036",
"|  c #7C5235",
" . c #7C5439",
".. c #474343",
"X. c #4A4545",
"o. c #4D4A4A",
"O. c #524D4D",
"+. c #4F5051",
"@. c #545151",
"#. c #595555",
"$. c #5C5B5C",
"%. c #615E5E",
"&. c #656262",
"*. c #696666",
"=. c #65696A",
"-. c #6C6B6C",
";. c #706E6E",
":. c #6F7677",
">. c #757171",
",. c #7D7C7C",
"<. c #824F27",
"1. c #835127",
"2. c #855229",
"3. c #8A542A",
"4. c #945B2F",
"5. c #815537",
"6. c #825639",
"7. c #85593A",
"8. c #8A5C3D",
"9. c #915E3E",
"0. c #9D6233",
"q. c #A66737",
"w. c #A96836",
"e. c #8E5F41",
"r. c #915E40",
"t. c #8F6143",
"y. c #956242",
"u. c #996544",
"i. c #9D6847",
"p. c #9A6748",
"a. c #9B6A4A",
"s. c #A16C47",
"d. c #A26D49",
"f. c #A6714D",
"g. c #A9734D",
"h. c #A67150",
"j. c #AB7552",
"k. c #AE7A54",
"l. c #B17D56",
"z. c #B27E59",
"x. c #817E7E",
"c. c #B5825A",
"v. c #B9855D",
"b. c #BE8B63",
"n. c #C18E66",
"m. c #C28F68",
"M. c #848383",
"N. c #888686",
"B. c #8B8B8B",
"V. c #908F8F",
"C. c #8D9394",
"Z. c #949494",
"A. c #9A9797",
"S. c #9B9C9C",
"D. c #A29F9F",
"F. c #9C9FA0",
"G. c #9DA2A4",
"H. c #A2A3A3",
"J. c #A9A7A7",
"K. c #A2A7A8",
"L. c #A6AAAA",
"P. c #ABABAB",
"I. c #B0AEAE",
"U. c #AEAFB0",
"Y. c #ACB2B2",
"T. c #B4B4B4",
"R. c #B7BCBD",
"E. c #BABABA",
"W. c #C4C5C5",
"Q. c #C9C7C7",
"!. c #CDCCCC",
"~. c #D1CFCF",
"^. c #CDD1D1",
"/. c #D5D5D5",
"(. c #D7DADA",
"). c #DBDBDB",
"_. c #DFE1E1",
"`. c #E5E5E5",
"'. c #ECECEC",
"]. c #EEF1F1",
"[. c #F4F4F4",
"{. c #FFFFFF",
/* pixels */
"@ ; , , , , , , , , , , , , ; ; ; > ; > , + + + o . . . . . . . . . . . . . . + + + + ; , , , , , , , , < , , , , , , > > > > < ",
", x v v v v v v v v v v v v v v v m v v v o . . . .       .           .       . . . ; j j z z l 6 l 3 6 l 6 l 4 6 6 4 j k j j < ",
"> H ` 6.t.a.a.p.y.8.7.7.y.y.y.r.y.7.! T U O .   * P ........................P @   . 1 M z M E ) A A l B ! | [ W ! W B { { ~ G > ",
"> c y.c.b.b.b.b.  v.c.k.c.v.z.k.j.} O o o       a D.P.P.P.P.P.P.P.P.J.P.P.P.S.0       . . O R ) E R z B ^ J   ^ ! ] Q 8.8.[ K < ",
"# Y n.n.n.c.} 0 s 0  .v.v.z.g.t.G q . . . @.%.,.A./.).).).).).).).).).(.).(.~.V.x.%.P . . . 5 x E / x B 8 w s $ L ] ] 8.8.] J % ",
"> ~ v.c.j.g.W   f & F ] a.] ] J X .       Z.T.[.[.{.[.{.{.{.[.{.{.[.{.{.{.{.{.[.].U.*.      . . B V z y - p h   T ' ~ e.8.! J < ",
"# U k.l.c.c.W   f h - $ z.        d B.P.Q.`.[.{.{.{.{.{.{.{.{.{.{.{.{.{.{.{.{.{.{.'.`.Q.J.N.a . . O z   s f h   L ~ ! 7.8.T J > ",
"> I g.s.0.p.J   h p &     f . . o O.T.).{.{.{.{.{.{.{.{.{.{.{.{.{.{.{.{.{.{.{.{.{.{.{.{./.T.P X . .     p s f   T ~ ! 6.7.T G * ",
"> j Y 5.8.y.L   p     X - o   a H.E.[.[.{.{.{.{.{.{.{.{.{.{.{.{.{.{.{.{.{.{.{.{.{.{.{.{.[.[.E.S.@ . X     & s   L ^ T  .7.! G < ",
"> Y z.z.l.h. .D -     X X   a @.Q.).{.{.{.{.{.{.{.{.{.{.{.{.{.{.{.{.{.{.{.{.{.{.{.{.{.{.{.{.(.Q.P 0 .     X & 9 K [ Q | 8.[ J < ",
"> _ n.m.m.m.b.b.      . . . A.T.[.[.{.{.{.{.{.{.{.{.{.{.{.{.{.{.{.{.{.{.{.{.{.{.{.{.{.{.{.{.[.[.J.N.. .       G T ~ U { r.{ J < ",
"< _ n.n.n.n.n.b.b.      . . !.).{.{.{.{.{.{.{.{.{.{.{.{.{.{.{.{.{.{.{.{.{.{.{.{.{.{.{.{.{.{.{.{.(.T.. . . 8 ~ H T L L ` e.| L < ",
"< I h.h.h.j.j.j.j.k.9 .     [.{.{.{.{.{.{.{.{.{.{.{.{.{.{.{.{.{.{.{.{.{.{.{.{.{.{.{.{.{.{.{.{.{.[.).    . G _ G ~ L J T 8.5.K > ",
"> k M v , m M M b 5 O . g #.{.{.{.{.{.{.{.{.{.{.{.{.{.{.{.{.{.{.{.{.{.{.{.{.{.{.{.{.{.{.{.{.{.{.{.].#.d . q n G ] ' ! 8 8. .L > ",
"> k G m X n D G q o . . ;.L.{.{.{.{.{.{.{.{.{.{.{.{.{.{.{.{.{.{.{.{.{.{.{.{.{.{.{.{.{.{.{.{.{.{.{.[.J.%.  . X m ~ T L X [ } L < ",
"> m F   f   w ~ m .     S.'.{.{.{.{.{.{.{.{.{.{.{.{.{.{.{.{.{.{.{.{.{.{.{.{.{.{.{.{.{.{.{.{.{.{.{.{.'.N.  .   m ~ r X f   J L < ",
"# M L   f f e   G . o @ I.{.{.{.{.{.{.{.{.{.{.{.{.{.{.{.{.{.{.{.{.{.{.{.{.{.{.{.{.{.{.{.{.{.{.{.{.{.{.A.@ X . n   0 f f   J L < ",
"> m L   s f s @ . . X.N./.{.{.{.{.{.{.{.{.{.{.{.{.{.{.{.{.{.{.{.{.{.{.{.{.{.{.{.{.{.{.{.{.{.{.{.{.{.{.Q.M.g . . @ s f s   L ! < ",
"# j n   s f f . . . *.E.`.{.{.{.{.{.{.{.{.{.{.{.{.{.{.{.{.{.{.{.{.{.{.{.{.{.{.{.{.{.{.{.{.{.{.{.{.{.{.`.E.O.. . . f f s   L ! % ",
"# k n   s f f . . . &.E.`.{.{.{.{.{.{.{.{.{.{.{.{.{.{.{.{.{.{.{.{.{.{.{.{.{.{.{.{.{.{.{.{.{.{.{.{.{.{.).T.o.. .   f f a   L ! < ",
"% o     s s s .   . &.T.`.{.{.{.{.{.{.{.{.{.{.{.{.{.{.{.{.{.{.{.{.{.{.{.{.{.{.{.{.{.{.{.{.{.{.{.{.{.{._.T.O..     s s s     & < ",
"  e e -   p s   . . &.T.'.{.{.{.{.{.{.{.{.{.{.{.{.{.{.{.{.{.{.{.{.{.{.{.{.{.{.{.{.{.{.{.{.{.{.{.{.{.{.`.P.o.. . . s p   - e p   ",
"  p a p - - -   . . &.E.!.{.{.{.{.{.{.{.{.{.{.{.{.{.{.{.{.{.{.{.{.{.{.{.{.{.{.{.{.{.{.{.{.{.{.{.{.{.`.Q.P.#.  . . - - - p s e   ",
"  e s f f     . . . &.E.T.[.{.{.{.{.{.{.{.{.{.{.{.{.{.{.{.{.{.{.{.{.{.{.{.{.{.{.{.{.{.{.{.{.{.{.{.{.Q.T.P.&.  .       f f s p   ",
"  e s s f f f   . . #.D.I.].{.{.{.{.{.{.{.{.{.{.{.{.{.{.{.{.{.{.{.{.{.{.{.{.{.{.{.{.{.{.{.{.{.{.{.{.W.P.S.#.. . . s s f s s e   ",
"  - &   s f f     . o.B.L.!.{.{.{.{.{.{.{.{.{.{.{.{.{.{.{.{.{.{.{.{.{.{.{.{.{.{.{.{.{.{.{.{.{.{.{.{.T.H.Z....   . f f s   X &   ",
"@ X X - s s s e @ . 0 f B.E.{.{.{.{.{.{.{.{.{.{.{.{.{.{.{.{.{.{.{.{.{.{.{.{.{.{.{.{.{.{.{.{.{.{.{.[.E.M.$.= . * 0 s s s - & & @ ",
", $ & p p s p p -       >.P.{.{.{.{.{.{.{.{.{.{.{.{.{.{.{.{.{.{.{.{.{.{.{.{.{.{.{.{.{.{.{.{.{.{.{._.I.&.@   . - p p s p p * % < ",
"< m n             . .   *.D.).{.{.{.{.{.{.{.{.{.{.{.{.{.{.{.{.{.{.{.{.{.{.{.{.{.{.{.{.{.{.{.{.{.{.W.S.$.  . .             L L , ",
"% m W 7.6.! i   @ X . . P %.T.{.{.{.{.{.{.{.{.{.{.{.{.{.{.{.{.{.{.{.{.{.{.{.{.{.{.{.{.{.{.{.{.[.'.P.%.g . . X &   i L ] ^ 7.! < ",
"< m ~ 7.| Q i   - - . . X @ T.(.{.{.{.{.{.{.{.{.{.{.{.{.{.{.{.{.{.{.{.{.{.{.{.{.{.{.{.{.{.{.{.{.E.J.0 X . @ & -   i L ~ [ 8.~ % ",
"< M } 8.` Q i   - - X .     J.L.].{.{.{.{.{.{.{.{.{.{.{.{.{.{.{.{.{.{.{.{.{.{.{.{.{.{.{.{.{.{.).H.A..     & - e   i T ! { 8.! < ",
"< B  .7.~ ! y   s s *   . . Z.G.R.].{.{.{.{.{.{.{.{.{.{.{.{.{.{.{.{.{.{.{.{.{.{.{.{.{.{.{.{./.G.L.M.      - s s   i ! W 6.7.Q , ",
"< B 7.7.Q ! ! }   a - * X   X.F.S.R.{.{.{.{.{.{.{.{.{.{.{.{.{.{.{.{.{.{.{.{.{.{.{.{.{.{.{.).S.G.M.... X & e s   { ] ! ~ 7.{ L < ",
"< B  .| ! ! Q }   - - - X .   :.L.S.W.[.{.{.[.{.{.{.{.{.{.{.{.{.{.{.{.{.{.{.{.{.{.{.{.{.(.G.H.Y.f     @ - - e   ~ Q ! [ 8.~ J < ",
", B | } ~ ! ~ |   X X @ X X   e ,.L.S.R.'.{.{.{.{.{.{.{.{.{.{.{.{.{.{.{.{.{.{.{.{.{.{._.G.G.K.%..   X X & X &   ~ W ~ ` 8.] J < ",
"< m } 6.~ Q ^ |                 * =.G.G.R._.{.{.[.{.{.{.{.{.{.{.{.{.{.{.{.{.{.[.{.[.(.Y.L.G.$.    .             ~ Q _ ~ 6.] G , ",
"< m ^ 6.~ ! n   f s f f f f p -     +.,.G.L.^.].[.{.{.{.{.{.{.{.{.{.{.{.{.{.{./.!.!.L.-.$.o.  . 0 p f f f f s f   u ! ~ Q J J < ",
"% m ~ 7.~ ! 6.}                 .     * @.C.F.T.W._.`.'.].'.'.'.'.'.'.'.'.)./.T.L.B.-..       .                 l l j j j 6 6 < ",
", m ! 7.~ ^ 6.` i i =   - e - - &         h $.X.O.Z.L.Q.W.W.W.W.Q.W.W.Q.Q.H.Z.,.&.f           & - - - -   * n n { { { { ` ` U < ",
"< m ! 7.~ ^ 7.~ | ^ i X f f f f s     X .       = #.-.x.x.x.x.x.,.x.x.x.x.&.%.p       .   .   s s f s f X J v.z.c.c.v.c.z.l.8.> ",
"< m ~ 7.! [ | ` 7.{ y   s f s p s   & & &       . o o @ @ o o X @ X @ @ o X .       .   X &   s f f f s   D j.z.b.n.v.c.b.n.y., ",
"< m ] 7.! ^ ^ 6.6.{  .G   - & - -   & & &     .                               ..@.o . . X &   - - - -    .r.9.9.y.u.9.r.i.k.e.> ",
"< B | 7.Q ^ ^ 7.} [ D %   X X X X     X & X         .   X $ * * * * * * * * d `.{.@   . X     X X   X   r ! d.u.y.u.u.d.f.h.7.% ",
", B 6.6.Q ~ ] 7.^ L w X X & X X X X   X & X   . .       ..>.S.D.S.D.D.D.D.D.J.'.[.@ . . .   & X X X X X X d 5.g.d.r.9.d.y.u.{ > ",
"< B | | Q ~ [ | ~   - f s f f f s f X X & . . . X * 0 0 V./.{.{.{.{.{.{.{.{.{.{.`.$ . . X X f s f f f s f -   d.d.8.9.u.d.f.5.> ",
"< B | 6.Q ~ ~ { ~ | y                   .       0 x.S.E.).'.{.{.{.{.{.{.{.{.{.(.W.@ . .                   n r.r.u.s.r.d.g.d.{ < ",
", M } 7.Q ~ ~ ! ! | } F F   - p s e X . . 0 0 a #.Q.`.{.{.{.{.{.{.{.{.{.{.[.`.P.B.O . . X   p s p -   e.9.u.d.f.d.d.d.u.7.{ I < ",
", M { 7.~ [ ~ ! ~ } 8.~ J + = e f =   .   N.D.).`.{.{.{.{.{.{.{.{.{.{.{.{./.E...e . X X & & s f e 0 i i.s.j.j.j.l.z.v.c.l.g.8.> ",
"% m ] e.~ [ ~ ~ ^ ~ 8.^ J 6 7 X s = . . . P.W.(./.~.!.!.!.Q.!.!.!.!.!.!.!.A.M.=     X   - s f f X a 8.5.r.d.j.c.c.l.g.d.s.g.7.< ",
"% m [ t.[ ] ~ ] ~ Q 7.` W 6 , X s p .   . H.A.                                  . & &   - s f s X < ~ ~ Y Y Y _ _ _ ~ _ ] _ Y < ",
", m [ 8.[ Q U ] ! Q  .} V 6 R R   a & . . *.*..                             . X $ e e   - s f   1 6 4 j k k b b v m c c b b x < ",
"< m ] 8. .Q J ! K W | | W 6 E R   s s X         . . . . . . . .   . . . . . X - e e e   - s s   D U T ' ' }  .5.| } ~ L L L G > ",
"< m ^ 7.7.Q Q ! V Q [ } V 6 R Q   s s -   . . & * & & & X . . . .   . X & & & e p e e   - s s   ~ 7.6.6.6.6. .6.7.8.7.| 7.{ M < ",
", m ~ 8.7.W ^ ~ N Q ` ^ W l R ) 2.  & - - . X e 0 p e p @ . @ @ @ O . @ p p p p p e   - - &   ! ! ! ] _ ! ' ' ! ! ^ | 6.| [ H < ",
"< m W 7.8.! ] ~ V Q ^ | W 6 R E 2.                      . . -.,.,.-.. .                       ^ [ ] ] T T T T T ! Q Q ! ! ~ H < ",
", m L | 8.! ~ ~ J ~ [ 8.W 6 R E 3.B O X X $ - e - - @ . @ 7 I.W.T.A.. . . - - - - - & &   X N } | 7.6.| ` ~ ! ! ~ ~ ' ~ Q ! J < ",
", M J | 8.~ ! ~ J ] | 8.W l R E E 1.% X & & p p - X . . %.A.`.Q.h p . @ - 0 e e p e & & X $ 7.| { ^ ` ` { } } { ` [ { ~ Q ~ H < ",
"% m L | 8.[ ~ ! W ~ | 7.W 6 R E E 1.%             .   . &.D.'.Q.7   .                     $ [ | | ` ~ Q W A Q ~ ~ ~ ~ ~ ! U x < ",
", m U 6.8.} ^ ! Q ~ 7.6.W l R 1.) ( 2.( 2.w.2.2.q.S : .     S.V.* . . t ~ ! ~ ' { 7.7.8.7. .| | { } | | | } ` Q Q Q Q ] [ [ H < ",
", m ! 7.8.{ ` Q ~ ^ 8.| V l C E ( ) 3.) <.w.4.3.q.E : , + X &.%.@ X q D }  .7.8.7.7.| ` ^ ^ [ } |  . .| | 6.7.7.7.e.e.e.e.8.U < ",
"< m ' 8.8.` Q ~ ^ | 9.| W l R R 3.<.3.) ) w.4.4.q.E 2 c q . . . . + { ~ ] ] ~ ~ ! Q L J J J V J J V J V G J H L T T T ! ~ ] K < ",
"% m G I W M c V B B V W B l C z A S S V A / S Z / Z 2 l q < . X , 9 G G B G N B B m m m b x x x x l 6 6 4 6 4 4 3 3 3 3 6 6 c > ",
", < < < < < < , % , < < < < < , < < > < < > < < % < % , , > . . # > < , % , % , < < % < < < < < < < < % < < < < # > < < > < < < "
};
