/* XPM */
static char *_7a7e486e625428794fe0a2a1269839f4YChbGgQob89gdzn[] = {
/* columns rows colors chars-per-pixel */
"64 64 189 2 ",
"   c #090100",
".  c #120604",
"X  c #1C0702",
"o  c #150906",
"O  c #1A0B06",
"+  c #140C0C",
"@  c #1E0E09",
"#  c #1F100A",
"$  c #171212",
"%  c #1C1515",
"&  c #191819",
"*  c #230F07",
"=  c #2E0E03",
"-  c #230F08",
";  c #310F04",
":  c #231007",
">  c #21110B",
",  c #29150B",
"<  c #2B160C",
"1  c #361204",
"2  c #3B1607",
"3  c #311508",
"4  c #3B1709",
"5  c #351B0D",
"6  c #3D1B0C",
"7  c #2D1A11",
"8  c #221C1C",
"9  c #341E14",
"0  c #372115",
"q  c #3A2215",
"w  c #3D2519",
"e  c #251F20",
"r  c #1E2020",
"t  c #2C2626",
"y  c #322C2C",
"u  c #363131",
"i  c #3A3434",
"p  c #3F3A3A",
"a  c #421E0D",
"s  c #411F11",
"d  c #44210E",
"f  c #49230F",
"g  c #452312",
"h  c #4A2614",
"j  c #482817",
"k  c #4D2915",
"l  c #402719",
"z  c #422A1B",
"x  c #4C2C1B",
"c  c #522D1B",
"v  c #4C301E",
"b  c #53321E",
"n  c #5B351B",
"m  c #603619",
"M  c #653B1C",
"N  c #6A3E1D",
"B  c #4B2F20",
"V  c #4F3221",
"C  c #553622",
"Z  c #5A3622",
"A  c #573823",
"S  c #5B3B25",
"D  c #5E3D28",
"F  c #413C3C",
"G  c #663A24",
"H  c #633D26",
"J  c #623F29",
"K  c #6E421F",
"L  c #70421F",
"P  c #644027",
"I  c #6E4321",
"U  c #65422A",
"Y  c #6B452D",
"T  c #6E482F",
"R  c #744421",
"E  c #784722",
"W  c #774822",
"Q  c #7C4B25",
"!  c #72452D",
"~  c #72492E",
"^  c #79492F",
"/  c #6C4630",
"(  c #6D4930",
")  c #744C32",
"_  c #794E33",
"`  c #775135",
"'  c #7C5235",
"]  c #77563D",
"[  c #7E5438",
"{  c #4A4545",
"}  c #464B4C",
"|  c #4F4A4A",
" . c #504C4C",
".. c #555454",
"X. c #595555",
"o. c #5D5A5A",
"O. c #615D5D",
"+. c #5E6263",
"@. c #666262",
"#. c #696565",
"$. c #656B6B",
"%. c #6E6B6B",
"&. c #726E6E",
"*. c #757272",
"=. c #787676",
"-. c #7C7A7A",
";. c #824E27",
":. c #824F28",
">. c #825027",
",. c #855229",
"<. c #8B552B",
"1. c #8E592C",
"2. c #935A2E",
"3. c #985C2F",
"4. c #815537",
"5. c #825639",
"6. c #85593A",
"7. c #8A5C3D",
"8. c #965E30",
"9. c #9B5F31",
"0. c #915E3E",
"q. c #976033",
"w. c #9D6132",
"e. c #A36434",
"r. c #A96836",
"t. c #A66838",
"y. c #8E5F42",
"u. c #925E40",
"i. c #8F6143",
"p. c #956242",
"a. c #9A6544",
"s. c #9D6946",
"d. c #9A6748",
"f. c #9E6A49",
"g. c #A16C47",
"h. c #A26D49",
"j. c #A6714D",
"k. c #A9734D",
"l. c #A77351",
"z. c #AB7652",
"x. c #AD7A54",
"c. c #B17C56",
"v. c #B17E59",
"b. c #817F7F",
"n. c #B5825A",
"m. c #B9855D",
"M. c #BE8B63",
"N. c #C18E66",
"B. c #C28F68",
"V. c #7F8587",
"C. c #848383",
"Z. c #858C8D",
"A. c #8A8A8B",
"S. c #938F8F",
"D. c #8B8F91",
"F. c #8F9394",
"G. c #949494",
"H. c #96999A",
"J. c #9C9D9D",
"K. c #A09F9F",
"L. c #9B9FA0",
"P. c #9EA2A3",
"I. c #A3A3A3",
"U. c #A9A6A6",
"Y. c #A6A8A8",
"T. c #ACACAD",
"R. c #B4B4B4",
"E. c #B5B5B5",
"W. c #B6B9B9",
"Q. c #BBBBBB",
"!. c #C0BFBF",
"~. c #C3C3C3",
"^. c #C9C7C7",
"/. c #CCCCCC",
"(. c #CFD4D5",
"). c #D3D4D4",
"_. c #D7D8D8",
"`. c #DCDCDC",
"'. c gray88",
"]. c #E3E3E3",
"[. c #E7E8E8",
"{. c #EEEEEE",
"}. c #F0EFEF",
"|. c #EEF1F1",
" X c #F4F4F4",
".X c #F8F7F7",
"XX c #F7F9F9",
"oX c #FEFEFE",
"OX c white",
/* pixels */
"+ * * : : * : : * : : * : : * * : : * : : * : : O                             O > : : > : : > : > > : > : - - - - - - - - - - > ",
"> g k k k k k k k k k k k k k k k k k k k g 5 5 <                             : 3 3 4 d a d d d 4 a 2 4 a a d 6 6 6 4 a a a 6 > ",
"> Z ) 4.p.d.f.d.p.7.6.6.y.p.p.p.p.a.d.a.p.9                                         O Q N Q Q Q M M d b Y ` ) D U J b _ _ Y A > ",
"@ h i.n.M.M.M.M.M.m.n.x.m.m.v.z.k.p./ U J ,     $ {  . . . . . . . . . . . .{ %     . b k b I ,.E N f b ) 7.[ T U ( P 7.7.) S > ",
"@ H M.N.M.n.x.z.z.c.n.m.m.v.k.h.s.Y .           t I.R.R.R.R.R.R.R.R.R.R.R.R.U.y             b Q E E h b ) 7.) T J ( ( 7.7./ A > ",
"> Y m.n.z.k.j.j.h.h.h.h.h.g.s.p.B 0       { %.S.I._.].].].].].].].].].].].].`.U.G.&.O.      , 5 N Q h b ) 7.T T J Y Y 7.7.U A > ",
"> H z.c.n.n.x.z.z.x.v.n.v.z.z.p.          =.Q.XXOXOXOXOXOXOXOXOXOXOXOXOXOXOXOXOXXX~.I.          b E f b ` 6.Y U J Y U 6.6.U A > ",
"> G k.g.p.a.s.g.h.g.s.h.j.j., o   u J.!.]. X.XOXOXOXOXOXOXOXOXOXOXOXOXOXOXOXOXOXOXXX.X].~.I.p   . . f b [ 5.Y J D Y U 5.6.U A > ",
"@ a G 4.7.a.g.k.k.c.k.h.7.5.o   8  .Q.`.OXOXOXOXOXOXOXOXOXOXOXOXOXOXOXOXOXOXOXOXOXOXOXOX].Q.X.8     6 x [ ` T S J T U ` 7.Y A > ",
"> G v.n.c.j.f.s.h.z.s.0.x     8 R./.XXOXOXOXOXOXOXOXOXOXOXOXOXOXOXOXOXOXOXOXOXOXOXOXOXOXOXOX).R.i     > ( T Y Z D ) U ` 7.) A > ",
"> ! N.B.N.N.M.M.M.m.f.) 9   i  ./.`.OXOXOXOXOXOXOXOXOXOXOXOXOXOXOXOXOXOXOXOXOXOXOXOXOXOXOXOX`./.#.F   O x U T A D Y J ) 7._ S > ",
"> ! N.N.N.N.M.M.N.N.] .     J.Q.XXOXOXOXOXOXOXOXOXOXOXOXOXOXOXOXOXOXOXOXOXOXOXOXOXOXOXOXOXOXOXOX~.R.      z T S U D D ~ 7.' S > ",
"> G j.l.l.z.z.z.z.c.(       ~.`.OXOXOXOXOXOXOXOXOXOXOXOXOXOXOXOXOXOXOXOXOXOXOXOXOXOXOXOXOXOXOXOX]._.      z T S U S S Y 7.' S > ",
"- a c k c c c c c c 5       ].OXOXOXOXOXOXOXOXOXOXOXOXOXOXOXOXOXOXOXOXOXOXOXOXOXOXOXOXOXOXOXOXOXOXOX      z T D T Y Y U 7.[ D > ",
"- g A C C C C C z > o   { -. XOXOXOXOXOXOXOXOXOXOXOXOXOXOXOXOXOXOXOXOXOXOXOXOXOXOXOXOXOXOXOXOXOXOXOX-...  @ 7 x T Y ) Y 6.[ D > ",
"@ k ) ) Y U U U V       %.Q..XOXOXOXOXOXOXOXOXOXOXOXOXOXOXOXOXOXOXOXOXOXOXOXOXOXOXOXOXOXOXOXOXOXOXOXQ.-.      w T Y ) Y ' [ D > ",
"@ c 7.7.7.7.7.7.U       S.OXOXOXOXOXOXOXOXOXOXOXOXOXOXOXOXOXOXOXOXOXOXOXOXOXOXOXOXOXOXOXOXOXOXOXOXOXOXU.      z Y U T T ) 5.D > ",
"# k 6.7.6.4.' D z   $ y I.OXOXOXOXOXOXOXOXOXOXOXOXOXOXOXOXOXOXOXOXOXOXOXOXOXOXOXOXOXOXOXOXOXOXOXOXOXOXR.y %   9 A T U Y ) 6.J > ",
"@ a H U T Y U       { I._.OXOXOXOXOXOXOXOXOXOXOXOXOXOXOXOXOXOXOXOXOXOXOXOXOXOXOXOXOXOXOXOXOXOXOXOXOXOX].U.o.    . ) U Y ~ 6.U > ",
"@ d J Y T Y Y       | R.`.OXOXOXOXOXOXOXOXOXOXOXOXOXOXOXOXOXOXOXOXOXOXOXOXOXOXOXOXOXOXOXOXOXOXOXOXOXOX].R.@.      ) U Y ~ 7.U > ",
"@ h U U J S S       | R.`.OXOXOXOXOXOXOXOXOXOXOXOXOXOXOXOXOXOXOXOXOXOXOXOXOXOXOXOXOXOXOXOXOXOXOXOXOXOX].R.@.      ) U Y ) 6.U > ",
"@ g Y T T T U       | R.`.OXOXOXOXOXOXOXOXOXOXOXOXOXOXOXOXOXOXOXOXOXOXOXOXOXOXOXOXOXOXOXOXOXOXOXOXOXOX].R.@.      ) T Y ` [ S > ",
"> Z 5.5.' ) ~        .T.].OXOXOXOXOXOXOXOXOXOXOXOXOXOXOXOXOXOXOXOXOXOXOXOXOXOXOXOXOXOXOXOXOXOXOXOXOXOX].R.@.      ) ) T ` ) A > ",
"> S 5.6.6.7.7.      o.U.Q._.OXOXOXOXOXOXOXOXOXOXOXOXOXOXOXOXOXOXOXOXOXOXOXOXOXOXOXOXOXOXOXOXOXOXOXOXXXQ.R.@.      ' ) Y ` ) C > ",
"> b U U U U Y       O.Y.R.^.XXOXOXOXOXOXOXOXOXOXOXOXOXOXOXOXOXOXOXOXOXOXOXOXOXOXOXOXOXOXOXOXOXOXOXOX.XR.R.O.      6.) Y ` ) A > ",
"@ 6 g g g g g       | G.I.Q.OXOXOXOXOXOXOXOXOXOXOXOXOXOXOXOXOXOXOXOXOXOXOXOXOXOXOXOXOXOXOXOXOXOXOXOX].U.A. .      6.T T ` ) S > ",
"> j x b b C Z o     i C.H.R.OXOXOXOXOXOXOXOXOXOXOXOXOXOXOXOXOXOXOXOXOXOXOXOXOXOXOXOXOXOXOXOXOXOXOXOXQ.K.*.F   . O 5.U Y _ ` S > ",
"> k D ' ) Y U U q     u *.R.}.OXOXOXOXOXOXOXOXOXOXOXOXOXOXOXOXOXOXOXOXOXOXOXOXOXOXOXOXOXOXOXOXOXOXOXR.-.      q Y ` J T ) ' S > ",
"> x D 6.' Y U U v       O.I./.OXOXOXOXOXOXOXOXOXOXOXOXOXOXOXOXOXOXOXOXOXOXOXOXOXOXOXOXOXOXOXOXOXOX.XI.%.      q ) ) D / ) 5.J > ",
"> x D 6.5.U Y U V        .A.R.OXOXOXOXOXOXOXOXOXOXOXOXOXOXOXOXOXOXOXOXOXOXOXOXOXOXOXOXOXOXOXOXOXOX~.A.o.      q ) ) S / ) 6.U > ",
"> c U 5.' U T ) U z q   8 p U.).XXOXOXOXOXOXOXOXOXOXOXOXOXOXOXOXOXOXOXOXOXOXOXOXOXOXOXOXOXOXOXOX XR.y 8   7 v C ) T D Y ) 7.U > ",
"> c ` 7.) J T ) ) D C     $ I.T.XXOXOXOXOXOXOXOXOXOXOXOXOXOXOXOXOXOXOXOXOXOXOXOXOXOXOXOXOXOXOXXXQ.R.      z U U ) T J U _ 7.U > ",
"> b [ 7.U U U ) ( D C       A.P.W.OXOXOXOXOXOXOXOXOXOXOXOXOXOXOXOXOXOXOXOXOXOXOXOXOXOXOXOXOXOX_.P.H.      z Y J ) ) U J 5.6.J > ",
"> b 5.5.U U U ) ( D S o     %.J.I.T.XXOXOXOXOXOXOXOXOXOXOXOXOXOXOXOXOXOXOXOXOXOXOXOXOXOXOXOX_.I.P.-.    . B / U ) ) U U 7._ J > ",
"> b 5.' U U U ` Y J 5.A @   + ..P.I.W.OXOXOXOXOXOXOXOXOXOXOXOXOXOXOXOXOXOXOXOXOXOXOXOXOXOX[.I.P.Z.+   X S 5.) U T U U ) 7.Y A > ",
"> c ' ' Y U Y ` U Y 7.D ,     & P.P.I.T.OXOXOXOXOXOXOXOXOXOXOXOXOXOXOXOXOXOXOXOXOXXXOXOX`.I.P.P.}   . X Y 7.[ J Y U Y ) 7.( C > ",
"> x ) [ Y U T ` U ~ 7.A j 2 o   + D.P.P.R..XOXOXOXOXOXOXOXOXOXOXOXOXOXOXOXOXOXOXOXOXOX(.I.P.H.p     h 4 Y 7.7.b Y U T T 5.T C > ",
"> x T 4.Y U _ ) P ) 7.A j 2 k k   & V.H.P.T.].[.].XXOXOXOXOXOXOXOXOXOXOXOXOXOX XXX|.R.P.L.Z.r   , q f j U ) ` k D U U U U A C > ",
"> x Y 5.Y Y 5.) U ~ 6.A x 4 ;.,.        e J.Y.U.Q..XXXOXOXOXOXOXOXOXOXOXOXXXXX[./.I.P.A.p       3 f a g g g g 4 a g g d a 6 d > ",
"> x Y 5.U T 6.~ T ~ 6.D x 4 <.2.n j       r +.J.J.I.R././././././././././.Q.U.=.C.F.$.      q b H ! ! ! ^ _ ^ _ _ _ ^ ^ ^ ! H > ",
"> x U 6.Y ~ 6.Y ' ~ 5.D x 4 <.8.,.I .           { C.A.T.T.T.T.T.T.T.T.T.T.G.-.u   +       o ( a.a.s.j.x.n.n.n.v.n.n.n.n.n.x.7.> ",
"> x U 6.U ) ' ~ 6.) 4.D b 4 ;.9.,.q.m q           8 t y y y y y y y y y y t 8 +     o ` ) T ' 5.p.k.z.x.z.j.z.n.M.M.m.n.M.N.i.> ",
"> x ( 6.U ) ~ 4.4._ ` S b 4 Q w.,.t.<.g                                             O a.f.z.x.j.7.7.a.p.7.u.0.0.p.a.0.p.s.x.y.> ",
"> c ` 6.U T T 6.` ) ) Z C 4 E 3.>.w.3.g     + {.^.%                         . 6.z.k.k.x.n.m.m.m.n.j.p.s.k.h.g.a.a.a.a.h.j.j.5.> ",
"> b [ 4.J Y ) 6.T _ ) Z C 4 E 2.,.<.9.k     + {.`.&.@.@.@.@.@.@.@.O.| y       C Y U Y f.s.s.d.d.s.h.h.f.k.a.f.k.h.p.0.s.p.a.^ > ",
"> b 5.4.J Y ~ ' Y ` _ Z C 4 E <.Q ,.<.x     + {.OXOXOXOXOXOXOXOXOX.XQ.=.            O p.f.k.k.j.j.h.h.u.s.j.g.j.g.7.7.a.g.j.4.> ",
"> c ' 5.J U T ) U [ [ S C 4 R :.;.,.;.k     + ^.].XXOXOXOXOXOXOXOXXX`.!.A.*.O.8       q U k.k.s.a.s.j.k.a.0.p.u.a.s.p.h.k.h._ > ",
"> x ` 5.U T U Y U [ 5.J A 4 R E ,.R ;.x     + U.~..XOXOXOXOXOXOXOXOXOXOXOX).T.i         B p.p.s.f.a.p.s.h.h.h.h.k.h.h.a.5._ G > ",
"> x ) 6.U ) U U Y ) 7.Y A 4 I R Q E >.R M ,   p O.~._.OXOXOXOXOXOXOXOXOXOX X].Q.U.b.%.  > w [ f.s.a.s.s.h.k.z.z.c.n.m.n.c.k.7.> ",
"> x ) 7.Y ` Y Y T Y 7.T S 6 K W R >.;.,.w.5     t I.~.OXOXOXOXOXOXOXOXOXOXOXOXOXXX~.I.      / h.h.a.7.4.0.g.z.n.n.c.k.j.h.j.7.> ",
"> x ) 7.T T Y T Y P 6.) S a K :.N >.Q 1.e.Q Q .   + $ % % % % % % % % % % % % % 8 I.I.      x G G Y Y Y H H Y T T Y Y Y ! ! H > ",
"> x ) 7.) J U T U J 5.) S a R :.E Q Q 8.w.,.<.< O                                 C.C.    . < 4 6 6 6 a s g h h k x x j h h g > ",
"> x ) 7.[ D S U S J ` ` S d R ;.Q E ;.w.8.,.2.w.R .                                     w _ T U J J U Y ( ) ` [ ' ) U S D D b > ",
"> x T 7.5.J U U C J ) ` S a K Q Q E ;.e.2.<.2.9.Q 5 X , >             @ l z z z w     w D 5.6.5.5.5.5.5.5.[ ' 5.6.7.6.4.5.` c > ",
"> x U 7.6.U T Y b U ) T S a K Q >.L >.e.<.<.<.3.<.M 1 k z             0 5.4.) T U o . J J U U U Y Y Y Y Y T Y U U T ` 5.5.) n > ",
"> x U 6.7.U ( Y C U ( [ D a N E ,.L >.w.<.2.<.2.1.M ; , #   o.#.#.o.  o 7 x J ) ) x z Y Y T T ) ) T T Y U U U U U U J U U U A > ",
"> x S [ 7.U Y Y C Y ) 7.U a N E >.E >.<.2.2.,.2.1.M =       J.R.R.I.+     q U Y Y U Y T ) ) T ) ' 5.5.[ ) Y U U U Y T Y U U A > ",
"> x S ' 7.Y Y U S T ` 7.U a N R E >.;.Q 2.9.;.<.2.N 1 5 7   y { ^.`.A.X.  O < S Y Y T ) [ 6.6.' ) T T ) ) ) ) ) ) ) ) T U Y Z > ",
"> x S ' 7.) Y U J T [ 6.D d K E E ;.,.E 2.e.Q ,.8.N 1 h q     8 /.{.T.%.    o V U U U U U Y ) ' ' ) U J J J U Y Y T Y Y U D g > ",
"> x D 5.7._ T U U T 6.5.D a N Q Q Q ,.W <.r.,.,.w.N 1 g w     $ G.I.+     z Y Y ) 5.6.6.5.[ ` ` ` ) ` [ ' ` ~ U J J U T ) ) Z > ",
"> x U 6.7.) T U Y ~ 7.[ S a M E E Q <.E Q r.3.<.e.L 1 k S 9   + #.&.  o 7 D 5.7.7.5.' ) ) T ) ) ` [ [ [ [ 4.5.6.6.6.7.7.7.7.J > ",
"> x Y 7.7.~ J Y T ` 7.5.D a N M <.:.<.Q E t.w.2.r.R 1 k / ) o         7 T ~ Y Y U U D S C C C C S A C b b C S D U U Y Y T T A > ",
"> k Z H H c h Z b c S A b a m k M N N n M R M m I m 1 g C b < >     > 9 b b b c x x k x k j g g g d 6 6 4 6 6 4 2 2 1 2 4 a h > ",
"> > > > > > > > > > > > > > > > > > > > > > > > > > > > > > > @     > > > > > > > > > > > > > > > > > > > > > > > > > > > > > > "
};
