/* XPM */
static char *result[] = {
/* columns rows colors chars-per-pixel */
"64 64 193 2 ",
"   c #040303",
".  c #080101",
"X  c #0C0B0B",
"o  c #120604",
"O  c #140A06",
"+  c #1B0C06",
"@  c #130D0C",
"#  c #1E0F09",
"$  c #16110E",
"%  c #1C120C",
"&  c #141313",
"*  c #1B1414",
"=  c #1F1A16",
"-  c #1B1B1B",
";  c #230F07",
":  c #230F08",
">  c #231007",
",  c #281107",
"<  c #21110B",
"1  c #2B150B",
"2  c #361304",
"3  c #381506",
"4  c #341708",
"5  c #3A1709",
"6  c #3C1B0C",
"7  c #221710",
"8  c #251A12",
"9  c #2C1B11",
"0  c #221D1C",
"q  c #341E14",
"w  c #29201A",
"e  c #312117",
"r  c #382418",
"t  c #3A2619",
"y  c #3E291C",
"u  c #1F2526",
"i  c #232323",
"p  c #2C2525",
"a  c #202728",
"s  c #252D2E",
"d  c #2A2A2A",
"f  c #322D2D",
"g  c #2C3738",
"h  c #333333",
"j  c #3B3535",
"k  c #3F3A3A",
"l  c #421E0D",
"z  c #411F11",
"x  c #44210E",
"c  c #4A230F",
"v  c #452212",
"b  c #4A2514",
"n  c #4D2815",
"m  c #452718",
"M  c #432A1B",
"N  c #4C2C1A",
"B  c #522D1B",
"V  c #4D321F",
"C  c #53321D",
"Z  c #5B351B",
"A  c #603619",
"S  c #653B1C",
"D  c #6A3E1D",
"F  c #4B3222",
"G  c #4B3627",
"H  c #553623",
"J  c #5B3622",
"K  c #563924",
"L  c #5B3B25",
"P  c #5C3D28",
"I  c #423C3C",
"U  c #663A24",
"Y  c #633D26",
"T  c #623F28",
"R  c #6D411F",
"E  c #70411F",
"W  c #5E422E",
"Q  c #6A4224",
"!  c #65422B",
"~  c #6B452D",
"^  c #6E482F",
"/  c #744421",
"(  c #7B4B24",
")  c #794826",
"_  c #71452E",
"`  c #72492E",
"'  c #6C4630",
"]  c #6D4930",
"[  c #744C32",
"{  c #7A4E32",
"}  c #745036",
"|  c #7C5235",
" . c #7C5439",
".. c #344649",
"X. c #474242",
"o. c #4A4444",
"O. c #4E4A4A",
"+. c #514D4D",
"@. c #555050",
"#. c #595555",
"$. c #5D5959",
"%. c #615D5D",
"&. c #4B6163",
"*. c #666262",
"=. c #6A6666",
"-. c #6E6B6B",
";. c #726E6E",
":. c #757272",
">. c #797676",
",. c #75797A",
"<. c #7C7A7A",
"1. c #824F27",
"2. c #835127",
"3. c #855229",
"4. c #8A542A",
"5. c #945B2F",
"6. c #815537",
"7. c #825639",
"8. c #85593A",
"9. c #8A5C3D",
"0. c #915E3E",
"q. c #9D6233",
"w. c #A66737",
"e. c #A96836",
"r. c #8E5F42",
"t. c #915E40",
"y. c #8F6143",
"u. c #956342",
"i. c #996544",
"p. c #9C6846",
"a. c #9B6949",
"s. c #A16C47",
"d. c #A26D49",
"f. c #A6714D",
"g. c #A9734D",
"h. c #A67150",
"j. c #AB7552",
"k. c #AE7A54",
"l. c #B17D56",
"z. c #B27E59",
"x. c #817E7E",
"c. c #B5825A",
"v. c #B9855D",
"b. c #BE8B63",
"n. c #C18E66",
"m. c #C28F68",
"M. c #5A8386",
"N. c #688284",
"B. c #788F91",
"V. c #689498",
"C. c #6D9CA0",
"Z. c #7BAAAE",
"A. c #7DACB0",
"S. c #858282",
"D. c #8B8787",
"F. c #8B8A8A",
"G. c #938F8F",
"H. c #838F91",
"J. c #949393",
"K. c #939A9A",
"L. c #9D9B9B",
"P. c #A19F9F",
"I. c #869EA0",
"U. c #95A7AA",
"Y. c #A4A3A3",
"T. c #A9A6A6",
"R. c #ADADAD",
"E. c #ADAFB0",
"W. c #ACBBBC",
"Q. c #B5B5B5",
"!. c #B6B7B7",
"~. c #BBBBBB",
"^. c #C0BFBF",
"/. c #93BFC4",
"(. c #B0BFC0",
"). c #96C2C7",
"_. c #9AC6CB",
"`. c #9CC8CC",
"'. c #C5C4C4",
"]. c #C9C7C7",
"[. c #CCCBCB",
"{. c #D0CFCF",
"}. c #D4D4D4",
"|. c #D8D6D6",
" X c #DEDDDD",
".X c #D8E7E9",
"XX c #E2E2E2",
"oX c #E5EAEA",
"OX c #ECEBEB",
"+X c #EBF0F0",
"@X c #F3F3F3",
"#X c #F3F8F8",
"$X c #FFFFFF",
/* pixels */
"@ ; ; > > > > > > > > > > > ; ; > > > > > > : ; + . . . . . . . . . . . . . . + ; ; ; > > > > > > > > > > , > > > > , : : : : > ",
"> v n n b b n n n n n n n n n n n b n n n v 6 q 1 . . . . . . . . . . . . . . , 4 4 4 x l x c c 6 x 3 6 6 x v 4 z 6 5 l l z 6 < ",
": Z ` 7.u.a.a.a.u.r.8.8.0.u.u.t.u.a.a.i.u.q . . . . . . . . . . . . . . . . . . . . + ( R E ( ( S S c V ~ } ` W ! W B [ { ~ K : ",
": b u.c.b.b.b.b.  v.z.k.v.v.z.l.g.i.' ~ P 7 . . @ o.+.+.+.O.+.O.O.O.O.O.O.+.o.* . . o C b C E 4.E R c C ^ K . ^ ! ] Q 9.9.[ P < ",
"# Y b.n.b.z.} 0 d 8  .b.v.l.j.d.p.~ . . . . . . f Y.Q.Q.Q.Q.Q.Q.Q.Q.Q.Q.Q.Q.T.f . . . . . . C ( E E c C 8 w d % P ] ' 9.9.] K % ",
": ~ b.c.g.g.P   h $ j ] a.] ] ! q r . . . X.-.G.P. X XXX X X XXXXX X XXXXX.X XT.G.;.%.. . . # , n R c t & i g   T ' ~ r.9.! K < ",
": Y k.l.v.z.W   h k - @ z.      . . . . . >.~.$X$X$X$X$X$X$X$X$X$X$X$X$X$X$X$X$X$X^.Y.. . . . .   1 c   h h h   P ^ ~ 8.r.T H % ",
"# U g.s.q.a.P   h a &     j X . . j L.^.XX@X#X$X$X$X$X$X$X$X$X$X$X$X$X$X$X$X$X$X$X#X#XXX'.Y.k .         i d k   P ~ T  .8.T K < ",
": l U 6.9.i.P   d     X f f X . - +.~. X$X$X$X$X$X$X$X$X$X$X$X$X$X$X$X$X$X$X$X$X$X$X$X$X X~.#.0 X . d     & p   T ^ ! | 8.! H < ",
": U z.z.l.h.} F &     X & . . = Q.].$X$X$X$X$X$X$X$X$X$X$X$X$X$X$X$X$X$X$X$X$X$X$X$X$X$X$X$X}.Q.j . . .   X & 9 L [ ! { r.] P < ",
": _ n.m.m.m.b.b.        X . j @.]. X$X$X$X$X$X$X$X$X$X$X$X$X$X$X$X$X$X$X$X$X$X$X$X$X$X$X$X$XXX].*.I . .       K L ~ T { r.{ K : ",
": _ n.n.n.n.b.n.m.    . . . L.~.$X$X$X$X$X$X$X$X$X$X$X$X$X$X$X$X$X$X$X$X$X$X$X$X$X$X$X$X$X$X$X$X'.R.. . . % _ K ! T L ` r.} P : ",
"< U h.h.j.j.j.j.k.k.q . . . ^. X$X$X$X$X$X$X$X$X$X$X$X$X$X$X$X$X$X$X$X$X$X$X$X$X$X$X$X$X$X$X$X$XXX|.. . . M ^ K ~ L K ' 9. .L : ",
": z n B % b B B B B 1 . . . XX$X$X$X$X$X$X$X$X$X$X$X$X$X$X$X$X$X$X$X$X$X$X$X$X$X$X$X$X$X$X$X$X$X$X$X. . . M ^ L ] ' T 9 9.6.P : ",
": v H N X M F H M : + . o.<.@X$X$X$X$X$X$X$X$X$X$X$X$X$X$X$X$X$X$X$X$X$X$X$X$X$X$X$X$X$X$X$X$X$X$X$X>.@.. # 9 N ] T P X } } P : ",
"# N G   h X 9 ~ F . . . -.~.#X$X$X$X$X$X$X$X$X$X$X$X$X$X$X$X$X$X$X$X$X$X$X$X$X$X$X$X$X$X$X$X$X$X$X$X~.<.. . . t ^ e   h   K P % ",
"# B P   h h -   W . . . G.$X$X$X$X$X$X$X$X$X$X$X$X$X$X$X$X$X$X$X$X$X$X$X$X$X$X$X$X$X$X$X$X$X$X$X$X$X$XT.. . . m   - h h   K P < ",
": N P   d h d i O . & f Y.$X$X$X$X$X$X$X$X$X$X$X$X$X$X$X$X$X$X$X$X$X$X$X$X$X$X$X$X$X$X$X$X$X$X$X$X$X$XQ.f - . X 0 d h d   P ! < ",
"# l m   d h h . . . o.T.|.$X$X$X$X$X$X$X$X$X$X$X$X$X$X$X$X$X$X$X$X$X$X$X$X$X$X$X$X$X$X$X$X$X$X$X$X$X$XXXT.$.. . . h h d   P ! % ",
"# l M   d h h . . . O.Q. X$X@XoX'.'.'.'.].].].OX@X$X$X$X$X$X$X$X$X$X$X$X$X$X$X@XOX].].'.].].'.].XXOX$XXXQ.*.. . . h h d   P ! < ",
"% O     d d d . . . O.Q. X$X~.L.. . . . . . O R.'.@X$X$X$X$X$X$X$X$X$X$X$X$X$X].R.= . . . . . . S.~.$XXX~.*.. . . d d d     O % ",
"  - i *   d d . . . O.Q. X$X=.%.D.D.D.+.. . . +.x.+X$X$X$X$X$X$X$X$X$X$X$X$X@Xx.$.S.F.D.O.. . . I @.$XoXQ.*.. . . d a   - i i   ",
"  i a i - - * . . . +.Q. X$X0 p $X$X$XG.. .   . I oX$X$X$X$X$X$X$X$X$X$X$X$X@Xo.@  X$X$XF.. . . . . $XXX!.*.. . . - - - i a i   ",
"  i s h h     . . . O.Q.~.~.* p $X$X$XG.. . . . j oX$X$X$X$X$X$X$X$X$X$X$X$X+XX.@  X$X$XS.. . . . . ~.~.~.*.. . . . . h h d i   ",
"  i d d h h h . . . O.R.Q.Q.* 0  X X Xx.. . . . j oX$X$X+X X XXX X XXXOX$X$X+Xo.O '. X X>.. . . . . ~.Q.E.*.. . . d d h d a w   ",
"  & X   p h h . . . k F.T.Q.* . p p p * . . .   j oX$X$XG.p p p p p p >.$X$X+Xo.. i p p * . . . . . Q.T.G.O.. . . h h p   & &   ",
"O O & - d f d X . . h ;.L.Q.* . . . . . . . . . I oX#X|.-.. . . . . . +.|.OX@XX.. . . . . . . . . . ~.L.:.I . . X d d d - & & O ",
"< @ & i a i i i - . . X -.Q.& . . . . . . . . . j OX{.@ . . . . . . . . O P.@Xo.. . . . . . . . . . Q.<.X   . * i i a p i * % % ",
"< N M           . . . . %.Y.+.I . . . . . . . o.;.OX{.. j *.*.*.*.*.%.I . L.@X>.X.O . . . . . . h o.T.-.. . .             P P : ",
"% N W 7.7.! t   & . . . O.F.Q.L.. . . . . . O R.].@X{.. S.$X$X$X$X$X$XP.. P.$X].R.- . . . . . . S.Q.F.$.. . . @   M L ' ^ 8.! < ",
"< B ! 7.| ! t   * & X . 0 f T.R.N.N.N.N.N.,.<.XXOX$X{.. f %.#.%.#.%.%.I . L.$XoX XS.,.N.N.N.N.N.U.Q.f i . X & -   y P ~ [ 8.! < ",
"< V | 9.` ! t   - - X . . . Y.W._.`.`.`._.(.'.#X$X$X{.* @ * * @ % % * @ * P.$X$X$X'.~.`.`._.`.`.!.Q.. . . @ - -   t T ! { r.! < ",
"> C 7.8.! ! t   d d - . . . S.K.`._.`.`._..X+X$X$X$X#X'.].].].'.].].'.].].oX$X$X$XOXoX`.`.`.`.`.U.J.. . . & d d   t ! ! 7.8.T < ",
"< C 7.7.! ! ! [   d - .   . -.S.)._.`.`.`..X$X$X$X$X$X$X$X$X$X$X$X$X$X$X$X$X$X$X$X$X#X`.`.`._._.H.>.. . X & d   [ [ ! ! 9.{ P < ",
"< H 7.| ! ! Q }   - - - X . @ i C.Z._._.`..X$X$X$X$X$X$X$X$X$X$X$X$X$X$X$X$X$X$X$X$X#X`.`._.A.C.h & . X * - -   ^ ! ! [ 9.' K > ",
"< B  .| ! ! ~ }   & X @ X . . & M.V./._.`..X#X$X$X$X$X$X$X$X$X$X$X$X$X$X$X$X$X$X$X$X+X`._./.V.M.a . . . & X &   ! ! ! [ 9.] H < ",
"< N {  .~ ! ^ |             . . . s V.Z.`.W.~.$X$X$X$X$X$X$X$X$X$X$X$X$X$X$X$X$X$X~.!.`.A.V.g . . .             ~ Q ~ ~ 7.^ H > ",
"% N ] 7.~ ! M   h d d h h g - & . - ....&.B.U.}.XX$X$X$X$X$X$X$X$X$X$X$X$X$X$XXX XU.I.&.....- . & * h h h s d h   r ~ ~ ! K H % ",
"% N ^ 7.! ^ 7.[                 . . . . . &.V.E.^.@X$X$X$X$X$X$X$X#X$X$X$X$X#X'.E.V.M.. X . . .                 6 v l c l l x > ",
"> N ~ 7.! ^ 7.` y y 7   i - - - &   . . . - s h @.Y.R.].[.[.].[.[.[.[.[.[.Q.Y.#.j s a . . .   & - - * -   7 M M { { { ` ` _ Y % ",
"< N ~ 7.~ ^ 7.^ | ` t X h h h d d . . . . . . . 0 >.F.E.E.E.R.R.R.R.R.Q.E.J.<.p . . . . . .   d h d d h X H c.z.z.c.v.c.z.l.0.; ",
"< N ! 8.~ [ | ` 7.| r X a h d d d   @ X . . . . o 0 p f f f f f f f f f d p i O . . . X & X   d h h h d   F k.z.n.n.v.z.n.n.t.: ",
"< N ] 8.! ^ ^ 7.7.[ | H   - * - -   & X . . . . . . . . . . . . . . . . . . . . .   . & & &   - * - -    .t.0.0.u.i.0.0.a.l.r.< ",
"% C | 8.Q ^ ^ 8.[ [ F %   X X   X       . . & OX'.= . . . . . . . . . . . . . .     X * X     X X   X   w ' d.i.u.i.i.d.f.d.8.< ",
"> C | 7.! ~ ` 8.^ P w X X X X X X X     . . @ @X|.;.*.*.*.*.*.*.*.%.o.f . . . .   . @ & X   X X X X X X X f 6.f.f.t.9.s.u.i.` , ",
"> C 7.7.P ~ [ | ~   0 h d h h h d h X X . . % OX$X$X$X$X$X$X$X$X$X#X~.>.. . . . . .   * X X h s h h h s h 0 . d.d.9.0.i.d.g.6.< ",
"< B |  .Q ! ~ [ ~ | r       .           . . & ].XX$X$X$X$X$X$X$X$X$X X~.D.:.%.- . . . X                 . M t.0.t.d.t.f.f.d.{ < ",
"< N | 7.! ^ ! ~ ! | } G F   - a d i X . . . @ T.'.#X$X$X$X$X$X$X$X$X$X$X$X}.R.j . . . .   X i d i -   8.9.i.d.f.f.d.d.i.8.{ U < ",
"< N | 8.~ ` ! ! ~ } 8.~ K + = 0 d d & X X X   I %.'.|.$X$X$X$X$X$X$X$X$X$X@XXX~.T.S.-.. . X i h u 0 y s.d.h.j.k.l.z.v.c.l.g.9.: ",
"< N [ 9.! | ^ ~ ^ ^ 9.^ L 6 % X d d d -     . . d T.'.$X$X$X$X$X$X$X$X$X$X$X$X$X$X~.Y.. . . w g X w 8.6.t.d.j.c.c.l.j.d.d.f.8.: ",
"> V [ y.` ] ~ ^ ~ Q 7.` L 6 7 X d h d -   & & . . @ $ = * * * * * = * = * * * * 0 Y.Y.. . . w d X < _ U Y U U ~ _ _ _ ~ _ ' Y < ",
"< N ] 9.[ T T ^ ! !  .} L x R R   h d -   w - X . . . . . . . . . . . . . . . . . S.S.. . X i   1 6 l l z v n n n n b b b b b < ",
"< N ] 9. .W K ! Z W | | L x R R   h d -   u i u - . . . . . . . . . . . . . . . . . . . O d d   F ! T ' ' { | 6.| } ! L P T H : ",
"> N ^ 9.7.! ! ! Z ! [ } L 6 R S   d a =   - 0 - i * & @ .   . . . . . . @ @ @ & @ . .   * a d X ! 7.6.6.7. . .7.8.9.8.7.8.} B : ",
"< N ~ 9.7.! ^ ~ V ! ` ^ W x R ( (   & - -   i i i i - i & . . . . . . X - i i i i . . - - &   ! ' ~ ~ ' ' ' ' T ! ` { 7.7.[ H < ",
"% N ! 7.9.! ^ ~ V ! ~ | W x R E 3.                    . . . $.=.=.%.. .             .         ` [ ^ ' ! T ! T T ! ! T ! ! ~ K < ",
"> N P | 9.! ~ ~ K ^ } 9.! x D E 4.Z O X & $ - - - - * . . . P.!.!.T.O . . & - - - - & &   X V } | 7.7.| [ ! ! ! ! ^ ' ~ ! ! J % ",
"> N L | 9.! ~ ! L ^ [ 9.W x R E E 3.%   & & i u i i i - @ . f o.]. XD.#.. X X - i i & & X % 8.| } ^ [ ` } } | [ ` [ { ~ ! ~ J > ",
"< N L | 9.[ ^ ! W ^ | 8.W 6 R E E 4.%               .   . . . - [.+XR.-.. . . .           $ [ | | ` Q ! T Y Q ! ^ ~ ~ ~ ~ T v < ",
"< N P 7.9.| ^ ! Q ! 8.7.L x R 2.E ) 3.) 3.e.3.3.q.D 2 v r . . * J.Y.O . . M ! ~ } 7.8.8. .| | | { | | | | { ^ Q T T Q ~ [ [ J < ",
"> N ! 8.9.} ` ! ~ [ 9. .W l S E ) ( 4.( ( e.5.4.w.E 2 n K q o @ =.;.o O 9 P 7.9.9.7.| [ ^ ^ [ } | | | | 7.7.7.8.8.9.8.9.9.9.Y : ",
"% N ' 9.9.` Q ! ^ } 0.7.L x R D 4.1.4.( ( e.q.5.w.E 2 b ' [ @ . . . . 9 ^ ^ ^ ! ! ! W Z K K Z K J K K Z C K L P Y ~ T ' ^ ^ K < ",
"< b K U ! B b Z C C L Z C x A c S D D Z S / D A R S 2 x C C 9 < . . 7 q C C C C N N N n n m v v v x 6 6 6 5 5 5 5 3 4 5 5 z b < ",
"< % < < < < < % > # < < > < > > < : : < % : < % > < < % : * : : o . # < # < > % < < < < < % < < % < < < < < < : * : < : : < < < "
};
