/* XPM */
static char *result[] = {
/* columns rows colors chars-per-pixel */
"64 64 196 2 ",
"   c #090000",
".  c #110603",
"X  c #1C0702",
"o  c #160905",
"O  c #1B0C06",
"+  c #140C0C",
"@  c #1D0E09",
"#  c #1E1009",
"$  c #161212",
"%  c #1B1414",
"&  c #191C1C",
"*  c #230E06",
"=  c #2C0D03",
"-  c #230F08",
";  c #231007",
":  c #21110B",
">  c #2B160B",
",  c #2A160C",
"<  c #361304",
"1  c #3B1607",
"2  c #3B1709",
"3  c #32180B",
"4  c #3D1B0C",
"5  c #2D1A11",
"6  c #221C1C",
"7  c #351E12",
"8  c #3B1D10",
"9  c #39200F",
"0  c #352016",
"q  c #3C2314",
"w  c #3D2519",
"e  c #1F2526",
"r  c #2C2525",
"t  c #232A2B",
"y  c #322C2C",
"u  c #2C3738",
"i  c #373131",
"p  c #3B3535",
"a  c #3F3A3A",
"s  c #421E0D",
"d  c #411F11",
"f  c #44210E",
"g  c #49230F",
"h  c #442312",
"j  c #4A2614",
"k  c #4D2815",
"l  c #432719",
"z  c #442A1B",
"x  c #4C2C1B",
"c  c #522D1B",
"v  c #4D301E",
"b  c #53321D",
"n  c #5B361B",
"m  c #5E3619",
"M  c #603619",
"N  c #653B1C",
"B  c #6A3E1D",
"V  c #553622",
"C  c #5A3622",
"Z  c #573823",
"A  c #5B3B25",
"S  c #563929",
"D  c #5D3D28",
"F  c #423C3C",
"G  c #663A24",
"H  c #633D26",
"J  c #623F29",
"K  c #6E421F",
"L  c #70421F",
"P  c #644027",
"I  c #6F4220",
"U  c #65422A",
"Y  c #6B452D",
"T  c #6E482F",
"R  c #744421",
"E  c #784722",
"W  c #764823",
"Q  c #7C4B25",
"!  c #72452D",
"~  c #71492E",
"^  c #79492F",
"/  c #614531",
"(  c #6E4730",
")  c #6D4930",
"_  c #744C32",
"`  c #794E33",
"'  c #775135",
"]  c #7C5235",
"[  c #7E5438",
"{  c #344649",
"}  c #474242",
"|  c #4A4444",
" . c #4E4A4A",
".. c #514D4D",
"X. c #425457",
"o. c #555050",
"O. c #595555",
"+. c #5D5959",
"@. c #615D5D",
"#. c #4B6163",
"$. c #666262",
"%. c #6A6666",
"&. c #6E6B6B",
"*. c #726E6E",
"=. c #757272",
"-. c #797676",
";. c #75797A",
":. c #7C7A7A",
">. c #824E27",
",. c #824F28",
"<. c #855229",
"1. c #89552A",
"2. c #8B552B",
"3. c #91572D",
"4. c #945B2E",
"5. c #815537",
"6. c #825639",
"7. c #85593A",
"8. c #8A5C3D",
"9. c #965E31",
"0. c #9A5F31",
"q. c #915E3E",
"w. c #9C6132",
"e. c #A46636",
"r. c #A96836",
"t. c #8E5F42",
"y. c #925E40",
"u. c #8F6143",
"i. c #956242",
"p. c #9A6544",
"a. c #9D6946",
"s. c #986748",
"d. c #9E6A49",
"f. c #A16C47",
"g. c #A26D49",
"h. c #A6714D",
"j. c #A9724D",
"k. c #A77351",
"l. c #AB7652",
"z. c #AE7A54",
"x. c #B17D55",
"c. c #B17E59",
"v. c #817E7E",
"b. c #B5825A",
"n. c #B9855D",
"m. c #BE8B63",
"M. c #C18E66",
"N. c #C28F68",
"B. c #5A8386",
"V. c #688284",
"C. c #788F91",
"Z. c #689498",
"A. c #6D9CA0",
"S. c #7BAAAE",
"D. c #7EACB1",
"F. c #858282",
"G. c #8A8787",
"H. c #8B8A8A",
"J. c #928F8F",
"K. c #838F91",
"L. c #949393",
"P. c #939A9A",
"I. c #9D9B9B",
"U. c #A19F9F",
"Y. c #869EA0",
"T. c #95A7AA",
"R. c #82B0B4",
"E. c #A4A3A3",
"W. c #A9A6A6",
"Q. c #ADADAD",
"!. c #ADAFB0",
"~. c #ACBBBC",
"^. c #B5B5B5",
"/. c #B6B7B7",
"(. c #BBBBBB",
"). c #C0BFBF",
"_. c #93BFC4",
"`. c #B0BFC0",
"'. c #96C2C7",
"]. c #9AC6CB",
"[. c #9CC8CC",
"{. c #C5C4C4",
"}. c #C9C7C7",
"|. c #CCCBCB",
" X c #D0CFCF",
".X c #D4D4D4",
"XX c #D8D6D6",
"oX c #DEDDDD",
"OX c #D8E7E9",
"+X c #E2E2E2",
"@X c #E5EAEA",
"#X c #ECEBEB",
"$X c #EBF0F0",
"%X c #F3F3F3",
"&X c #F3F8F8",
"*X c #FFFFFF",
/* pixels */
"+ * * ; ; ; ; ; ; ; ; ; ; ; * ; ; ; * ; ; - - * O                             O * ; ; ; ; ; ; ; ; ; ; ; ; ; ; ; ; ; ; ; - - - ; ",
"; h k k k k k k k k k k k k k k k k k k k 8 8 7 ,                             , 3 > 4 f s f f f f f 1 4 8 f f 2 8 4 2 s s d d : ",
"- C _ 5.i.d.d.s.i.8.7.7.i.i.i.8.i.s.s.s.i.o                                         4 Q B W W Q N N f b Y ] _ A Y D b ` ` Y V : ",
"- j i.b.m.m.m.m.m.n.b.z.b.n.c.x.l.i.Y Y J .     % | ........ . . . . . . . .| $     , b j m L 1.L B g b ~ 8.[ T P ) P 8.8._ S : ",
"@ G n.M.M.b.z.z.l.b.b.n.n.c.j.h.s.P             y Q./.^.^.^./.^.^.^.^.^./.^.E.r           . m Q L E g b _ 8._ T D ) ) t.8.) Z ; ",
"- Y n.b.z.j.h.h.g.g.d.d.d.g.a.7.x 0       +.&.J.W.oXoX+XoXoXoX+XoXOXoX+XoX+XXXE.J.&.|       > 9 W E j C _ 8.T ~ D ) Y 7.8.U S : ",
"@ G z.b.b.b.z.z.z.z.b.b.c.z.l.]           E.(.*X*X*X*X*X*X*X*X*X*X*X*X*X*X*X*X*X*X(.:.          N L g b ' 7.Y U P T Y 7.7.U V # ",
": G j.d.w.s.s.d.g.d.d.d.j.h.o o   F E.{.+X&X*X*X*X*X*X*X*X*X*X*X*X*X*X*X*X*X*X*X*X%X%X+X).I.i   . # g b ] 6.Y G D Y U [ 7.P S : ",
"- s G 5.q.p.f.j.k.z.j.h.8.[   . 6 O.(.+X*X*X*X*X*X*X*X*X*X*X*X*X*X*X*X*X*X*X*X*X*X*X*X*XXX(. .&   . 8 v [ ] Y C D T U ' 8.U V : ",
"- G c.c.z.g.f.a.d.z.a.q.w     p /.|.*X*X*X*X*X*X*X*X*X*X*X*X*X*X*X*X*X*X*X*X*X*X*X*X*X*X*X*X|./.6     , ) ~ Y C A ) U ` 8._ S : ",
"- ! M.M.N.M.M.n.n.n.s._ 5   a $.|.oX*X*X*X*X*X*X*X*X*X*X*X*X*X*X*X*X*X*X*X*X*X*X*X*X*X*X*X*XXX|.o.p   : v Y Y S J T P _ y.` S - ",
": ! M.N.N.M.M.M.N.M./ .     !.{.*X*X*X*X*X*X*X*X*X*X*X*X*X*X*X*X*X*X*X*X*X*X*X*X*X*X*X*X*X*X*X*X(.I.      v Y S P D A _ t.` A : ",
": G k.k.k.k.l.l.l.z.S       XX+X*X*X*X*X*X*X*X*X*X*X*X*X*X*X*X*X*X*X*X*X*X*X*X*X*X*X*X*X*X*X*X*XoX{.      V ) A U A S Y 8.[ A : ",
"- d k c x x c c c c ,       *X*X*X*X*X*X*X*X*X*X*X*X*X*X*X*X*X*X*X*X*X*X*X*X*X*X*X*X*X*X*X*X*X*X*X+X      V ) A ~ Y Y U 8.[ A : ",
"- d C V V V V V l : o   o.:.*X*X*X*X*X*X*X*X*X*X*X*X*X*X*X*X*X*X*X*X*X*X*X*X*X*X*X*X*X*X*X*X*X*X*X%X:.|   : 5 v T U _ Y 7.[ D : ",
"- x _ _ Y U U Y z       :.(.*X*X*X*X*X*X*X*X*X*X*X*X*X*X*X*X*X*X*X*X*X*X*X*X*X*X*X*X*X*X*X*X*X*X*X%X(.&.      x Y Y _ ( [ [ D : ",
"@ c 8.8.t.8.8.8.Z       W.*X*X*X*X*X*X*X*X*X*X*X*X*X*X*X*X*X*X*X*X*X*X*X*X*X*X*X*X*X*X*X*X*X*X*X*X*X*XJ.      z Y Y ) Y _ 7.D : ",
"@ x 7.7.7.5.] D w   % y /.*X*X*X*X*X*X*X*X*X*X*X*X*X*X*X*X*X*X*X*X*X*X*X*X*X*X*X*X*X*X*X*X*X*X*X*X*X*XE.y $   q Z ) P Y ) 7.D : ",
"@ d G Y ) Y Y   .   @.Q.+X*X*X*X*X*X*X*X*X*X*X*X*X*X*X*X*X*X*X*X*X*X*X*X*X*X*X*X*X*X*X*X*X*X*X*X*X*X*XXXE.|     . _ Y Y _ 7.U : ",
"- d G Y Y Y T       @./.+X*X#X+X}.}.{.}.{.{.|.#X%X*X*X*X*X*X*X*X*X*X*X*X*X*X*X%X#X{.}.{.}.}.{.{.@X%X*XoX/. .      _ Y Y _ 8.U : ",
"# j Y P J A A       $./.+X*X/.F.            % Q.|.*X*X*X*X*X*X*X*X*X*X*X*X*X&X{.Q.+             I.(.*XoX/...      _ Y Y _ 7.J : ",
"# h U Y T T U       $./.@X*XO.F       | H.H.F.+.F.%X*X*X*X*X*X*X*X*X*X*X*X*X%X-...      ..G.G.G.@.%.*XoX^. .      ) T Y _ [ A : ",
"# C 6.6.] _ ~       $.^.@X*X          G.*X*XoX+ } #X*X*X*X*X*X*X*X*X*X*X*X*X#Xp         J.*X*X&Xr 6 *XoX^...      _ _ ) ' _ A : ",
"; A 7.7.7.8.8.      $.^.(.(.          G.*X*XoX+ | %X*X*X*X*X*X*X*X*X*X*X*X*X@Xa         J.*X*X*Xr $ (.(.^.|       ] _ ( [ _ V : ",
"; b J P P U /       @.!.^.^.          -.oXoX{.o } %X*X*X#XoXoX+XoXoXoX%X*X*X@Xp         :.oXOXoX6 $ /.^.Q. .      7.~ Y ' _ Z # ",
"# 8 8 h f h h        .J.Q./.          $ r r r   } $X*X*X-.r r r r r r L.*X*X+XF         % r r r . % /.E.H.a       7.T T ] ' A ; ",
"; j x b b Z Z o     } =.U./.                    | #X#XXX..            &.XX%X#XF                   % /.I.=.y   . o 7.U T _ ] A # ",
": x A ] _ T U U 0     . :./.                    | %XE.+                 O  X#Xi                   % /.&..     w T ' D T _ [ D # ",
"# x D 7.[ U U P z       &.E.| i             o } -.%XI.  F $.$.$.$.$.$.i    X$X*.}               a o.E.+.      z _ _ A ( _ 7.J - ",
"# x D 7.7.U Y U z       +.H.^.F.            & Q.}.*XI.  E.*X*X*X*X*X*XF.   X*X{.Q.o             I.^.H...      w _ _ A ( _ 7.U - ",
"# c Y 7.] P ) _ U z 5   6 i /.T.V.V.V.V.V.;.G.+X#X*XI.  p @.O.+.+.O.O.y    X*X@XOXv.;.V.V.V.V.V.!.W.i &   0 v V _ _ J ( ~ 8./ - ",
": v ' 8.~ P ) _ ) D z       ^.~.].].].].].(.{.&X*X*XU.$ % $ % @ $ % % % $  X*X*X&X{.`.[.].].].].^.E.      V Y J _ Y J J ` 8./ - ",
": b ] 8.U U U ~ ) D z       L.T.[.].[.[.].@X%X*X*X*X#X{.|.{.|.{.}.}.{.|.{.%X*X*X*X$XoX[.[.[.[.[.P.F.      V Y J _ _ U J 6.7.J : ",
": b 7.6.U U U _ ) A v .     :.K.'.].].[.[.&X*X*X*X*X*X*X*X*X*X*X*X*X*X*X*X*X*X*X*X*XOX[.[.[.].'.C.&.    . S ! U _ _ U Y 8.` D : ",
": b 6.] Y U U ' T P 5.Z O   + u A.D.].[.[.&X*X*X*X*X*X*X*X*X*X*X*X*X*X*X*X*X*X*X*X*X@X[.[.].S.A.r +   X A 7._ U Y U Y ) 8.Y S ; ",
"; b ] ] U U Y ] U Y 8.H ;     e B.Z._.].[.$X&X*X*X*X*X*X*X*X*X*X*X*X*X*X*X*X*X*X*X&XOX[.]._.Z.B.$   . * Y 8.] H Y J Y ) 8.) V : ",
"# x ' ] Y P T ' P T 8.A h 2       u Z.R.[./.{.*X*X*X*X*X*X*X*X*X*X*X*X*X*X*X*X*X&X`.`.[.S.Z.t       j 2 Y 8.8.b / U T Y 6.T V ; ",
": x T 7.Y U ' _ P _ 8.b j 1 h q   & { X.#.Y.T.XX+X*X*X*X*X*X*X*X*X*X*X*X*X*X*X+XXXT.C.#.{ { &   > l g j P ' ] k H U U Y U Z V # ",
"# x T 7.Y U 6.~ Y ~ 7.n x 1 >.R           B.Z.!.}.%X*X*X&X*X*X*X*X&X*X*X*X*X%X{.!.Z.#.        . 2 g s s h h h 4 s f g f s 4 h # ",
"# x Y [ Y T 7.T T T 8.D x 1 2.2.n l       t t p o.E./.|.|.|.|.|. X|.|.|.}.Q.T...u t &     + d V Y R ! ! ^ ^ ^ ^ ^ ^ ^ ^ ~ ! J ; ",
": x U 7.Y ~ 7.Y [ ~ 7.A v s 2.9.<.H   o         r :.L.!.!.^.Q.Q.Q.Q.Q.Q.Q.H.:.6         . o _ y.y.f.j.c.c.c.c.c.b.b.n.b.c.z.8.; ",
": x Y 7.U _ ] ~ 7._ 6.A b 1 ,.0.1.9.m m m o     o 6 r y y y y y y y y y y r 6 .         z ( 5.6.y.j.l.c.l.l.l.n.M.M.n.c.M.M.u.# ",
": x ) 7.U T T 6.6._ ` A b 1 Q w.<.r.<.W W o                                             D k.z.h.q.q.y.y.y.y.y.y.i.s.y.p.s.z.t.: ",
": v ] 7.P Y T 8.] ` _ C b 1 E 4.<.w.4.W K <.<.<.H                           % {.#X$     ( m.c.m.c.g.y.f.j.j.g.y.p.w.p.g.j.k.7.: ",
"; b ] 5.P Y ) 7.Y ` _ C C 1 E 4.<.1.w.Q K n c m q       y  .@.$.$.$.$.$.$.$.*.oX$X$     D s.p.p.g.g.g.f.j.p.f.j.g.y.q.f.i.p.^ ; ",
"; b 6.5.P Y _ ] Y ] ` S V 1 E 2.Q <.1.,.K o             -.(.%X*X*X*X*X*X*X*X*X*X%X+     A j.j.j.j.g.g.q.f.j.f.g.f.8.q.p.g.h.6.: ",
": c ] 7.P U T _ Y ] [ A C 1 W ,.>.<.<.m 0 .     6 @.=.H.).oX*X*X*X*X*X*X*X*X*XoX|.+     V k.k.p.p.f.h.j.y.y.y.q.y.f.y.h.h.g.` : ",
": x ' 7.P T Y U U ] 7.J A 1 L E <.L Q q         i Q..X*X*X*X*X*X*X*X*X*X*X*X%X}.E.+     A p.y.f.f.p.q.f.g.j.g.j.j.g.f.p.7.` G : ",
": c _ 8.U _ U U T ' 8.U Z 4 K L Q m 9 O   &.v.W.(.+X$X*X*X*X*X*X*X*X*X*X*XXX{.@.F   5 ! t.g.g.d.p.a.f.p.g.j.l.z.x.c.n.n.x.j.7.- ",
": x _ 8.U ] T Y T Y 8.T A 4 L L L b       T.).*X*X*X*X*X*X*X*X*X*X*X*X*X*X}.E.y     w g.g.g.g.d.g.p.8.5.y.g.l.c.n.x.k.g.g.j.7.- ",
"# x _ u.T ) Y ) T P 6.~ A 4 L <.K n       E.U.6 % % % % % % % % % % % % % $ +     J G ^ G ! Y G G G G ! G J G ( ! Y ! Y ! ~ G : ",
": x ) t.' D P ( U P [ ' A g K <.L n # o   G.F..                               . o d d d d d 4 4 4 2 s s d h j k k k k j l j h : ",
"; x ) 8.[ D Z U A D ' ] A f L >.Q Q >.c                                     . A ~ _ _ ` ' ' ~ J J U U ( ( _ ' 5.[ _ T A J J b : ",
": x ) 8.7.U U U Z P ' ' A 9 L Q >.L <.W l .   h h 7 X , O             : w l z ] 8.7.6.6.6.6.t.[ 6.6.[ [ 5.[ [ 6.7.8.7.] 7.' c : ",
": x / 8.7.P ) Y b P _ T A f K Q >.L >.w.3.o O 3.1.H < k 0             z 6.5._ Y / U J J P U P U ( ( Y ( ( ( ( J U T ] 6.[ _ C - ",
"; x P 7.8.P ) ) V U T ] D f K W <.K <.w.3.n n 3.3.N = ; +   @.%.%.+.  @ 7 V J _ ` _ ( ( Y T ) ~ ( ( Y Y J J J J Y P H U U Y S : ",
"; x A [ 8.U Y Y V Y _ 8.P 8 K R <.W <.3.4.4.<.3.3.N *     + E././.I.      v P Y Y U U T T T ~ ' ] 7.6.] ~ Y P Y U Y ~ Y U U A ; ",
": x A ] 8.U Y Y Z T ' 8.D f K R E <.>.Q 4.w.>.2.Q * .   o.H.oX|.| y   , x D T ) Y Y T ' ] 8.7.] ~ ~ T ~ _ _ ' ' _ _ _ Y J Y C : ",
": x A ] 8._ Y U A T ] 7.D 8 K W R Q <.Q 4.e.Q 1.W o     &.Q.$X|.6     5 Z Z A U U U U P U Y _ ] ] ~ Y P P P P U Y Y Y Y Y J h ; ",
": x D 6.8.` T U U T 8.] D 4 K Q E Q <.Q 1.r.1.<.w.B *     + E.P.%     0 Y Y Y Y _ 7.7.8.7.] ] ] ' ' ] ] ] ' T Y J J U Y _ _ C : ",
"; x U 7.8.` ~ U T T 8.] D f N W E Q 1.Q Q r.9.2.r.I = @ O . *.%.$   5 v ' [ 7.8.8.[ [ ' T T _ ' ] ] 6.] ] 7.6.7.7.7.7.t.8.8.J - ",
": x ( 8.8._ U Y T ] 8.7.A f B B 2.,.1.Q Q r.0.4.r.R < j 5         o ` U T T Y U U P A Z Z Z b Z A n Z b b V A A J U U ( ( ( S - ",
"- x V A A c k C b b A A b f M g N B B m M R B m I N < 8 7 :   . : 5 V V V b b b v x x k k l h h h f 4 4 4 4 2 2 2 2 2 < 2 s j : ",
"- : : : : : # # ; # # ; ; : : : : # - : : : : : # : : ; : :     @ : : # # : : # : : : : : : : : : : : : : : # : : : : : - : : : "
};
