/* XPM */
static char *result[] = {
/* columns rows colors chars-per-pixel */
"64 64 196 2 ",
"   c #090000",
".  c #120604",
"X  c #1C0702",
"o  c #150906",
"O  c #1A0B06",
"+  c #140C0C",
"@  c #1E0E09",
"#  c #1F100A",
"$  c #161212",
"%  c #1B1414",
"&  c #191C1C",
"*  c #230F07",
"=  c #2E0E03",
"-  c #230F08",
";  c #310F04",
":  c #231007",
">  c #21110B",
",  c #29150B",
"<  c #2B160C",
"1  c #361204",
"2  c #3B1607",
"3  c #311508",
"4  c #3B1709",
"5  c #351B0D",
"6  c #3D1B0C",
"7  c #2D1A11",
"8  c #221C1C",
"9  c #341E14",
"0  c #372115",
"q  c #3A2215",
"w  c #3D2519",
"e  c #1F2526",
"r  c #2C2525",
"t  c #232A2B",
"y  c #322C2C",
"u  c #2C3738",
"i  c #3B3535",
"p  c #3D3838",
"a  c #421E0D",
"s  c #411F11",
"d  c #44210E",
"f  c #49230F",
"g  c #452312",
"h  c #4A2614",
"j  c #4D2915",
"k  c #442718",
"l  c #422A1B",
"z  c #4C2C1B",
"x  c #522D1B",
"c  c #4C301E",
"v  c #53321E",
"b  c #5B351B",
"n  c #603619",
"m  c #653B1C",
"M  c #6A3E1D",
"N  c #4B2F20",
"B  c #4F3221",
"V  c #553622",
"C  c #5A3622",
"Z  c #573823",
"A  c #5B3B25",
"S  c #5E3D28",
"D  c #423C3C",
"F  c #663A24",
"G  c #633D26",
"H  c #623F29",
"J  c #6E421F",
"K  c #70421F",
"L  c #644027",
"P  c #6E4321",
"I  c #65422A",
"U  c #6B452D",
"Y  c #6E482F",
"T  c #744421",
"R  c #784722",
"E  c #774822",
"W  c #7C4B25",
"Q  c #72452D",
"!  c #72492E",
"~  c #79492F",
"^  c #6C4630",
"/  c #6D4930",
"(  c #744C32",
")  c #794E33",
"_  c #7C5235",
"`  c #775238",
"'  c #7E5438",
"]  c #344649",
"[  c #474242",
"{  c #4A4444",
"}  c #4E4A4A",
"|  c #514D4D",
" . c #425457",
".. c #555050",
"X. c #595555",
"o. c #5D5959",
"O. c #615D5D",
"+. c #4B6163",
"@. c #666262",
"#. c #6A6666",
"$. c #6E6B6B",
"%. c #726E6E",
"&. c #757272",
"*. c #797676",
"=. c #75797A",
"-. c #7C7A7A",
";. c #824E27",
":. c #824F28",
">. c #825027",
",. c #855229",
"<. c #8B552B",
"1. c #8E592C",
"2. c #935A2E",
"3. c #985C2F",
"4. c #815537",
"5. c #825639",
"6. c #85593A",
"7. c #8A5C3D",
"8. c #965E30",
"9. c #9B5F31",
"0. c #915E3E",
"q. c #976033",
"w. c #9D6132",
"e. c #A36434",
"r. c #A96836",
"t. c #A66838",
"y. c #8E5F42",
"u. c #925E40",
"i. c #8F6143",
"p. c #956242",
"a. c #9A6544",
"s. c #9D6946",
"d. c #9A6748",
"f. c #9E6A49",
"g. c #A16C47",
"h. c #A26D49",
"j. c #A6714D",
"k. c #A9734D",
"l. c #A77351",
"z. c #AB7652",
"x. c #AD7A54",
"c. c #B17C56",
"v. c #B17E59",
"b. c #817E7E",
"n. c #B5825A",
"m. c #B9855D",
"M. c #BE8B63",
"N. c #C18E66",
"B. c #C28F68",
"V. c #5A8386",
"C. c #688284",
"Z. c #788F91",
"A. c #689498",
"S. c #6D9CA0",
"D. c #7BAAAE",
"F. c #7DACB0",
"G. c #858282",
"H. c #8B8787",
"J. c #8B8A8A",
"K. c #938F8F",
"L. c #838F91",
"P. c #949393",
"I. c #9D9B9B",
"U. c #A19F9F",
"Y. c #869EA0",
"T. c #95A7AA",
"R. c #82B0B4",
"E. c #A4A3A3",
"W. c #A7A6A6",
"Q. c #ADADAD",
"!. c #ADAFB0",
"~. c #ACBBBC",
"^. c #B5B5B5",
"/. c #B6B7B7",
"(. c #BBBBBB",
"). c #C0BFBF",
"_. c #93BFC4",
"`. c #B0BFC0",
"'. c #96C2C7",
"]. c #9AC6CB",
"[. c #9CC8CC",
"{. c #C5C4C4",
"}. c #C9C7C7",
"|. c #CCCBCB",
" X c #D0CFCF",
".X c #D4D4D4",
"XX c #D8D6D6",
"oX c #DEDDDD",
"OX c #D8E7E9",
"+X c #E2E2E2",
"@X c #E5EAEA",
"#X c #ECEBEB",
"$X c #EBF0F0",
"%X c #F3F3F3",
"&X c #F3F8F8",
"*X c #FFFFFF",
/* pixels */
"+ * * : : : : : : : * * : * * * : : : - - * * * *                             O : : : : : : : : : : : : : : : : : : - - - - - : ",
": g j j j z j j j j j j j j j j j j x j j g 9 9 <                             : 3 < 4 d a d d d d d 2 6 q d d 4 6 6 4 d a s 6 > ",
": C ~ 4.p.d.f.d.p.7.6.6.u.p.p.0.p.p.d.d.p.9                                         o R M K W W M n d v U ) ) A I H v ) ) ^ V > ",
"- h i.n.M.M.M.M.M.m.v.x.m.m.v.c.z.p.U ^ S >     % { | | | | } } } } } } } } } %     o b j x K 1.K J d v ! 7.' Y I / L 7.7.( A > ",
"@ F N.N.M.n.x.x.x.n.n.n.m.c.k.h.s.U             r E./.^.^.^./.^.^.^.^.^./.^.Q.y             b W K E f v ( 7.! Y S / / y.7./ Z # ",
"- U m.n.x.k.j.j.h.h.f.f.h.h.s.p.B w       { $.K.W.XXoX+XoXoXoX+XoX+XoXoXOXoXoXW.K.%.O.      , 5 M W h v ) 7.U Y H / U 6.7.I Z # ",
"- F x.c.n.n.x.z.z.x.n.n.v.x.z.p.          *.(.*X*X*X*X*X*X*X*X*X*X*X*X*X*X*X*X*X*X).E.          b K f v ` 6.U U S U ^ 6.6.H Z % ",
"# G k.f.q.s.s.f.h.f.f.f.j.j., o   y I.).+X%X&X*X*X*X*X*X*X*X*X*X*X*X*X*X*X*X*X*X*X&X&X+X{.E.p   . . f v _ 4.U L S U I ' 6.I V > ",
"- a F 4.0.a.h.k.x.x.k.j.7.5.o   & | (.oX*X*X*X*X*X*X*X*X*X*X*X*X*X*X*X*X*X*X*X*X*X*X*X*XoX(.X.8 .   q c ' ` U A H Y L ` 7.U V > ",
"- F v.v.c.h.d.d.f.x.s.q.z     8 /.|.*X*X*X*X*X*X*X*X*X*X*X*X*X*X*X*X*X*X*X*X*X*X*X*X*X*X*X*X.X/.i     > / / U C S / L ` 7.! V > ",
"- ~ N.B.B.N.M.M.m.m.h.) 9   i ..}.XX*X*X*X*X*X*X*X*X*X*X*X*X*X*X*X*X*X*X*X*X*X*X*X*X*X*X*X*X+X}.@.D   O z I ^ C S U L ) y.) A @ ",
"> Q N.N.N.N.N.B.M.B.o.X     I.(.*X*X*X*X*X*X*X*X*X*X*X*X*X*X*X*X*X*X*X*X*X*X*X*X*X*X*X*X*X*X*X*X{.!.      l U V I S S Q y.' A > ",
"- F l.l.l.l.z.z.z.c./       {.oX*X*X*X*X*X*X*X*X*X*X*X*X*X*X*X*X*X*X*X*X*X*X*X*X*X*X*X*X*X*X*X*X+XXX      l ^ A I A A U 7.' A @ ",
"- s x j j j x x x x 9       +X*X*X*X*X*X*X*X*X*X*X*X*X*X*X*X*X*X*X*X*X*X*X*X*X*X*X*X*X*X*X*X*X*X*X*X      l Y S ( U U H 7.' S > ",
"- s V V V V V V z - o   { -.$X*X*X*X*X*X*X*X*X*X*X*X*X*X*X*X*X*X*X*X*X*X*X*X*X*X*X*X*X*X*X*X*X*X*X*X*...  O 7 z ^ U ( U y.' A - ",
"@ z ) / ^ I I I B       %.(.&X*X*X*X*X*X*X*X*X*X*X*X*X*X*X*X*X*X*X*X*X*X*X*X*X*X*X*X*X*X*X*X*X*X*X*X(.-.      w U U / U ` ' S > ",
"@ x 7.7.7.7.7.7.I       K.*X*X*X*X*X*X*X*X*X*X*X*X*X*X*X*X*X*X*X*X*X*X*X*X*X*X*X*X*X*X*X*X*X*X*X*X*X*XW.      w U I Y Y ) 6.S @ ",
"@ x 6.7.7.4._ H l   $ y E.*X*X*X*X*X*X*X*X*X*X*X*X*X*X*X*X*X*X*X*X*X*X*X*X*X*X*X*X*X*X*X*X*X*X*X*X*X*X^.y %   9 A / I U Y 6.I : ",
"@ s F I U U I .     { W.XX*X*X*X*X*X*X*X*X*X*X*X*X*X*X*X*X*X*X*X*X*X*X*X*X*X*X*X*X*X*X*X*X*X*X*X*X*X*X+XQ.o.      ) I I / 6.I # ",
"@ s G U ^ U U       } ^.oX*X%X@X{.{.{.{.{.{.}.#X%X*X*X*X*X*X*X*X*X*X*X*X*X*X*X%X#X|.{.{.{.{.{.{.+X#X*X+X/.#.      ` U U ( y.I # ",
"@ j I L H A A       } ^.oX*X(.I.            + Q.{.&X*X*X*X*X*X*X*X*X*X*X*X*X*X{.Q.8             G.(.*X+X(.@.      ) I U ( 5.L > ",
"@ d U U Y Y I       } ^.+X*X#.O.H.H.H.|       | *.%X*X*X*X*X*X*X*X*X*X*X*X*X%XG.X.G.H.H.}       D ..*X@X/.@.      ( U U ) ' A > ",
"@ C ' 6._ ( !       } ^.oX*X8 r *X*X*XK.        p @X*X*X*X*X*X*X*X*X*X*X*X*X%X{ + oX*X*XH.          *X+X/.@.      ( ( U ` ` Z > ",
": A 6.6.6.7.7.      } ^.(.(.% r *X*X*XP.        p @X*X*X*X*X*X*X*X*X*X*X*X*X#X{ + oX*X*XG.          (.(.^.@.      ` ) ^ ) ( V > ",
"> v L H I I U       } !.^./.% 8 XX+XoXb.        i @X*X*X#X+XoXoXoXoXoX#X*X*X%X{ + ).oXoX*.          ^.^.^.O.      6.) U ) ( Z # ",
"@ 6 d q g g q       p J.E./.%   r r r %         i @X*X*XK.r r r r r r *.*X*X$X[   r r r %           /.Q.J.|       6.Y U ` ) A > ",
": h z v v V V o     y &.I./.$                   D @X&XXX$.            ..XX#X$X{                     /.U.&.[     O 6.I U _ ` A # ",
"@ z S _ ( U I I w     o $./.$                   i @X.Xo                 o U.%X{                     /.=.+     0 U ` S Y ! ' S # ",
"> z S 6._ U I L c       o.W...D               [ %.#X X  i @.@.@.@.@.@.D   I.%X*.{ +             y } W.$.      w ( ( S / ! 6.G @ ",
"# z S 6.6.I U I B       } J.!.I.            + Q.}.&X X  G.*X*X*X*X*X*XU.  U.*X{.Q.&             G./.J.o.      0 ) ( S ^ ( 6.I > ",
"# z I 6._ L Y ( I l w   & y Q.Q.C.C.C.C.C.=.-.oX#X*X X  y o.o.X.o.o.o.D   I.*X#X+XG.*.C.C.C.C.C.T./.y r   7 N V ( U S I ( 7.I > ",
"# V ` 7.! L U ) / S V       E.^.].[.[.[.[.`.).*X*X*X X% % + % % % % + % % U.*X*X&X{.(.[.[.[.[.[.~.!.      l U L ( U L L ) i.I > ",
": v ' 7.I I I ( / S V       n.P.[.[.[.[.].OX%X*X*X*X&X{.}.}.}.{.{.{.{.}.}.@X*X*X*X%X@X[.[.[.[.].T.K.      l ^ H ( ( I H 6.6.H - ",
"# v 6.5.I I I ) / S Z .     $.Z.'.'.].[.].OX*X*X*X*X*X*X*X*X*X*X*X*X*X*X*X*X*X*X*X*X%X].[.[.].].L.-.      z ( H ( ( I I 7.) S > ",
"> v 6.` U L I ` ^ H ' Z $   + e S.D.].[.[.OX*X*X*X*X*X*X*X*X*X*X*X*X*X*X*X*X*X*X*X*X*X[.[.].F.S.u %   X G 6.( L U I I ( 6.^ Z > ",
": v _ ` I L I ` I U y.S > .   $ V.A._.].[.OX&X*X*X*X*X*X*X*X*X*X*X*X*X*X*X*X*X*X*X&X#X[.]._.A.V.e     X I 7._ G U H ^ / y./ V > ",
"# c ) ' U I Y ) L ( 6.A k 2 X     t A.F.[.~.(.&X*X*X*X*X*X*X*X*X*X*X*X*X*X*X*X*X*X`./.[.R.A.u       h 4 U 7.7.b U I ! U 5.Y V : ",
"> z Y 6.U I ) ) H ( 7.C h 2 k j   & ] ] +.Z.T..X+X*X*X*X*X*X*X*X*X*X*X*X*X*X*X+XoXT.Y.+. .] &   , q f h L ) ` z A I I I L Z V # ",
": z U ' U I 5.! I ( 6.b z 2 ;.,..         +.A.!.).%X*X*X*X*X*X*X*X&X*X*X*X*X&X{.!.A.V.      .   3 f a s g g g 4 d d g d d 6 q : ",
"> c I 6.U U 6.! ! ! 6.A z 2 <.2.b k +     & t i ..E.Q.}.|.|.}.|.|.|.|.|.|.^.E.X.p t e       9 v F Q T Q ~ ) ~ ~ ) ~ ~ ~ ! ! F > ",
"# z I 6.U Y 6.U ` ! 6.S z a <.2.,.P .           8 *.J.!.!.!.Q.Q.Q.Q.Q.^.!.P.-.r         . . / u.u.g.k.c.v.m.v.v.n.m.m.v.v.c.7.- ",
"> z U 6.U ! _ ! 6.) _ S v 2 ;.w.,.q.b q           r r y y y y y y y y y y r r .     o ` ( ^ 4.5.u.k.z.v.z.k.z.m.N.M.m.m.N.N.y.- ",
"# z / 6.I Y ! 5.4.) ` A v 2 W w.,.t.<.g                                             + d.h.l.c.h.u.0.u.u.u.u.u.0.p.a.0.q.d.c.y.% ",
"> V ` 5.L Y Y 6.` ) ) C v 2 R 2.>.w.8.k     $ $X{.%                           y.x.k.k.x.v.m.m.m.v.h.u.g.k.j.h.u.p.a.a.h.l.h.6.- ",
": c _ 5.L U Y 6.U ) ) C V 4 E 3.>.<.8.j     + %XoX%.O.@.@.@.@.@.@.O.} y       V I I / f.d.s.d.d.g.g.g.g.k.a.g.k.h.u.0.g.a.d.~ - ",
": b 5.5.L U ! _ U ` ) V C 4 T 1.W ,.<.j     % #X*X*X*X*X*X*X*X*X*X&X(.*.            O p.f.k.k.k.k.h.h.0.a.k.g.j.h.7.0.a.g.j.4.: ",
"> x ` 5.L U Y ) I 4.' C V 4 E >.>.,.,.z     + }.+X*X*X*X*X*X*X*X*X*XoX(.J.&.o.8     o 0 I l.k.a.a.g.k.k.a.0.u.u.u.h.u.j.j.h.) > ",
"> z ) 6.L U U I I _ 6.G C a K E >.K W j     + Q.{.&X*X*X*X*X*X*X*X*X*X*X*X.XQ.i         N p.u.g.g.a.0.g.h.h.k.h.k.h.g.a.6.) F > ",
"> z ) 7.I ! I U I ) 6.U Z 6 J K W E >.T m >   D O.{.XX*X*X*X*X*X*X*X*X*X*X%X+X(.W.G.$.  > l ' g.a.g.d.g.h.l.z.x.c.v.m.n.x.z.6.> ",
"> z ( 7.U ` Y U Y U 7.! A 6 K E T >.W ,.w.9     r W.{.*X*X*X*X*X*X*X*X*X*X*X*X*X*X(.E.      ^ f.h.a.5.4.u.h.z.v.m.v.z.h.h.k.7.> ",
": z / i./ Y I / U L 6./ A 6 J W M >.W 1.e.W W .   + $ % % % % $ % % % % % % % % 8 E.E.      z F F F F F F F H Q Q Q F Q Q / F @ ",
"# c ( 7.` L L / U S ' ) A g K ,.E W W 3.w.>.1.< :                                 G.H.    . < 5 6 a a h s g h h j j x h h h g > ",
"> z / 7.' H A I A I _ ` A d K >.W E >.e.2.,.3.9.T .                                     w ) Y I H H H ^ Q ) ' ' ' ( I A S S V - ",
": z / 7.6.H I I V L ( ` A q K >.>.K >.e.2.<.1.9.W 9 X : :             O w l w l w .   w S ' 6.6.6.6.5.5.' ' ' 5.6.7.7.4.6.` x - ",
"# z I 7.6.H / U v I ( U b d J K :.K ;.e.1.<.1.3.1.F 1 j l             0 6.4.) U H + o I I I L I H ^ ^ ^ ^ ^ ^ H I Y ` 5.6.( C > ",
"> z I 6.7.I / U v I / _ L d J W ,.K >.9.1.1.<.2.1.m ; : #   o.$.$.O.  o 7 z H ( ( z l ^ U Y Y ! ( / ^ H H H H H I L H L I I C > ",
": c A 5.6.I U U V U ( 7.I 6 J K >.E >.1.2.2.,.2.2.F =       U././.E.+     w L U U I U Y / / Y ) _ 6.6.' / U I U U U U U I I C : ",
": j A _ 7.U U I A U ` 7.L q J K W ,.>.W 3.w.;.<.2.m 1 5 <   y { }.oXH...  o , A U U U ( ' 6.6._ ) Y Y ! ) ) ) ! ( ( ) U I U A > ",
"@ c A ` 0.( U I S U _ 6.L 6 J W T W >.W 2.e.W <.8.M 1 j 0     8 |.#XQ.$.    + c U L I I U U ) _ _ ! I L S S L U U U U U I G g : ",
": z S 4.7.` Y I I Y 6.' S 6 J W W W ,.E <.r.,.,.w.J 1 g w     % P.W.+     l I U ( 6.6.6.6._ ` _ ) ) _ _ _ _ ! L L S I Y ) ( C > ",
": z I 6.7._ Y I U Y 7.' S d m K R W <.R W r.2.1.e.J 1 j C 9   + #.%.. o 7 S 6.6.6.6._ ( ( / ! ` _ _ ' _ _ 4.6.6.6.6.7.7.y.7.H - ",
"# z ^ 7.7.! F U Y _ 7.6.A q J J <.:.<.W E t.w.2.r.T 1 j ^ ( +         7 Y ( Y I U L A A Z v b Z b A Z v V V A S H U H ^ ^ ^ C # ",
"> h C S S v j b v v A b v d b f m M M b m T M n K b 1 q B B 7 > .   > 9 x V v v c j z z k k h g g q 6 6 6 6 6 4 4 4 3 4 6 6 h > ",
"> > > > > > # > > # > > > > : : > # : > > : > > > > : : > > : %     # > # > > @ > > > > # > > > # , # # > # @ > - @ > > > > > > "
};
