/* XPM */
static char *result[] = {
/* columns rows colors chars-per-pixel */
"64 64 193 2 ",
"   c #040303",
".  c #080101",
"X  c #0C0B0B",
"o  c #120705",
"O  c #140A07",
"+  c #1B0C06",
"@  c #130D0C",
"#  c #1E0F09",
"$  c #16110E",
"%  c #1B120C",
"&  c #141313",
"*  c #1B1414",
"=  c #1F1A16",
"-  c #1B1B1B",
";  c #230F07",
":  c #2B0D02",
">  c #230F08",
",  c #231007",
"<  c #21110B",
"1  c #2A150A",
"2  c #2B150B",
"3  c #361304",
"4  c #391607",
"5  c #321608",
"6  c #3A1709",
"7  c #3C1B0C",
"8  c #221710",
"9  c #251A12",
"0  c #2B1A11",
"q  c #221D1C",
"w  c #371E11",
"e  c #29201A",
"r  c #322116",
"t  c #382317",
"y  c #392619",
"u  c #3E291C",
"i  c #1F2526",
"p  c #232323",
"a  c #2C2525",
"s  c #202728",
"d  c #252D2E",
"f  c #2A2A2A",
"g  c #322D2D",
"h  c #2C3738",
"j  c #333333",
"k  c #3B3535",
"l  c #3F3A3A",
"z  c #421E0D",
"x  c #411F11",
"c  c #44210E",
"v  c #4A230F",
"b  c #452312",
"n  c #4A2615",
"m  c #4E2815",
"M  c #492618",
"N  c #442B1C",
"B  c #4C2C1A",
"V  c #522D1B",
"C  c #4D311F",
"Z  c #53321E",
"A  c #5B361B",
"S  c #603619",
"D  c #653B1C",
"F  c #6A3E1D",
"G  c #4A3221",
"H  c #4B3627",
"J  c #553623",
"K  c #5B3622",
"L  c #563924",
"P  c #5B3B25",
"I  c #5C3D28",
"U  c #423C3C",
"Y  c #663A24",
"T  c #633D26",
"R  c #623F28",
"E  c #6D411F",
"W  c #70411F",
"Q  c #5E422E",
"!  c #684125",
"~  c #65422B",
"^  c #6B452D",
"/  c #6E482F",
"(  c #734421",
")  c #7B4B24",
"_  c #794826",
"`  c #71452E",
"'  c #72492E",
"]  c #6D4630",
"[  c #6D4930",
"{  c #744C32",
"}  c #7A4E32",
"|  c #745036",
" . c #7C5235",
".. c #7C5439",
"X. c #344649",
"o. c #474242",
"O. c #4A4444",
"+. c #4E4A4A",
"@. c #514D4D",
"#. c #425457",
"$. c #595555",
"%. c #5D5959",
"&. c #615D5D",
"*. c #4B6163",
"=. c #666262",
"-. c #6A6666",
";. c #6E6B6B",
":. c #726E6E",
">. c #757272",
",. c #797676",
"<. c #75797A",
"1. c #7C7A7A",
"2. c #824F27",
"3. c #835127",
"4. c #855229",
"5. c #8A542A",
"6. c #945B2F",
"7. c #815537",
"8. c #825639",
"9. c #85593A",
"0. c #8A5C3D",
"q. c #915E3E",
"w. c #9D6233",
"e. c #A66737",
"r. c #A96836",
"t. c #8E5F42",
"y. c #915E40",
"u. c #8F6143",
"i. c #956342",
"p. c #996544",
"a. c #9B6949",
"s. c #A16C47",
"d. c #A26D49",
"f. c #A6714D",
"g. c #A9734D",
"h. c #A67150",
"j. c #AB7552",
"k. c #AE7A54",
"l. c #B17D55",
"z. c #B27E59",
"x. c #817E7E",
"c. c #B5825A",
"v. c #B9855D",
"b. c #BE8B63",
"n. c #C18E66",
"m. c #C28F68",
"M. c #5A8386",
"N. c #688284",
"B. c #788F91",
"V. c #689498",
"C. c #6D9CA0",
"Z. c #7BAAAE",
"A. c #7EACB1",
"S. c #858282",
"D. c #8A8787",
"F. c #8B8A8A",
"G. c #928F8F",
"H. c #838F91",
"J. c #949393",
"K. c #939A9A",
"L. c #9D9B9B",
"P. c #A19F9F",
"I. c #869EA0",
"U. c #95A7AA",
"Y. c #A4A3A3",
"T. c #A9A6A6",
"R. c #ADADAD",
"E. c #ADAFB0",
"W. c #ACBBBC",
"Q. c #B5B5B5",
"!. c #B6B7B7",
"~. c #BBBBBB",
"^. c #C0BFBF",
"/. c #93BFC4",
"(. c #B0BFC0",
"). c #96C2C7",
"_. c #9AC6CB",
"`. c #9CC8CC",
"'. c #C5C4C4",
"]. c #C9C7C7",
"[. c #CCCBCB",
"{. c #D0CFCF",
"}. c #D4D4D4",
"|. c #D8D6D6",
" X c #DEDDDD",
".X c #D8E7E9",
"XX c #E2E2E2",
"oX c #E5EAEA",
"OX c #ECEBEB",
"+X c #EBF0F0",
"@X c #F3F3F3",
"#X c #F3F8F8",
"$X c #FFFFFF",
/* pixels */
"@ ; ; , , , , , > , > > , > > > , , > , , > > > + . . . . . . . . . . . . . . + , , , , , , , , , , , , , , , , , , , , > > > , ",
", b m m m m m m m m m m m m m m m m m m m w w 7 1 . . . . . . . . . . . . . . 1 5 1 7 c z c v c 7 c 4 7 7 c b 7 7 7 6 z x x z < ",
"> A ' 8.u.a.a.a.i.0.9.9.t.t.w.t.i.a.a.p.i.@ . . . . . . . . . . . . . . . . . . . . 7 ) E W ) ) D D c Z ^ | _ Q ~ Q Z ' } ] K > ",
"> n i.c.b.b.b.b.  v.z.l.v.b.z.k.g.i.^ ^ R o . . * O.@.@.@.@.+.+.+.+.+.+.+.@.O.$ . . 1 Z n A ( 5.W E v Z / L   / ~ [ ! 0.0.{ L < ",
"# T n.n.n.z.| 9 d q | b.v.z.j.d.a.I . . . . . . g T.!.Q.Q.Q.!.Q.Q.Q.Q.Q.!.Q.Y.a . . . . . . A ) W W v Z 9 e g $ I [ [ t.0.[ L % ",
"> ^ v.c.j.g.Q   j & H [ a.[ ] I r w . . . %.;.G.T. X XXX X X XXX X.X XXX XXX|.Y.G.;.O.. . . , 1 B E v t * i h   ~ ^ ^ 0.0.~ L < ",
"> Y k.z.c.c.Q   k k - @ c.      . . . . . Y.~.$X$X$X$X$X$X$X$X$X$X$X$X$X$X$X$X$X$X~.1.. . . . .   , n   g j k   I ^ ^ 8.9.R L * ",
"% Y f.s.w.a.L   k s &     k . . . l Y.[.XX@X$X$X$X$X$X$X$X$X$X$X$X$X$X$X$X$X$X$X$X@X@XXX^.P.j . o X     i f j   I ^ ~ ..0.~ J > ",
"> z Y 7.0.i.I   s       j f . O q $.~.XX$X$X$X$X$X$X$X$X$X$X$X$X$X$X$X$X$X$X$X$X$X$X$X$X|.~.+.= . X f     & s   R / T ..0.~ J < ",
"> Y l.z.l.h...G &     X $ . . k !.[.$X$X$X$X$X$X$X$X$X$X$X$X$X$X$X$X$X$X$X$X$X$X$X$X$X$X$X$X[.!.q . . .   X * 0 P { ~  .0.{ J < ",
"< ` n.m.m.n.b.b.        X . l =.[. X$X$X$X$X$X$X$X$X$X$X$X$X$X$X$X$X$X$X$X$X$X$X$X$X$X$X$X$X|.[.@.k . .     . L P ^ R { t.{ I > ",
"< ` n.m.n.n.b.b.m.    . . . Q.'.$X$X$X$X$X$X$X$X$X$X$X$X$X$X$X$X$X$X$X$X$X$X$X$X$X$X$X$X$X$X$X$X~.L.. . . 8 / J ~ R P ' 0...I > ",
"< Y h.h.j.j.j.j.j.l.0 . . . |..X$X$X$X$X$X$X$X$X$X$X$X$X$X$X$X$X$X$X$X$X$X$X$X$X$X$X$X$X$X$X$X$X X^.. . . J ] P ~ I P ] 0...P > ",
"> x m V < m V V V V > . . . $X$X$X$X$X$X$X$X$X$X$X$X$X$X$X$X$X$X$X$X$X$X$X$X$X$X$X$X$X$X$X$X$X$X$XXX. . . J / P [ ^ ~ 9 0.7.I > ",
"> x J B X N G J M > O . @.1.$X$X$X$X$X$X$X$X$X$X$X$X$X$X$X$X$X$X$X$X$X$X$X$X$X$X$X$X$X$X$X$X$X$X$X@X1.o.. , 0 J / R I X [ ..I < ",
"> B H   j   e ^ N . . . 1.~.$X$X$X$X$X$X$X$X$X$X$X$X$X$X$X$X$X$X$X$X$X$X$X$X$X$X$X$X$X$X$X$X$X$X$X#X~.;.. . . N ^ r   j   L I < ",
"# V I   j j -   P . . . T.$X$X$X$X$X$X$X$X$X$X$X$X$X$X$X$X$X$X$X$X$X$X$X$X$X$X$X$X$X$X$X$X$X$X$X$X$X$XG.. . . N   - j j   L I < ",
"# m I   d j f q O . = f Q.$X$X$X$X$X$X$X$X$X$X$X$X$X$X$X$X$X$X$X$X$X$X$X$X$X$X$X$X$X$X$X$X$X$X$X$X$X$XP.g & . O p f j f   I R < ",
"# x N   f j j X . . &.T.XX$X$X$X$X$X$X$X$X$X$X$X$X$X$X$X$X$X$X$X$X$X$X$X$X$X$X$X$X$X$X$X$X$X$X$X$X$X$X|.Y.O.. . . j j f   I ~ % ",
"> x N . a j j . . . =.!.XX$XOXXX'.].'.].'.].[.OX@X$X$X$X$X$X$X$X$X$X$X$X$X$X$X@XOX].].'.].'.'.].OX+X$XXXQ.+.. . . j j f   I ~ < ",
"% O     f f f . . . =.!.XX$X!.S.. . . . . . = R.[.$X$X$X$X$X$X$X$X$X$X$X$X$X#X'.R.O . . . . . . L.~.$X XQ.+.. . . f f d     @ , ",
"  - i &   s f . . . =.!.oX$X$.U . . . O.D.D.S.%.S.@X$X$X$X$X$X$X$X$X$X$X$X$X+Xx.@.X . . @.D.D.D.&.-.$X XQ.@.. . . f a   - p i . ",
"  p s a - - * . . . =.!.oX$X. . . . . D.$X$X X@ o.OX$X$X$X$X$X$X$X$X$X$X$X$XOXk . . . . G.$X$X#Xp 9 $XXXQ.+.. . . - - * p s p   ",
"  p f j j     . . . =.!.~.~.. . . . . D.$X$X X@ O.@X$X$X$X$X$X$X$X$X$X$X$X$XoXk . . . . G.$X$X$Xa * ~.~.Q.+.. . .     j j f p   ",
"  p s f j j j . . . &.E.!.!.. . . . . ,. X X'.@ O.@X$X$XOX X XXX X X XOX$X$XOXk . . . . 1. X X Xq * !.Q.E.+.. . . f s j f f p   ",
"  & & . f j j . . . +.G.T.!.. . . . . * a a p . O.OX$X$X,.a a a a a a G.$X$XOXk . . . . = a a a o * !.Y.F.l . . . j j f   $ &   ",
"O @ @ - f f f o X . o.>.P.!.. . . . . . . . . . O.OXOX|.@.. . . . . . -.|.@XoXk . . . . . . . . . * !.L.>.j . . . f f f - & @ O ",
", $ $ i p p s p * . . . 1.!.. . . . . . . . . . O.@XP.@ . . . . . . . X + {.oXU . . . . . . . . . $ !.-.X . . * s a a s p * % % ",
"% B N           . . . . ;.Y.O.k .   . . . . X o.,.@XL.. U =.=.=.=.=.&.k . {.OX>.O.. . . . . . . U @.T.&.. . . .           I I , ",
"% B I 9.8.~ y   & . . . %.D.!.S.. . . . . . = R.].$XL.. Y.$X$X$X$X$X$XS.. {.$X'.T.@ . .   . . . P.E.D.@.. . . &   u I / ' 9.~ < ",
"< B ^ 9. .~ y   & & X . p g !.U.N.N.N.N.N.<.S. XOX$XL.. k %.%.%.%.%.%.g . {.$XoX X1.<.N.N.N.N.N.E.T.g q . X & *   u P ] ' 0.^ % ",
"< V | 0.' ~ u   - - X . . . Q.W._._.`.`._.~.'.$X$X$XP.* * * $ * * $ * $ * {.$X$X$X^.(.`._._.`.`.!.P.. . . & - -   y R ~ } 0.~ < ",
", Z  .9.~ ~ y   f f & . . . G.U.`._.`.`.`.oX+X$X$X$XOX].].].].].].].].].].@X$X$X$X+X.X`.`.`.`.`.K.S.. . . * f f   u ~ I 8.9.R , ",
"< Z 9.8.~ ~ ~ |   f * . . . 1.H.)._.`.`.`.#X$X$X$X$X$X$X$X$X$X$X$X$X$X$X$X$X$X$X$X$X.X`.`._._._.S.;.. . X - f   { [ ^ ^ 0.} I < ",
"< J 8. .~ ~ ~ |   - - - X . @ h C.Z._.`.`.#X$X$X$X$X$X$X$X$X$X$X$X$X$X$X$X$X$X$X$X$X.X`.`._.Z.C.p @ . X - - -   / ~ ~ [ 0.^ P < ",
", Z  . .~ ~ ^  .  X @ X X . . i M.C./._.`.+X#X$X$X$X$X$X$X$X$X$X$X$X$X$X$X$X$X$X$X#X.X`.)./.V.M.& . . X X & X   ^ ~ ^ [ t.[ J < ",
"% B { 8.^ ~ / }             . . . h V.A.`.!.^.$X$X$X$X$X$X$X$X$X$X$X$X$X$X$X$X$X#X^.(.`.Z.V.d . . .             ^ ~ / ^ ../ Z , ",
"< B [ 8.^ ~ N   j f f j j j * & . - X.#.*.I.U.|.XX$X$X$X$X$X$X$X$X$X$X$X$X$X$XXX}.U.B.*.X.X.& . & * j j j j f j   t ~ ^ ~ J J < ",
"% B / 8.^ ~ 8.{                 . . . . . M.V.E.'.@X$X$X$X$X$X$X$X#X$X$X$X$X@X'.E.V.*.. X . . .                 z v v z z 7 b % ",
", B ^ 8.^ / 8./ u u 9   i - - - & . . . . f d k $.Y.!.].[.[.].{.{.[.[.[.].R.U.@.j d - . . . . @ - - - -   % N N } ' } ' ' / ! , ",
"< B ~ 8.^ / 8./  .{ y X j j j f s .   . . . . . p 1.J.E.E.R.E.R.R.R.R.R.R.D.1.q . . . . . .   f g j s j X H c.z.c.c.v.c.z.l.q.; ",
"< B ^ 9.^ {  .' 9.{ y   f j f d f   @ & & . . . X q a g g g g g g g g g g p q X . . . . X X   f j j j d   G k.c.n.n.v.z.b.n.i.> ",
"< V [ 9.~ ' '  .8.|  .J   & - * -   & & & . . . . . . . . . . . . . . . . . . . . . . . X &   - * - -   8.y.y.q.i.p.q.q.a.l.t.> ",
"< G  .8.~ ^ / 0.} { G %   X X X       X & X       . . . . . . . . . . . . . = ].OX@ . . X     X   X X   r ~ s.p.p.p.y.g.j.d.9.% ",
", Z  .8.~ ^ / 9.^ I r X X X X X X &     & &     . . . . g +.&.=.=.=.=.=.=.=.:. X@X@ . . .   X X X X & X X g 7.g.d.y.q.d.y.p.} > ",
"< Z 8.8.~ ~ '  .^   - h d j j j f j X X &   . . . . . . ,.~.@X$X$X$X$X$X$X$X$X$XOX* . . . X j f j j j d j - . d.d.0.q.p.s.g.7.> ",
"< Z  . .! ^ / ' ~  .t                 X X . . . q &.>.D.~. X$X$X$X$X$X$X$X$X$XXX[.@ . . X               . N y.q.y.d.y.f.f.s.} > ",
", B  . .~ ^ ^ / ^  .| J G   * p f i X . . . . . j R.|.$X$X$X$X$X$X$X$X$X$X$X@X'.T.@ . . . X i f s *   8.q.y.f.f.f.d.d.p.9.} Y < ",
", B | 0.~ ' ^ ^ ^ } 9.^ L % = q f p o . . ;.x.T.(.XXOX$X$X$X$X$X$X$X$X$X$X|.'.&.l .   X @ & f j p q u p.d.g.j.l.l.z.v.c.l.g.0.< ",
"< B { 0.^ | ^ ^ ^ ^ 0./ L 7 , X a - . . . Y.(.#X$X$X$X$X$X$X$X$X$X$X$X$X$X'.T.g . . o   - f j j X r 0.7.y.d.g.c.c.l.g.d.d.d.0.< ",
"% B { u.{ / ^ [ / ! 8.{ Q 7 , X f i . . . U.Y.i * = * * * * * * * = = * * & @ .   & &   - d j f X < ^ ^ Y T Y ` ` ` ^ ` ` ' Y > ",
", B { 0.{ R R ^ ~ Q  .| P 7 E E   a O . . S.c.X . . . . . . . . . . . . . . . X O - p   - f j   2 7 7 z x b M M m m m M M M b % ",
"< B | 0. .Q P ~ Q E  . .P c W E   f f X . .     . . . . . . . . . . . . . . . - p p p   - f f   C R R ] ] | ..7. .} ~ Q I I J > ",
", B ^ 0.7.~ ~ ~ Z Q | | P 7 E D   f f &   . . @ @ @ @ @ . . . . . . . . @ $ & - i - -   - d s o ] 8.8.7.7.....8.9.0.9. .8. .V > ",
"< B ^ 0.8.~ / ^ C Q { / Q 7 E ) 3.  & - - .   e p i q i @ . . . . . . & i - p p p -   - - &   ~ ^ ] ] ] ] ] ] R ~ / } 8.8.{ K < ",
"< B Q 8.0.~ / ^ Z ! /  .P 7 E ) 3.        .           . . . %.;.=.%.. . .                     [ / / ^ R R R R R ~ ~ ~ ~ ~ ~ K < ",
", B I  .0.~ ^ ^ A ^ | 0.Q 7 E ( 5.Z O X X $ - - - - & . . o Y.!.!.U.. . . * - - - - & & X X C }  .9.9. .{ ^ ~ ^ ~ / / ^ ! ~ K % ",
", B P  .0.~ ^ ^ L [  .0.! 7 E W W 3.% X & & p i - @ . . $.D.XX].O.g . O * p p i e p & & X $ 9. .' / / / { } } { ' { { ^ ~ ^ K , ",
"% B P  .0.[ ^ ~ Q ^  .9.Q c E ) W 3.$ .           . . . ;.R.+X{.8 . . .                   $ '  . .{ ^ ~ Q A ~ ~ ^ ~ ^ ^ ~ R b < ",
", B Q 8.0. .[ ~ ! ^ 9. .Q 7 E ) ) ) 4._ 5.r.4.4.w.E ; . . o Y.J.* . . t ^ ~ ^ ^ { 8.9.0... . . . .}  . . . ./ ! ~ ! ~ / { { K < ",
", B ~ 9.q.} ^ ~ ^ / 0. .P 7 E W _ ) 5.) ) r.6.5.e.( : + + X :.-.@ . 0 C }  .9.0.0... .' { ' ' |  . . .8. .9.8.9.8.9.9.t.0.0.T < ",
"< B ] 0.0.' ! ^ /  .u. .P c E E 5.2.5.) ) r.w.6.r.( 3 n 0 . . . . + { ^ / [ ^ ~ ~ ~ Q J L Z L L A L A Z Z J P R T ^ R ^ / ' K < ",
"< M J R R V m K Z Z Q A Z 7 A v D F F A D ( Y S ( S 3 t w < . o < 0 J J Z J C Z Z B B B m b M b c c w 7 7 7 6 6 6 6 4 4 6 x M < ",
"< < % , < , % % , , < < , , , , , % > < > > < < % , , , < < . . # > < % , < % , < % , < , % < % , % , 8 < < < < < < < < < < < < "
};
