/* XPM */
static char *result[] = {
/* columns rows colors chars-per-pixel */
"64 64 191 2 ",
"   c #090101",
".  c #0E0909",
"X  c #110603",
"o  c #150905",
"O  c #1B0B05",
"+  c #140C0C",
"@  c #1D0E09",
"#  c #1E100A",
"$  c #1B1414",
"%  c #230F07",
"&  c #2D0F02",
"*  c #230F08",
"=  c #231007",
"-  c #21110B",
";  c #2A170C",
":  c #2F190D",
">  c #3A1607",
",  c #341508",
"<  c #3B1709",
"1  c #351B0D",
"2  c #3D1B0C",
"3  c #2A1710",
"4  c #2C1911",
"5  c #241D1D",
"6  c #321D13",
"7  c #362115",
"8  c #3B2315",
"9  c #3E2619",
"0  c #1C2021",
"q  c #272020",
"w  c #2B2424",
"e  c #252728",
"r  c #2E2828",
"t  c #332D2D",
"y  c #293536",
"u  c #363030",
"i  c #3A3434",
"p  c #303839",
"a  c #3E3A3A",
"s  c #421E0E",
"d  c #411F11",
"f  c #44210E",
"g  c #49230F",
"h  c #442312",
"j  c #4A2615",
"k  c #472816",
"l  c #4E2916",
"z  c #442B1C",
"x  c #4C2C1A",
"c  c #522D1A",
"v  c #4C301E",
"b  c #5C3317",
"n  c #53321E",
"m  c #5B361B",
"M  c #603618",
"N  c #653B1D",
"B  c #6A3D1D",
"V  c #462E20",
"C  c #4C2F20",
"Z  c #4E3221",
"A  c #553522",
"S  c #5A3622",
"D  c #573823",
"F  c #5B3B25",
"G  c #5E3E28",
"H  c #433D3D",
"J  c #673B24",
"K  c #633D26",
"L  c #623F29",
"P  c #6E411E",
"I  c #71421F",
"U  c #644027",
"Y  c #6E4221",
"T  c #65422A",
"R  c #6B452D",
"E  c #6E482F",
"W  c #744422",
"Q  c #784722",
"!  c #774823",
"~  c #7C4B24",
"^  c #71452E",
"/  c #71492E",
"(  c #79492F",
")  c #6D4730",
"_  c #6D4930",
"`  c #744C32",
"'  c #794E33",
"]  c #7C5235",
"[  c #785338",
"{  c #7D5439",
"}  c #3A4648",
"|  c #3A5053",
" . c #464141",
".. c #494444",
"X. c #4F4A4A",
"o. c #524E4E",
"O. c #565252",
"+. c #5A5555",
"@. c #5D5A5A",
"#. c #625D5D",
"$. c #666262",
"%. c #6A6666",
"&. c #6D6969",
"*. c #716F6F",
"=. c #6F7070",
"-. c #747171",
";. c #7A7676",
":. c #7B7979",
">. c #814E26",
",. c #824F28",
"<. c #835127",
"1. c #845129",
"2. c #8A542A",
"3. c #92592E",
"4. c #815537",
"5. c #825639",
"6. c #85593A",
"7. c #8A5C3D",
"8. c #915E3F",
"9. c #9B6032",
"0. c #A86837",
"q. c #8E5F42",
"w. c #925E40",
"e. c #8F6143",
"r. c #956242",
"t. c #9A6544",
"y. c #9D6946",
"u. c #956748",
"i. c #9E6A49",
"p. c #A16C47",
"a. c #A26D49",
"s. c #A6714D",
"d. c #A9724D",
"f. c #A57150",
"g. c #AB7652",
"h. c #AD7A54",
"j. c #B17D55",
"k. c #B17E59",
"l. c #817D7D",
"z. c #B5825A",
"x. c #B9855E",
"c. c #BD8B62",
"v. c #C18E66",
"b. c #C28F68",
"n. c #5E8084",
"m. c #5B8589",
"M. c #6A9094",
"N. c #749295",
"B. c #7DABB0",
"V. c #868484",
"C. c #8A8686",
"Z. c #8D8B8B",
"A. c #928F8F",
"S. c #859D9F",
"D. c #939292",
"F. c #999797",
"G. c #949B9C",
"H. c #9C9B9B",
"J. c #A29F9F",
"K. c #83B0B5",
"L. c #94B0B3",
"P. c #A4A3A3",
"I. c #A9A6A6",
"U. c #ACABAB",
"Y. c #ABBBBC",
"T. c #B4B4B4",
"R. c #B8B7B7",
"E. c #BDBCBC",
"W. c #C0BFBF",
"Q. c #91BDC2",
"!. c #99C5CA",
"~. c #9CC8CC",
"^. c #A9C2C5",
"/. c #B3D4D7",
"(. c #B6D6D9",
"). c #C4C3C3",
"_. c #C9C7C7",
"`. c #C3CCCD",
"'. c #CDCCCC",
"]. c #D4D4D4",
"[. c #D3D9DA",
"{. c #DCDCDC",
"}. c #E0DFDF",
"|. c #C9E1E4",
" X c #E4E4E4",
".X c #EBEBEB",
"XX c #E7F0F1",
"oX c #EBF4F4",
"OX c #F4F4F4",
"+X c #F8F7F7",
"@X c #FFFFFF",
/* pixels */
"+ % % = = = = = = = = % = % % % * = % = = % * - * O   X   .     X       X   X X O % % = = = = = = = = = = = = = = = = - = - * - ",
"= h l l l l l l l l l l l l l l l l l l l h 2 6 6 O                             % , , , 2 g f f 2 f > 2 2 f f 2 2 2 < f s s s - ",
"- m ( 4.u.u.i.y.r.7.6.6.8.r.r.8.u.t.y.u.r.D @ @ @ X                             o O @ : b ~ ~ ! B M g v T ] ' F T G n ` ' R S - ",
"* j e.z.c.c.c.c.c.z.z.h.x.x.k.j.g.r.' ) T 7     . r  ... ... ....... ... .....H 5     O 1 m n P P P g n ` 7.{ E T _ U 7.7.` S - ",
"@ J v.v.v.z.h.h.g.z.z.z.x.j.d.a.y.R - o o .     X $.J.P.P.P.P.P.P.P.P.P.I.P.I.F. .      . o o 1 B I g n ` 7.` E L ) _ 6.7._ D # ",
"* R x.z.d.d.s.s.a.a.i.i.a.i.a.7._ z o     w o.#.;.U.].].].].].].].].].].].].].'.F.*.@.H $     @ h m g n ` 7.R R L ) ) q.6.R D # ",
"* J h.j.z.z.h.g.h.h.z.z.k.h.h.{ 3         O.T.].OX@X@X@X@X@X@X+X@X@X@X@X@X+X@X@XOX.X).A.t         1 g n ] 6.R R G R R 6.6.U D $ ",
"# K s.a.8.y.y.p.a.i.i.a.d.r.T 9 @ 5 o.&.:.U.{..X@X@X@X@X@X@X@X@X@X@X@X@X@X@X@X@X@X@X X_.F.;.$.H + # = 9 ] 5.R U G R T { 6.T D - ",
"* s J 4.8.w.p.d.g.h.g.s.r.` 4     ..P.].@X@X@X@X@X@X@X@X@X@X@X@X@X@X@X@X@X@X@X@X@X@X@X@X@X.X_.l.5     ; ] ' R D G _ L ] 7.T D * ",
"* J j.k.j.f.y.t.s.g.i.6.T z @ 5 O.A.'..X@X@X@X@X@X@X@X@X@X@X@X@X@X@X@X@X@X@X@X@X@X@X@X@X@XOX XR.:.H . O 6 D R D G _ T ] 7.` D # ",
"* ^ v.b.b.b.c.c.x.c.f.{ 6 . +  .H.].OX@X@X@X@X@X@X@X@X@X@X@X@X@X@X@X@X@X@X@X@X@X@X@X@X@X@X@X@X.X).:.5 .   9 U D K R U ` q.' F - ",
"* ^ v.b.b.b.v.v.c.c.[ V # $ O.D.'..X@X@X@X@X@X@X@X@X@X@X@X@X@X@X@X@X@X@X@X@X@X@X@X@X@X@X@X@X@XOX.XR.:.H   $ 6 z U G G _ q.[ F - ",
"* J f.f.f.g.g.g.h.a.Z     r D.].OX@X@X@X@X@X@X@X@X@X@X@X@X@X@X@X@X@X@X@X@X@X@X@X@X@X@X@X@X@X@X@X@X.X).&.      8 T F F R 7.' G * ",
"* d c c x x c c c c -     u U..X@X@X@X@X@X@X@X@X@X@X@X@X@X@X@X@X@X@X@X@X@X@X@X@X@X@X@X@X@X@X@X@X@XOX.Xl.      9 _ R R L 7.{ G * ",
"* d S A A A A A C z @   5 O._.@X@X@X@X@X@X@X@X@X@X@X@X@X@X@X@X@X@X@X@X@X@X@X@X@X@X@X@X@X@X@X@X@X@X@X@XH.t $   6 F L ' R q.{ G @ ",
"@ x ' ) R T T T z * X $ #.P. X@X@X@X@X@X@X@X@X@X@X@X@X@X@X@X@X@X@X@X@X@X@X@X@X@X@X@X@X@X@X@X@X@X@X@X@X_.Z...  o 3 Z ) ) ' { G - ",
"@ c 7.7.7.7.7.6.z     5 Z.]..X@X@X@X@X@X@X@X@X@X@X@X@X@X@X@X@X@X@X@X@X@X@X@X@X@X@X@X@X@X@X@X@X@X@X@X@X X_.#.    X z E R ` 5.G - ",
"@ c 6.6.6.6.4.' 9     q I.OX@X@X@X@X@X@X@X@X@X@X@X@X@X@X@X@X@X@X@X@X@X@X@X@X@X@X@X@X@X@X@X@X@X@X@X@X@X@XOX;.    o Z T R ` 6.L - ",
"@ s K R R R S z ;   w #.).@X@X@X@X@X@X@X@XOX X).I.I.I.I.I.I.R.{..X@X@X@X@X@X@X@X@X@X@X@X@X@X@X@X@X@X@X@X@XH.a 5 X 7 Z G ` 6.T - ",
"* d K R ) R z o X @ #.T.{.@X@X@X@X@X@X@X@X XE.&.q 5 5 5 5 5 o.J.].OX@X@X@X@X@X@X@X@X@X@X@X@X@X@X@X@X@X@X@X'.F. .  X - A _ 7.T - ",
"# k T U L F 6     + -.^. X@X@X@X@X@X@X@X@XE.&.u     + ..&.%.&.&.J..X@X@X@X@X@X@X@X@X@X@X@X@X@X@X@X@X@X@X@X{.U.X.    @ Z ` 6.L - ",
"# f R E R E 8     + -.)..X@X@X@X@X@X@X@X@XZ.+       q P..XoXT.a #.{.@X@X@X@X@X@X@X@X@X@X@X@X@X@X@X@X@X@X@X{.U.X.    @ Z ' { G - ",
"= S { 5.] ` 9     + *.). X@X@X@X@X@X@X@X@XC.        r I.@X@XE.i +.{.@X@X@X@X@X@X@X@X@X@X@X@X@X@X@X@X@X@X@X{.U.X.    @ Z [ ' D * ",
"= F 5.6.6.7.C     + *.W. X@X@X@X@X@X@X@X@XC.        q I.@X@XR.u +.{.@X@X@X@X@X@X@X@X@X@X@X@X@X@X@X@X@X@X@X].U.X.    @ Z ] ` D # ",
"- n L U U T 8     . u @.&.Z.W. XOX@X@X@X@XC.        + o.-.;.+.$ +.}.@X@X@X@X@X@X@X@X@X@X@X@X@X@X@X@X@X@X@X[.U.X.    # Z [ ` D = ",
"# 2 f 8 h h ;             w l.W..X@X@X@X@XC.                    +.}.@X@X@X@X@X@X@X@X@X@X@X@X@X@X@X@X@X@X+X[.I.X.    # Z ] ` F # ",
"= k x n A A 6             @ H -.R. X@X@X@XC.                    +.{.@X@X@X@X@X@X@X@X@X@X@X@X@X@X@X@X@X.X].R.D.H     o Z ' ] F # ",
"= x F ] ` T 8       $ q w q 5 ..C.W..X@X@XD.$ +             . $ %.}.@X@X@X@X@X@X@X@X@X@X@X@X@X@X@X@X@X}.R.D.=.u   . # D ` { F - ",
"# x L 6.[ T 7     + &.U.U.U.U.Z.O.l. X@X@X).:.a             q $.U..X@X@X@X@X@X@X@X@X@X@X@X@X@X@X@X@X@X{.E.=.r $ X 7 z L ` 5.L * ",
"# x L 5.5.R 7     + :.'.'.'.'.D.r @.}.@X@X X).&.e e e e e e o.I.{.OX@X@X@X@X@X@X@X@X@X@X@X@X@X@X@X@X.X].U.O.    o C G ) ` 6.T @ ",
"# c T 5.] U 9     . r ........u + @.}.@X@XOX.XY.M.N.N.N.M.N.L.].OX@X@X@X@X@X@X@X@X@X@X@X@X@X@X@X@X.X'.T.D...    o C L ) ` 6.R # ",
"- Z ] 7./ U V ; X     . 5 t u u t ;. X@X@X@X@X|.~.~.~.~.~.~./.oX@X@X@X@X@X@X@X@X@X@X@X@X@X@X@X@X@X XE.D.%.u   o 4 D L L ' q.T - ",
"- n { 7.T T G F 4     $ $.A.D.D.D.R.OX@X@X@X@X|.~.~.~.~.~.~.(.oX@X@X@X@X@X@X@X@X@X@X@X@X@X@X@X@X@X XE.-.$ $ . 6 G R T G 6.6.L @ ",
"- n 6.{ T T T ` 7     $ =.U.T.E._.}.OX@X@X@X@X|.~.~.~.~.~.~.(.oX@X@X@X@X@X@X@X@X@X@X@X@X@X@X@XOX.X'.U.@.      9 ' ` R R q.` L - ",
"- n 5.] R U T ` 7     $ $.F.U._..X+X@X+X@X@X@X|.~.~.~.~.~.~.(.oX@X@X@X@X@X@X@X@X@X@X@X@X@X@X@X.X'.U.D.X.      9 R T R _ 6.) D - ",
"= n { ] T U R ] V 3 @ + a $.A.T.[..X@X@X@X@X@X|.~.~.~.~.~.~.(.oX@X@X@X@X@X@X@X@X@X@X@X@X@XOX.X'.U.V.@.t   ; 9 x T U R _ q._ D - ",
"# v ` 4.R T E ] G G 7   . r &.F.R.].OX@X@X@X@X|.~.~.~.~.~.~.(.oX@X@X@X@X@X@X@X@X@X@X@X@X@XoX'.U.D.@.$     x 5.c R T E E { E D = ",
"- x E 5.R T ` ` L E G ; X + a $.D.R.]..X@X@X@X|.~.~.~.~.~.~.(.oX@X@X@X@X@X@X@X@X@X@X.X{.{.'.U.C.@.r . o 4 F ] l F T T T T A A # ",
"= x R 5.R R 5./ R / 6.v %     e =.S.T.].+X@X@X|.~.~.~.~.~.~.(.oX@X@X@X@X@X@X@X@X@XOX'.R.R.U.D.@.$     % h h h < f f f f f 2 f # ",
"# v R 5.R R 5./ E / 6.D 6 O O # a X.| z.E.'.[.^.K.Q.~.~.~.~.(.oX@X@X@X@X@X@X@X@X.X].T.D.&.O...t + + 8 A ' ' ( ( ' ( ( ( / ^ L = ",
"- x T 6.R _ 6.R ] / 5.G v , 1 .       i :.F.U.S.M.B.~.!.!.!./.XX@X@X@XOX@X+X+XOX'.I.A.%.w       X V p.j.k.k.x.k.z.z.x.z.j.k.7.* ",
"# x T 6.R ` ] ` 6.' 5.F n > m k +     $ i  .o.} } n.B.B.B.B.L.`.].].].].].]._.T.:.X.H y +     @ C 5.d.j.g.d.g.k.v.v.x.z.c.v.r.- ",
"- x _ 6.R / / { { ` ] F n > ~ ! 3 @ o .         . | m.m.m.m.M.G.J.P.P.J.P.J.Z.=.u       O @ @ V ' w.t.w.w.w.w.8.r.t.8.8.u.h.q.* ",
"- n ] 5.U R E 6.] ` ' S n > Q 2.S J J 1           0 y y y y p }  . . .H  .H a t $     X x 2.#.q.h.a.w.a.d.d.a.w.8.p.t.a.s.d.6.# ",
"= n { 4.U R ` 6.E ' ' A n s Q 3.<.2.<.8 .     X $ X                                   X G i.y.y.p.a.a.a.d.t.a.d.a.w.w.t.t.t.( = ",
"= n 4.5.U T E ] R ] ' D S < Q 2.~ >.m = X   r +.-.H                           . $     # ) a.s.d.a.a.a.w.p.d.a.a.a.7.8.t.p.s.5.- ",
"- n { 5.U R E ` T ] ] F S < W ,.>.>.n ; O   i :.F.%.i a H H H H a  .H H a a a t 5     # T g.f.y.t.p.d.s.w.w.w.w.t.p.w.d.d.a.' - ",
"= x ` 6.U R R R T { 6.L S < W Q 1.I Y m 1   $ u H H $.I._.)._._._._._._._.R.I.&.5     ; ) r.w.p.p.r.r.y.a.d.a.a.s.p.p.t.6.( J - ",
"= x [ 6.U / T R R [ 7.T D 2 P I ~ ! ~ P k X     . $ @.).@X@X@X@X@X@X@X@XOX'.J.$.5 . o V ' a.a.p.y.t.i.y.a.d.g.h.j.j.z.z.j.s.7.* ",
"# x ` 7.R [ E R R R 7.E F 2 P ! I ~ m 8 = .     w @.F.{.@X@X@X@X@X@X@X X].F.O.t . 3 A 5.w.a.a.a.a.t.6.4.w.a.g.k.x.j.g.f.a.d.6.* ",
"# x ` e.R E R _ R U 6.E m f P <.P ~ 8       . $ o.H.'..X@X@X@X@XOX.X X).P.#.$   X 3 S J ^ ^ R J J J J ^ J L ^ J ^ ^ J ^ ) ^ J - ",
"= x ` 7.[ U T R T U { [ F f I <.I ! k .     e @.A.). X@X@X@XOX X'.J.*.#.o.t . o * , < d d d 2 1 2 2 s s d d j j l l c j j j k - ",
"# x _ e.[ G F T F G ] ] F h P <.~ ! k       X.H.'.OX@XOXOXOX.X'.J.o.          6 L ) ` ' ] ' _ T L L L ) ) ` [ 4.] [ T G G G n * ",
"- x _ 7.5.U T T m U ` [ F 2 P ~ ~ P k       ..H.'..X}.J.l.l.:.&.O.r       - z T 5.6.6.6.{ 6.6.6.6.6.5.{ 4.5.{ 5.6.7.6.] 6.[ c - ",
"- x R 7.6.T ) R n T ` E F f P ~ <.P k       ..H.].oXW...                  8 R ) ) L L L U T T T T ) ) ) ) ) L ) T R ] 4.5.` S * ",
"= x G 6.7.T ) R A T E [ G 2 P ~ 2.P m c ;   e +.Z.).P.H         . # 6 4 4 z G ) [ ' ) L ) R E ` ) ) ) R L L L L R T K T T R S $ ",
"= x G ] 6.T R R A R ' 6.U 8 P I 2.~ ~ <.c X . o ..F.Z.u         . 8 T T K A T R R T R E / E / ` { 5.5.] / R T R R R R R R T F # ",
"# x F ] 7.R R T D R [ 7.U 2 P I I <.~ <.P x = X w +.O.5 . # 3 3 1 x T U T U E R R T E ` 5.6.6.] ' / / / ` ] ` ` / / ` R J R F - ",
"= x F ] 7.` R T G R { 6.U 2 P ~ I >.1.Q 2.3.k o . $ # . o z L F A A A F F G K U R T T R T E / ] ] / T U U G U R R R R R T K h = ",
"- x G 5.7.] E T T E 6.5.G 2 P ~ ~ ~ 2.Q 2.0.P 8 ; . . o 8 G E T R R R R T T T R ` 5.6.6.6.] ] ] ' ' ] ] ] ] / U U L T E ` ` S - ",
"- x T 6.7.] E T R E 7.{ G 2 P W Q ~ 2.~ ~ 0.2.! m O X 1 _ 6.q.5.] ] ` _ ] ] 6.7.7.5.] ` ` E E [ ] { { { ] 5.5.5.6.6.6.q.q.7.J - ",
"- x ) 7.7./ U R E [ 8.5.D h B B 2.,.2.~ ~ 0.9.3.<.1 O 2 ) ` ` [ { { ] R E E R T T U F D D n D m D m m n A D F K J R L ) R ) F - ",
"* l A F U c k m m c F m n s b l N B B b N W B m B x & 2 A c A A A A A A A n n n v x x x k k k h h h 8 2 2 < 1 < < , , > < s j - ",
"# - - - - - - - # # - - # - - = - - # - - * - - = - - - # = # - - = # = # - - # - - - # - - # = # # = # - - - - - - - - - # - - "
};
