/* XPM */
static char *result[] = {
/* columns rows colors chars-per-pixel */
"64 64 193 2 ",
"   c #040303",
".  c #090101",
"X  c #0C0A0A",
"o  c #110603",
"O  c #150905",
"+  c #1B0B05",
"@  c #130D0C",
"#  c #1E0F09",
"$  c #16110E",
"%  c #1B120C",
"&  c #141313",
"*  c #1A1414",
"=  c #1F1A16",
"-  c #1C1B1B",
";  c #230F07",
":  c #2D0F02",
">  c #230F08",
",  c #231007",
"<  c #21110B",
"1  c #2D170C",
"2  c #351507",
"3  c #391607",
"4  c #3A1709",
"5  c #351A0C",
"6  c #3D1B0C",
"7  c #221710",
"8  c #251A12",
"9  c #2B1B12",
"0  c #231D1D",
"q  c #311E13",
"w  c #29201A",
"e  c #332217",
"r  c #3B2214",
"t  c #372519",
"y  c #3A2619",
"u  c #3D291D",
"i  c #1C2021",
"p  c #232323",
"a  c #2A2424",
"s  c #252728",
"d  c #2B2A2A",
"f  c #332D2D",
"g  c #293536",
"h  c #333333",
"j  c #3A3434",
"k  c #303839",
"l  c #3E3A3A",
"z  c #421E0E",
"x  c #411F11",
"c  c #44210E",
"v  c #49230F",
"b  c #452312",
"n  c #4A2615",
"m  c #482817",
"M  c #4E2815",
"N  c #432B1C",
"B  c #4C2C1A",
"V  c #522D1B",
"C  c #4C311E",
"Z  c #5C3317",
"A  c #53321E",
"S  c #5A361D",
"D  c #603618",
"F  c #653C1D",
"G  c #6A3D1D",
"H  c #4A3121",
"J  c #4B3627",
"K  c #553622",
"L  c #5B3622",
"P  c #563924",
"I  c #5B3B25",
"U  c #5C3D29",
"Y  c #433D3D",
"T  c #663A24",
"R  c #633D26",
"E  c #623F28",
"W  c #6D411F",
"Q  c #70411F",
"!  c #5E422E",
"~  c #654127",
"^  c #65422B",
"/  c #6B452D",
"(  c #6E482F",
")  c #744421",
"_  c #7B4B24",
"`  c #794826",
"'  c #71452E",
"]  c #72492E",
"[  c #6D4730",
"{  c #6D4930",
"}  c #744C32",
"|  c #7A4E32",
" . c #745036",
".. c #7C5235",
"X. c #7D5439",
"o. c #3A4648",
"O. c #3A5053",
"+. c #464141",
"@. c #494444",
"#. c #4F4A4A",
"$. c #524E4E",
"%. c #565252",
"&. c #5A5555",
"*. c #5D5A5A",
"=. c #625D5D",
"-. c #666262",
";. c #6A6666",
":. c #6D6969",
">. c #716F6F",
",. c #6F7070",
"<. c #747171",
"1. c #7A7676",
"2. c #7B7979",
"3. c #824F27",
"4. c #835127",
"5. c #845128",
"6. c #89542A",
"7. c #93592E",
"8. c #815537",
"9. c #825639",
"0. c #85593A",
"q. c #8A5C3D",
"w. c #915E3E",
"e. c #9B6032",
"r. c #A86837",
"t. c #8E5F42",
"y. c #915E40",
"u. c #956342",
"i. c #996544",
"p. c #9C6846",
"a. c #9B6949",
"s. c #A16C47",
"d. c #A26D49",
"f. c #A6714D",
"g. c #A9734D",
"h. c #A57150",
"j. c #AB7552",
"k. c #AE7A54",
"l. c #B17D55",
"z. c #B27E59",
"x. c #817D7D",
"c. c #B5825A",
"v. c #B9855D",
"b. c #BE8B63",
"n. c #C18E66",
"m. c #C28F68",
"M. c #5E8084",
"N. c #5B8589",
"B. c #6A9094",
"V. c #749295",
"C. c #7DABB0",
"Z. c #868484",
"A. c #8A8686",
"S. c #8D8B8B",
"D. c #928F8F",
"F. c #859D9F",
"G. c #939292",
"H. c #999797",
"J. c #949B9C",
"K. c #9C9B9B",
"L. c #A29F9F",
"P. c #83B0B5",
"I. c #94B0B3",
"U. c #A4A3A3",
"Y. c #A9A6A6",
"T. c #ACABAB",
"R. c #ABBBBC",
"E. c #B4B4B4",
"W. c #B8B7B7",
"Q. c #BDBCBC",
"!. c #C0BFBF",
"~. c #91BDC2",
"^. c #99C5CA",
"/. c #9CC8CC",
"(. c #A9C2C5",
"). c #B3D4D7",
"_. c #B6D6D9",
"`. c #C4C3C3",
"'. c #C9C7C7",
"]. c #C3CCCD",
"[. c #CDCCCC",
"{. c #D4D4D4",
"}. c #D3D9DA",
"|. c #DCDCDC",
" X c #E0DFDF",
".X c #C9E1E4",
"XX c #E4E4E4",
"oX c #EBEBEB",
"OX c #E7F0F1",
"+X c #EBF4F4",
"@X c #F4F4F4",
"#X c #F8F7F7",
"$X c #FFFFFF",
/* pixels */
"@ ; ; , , , , , , , , > , , > > , , > , , > < > > O o . . o o . o . . o o . o o + ; ; , , , , , , , , , , , , , > > ; ; ; > > < ",
", b M M M m M M M M M M M M M M M M M M M b 5 5 5 > . . . . . . . . . . . . . . ; 2 2 3 6 c c c 6 c 3 6 z c c 4 6 6 4 z z x z < ",
"> S ] 9.u.a.a.a.u.q.0.0.y.u.u.q.u.a.p.a.u.P # # # o . . . .   . . . . . . . . . O + , 1 Z ` ` ` G D c A /  .| I ^ ! A | | / L > ",
"> n u.c.b.b.b.b.  v.c.k.v.v.z.l.h.i.| [ ^ t   . . f +.+.@.+.+.@.+.+.+.@.+.+.+.Y 0 .   + r Z A W W W v A ( P   ( ^ { ~ q.q.} P < ",
"# R n.n.n.c. .7 d = X.b.v.z.g.f.p./ < O O o   . @ -.Y.U.U.U.U.U.U.Y.U.U.Y.U.Y.K.+.. . . o O O 5 G Q v A 7 w d % ! { [ t.q.{ P % ",
"> / v.c.g.g.!   k & J { a.{ { U H N O . . a $.=.1.T.{.{.{.{.{.{.{.{.}.{.{.{.{.[.H.>.*.Y * . . O 1 m v r * i k   R [ ^ t.q.^ P < ",
"> R k.l.v.c.^   h k - @ k.      . . . . . %.E.{.#X#X$X#X$X$X#X$X$X#X$X#X#X$X$X#X#XoX'.D.f . .   . O c   g j k   U / ^ 0.t.E P < ",
"# T f.s.w.p.P   k a &     h - $ o 0 $.;.x.T.|.oX$X$X$X$X$X$X$X$X$X$X$X$X$X$X$X$X$X#XXX'.H.1.-.Y $ o     p d j   R / ^ X.9.E P < ",
"> z T 8.w.i.U   a     X g d @   . @.U.{.$X$X$X$X$X$X$X$X$X$X$X$X$X$X$X$X$X$X$X$X$X$X$X$X$XoX`.x.0 . .     & s   U ( E ..0./ K < ",
"> T z.z.k.h. .H *       w & X 0 &.G.[.oX$X$X$X$X$X$X$X$X$X$X$X$X$X$X$X$X$X$X$X$X$X$X$X$X$X#XXXW.2.Y o     X & 9 U } ~ ..q.} P < ",
"> ' n.m.m.m.b.b.      X @ . O +.K.{.#X$X$X$X$X$X$X$X$X$X$X$X$X$X$X$X$X$X$X$X$X$X$X$X$X$X$X$X$XoX'.2.0 O .     K U / R | y.| P > ",
"< ' n.m.n.n.b.n.b.      X = %.G.[.oX#X$X$X$X$X$X$X$X$X$X$X$X$X$X$X$X$X$X$X$X$X$X$X$X$X$X$X$X$X#XXXW.2.Y . o q N ~ U U ] t. .U < ",
"> T h.h.j.j.j.j.k.h.<   . f D.{.#X$X$X$X$X$X$X$X$X$X$X$X$X$X$X$X$X$X$X$X$X$X$X$X$X$X$X$X$X$X$X$X$XXX'.:.. . o t ^ U P ^ q.X.I > ",
"> x M V % M V V V M > . . f T.oX#X$X$X$X$X$X$X$X$X$X$X$X$X$X$X$X$X$X$X$X$X$X$X$X$X$X$X$X$X$X$X$X$X#XoXx.. . . b [ [ ^ 8 q.8.U < ",
"> b K B X N H K B y > X 0 &.'.$X$X$X$X$X$X$X$X$X$X$X$X$X$X$X$X$X$X$X$X$X$X$X$X$X$X$X$X$X$X$X$X$X$X$X$XK.f $ . q I I U X }  .U > ",
"# B J   h   e / N < o * =.U. X$X$X$X$X$X$X$X$X$X$X$X$X$X$X$X$X$X$X$X$X$X$X$X$X$X$X$X$X$X$X$X$X$X$X$X$X[.S.+.. O 9 8 X h   P U < ",
"# V U   h h -   N . . 0 S.{.@X$X$X$X$X$X$X$X$X$X$X$X$X$X$X$X$X$X$X$X$X$X$X$X$X$X$X$X$X$X$X$X$X$X$X$X$XXX[.=..   . & h h   P U < ",
"# M U   d h d s O . . p Y.@X#X$X$X$X$X$X$X$X$X$X$X$X$X$X$X$X$X$X$X$X$X$X$X$X$X$X$X$X$X$X$X$X$X$X$X$X$X#X@X<.. . X 0 h d   U E < ",
"# x N   d h d p X . a =.`.$X$X$X$X$X$X$X$X@XXX`.T.Y.Y.Y.Y.Y.W.|.oX$X$X$X$X$X$X$X$X$X$X$X$X$X$X$X$X$X$X$X$XK.Y - . * a s   U ^ < ",
"> x N   s h 0 X . @ -.T. X$X$X$X$X$X$X$X$XXXQ.:.0 0 0 0 0 0 $.L.{.#X$X$X$X$X$X$X$X$X$X$X$X$X$X$X$X$X$X$X$X[.H.@.. . @ p   U ^ < ",
"# O     d d * . . @ <.!.XX$X$X$X$X$X$X$X$XQ.:.h .   @ @.:.;.;.;.K.oX$X$X$X$X$X$X$X$X$X$X$X$X$X$X$X$X$X$X$X|.T.#.. . X 0     @ < ",
"  i p &   s * . . @ <.`.XX$X$X$X$X$X$X$X$XS.O . . . 0 U.@X@XE.Y =.|.$X$X$X$X$X$X$X$X$X$X$X$X$X$X$X$X$X$X$X|.T.#.    o . - i p   ",
"  p d s & - @   . @ <.!.XX$X$X$X$X$X$X$X$XA.. . . . a T.#X$XQ.j &.|.$X$X$X$X$X$X$X$X$X$X$X$X$X$X$X$X$X$X$X|.T.#.. . X @ p s p   ",
"  i d h h     . . @ >.`.XX$X$X$X$X$X$X$X$XA.. . . . a T.#X$XW.j &.|.$X$X$X$X$X$X$X$X$X$X$X$X$X$X$X$X$X$X$X{.T.#.. .   a h d i   ",
"  i d d h h - . . X f =.:.S.!.XX#X$X$X$X$XA.. . .   @ $.1.1.&.* &. X$X$X$X$X$X$X$X$X$X$X$X$X$X$X$X$X$X$X$X}.T.#.  . X p a d i   ",
"  & &   d h 0   . . . . . a x.!.oX#X$X$X$XA..   . . . . . .   . &. X$X$X$X$X$X$X$X$X$X$X$X$X$X$X$X$X$X$X#X{.T.#.. . @ -   & &   ",
"O @ X - s d * . . . . . . $ J <.W.XX#X$X$XA.  . . . . . . .   . &.|.$X$X$X$X$X$X$X$X$X$X$X$X$X$X$X$X$XoX{.W.G.Y . . X 0 - & $ O ",
"< $ @ s p s * . . . * p 0 a a @.A.!.@X$X$XG.7 @ . . . . . . X * ;. X$X$X$X$X$X$X$X$X$X$X$X$X$X$X$X$X$X|.W.H.>.f . . @ - p % * < ",
"% B u         . . @ :.T.Y.T.T.S.%.x.XX$X$X`.2.l   . . . .   p -.Y.oX$X$X$X$X$X$X$X$X$X$X$X$X$X$X$X$X$X|.W.<.d * .         U U , ",
"< B ! 0.0.~ <   . @ x.[.[.[.[.G.d &. X$X$XXX`.,.s s s s s s %.Y.|.#X$X$X$X$X$X$X$X$X$X$X$X$X$X$X$X#X@X{.T.%.. . . 9 I [ { 0.^ < ",
"% B / 0...~ < . . o f +.@.@.@.f @ &. X$X$X#XoXR.V.V.V.V.V.V.I.}.@X#X$X$X$X$X$X$X$X$X$X$X$X$X$X$X$XoX[.E.H.@.. .   9 I [ } 0.^ < ",
"< A | q.( ~ 9   . . . X 0 j f j f 2.XX$X$X$X#X.X/./././././.).oX$X$X$X$X$X$X$X$X$X$X$X$X$X$X$X$X$X XQ.D.;.f . . . q E ^ | t.^ < ",
"% A 0.0.^ ^ t   @ . . * -.D.G.G.G.W.@X$X$X$X#X.X/./././././._.+X$X$X$X$X$X$X$X$X$X$X$X$X$X$X$X$X$XXXW.<.0 O . *   u ^ ^ 0.0.E < ",
", A 0.X.^ ^ ~ {   . . * <.T.E.Q.[.|.#X$X$X$X$X.X/./././././._.+X$X$X$X$X$X$X$X$X$X$X$X$X$X$X$X#XoX[.T.*..   .   } } ^ ^ 0.| E < ",
", K 0...^ ^ ^ | . . . * -.H.T.'.oX#X$X$X$X$X$X.X/./././././._.+X$X$X$X$X$X$X$X$X$X$X$X$X$X$X$XoX[.T.G.%.. .     / ^ ^ { t.[ K < ",
"< V X...^ ^ / ..  .   @ l -.D.W.{.oX#X$X$X$X$X.X/./././././._.+X$X$X$X$X$X$X$X$X$X$X$X$X$X#XoX[.T.Z.*.d . . X   / ~ / } 0.{ L < ",
"< H | X./ ~ (  .      . X p >.H.E.{.@X$X$X$X$X.X/./././././._.+X$X$X$X$X$X$X$X$X$X$X$X$X$XOX[.T.G.*.* X . .     ( ~ ' / 9.( K % ",
"< M ] ../ ^ N   h d 0 * @ $ j -.G.W.{.oX$X$X$X.X/./././././._.+X$X$X$X$X$X$X$X$X$X#XoX|. X[.T.Z.&.f . @ * p d h   y ^ / ^ P K , ",
"% B ( 0./ ^ 0.]           . . a :.H.E.{.$X$X$X.X/./././././._.+X$X$X$X$X$X$X$X$X$X#X[.W.W.T.G.=.* . .           6 b b z z 6 c % ",
"< B ^ 9./ / 0.] u u 7   & @ . * l #.%.Z.Q.[.}.(.C.~././././._.+X$X$X$X$X$X$X$X$XXX{.E.G.:.%.@.f X . X -   < N N | | ` | ] ' R < ",
"< B ^ 0./ ( 0./ ..( t X h d $ .     . j 2.H.T.F.B.P.^.^.^.^._.+X#X$X#X$X#X$X#X@X[.Y.D.;.p . . . . * s g X P v.z.c.c.v.c.z.l.w.> ",
"< B ^ 0./ } ..] 0.| t   s g i & . . . * j +.#.+.o.M.C.C.C.C.I.].{.}.{.{.{.{.'.E.2.#.Y g & . . o = a h s X H j.z.b.n.v.z.b.n.u.> ",
"< B { 0.^ ( ( 0.9.| ..K   * - * X . . . . .   . X O.N.N.N.N.B.J.L.U.U.L.U.L.S.<.f . .   . .   X * - -   ..y.w.w.u.i.w.y.a.z.t.# ",
"< A ..0.~ / ( 0. .| H %   X X   X     X   . .   . i g g g g k l ! Y @.Y +.+.j f * . . . .     X X X X   q ^ d.y.u.i.i.d.f.d.0.< ",
", A 0...~ / { 0.( U w X X X X X X X   X . . . @ * O . . . . . .     . . . . . . . . . . .   X X X X X X X f 8.g.d.y.w.s.u.i.| > ",
"< A ..0.~ / } ../   - h d h k f s f X . . . p &.<.Y .   .   . .       . .   . o * . . . X X h d g h h d h -   g.d.q.w.i.s.f.8.> ",
"< A ....~ ^ / | ^ X.t                 . . . j 2.H.;.j Y Y Y Y Y Y Y Y Y Y Y Y f 0 . . .                 . N y.y.y.d.y.g.f.s.| < ",
", V | 0.^ ( ^ / ^ ..| J J   - s d p . X X . 7 f Y Y =.U.'.'.'.'.'.'.'.'.'.W.U.;.0 . . X X X i d s &   t.w.y.f.d.f.d.d.i.0.| T < ",
"% B | 0.^ ] / ^ / | q.^ P + = i d d & X X . . . @ * =.!.$X$X$X$X$X$X$X#X@X[.U.-.0 .     X & d h i 0 u s.d.g.j.j.l.z.v.c.l.f.q.> ",
", B } t./  .( / ( / q.( I 6 % O d s - @ .     . p =.H.|.$X$X$X$X$X$X$XXX{.G.%.f @   @   - d h h X w 0.8.y.d.j.z.v.l.h.d.d.f.q.< ",
"% B } t.{ { / [ ( ~ 9.} P 6 7 X s h * . . . o * $.H.[.oX$X$X$X#X#XoXXX`.Y.=.@ . . o @   - d h d X < ' T R R T ' ' ' / ' ' ' R > ",
", B { t.| E ~ [ ^ ! .. .I c W W   h * . .   a *.D.'.oX#X$X$X#XXX[.K.>.=.$.f @ X & * i   - d g   1 6 z c x b M M M M M n m m b > ",
"< B { q...~ U ~ S ! ....I c W W   d *     . @.K.[.@X#X#X@X@XoX[.U.%.. .   . . @ - i p   - d d   H E E [ [ |  .8.X.| ^ U U E K > ",
"< B ( q.0.~ ^ ^ S ~  . .I c W F . p * . . . @.L.[.oX|.L.x.x.2.;.%.a .   . X @ * i w i   - s d X ^ 9.8.X.8.X.X.9.0.q.0.9.0. .A > ",
", B ( 0.0.~ / / A ! } ( ! c W _ 5.  X . . . @.K.[.@X!.@.. . o . . . . . . @ - p i i   - - &   ^ [ [ [ [ [ [ [ ^ ^ ( ..9.0.{ K > ",
"% B ! 0.t.! { / A ^ ( ..I 6 W Q 5.        . a &.S.'.U.Y . . . . . .                           ( } [ / ^ E E E E ^ ~ U ^ ^ / L > ",
", B ! ..q.^ / / S ( } q.^ c W Q 6.Z O   X . X @ @.K.S.j . . .   . @ - - - - - - - - & &   X C  ...0.0... ./ ^ ^ ^ ( / / ~ ^ P , ",
", M I ..0./ / ^ P ( ..q.! 6 W Q Q 4.$ X $ X o . a &.%.0 . X @ @ @ - i p w i p i p i & & X % 0...] ( ] } } | | | } } | / ^ / L < ",
"% B I ..q.} ( ^ ! / ..0.! c W _ Q 3.$           O * * o                                   $ | ....} ~ ~ ! I ~ ^ / / / / ^ U b < ",
", B U 9.q...( ^ ~ / q...! 6 W _ _ _ 5._ 5.r.W r 1 . . O r R ( ^ / / / / ( ^ ^ / | 0.0.0.X......... .......| ] ~ R E ^ ( | | L < ",
"< B ^ 0.w.} ] ~ / } q...S c G Q _ _ 6._ _ r.6.` S + o 5 { 0.t.0.8...} [  ...0.q.q.X.X.] ( ( ] } ......8.8.9.0.0.0.0.q.q.q.q.R < ",
"< B [ q.0.] ~ / (  .w.0.! 6 W G 6.4.6._ _ r.e.7.5.q + 6 [ } } | X.X.../ { ] / / ^ ^ ! P P S P P S I S A A L P R R / E [ [ [ I < ",
"% M K T R A m S A A I S A c Z v F G T Z F ) G D G M : 6 K B K K K A K K A K C A B B M B m m m b c c 6 6 5 6 5 4 4 4 2 3 4 z n < ",
"< < < % < < < < < # < < < < , , < < , < # > < < < < < < < < # < < , < , % < , % < < < < , % < < < < 7 % < < > < < > < < > < % < "
};
