/* XPM */
static char *result[] = {
/* columns rows colors chars-per-pixel */
"64 64 196 2 ",
"   c #090101",
".  c #0F0808",
"X  c #120604",
"o  c #190702",
"O  c #150906",
"+  c #1A0B05",
"@  c #130C0B",
"#  c #1D0E09",
"$  c #1F100A",
"%  c #171010",
"&  c #1B1414",
"*  c #1C1A1B",
"=  c #230F07",
"-  c #230F08",
";  c #231007",
":  c #21110B",
">  c #2A160C",
",  c #2C180E",
"<  c #341306",
"1  c #3B1607",
"2  c #34170A",
"3  c #3B1709",
"4  c #351D0E",
"5  c #3D1B0B",
"6  c #2A1710",
"7  c #2D1A11",
"8  c #231C1C",
"9  c #311D13",
"0  c #362116",
"q  c #3C2315",
"w  c #3D2518",
"e  c #252021",
"r  c #2A2424",
"t  c #232B2D",
"y  c #2D292A",
"u  c #332D2D",
"i  c #2E3435",
"p  c #363333",
"a  c #3A3434",
"s  c #3E3838",
"d  c #421E0D",
"f  c #411F11",
"g  c #44210E",
"h  c #49230E",
"j  c #442412",
"k  c #462716",
"l  c #4A2514",
"z  c #4D2915",
"x  c #452B1B",
"c  c #4C2C1B",
"v  c #512E17",
"b  c #522D1B",
"n  c #4C301E",
"m  c #53321E",
"M  c #593418",
"N  c #5C361B",
"B  c #603617",
"V  c #643B1D",
"C  c #6A3E1D",
"Z  c #4F3321",
"A  c #543522",
"S  c #5A3622",
"D  c #573823",
"F  c #5B3B25",
"G  c #5D3D29",
"H  c #423C3C",
"J  c #663A24",
"K  c #633D26",
"L  c #623F29",
"P  c #6D411F",
"I  c #72431F",
"U  c #644027",
"Y  c #6E4221",
"T  c #65422A",
"R  c #6B452D",
"E  c #6E482F",
"W  c #744421",
"Q  c #784722",
"!  c #764824",
"~  c #7C4B25",
"^  c #72452D",
"/  c #71492F",
"(  c #7A4A2C",
")  c #6D4730",
"_  c #6D4930",
"`  c #744C32",
"'  c #794E33",
"]  c #775135",
"[  c #7C5235",
"{  c #7D5438",
"}  c #36484B",
"|  c #464141",
" . c #4A4545",
".. c #4E4949",
"X. c #534E4E",
"o. c #4B5052",
"O. c #565252",
"+. c #5A5454",
"@. c #5E5A5A",
"#. c #7D5B41",
"$. c #625E5E",
"%. c #556567",
"&. c #557B7F",
"*. c #656262",
"=. c #6A6666",
"-. c #6E6B6B",
";. c #716D6D",
":. c #747373",
">. c #797676",
",. c #7D7A7A",
"<. c #824F28",
"1. c #815127",
"2. c #855128",
"3. c #8A542B",
"4. c #955C2E",
"5. c #815537",
"6. c #825639",
"7. c #85593A",
"8. c #8A5C3D",
"9. c #925B30",
"0. c #915E3F",
"q. c #9C6132",
"w. c #8E5F42",
"e. c #915E40",
"r. c #8F6143",
"t. c #956342",
"y. c #9A6644",
"u. c #9D6946",
"i. c #9A6748",
"p. c #9E6B4A",
"a. c #A16C47",
"s. c #A26D49",
"d. c #A6714C",
"f. c #A9724D",
"g. c #A77654",
"h. c #AB7652",
"j. c #AD7A54",
"k. c #B17D55",
"l. c #B17E59",
"z. c #817D7D",
"x. c #B5825A",
"c. c #B9855D",
"v. c #BE8B63",
"b. c #C18E66",
"n. c #C28F68",
"m. c #5D7F83",
"M. c #6C8A8E",
"N. c #7D9FA2",
"B. c #7AA8AD",
"V. c #858282",
"C. c #898686",
"Z. c #8C8B8B",
"A. c #928F8F",
"S. c #8D9192",
"D. c #959494",
"F. c #999797",
"G. c #9C9B9B",
"H. c #A19E9E",
"J. c #91A3A5",
"K. c #81ADB2",
"L. c #96B7BB",
"P. c #A5A4A4",
"I. c #ACABAB",
"U. c #B0AEAE",
"Y. c #A1BDBF",
"T. c #B3B3B3",
"R. c #B8B6B6",
"E. c #BBBABA",
"W. c #C0BEBE",
"Q. c #92BDC2",
"!. c #95C2C7",
"~. c #9BC5CA",
"^. c #9CC8CC",
"/. c #A9C3C5",
"(. c #A7CDD1",
"). c #B7D5D8",
"_. c #BAD8DC",
"`. c #C3C3C3",
"'. c #C5C8C9",
"]. c #CCCCCC",
"[. c #D0CFCF",
"{. c #C4DADC",
"}. c #D3D3D3",
"|. c #D8D7D7",
" X c #DDDDDD",
".X c #C5DFE2",
"XX c #DAE7E8",
"oX c #E3E3E3",
"OX c #E8EBEB",
"+X c #EBEBEB",
"@X c #F0EFEF",
"#X c #E7F1F2",
"$X c #EEF5F5",
"%X c #F4F4F4",
"&X c #F6F9FA",
"*X c #FFFFFF",
/* pixels */
"@ = = ; ; ; ; ; ; ; ; ; ; ; ; = ; ; = ; ; = - - + o + + + + O + + + + + + + + ; ; ; ; ; ; ; ; ; ; ; ; ; ; ; ; ; = - - - - - - : ",
"; j z z z z z z z z z z z z z z z z z z z z z l - X X         X X           X 2 g g h g g h g g d g 1 5 5 g g 4 d 5 3 j d d 5 : ",
"- S ( 6.y.p.p.p.t.8.7.7.e.t.t.e.t.i.u.i.` A Z Z :                             4 v z K W P ~ ! ~ C B g m R ] ` U T G m ( ' R D : ",
"- l r.x.c.v.v.c.v.c.l.j.c.c.k.k.f.h.f.d.A .                                         4 W Q 2.1.2.W C h m / 0.[ R T _ U 8.8.` F : ",
"# J b.b.c.c.j.j.g.x.x.x.c.l.f.s.7.A c x 6     X s @.$.@.@.@.@.@.@.@.@.@.@.@.O.8     + q g k M Q W W h m ` 8.` E G _ _ w.8._ D $ ",
"- R c.x.j.f.d.d.d.s.p.u.p.a.u.u.T @       .   8 ,.E.R.R.R.R.R.E.E.R.E.T.R.E.P...  .         4 Y ~ ~ h m ` 8.R R U ) T 7.8.T A & ",
"# K j.k.x.x.j.j.g.j.x.x.l.j.t.G 0       p =.z.F.`. XXX X X XoX X XXX XoXoX X|.I.C.:.X.*     + 4 v W h m ] 7.R R G ) T w.7.L A : ",
": J f.a.0.u.u.u.a.p.p.p.d.i.T #   % & & -.`.oX*X*X*X*X*X*X*X*X*X*X*X*X*X*X*X*X*X%X}.F.s & % @   4 V h m { 5.R U G R T 6.7.T D : ",
"- d J 5.8.y.a.f.j.j.f.d.{ Z 7 X u =.C.G.`.oX%X*X*X*X*X*X*X*X*X*X*X*X*X*X*X*X*X*X&X+X}.U.D.,...X + , 2 A { ' R D G E L [ 8.R A - ",
"- J l.l.k.f.i.y.a.j.y.{ R 6 @ * $.T. X*X*X*X*X*X*X*X*X*X*X*X*X*X*X*X*X*X*X*X*X*X*X*X*X*X+X].C.u $   = x T ` R D F ` T ] 8.` A : ",
"- ^ b.b.b.b.v.v.c.c.p.G 7 X y -.P. X%X*X*X*X*X*X*X*X*X*X*X*X*X*X*X*X*X*X*X*X*X*X*X*X*X*X%X+X`.Z...  X : Z ` ) A G R L ` w.] F - ",
": ^ b.n.n.b.v.b.v.j.#.9 X e @.I. X&X*X*X*X*X*X*X*X*X*X*X*X*X*X*X*X*X*X*X*X*X*X*X*X*X*X*X*X*XOX].V.u &   9 ) T F U G G / w.[ F : ",
": J f.f.h.h.h.h.p.G 7 O r -.I. X%X*X*X*X*X*X*X*X*X*X*X*X*X*X*X*X*X*X*X*X*X*X*X*X*X*X*X*X*X*X&X+X`.Z. .  O 9 A A R F D R 8.{ D - ",
"- f c c c c b b c -     p H. X%X*X*X*X*X*X*X*X*X*X*X*X*X*X*X*X*X*X*X*X*X*X*X*X*X*X*X*X*X*X*X*X*XOX].=.    X c F _ R R T 8.{ G - ",
": f S S A A A A c :     H E.%X*X*X*X*X*X*X*X*X*X*X*X*X*X*X*X*X*X*X*X*X*X*X*X*X*X*X*X*X*X*X*X*X*X&X%X,.    X Z L ) R ` R w.{ G - ",
"- c ' ) _ T G D x : @ u :.}.*X*X*X*X*X*X*X*X*X*X*X*X*X*X*X*X*X*X*X*X*X*X*X*X*X*X*X*X*X*X*X*X*X*X*X*XH.H * . w c L R ) R ] { G : ",
"# b 8.8.w.8.7.c O   8 :.E.OX*X*X*X*X*X*X*X*X*X*X*X*X*X*X*X*X*X*X*X*X*X*X*X*X*X*X*X*X*X*X*X*X*X*X*X*X}.G. .  X ; Z T E R ` 6.G ; ",
"- c 7.7.7.5.' 9     y F. X&X*X*X*X*X*X*X*X*X*X*X*X*X*X*X*X*X*X*X*X*X*X*X*X*X*X*X*X*X*X*X*X*X*X*X*X*XOX].@.    @ A _ T R ` 7.T $ ",
"# d K R ) R T 7     u T.&X*X*X*X*X*X*X*X*X*X*X*X*X*X*X*X*X*X*X*X*X*X*X*X*X*X*X*X*X*X*X*X*X*X*X*X*X*X&X%X-.    O A ` T R ` 6.T $ ",
"# f J R ) A w $ @ s >.[.*X*X*X*X*X*X*X*X*X*X*X*X*X*X*X*X*X*X*X*X*X*X*X*X*X*X*X*X*X*X*X*X*X*X*X*X*X*X*X&XP.O.8 . 9 Z G R _ w.T : ",
"$ k T U G 9     & ,.`.+X*X*X*X*X*X*X*X*X*X*X*X*X*X*X*X*X*X*X*X*X*X*X*X*X*X*X*X*X*X*X*X*X*X*X*X*X*X*X*X*X|.P. .    : A R ` 7.L : ",
"$ j R R R 0     & >.`.+X*X*X*X*X*X*X*X*X*X*X*X*X*X*X*X*X*X*X*X*X*X*X*X*X*X*X*X*X*X*X*X*X*X*X*X*X*X*X*X&X|.P.|     $ A T ' { F : ",
"; m { 7.] w     & ;.R.|.@X&X&X*X*X*X*X*X&X+X&X*X*X*X*X*X*X&X@X%X*X*X*X*X*X*X*X*X*X*X*X*X*X*X*X*X*X*X*X*X|.P.|     $ F _ { ` A : ",
": F 7.7.7.x     X u X.$.V.E.oX%X*X*X*X*XU.;.W.*X*X*X*X*X*X[.z.H.@X*X*X*X*X*X*X*X*X*X*X*X*X*X*X*X*X*X*X*X|.P.|     : F ) ] ` D : ",
"; m L U U 0             y z.R.OX&X*X*X*Xz.X z. X X X X X XF.r $.XX&X*X*X*X*X*X*X*X*X*X*X*X*X*X*X*X*X*X%X].H.|     : F R ] ` D : ",
"; 5 j q j ;             @ u ;.R.oX&X*X*Xz.. p +.+.+.+.+.+.H @ o./.XX*X*X*X*X*X*X*X*X*X*X*X*X*X*X*X*XoX].U.Z.s     6 A _ ] ] F : ",
"; l c m m 7     X 8 i p a a O.V.E.&X*X*XA.e @             @ * %.L._.$X&X*X*X*X*X*X*X*X*X*X*X*X*X*X*X XT.S.*.y   @ 0 A R ] ] F $ ",
"$ c F [ _ 0     & ,.E.R.E.E.A. .z.+X*X*XW.V.s             t &.J.!.(.).XX*X*X*X*X*X*X*X*X*X*X*X*X*X*X|.T.=.e X . w L F R ' { F $ ",
"$ c L 7.{ 0     & z.W.E.W.W.V.8 *.+X*X*XoX`.:.i i i i i i %.Y.(.Q.^.).XX*X*X*X*X*X*X*X*X*X*X*X*X&X+X].I...    O A ` F ) ` 7.L - ",
"$ c G 7.6.0     . e a p a a r . $.OX*X*X%XOX/.N.N.N.N.N.B.L.XX).B./.#X&X*X*X*X*X*X*X*X*X*X*X*X*XoX`.I.Z.|     O A ` F ) / 7.T $ ",
": c R 7.{ x 6 +     X y H H H H C.@X*X*X*X&X.X^.~.^.^.^./._.$XXX/.{.*X*X*X*X*X*X*X*X*X*X*X*X*X*XXXR.Z.@.y . # 7 G _ G R ` 7.T : ",
"$ b ] 8.E F D 7     8 :.G.G.G.H.`.%X*X*X*X*X.X^.^.^.^.^.^._.$X&X#X%X*X*X*X*X*X*X*X*X*X*X*X*X*X*X XE.=.% X X w F _ R L T ' w.T : ",
"$ m 6.7.T T L 0     8 >.I.T.W.].oX&X*X*X*X*X.X^.^.^.^.^.^._.$X*X*X*X*X*X*X*X*X*X*X*X*X*X*X*X%XoX'.P.+.    X c L ` ` T T 7.7.L - ",
": m 7.{ T T L 0     * =.F.I.].$X&X*X*X*X*X&X.X^.^.^.^.^.^._.%X*X*X*X*X*X*X*X*X*X*X*X*X*X*X*XOX`.P.A. .    . x T ` ` T T 8.` L : ",
": m { { T T U A 7 O @ p *.Z.T.}.+X*X*X*X*X&X.X^.^.^.^.^.^._.$X*X*X*X*X*X*X*X*X*X*X*X*X*X&XoX'.P.,...r   - Z F K ) T T _ w.) A : ",
"; m { { T T R ] D 7     r -.F.I.}.%X*X*X*X*X.X^.^.^.^.^.^._.$X*X*X*X*X*X*X*X*X*X*X*X*X*XOX`.P.A.O..     w 8.{ K R G ) ` 7._ A : ",
"$ n ` 5.R U E ] G n x O @ a *.D.T.}.OX*X*X*X.X^.^.^.^.^.^._.$X*X*X*X*X*X*X*X*X*X&XoX|.|.'.I.,.X.r   + = A 8.w.m R U E R 6.E A ; ",
"; c _ 5.R T ] ( U ` / $     y ;.D.I.}.%X&X&X{.~.^.^.^.^.^._.$X*X*X*X*X*X*X*X*X*X@X'.T.U.H.C.O.@     > k U ( [ z F U R T T D A : ",
"$ c R 7.R R 6./ R ` { k : X % i | ..,.E.'.}./.B.Q.^.^.^.~._.$X*X*X*X*X*X*X*X&XoX'.U.C.*. .H r . O < < f j j j 5 5 j j f d 5 5 : ",
"$ c R 7.R R 7.R E / 7.F q o o       a >.S.P.M.M.B.!.!.!.!.).#X%X&X&X%X%X&X%XOXW.G.C.$.*       . q ^ ^ ^ ` ( ( ( ( ' ( ( ( / T : ",
": c R 7.R E 6.R { / 7.G z < j O     & u s | i } M.B.B.B.B.K.'.[.[.[.[.[.].`.P.-.H a r X     6 F 5.y.f.k.l.l.c.l.c.x.c.x.k.k.8.- ",
"$ c T 7.R / [ / 7.` 5.F n 1 V 4 $ ; O         @ } m.&.&.&.M.S.D.D.D.D.F.D.V.=.r     . $ : : x [ e.f.h.k.h.f.h.l.b.v.c.l.b.b.r.; ",
": c ` 7.R / / 6.7.' ] F m 1 I ! N ( q           * t t t t t p a a a a a a u r @     $ D ` { t.s.0.8.y.e.e.e.0.0.t.y.0.e.i.j.w.: ",
": n ] 7.U R E 7.] ` ' S A 1 ~ 4.2.q.V : $ > $ +                                 @ 6 x r.l.l.v.v.l.s.e.a.f.f.s.y.y.y.y.s.h.d.7.: ",
"; m 5.5.U R ` 7.R ] ` S A 1 Q 4.2.3.3.V M P k $                               . @ 0 R t.p.i.y.y.a.a.a.a.f.y.s.f.s.e.8.a.t.y.' - ",
"; m 6.{ U T E { R [ ] S S 3 Q 3.1.2.3.1.M N 4 O @ @ 8 a | X.X.X.X.X.X...| u 8 8 @ > A ` e.f.f.f.s.f.a.0.y.s.s.s.s.8.0.y.a.s.5.: ",
"; m [ 6.U R E ` T { [ J S 3 Q <.1.2.1.~ z ; X   u *.D.T.].|.|.|.|.|.|.}.].I.Z.@.8 X + 7 ) f.f.i.a.a.f.f.y.0.e.0.e.a.e.f.d.s.' : ",
"; c ] 6.U R R R T { 6.L D 3 P Q 2.P I N 4 O & u =.I.|.%X*X*X*X*X*X*X*X*X*XOX].V.e     6 ) t.e.a.a.e.e.a.s.f.s.f.f.s.a.y.7.' J : ",
"$ c ] 7.T ( T R R ] 8.R D 5 P I ~ W v > +   a >.I.|.$X&X*X*X*X*X*X*X*X*X*X%X@XF.y     6 ` s.s.a.e.i.a.y.s.f.h.h.k.l.c.l.k.f.7.- ",
": c ` 8.R ] R R R R 8.E D 5 P ! W ~ v > #   a ,.H.E.|.@X*X*X*X*X*X*X*X*X*X&X@XF.y     6 ' s.s.a.s.a.8.5.e.s.h.l.c.k.h.s.s.f.8.: ",
": c ` r._ E T _ E U 7.` F 5 I ~ P ~ P P w . & u | ..,.[.*X*X*X*X*X*X*X*X*XOX}.V.r     # Z J R K J J J J J J J L ^ ^ R R ) ) J : ",
"; c ` 8.] U T _ T G { ] F g I 1.W ~ ! 1.v X     O & @.`.*X*X*X*X*X*X*X&X%X].P.*.8   . - 3 f 5 5 5 d f l f l b l c z z l l l k - ",
"$ c _ 8.{ L G U F G ] [ F g I 1.~ ! N q :       r @.F. X*X*X*X*X*X*X*XOX}.D.O.u @ + w F ` ` ) T L L L ) ) ' { { { ` T G L G m - ",
": c _ 8.{ L T T N U ] ] F q I ~ ~ I k       . % ..G.[.@X*X*X*X*X&X+XoX`.I.$.%   X w R 6.6.6.7.7.6.6.6.6.6.6.{ 6.7.8.7.6.6.[ m : ",
": c T 8.7.T _ T Z T E E F 5 P ~ 1.P k       y @.A.'.OX%X*X*X&XoX].G.;.$.O.u . : 0 x F L L T T R L ) ) ) L ) ) R R R ' 6.6.` S - ",
"; c T 7.7.R _ _ A T E { U g P Q 1.P k        .G.[.@X&X&X%X%X+X'.P.X.          9 T ` ) T R E R / ` ) ) L L L L L T U L T T R D # ",
": z F [ 7.U R R A R ` 8.U g P I 2.Q k        .H.[.@X XH.z.m.,.=.O.r       + 7 Z U T R _ _ ` E ` { 6.6.6./ R R T R R _ R T T S ; ",
": c F { 8.R R T F R [ 8.G q P I Q ~ j        .G.].+XW...o                 7 L R R R _ ` { 7.7.[ ` / E / ` ] ` ` ` ` ` R T R S : ",
": c F { 8._ R R G R [ 7.G g P ! I ~ V q > X r O.Z.'.P.H X         # 7 7 7 w F T T T U R T R ` [ [ / T U U G U R R R R R T L l ; ",
"; c G 5.r.] E T R R 7.{ F 5 P ~ ~ ~ 1.P k O . @ ..F.Z.a         X w T K T T T T ` 6.7.7.7.{ [ [ [ ' [ [ [ ' / U U L T R ` ` S $ ",
"$ c T 7.8.] / R R E 8.[ F 5 P ! Q ~ 3.~ N v > X r @.O.8 . 6 w w w G ` _ ] { 7.8.8.7.{ ` _ E ` ` [ { { [ [ 5.7.7.7.7.7.w.w.8.L : ",
"; c ) 8.8./ J R R [ 0.{ G g C V 3.<.3.~ W 9.m + X % % . # x U T _ ] ] R _ / R R T U F D D A N D N D N m A S F K L R L R R ) S : ",
": k A K G b c S N v G F m d N h V C C M V W v > - X   o 6 k m A A A A A m m n m n c c c k k k k g g q 5 4 5 3 3 3 3 2 1 3 d z : ",
": $ : : : ; $ : $ $ : $ ; $ ; > : : : ; $ - $ # O     + # $ $ : : ; $ ; $ : : $ $ ; ; : : : : $ $ : : $ : : $ : $ - : $ - : : : "
};
