/* XPM */
static char *result[] = {
/* columns rows colors chars-per-pixel */
"64 64 192 2 ",
"   c #040303",
".  c #090101",
"X  c #0C0B0A",
"o  c #110604",
"O  c #140906",
"+  c #1A0B05",
"@  c #120C0C",
"#  c #1D0E09",
"$  c #16110E",
"%  c #1D120C",
"&  c #141212",
"*  c #1A1414",
"=  c #1F1A16",
"-  c #1B1A1A",
";  c #230F07",
":  c #230F08",
">  c #231007",
",  c #21110B",
"<  c #2B160C",
"1  c #391607",
"2  c #3A1709",
"3  c #35190B",
"4  c #3D1B0C",
"5  c #241912",
"6  c #2C1C13",
"7  c #221D1D",
"8  c #301C13",
"9  c #27211C",
"0  c #332116",
"q  c #3B2316",
"w  c #372519",
"e  c #3A2519",
"r  c #3E291C",
"t  c #242323",
"y  c #2A2424",
"u  c #232B2D",
"i  c #2B2A2A",
"p  c #332D2D",
"a  c #2E3435",
"s  c #333333",
"d  c #3A3434",
"f  c #35393A",
"g  c #3E3838",
"h  c #421E0D",
"j  c #411F11",
"k  c #44200E",
"l  c #49230E",
"z  c #452312",
"x  c #462717",
"c  c #4A2514",
"v  c #4D2915",
"b  c #432B1C",
"n  c #4C2C1B",
"m  c #512E17",
"M  c #522D1B",
"N  c #4C311E",
"B  c #53321E",
"V  c #5B361B",
"C  c #603617",
"Z  c #653B1D",
"A  c #6A3E1D",
"S  c #4A3221",
"D  c #4B3627",
"F  c #543622",
"G  c #5B3622",
"H  c #563924",
"J  c #5B3B25",
"K  c #5C3D29",
"L  c #423C3C",
"P  c #663A24",
"I  c #633D26",
"U  c #623F28",
"Y  c #6E421F",
"T  c #5E422E",
"R  c #644027",
"E  c #6F4321",
"W  c #65422B",
"Q  c #6B452D",
"!  c #6E482F",
"~  c #744421",
"^  c #7C4B24",
"/  c #71452E",
"(  c #72492E",
")  c #7A4929",
"_  c #6C4730",
"`  c #6D4930",
"'  c #744C32",
"]  c #7A4E32",
"[  c #745036",
"{  c #7C5235",
"}  c #7C5439",
"|  c #36484B",
" . c #464141",
".. c #4A4545",
"X. c #4E4949",
"o. c #534E4E",
"O. c #4B5052",
"+. c #565252",
"@. c #5A5454",
"#. c #5E5A5A",
"$. c #625E5E",
"%. c #556567",
"&. c #557B7F",
"*. c #656262",
"=. c #6A6666",
"-. c #6E6B6B",
";. c #716D6D",
":. c #627A7D",
">. c #747373",
",. c #797676",
"<. c #7D7A7A",
"1. c #834F28",
"2. c #865229",
"3. c #815537",
"4. c #825639",
"5. c #85593A",
"6. c #8A5C3D",
"7. c #925B30",
"8. c #915E3E",
"9. c #8E5F42",
"0. c #915E40",
"q. c #8F6143",
"w. c #956242",
"e. c #996544",
"r. c #9C6847",
"t. c #9C6A4A",
"y. c #A16C47",
"u. c #A26D49",
"i. c #A6714C",
"p. c #A9734D",
"a. c #A67150",
"s. c #AB7551",
"d. c #AE7A54",
"f. c #B17D55",
"g. c #B27E59",
"h. c #817D7D",
"j. c #B5825A",
"k. c #B9855D",
"l. c #BE8C63",
"z. c #C18E66",
"x. c #5D7F83",
"c. c #6C8A8E",
"v. c #7D9FA2",
"b. c #7AA8AD",
"n. c #858282",
"m. c #898686",
"M. c #8C8B8B",
"N. c #928F8F",
"B. c #8D9192",
"V. c #959494",
"C. c #999797",
"Z. c #9C9B9B",
"A. c #A19E9E",
"S. c #91A3A5",
"D. c #81ADB2",
"F. c #96B7BB",
"G. c #A5A4A4",
"H. c #ACABAB",
"J. c #B0AEAE",
"K. c #A1BDBF",
"L. c #B3B3B3",
"P. c #B8B6B6",
"I. c #BBBABA",
"U. c #C0BEBE",
"Y. c #92BDC2",
"T. c #95C2C7",
"R. c #9BC5CA",
"E. c #9CC8CC",
"W. c #A9C3C5",
"Q. c #A7CDD1",
"!. c #B7D5D8",
"~. c #BAD8DC",
"^. c #C3C3C3",
"/. c #C5C8C9",
"(. c #CCCCCC",
"). c #D0CFCF",
"_. c #C4DADC",
"`. c #D3D3D3",
"'. c #D8D7D7",
"]. c #DDDDDD",
"[. c #C5DFE2",
"{. c #DAE4E4",
"}. c #DAEAEC",
"|. c #E3E3E3",
" X c #E8EBEB",
".X c #EBEBEB",
"XX c #F0EFEF",
"oX c #E7F1F2",
"OX c #EEF5F5",
"+X c #F4F4F4",
"@X c #F6F9FA",
"#X c #FFFFFF",
/* pixels */
"@ ; ; > # > > > > > > > > > ; ; : ; ; > > : : : : + + + + + + + + + + + + + + ; ; ; > > > > > > > > > > , > > > > : ; ; ; : : , ",
"> z v v v v v v v v v v v v v v v v v v v v v j : o o . o . . o . o . o o . . 1 l k l k h k l k h h 1 4 4 k k 4 4 4 2 h h h h , ",
": V ( 4.q.t.t.t.w.6.5.5.8.w.w.8.w.r.r.r.' F F S , . . . . . .   . . . . . . . 4 m m Z ~ A ^ ^ ^ Z Z k B W { ] J W T B ] ] _ H : ",
": c w.j.l.l.l.l.  k.g.d.k.k.g.f.p.s.a.u.H . . o . .   .   . . . . . .     . . . . . 8 ~ ^ 2.^ 2.~ A l B ( H   Q W _ R 6.6.' H , ",
"# I z.z.z.j.[ 5 u = } l.k.g.s.u.5.H N n 6 .   o L #.#.#.#.#.#.#.#.#.#.$.#.#.+.t . . # q q v V ~ ~ ~ l B 5 7 i $ T _ _ 9.6._ H , ",
": Q k.j.p.p.T   f & D ` y._ _ Q b O .   . . . 7 <.P.I.I.P.P.I.L.I.L.I.L.P.P.G.... X . . . . > v m C l 0 * t f   I _ Q 6.6.W H , ",
": P d.g.j.j.W   d f & & g.      . o . . d -.h.C.^.].].].{.].].|.{.].].|.].].'.J.m.>.o.5 . . .   . 5 l   s f f   K Q W 5.9.U H % ",
"% P i.y.w.e.H   f t &     p - X . @ * * ;.U.|.#X#X#X#X#X#X#X#X#X#X#X#X#X#X#X#X#X+X).C.L * $ @ . * t     9 i s   I Q W } 5.U H , ",
": h P 4.8.e.K   t     X i - $ . p =.m.Z.^.|.+X#X#X#X#X#X#X#X#X#X#X#X#X#X#X#X#X#X@X.X`.J.V.<...@ o * t     & t   K ! U { 6.W H : ",
": P g.g.f.u.} S *     X - @ @ = $.L.].#X#X#X#X#X#X#X#X#X#X#X#X#X#X#X#X#X#X#X#X#X#X#X#X#X.X(.m.p &   *     X & 6 K ( R { 6.' H , ",
", / z.z.z.z.z.k.        o X y -.G.].+X#X#X#X#X#X#X#X#X#X#X#X#X#X#X#X#X#X#X#X#X#X#X#X#X#X+X.X^.M.X.. o       X H I Q W ' 0.' H : ",
", / z.z.z.z.z.z.l.      X 9 $.H.].@X#X#X#X#X#X#X#X#X#X#X#X#X#X#X#X#X#X#X#X#X#X#X#X#X#X#X#X#X.X(.n.p * .   6 I H R K K ( 0.} K , ",
", P a.a.a.a.d.s.t.K O . y -.H.].+X#X#X#X#X#X#X#X#X#X#X#X#X#X#X#X#X#X#X#X#X#X#X#X#X#X#X#X#X#X@X.X^.M.... O 8 F H W J G Q 6.} H : ",
", j M v % v M M M : . . d Z.].+X#X#X#X#X#X#X#X#X#X#X#X#X#X#X#X#X#X#X#X#X#X#X#X#X#X#X#X#X#X#X#X#X X(.=.. . O n J ` Q W 7 6.} K , ",
": j B n X r S H n , .   L I.+X#X#X#X#X#X#X#X#X#X#X#X#X#X#X#X#X#X#X#X#X#X#X#X#X#X#X#X#X#X#X#X#X#X@X+X,.. . O N I ! R K X ' [ K : ",
": M D   s X 6 H b , O d ;.`.#X#X#X#X#X#X#X#X#X#X#X#X#X#X#X#X#X#X#X#X#X#X#X#X#X#X#X#X#X#X#X#X#X#X#X#XG.L 7 . e n T 0   s   K K : ",
"# M K   s s -   O o 7 >.I..X#X#X#X#X#X#X#X#X#X#X#X#X#X#X#X#X#X#X#X#X#X#X#X#X#X#X#X#X#X#X#X#X#X#X#X#X).Z.... o >   - s s   K K % ",
"# n K   i s i &   . y C.].+X#X#X#X#X#X#X#X#X#X#X#X#X#X#X#X#X#X#X#X#X#X#X#X#X#X#X#X#X#X#X#X#X#X#X#X#X.X(.$.. . . - p s i   K U % ",
": j x   u s s * . . p L.#X#X#X#X#X#X#X#X#X#X#X#X#X#X#X#X#X#X#X#X#X#X#X#X#X#X#X#X#X#X#X#X#X#X#X#X#X#X#X+X;.. . . y s a y   K W , ",
"# j b   y y = X o L ,.).#X#X#X#X#X#X#X#X#X#X#X#X#X#X#X#X#X#X#X#X#X#X#X#X#X#X#X#X#X#X#X#X#X#X#X#X#X#X#X@XA.+.t . * t i i   K W % ",
"% @     i &   . * ,.^..X#X#X#X#X#X#X#X#X#X#X#X#X#X#X#X#X#X#X#X#X#X#X#X#X#X#X#X#X#X#X#X#X#X#X#X#X#X#X#X#X`.G. ..   @ t u     @ % ",
"  - - - X & . . * ,./..X#X#X#X#X#X#X#X#X#X#X#X#X#X#X#X#X#X#X#X#X#X#X#X#X#X#X#X#X#X#X#X#X#X#X#X#X#X#X#X@X'.G. .. . @ -   - t t   ",
"  t i t * @   . * ;.P.'.XX+X@X#X#X#X#X#X@X.X@X#X#X#X#X#X#X@XXX+X#X#X#X#X#X#X#X#X#X#X#X#X#X#X#X#X#X#X#X#X`.H. .. . X & - t y 7   ",
"  t i s s   . . . d +.$.n.I.|.@X#X#X#X#XJ.;.U.#X#X#X#X#X#X).h.A.XX#X#X#X#X#X#X#X#X#X#X#X#X#X#X#X#X#X#X#X'.G...  .     s s a -   ",
"  t u i s =     .   . . y h.I.|.@X#X#X#Xh.o n.].].].].].].C.y $.{.@X#X#X#X#X#X#X#X#X#X#X#X#X#X#X#X#X@X@X(.G.L   . @ 7 s y i -   ",
"  & &   i * . . . .   . $ p -.I.|.@X#X#Xh.. d +.+.@.@.@.+.L @ O.W.}.#X#X#X#X#X#X#X#X#X#X#X#X#X#X#X#X X(.J.m.L .   @ i i   & &   ",
"O @ X - i * .   o 7 d d d d +.n.I.@X#X#XN.t @   . . . .   @ - %.F.~.OX@X#X#X#X#X#X#X#X#X#X#X#X#X#X#X'.L.M.*.p . . & t i * & & @ ",
"% $ & t t & . . 5 <.I.P.I.I.N...h..X#X#X^.h.g     . . . . i :.D.T.Q.!.}.#X#X#X#X#X#X#X#X#X#X#X#X#X#X].L.=.t @ . * - t t t * % % ",
", n r       . . * <.I.U.I.U.n.7 *..X#X#X|.^.>.a a a a a a %.K.Q.Y.E.!.}.#X#X#X#X#X#X#X#X#X#X#X#X+XXX(.G.o.. . .           T K > ",
"% n K 5.5.0   . . y d d d d y o $. X#X#X@X.XI.b.v.v.v.S.b.F.{.~.b.W.oX@X#X#X#X#X#X#X#X#X#X#X#X#X|./.H.M.L .   .   r J _ ` 5.W % ",
"> n W 5.{ b + . . . @ p L L L L m.XX#X#X#X#X_.E.R.E.E.E.R.!.+X{.W._.#X#X#X#X#X#X#X#X#X#X#X#X#X#X].I.M.#.i . . X   r J Q ' 6.W , ",
"% B { 6.( J 0   . . 7 ;.Z.A.Z.Z.^.+X#X#X#X@X[.E.R.E.E.E.R.~.+X@XoX+X#X#X#X#X#X#X#X#X#X#X#X#X#X#X].I.*.* @ . & -   r U W { 6.W , ",
"> B { 6.W W w   . . 7 ,.H.L.I.(.|.@X#X#X#X#X[.E.E.E.E.E.E.~.OX#X#X#X#X#X#X#X#X#X#X#X#X#X#X#X+X|./.G.@..   . = i   r W W 5.5.I , ",
", B 5.} W W U 0 .   7 *.Z.H.(.+X@X#X#X#X#X@X[.E.E.E.E.E.E.~.+X#X#X#X#X#X#X#X#X#X#X#X#X#X#X#X X^.G.N.... . X -   ' ' W W 6.' U , ",
", F 4.{ W W R H   . @ d *.M.L.`..X#X#X#X#X@X[.E.E.E.E.E.E.~.OX#X#X#X#X#X#X#X#X#X#X#X#X#X@X|./.G.<.o.y . X X &   Q W W ` 6._ H , ",
"> M { { Q W Q '   X .   y -.V.L.`.+X#X#X#X#X[.E.E.E.E.E.E.~.OX#X#X#X#X#X#X#X#X#X#X#X#X#X X^.G.N.+.. . . X X &   Q R _ ' 6._ H , ",
"% n ' 4.W W ! {         @ d *.N.L.`..X#X#X#X[.E.E.E.E.E.R.~.OX#X#X#X#X#X#X#X#X#X@X|.'.'./.H.h.o.i .             Q W Q Q 4.! F > ",
", n ` 4.Q W b   s i i @ . . i ;.V.H.(.@X@X@X_.R.E.E.E.E.E.~.OX#X#X#X#X#X#X#X#X#XXX(.L.J.A.m.+.@ . . - s d i i a   w Q Q W F F , ",
"% n ! 4.Q Q 4.'             * p  .X.h.I./.`.W.b.Y.E.E.E.E.~.OX#X#X#X#X#X#X#X@X|./.H.m.$...L y .                 h k z h h 4 k % ",
"> n Q 4.Q Q 5.! r b ,   * @ .   . . d >.B.G.c.c.b.T.T.T.T.!.oX+X+X@X+X@X+X+X.XU.Z.m.$.7 .     . @ - * - X % b b ] ] ] ) ( / I , ",
", n W 5.Q ` 4.Q { ( e X i t - X   . * p g L f | c.b.b.b.b.F./.).).).`.(.).U.G.-.L d t @ .   . - y p u s X H j.g.j.j.k.j.g.f.6.: ",
"% n W 4.Q ' } ( 5.' e X i s - & o   . . . . . X | &.&.&.&.x.B.V.C.V.V.C.C.h.=.i . . . .   X   y a s s u   S d.j.z.z.k.g.l.z.w.> ",
", n ` 6.W ( ( 5.4.] { F   - & & &   X   . . . . - u u u u i s d d d d d d p t @ . . . @ @ X   - - - -   } 0.8.8.w.e.8.8.r.d.9.: ",
", M { 5.W Q Q 5.[ ' S %   X X   X     . X .   . . . . .   . . . .   . . . . . .     . $ X     X X   X   0 W y.e.w.e.e.u.i.a.5., ",
"> B { 3.R Q ! 5.Q T 0 X X & X X X @     @ &     . . . .   . . . . . . . . . . . .   X & X   X X X X @ X X p 3.i.u.0.8.y.w.r./ > ",
"> B 5.} R Q ( { Q   - a i s s a u s X X @ X   . @ @ 7 d  .o.o.o.o.o.o... .p 7 7 @ . X @ X X s i a s s u s -   u.u.6.8.e.y.p.4., ",
"> B } 5.R Q ! ' Q { w                 X @ . . . p *.V.L.).`.'.'.'.'.'.`.(.H.m.#.5 . . o X               . b 0.0.0.u.0.i.i.u.] , ",
"% n ' 5.R Q Q Q W { [ S S   - t i t   X X . * p =.H.'.+X#X#X#X#X#X#X#X#X#X.X`.n.9   . X   X t u t -   5.8.0.p.u.p.u.u.e.5.] P , ",
"> n [ 6.W ( Q Q Q ' 6.Q V + = - i i X . .   d ,.H.'.+X@X#X#X#X#X#X#X#X#X#X+XXXC.i . . . X & i s t 7 r r.u.a.s.d.f.g.k.j.f.p.5., ",
"> n ' 6.Q [ Q Q ! Q 6.! T 1 5 X i i - X   . d <.G.P.`.XX#X#X#X#X#X#X#X#X#X@XXXC.i . .   * i s s X 9 5.3.0.u.s.g.k.f.s.u.u.i.6., ",
"> n ' 9.' ! Q ` Q R 5.( T 4 % X i p y & . . * p L X.h.).#X#X#X#X#X#X#X#X#X.X`.n.y .   . & u s i X , / E P U / P / / P / / ` P : ",
", N ` 6.' I W Q Q T { [ V 4 Y Y   a i *   . . . o * $.^.#X#X#X#X#X#X#X@X+X(.G.$.7 . .   * i a   < 4 4 h j z c c v v M c c c z , ",
", n [ 6.} K K W V T { { T k Y Y   i - X   . . . y $.C.'.#X#X#X#X#X#X#X X`.C.+.p @ . &   - i i   S U U _ / ' } } { [ Q K K K F : ",
"> n ` 6.4.R W W H R ' [ V 4 Y Z X t * . . . o @ o.Z.)..X#X#X#X@X@X.X|.^.G.$.* . . @ =   - u t X W 5.4.4.4.4.3.4.5.6.4.{ 5.} M # ",
", n W 5.5.W ` Q B R ( ! T 4 Y ^ 1.  X . . . i $.N./. X+X#X#X+X X(.Z.;.$.o.p . X & *   - - &   Q _ _ _ _ _ _ U _ Q ! { 4.4.' G , ",
", n W 5.5.W ` Q B Q ! [ T 4 Y ^ 1.    . .   X.Z.(.XX#X+X@X+X.X/.G.o.. .   . .                 ( ` ` _ U U U U U W R U W W W G , ",
"> n K { 5.W Q Q H Q ( 6.W k Y ~ 1.m o   . . ..Z.).XX].A.h.h.,.=.+.y .   . . @ * - - & & X X N ' { 5.5.4.( Q W W W ! ! Q W W G > ",
"> n J { 6.Q Q W H Q { 6.T 4 Y Y ^ ^ o   .   ..Z.).XXU.... . . . . . . . . @ - - - t & & X $ 5.{ ( ! ! ( ' ' { ' ( ' ' Q W Q G , ",
"> n K { 6.' Q W T Q 3.5.T 4 Y ^ ~ ^ O . . . y #.M.^.G.L . . . . .   .       X             $ ' { { ( R R R T R Q Q Q Q Q Q J z > ",
"> n K 4.6.{ ( W W Q 5.3.T 4 Y ^ ^ ^ 1.E v o . @ ..C.M.d . . . . o q W I R W W _ ' } 6.5.} } { { { { { { { ] ( R R I W ! ' ' J , ",
"% n W 5.8.{ Q W Q ! 6.} J k C ^ ^ ^ 2.^ V m < o y @.+.7 o 6 e e e J ' _ [ { 5.5.6.4.} ' ( ( ( ' { { { } { 4.4.5.5.6.5.9.6.6.I , ",
", n _ 6.6.( R Q ! { 9.4.J k A Z 2.1.2.1.~ 7.B # @ * * o O b U _ ` { { Q ` ( Q Q W W K G H H H H V H H V F F J I I U U _ _ ` J , ",
", c G J K m v G B m K V B h C l Z A A V Z ~ v < ; o . + < b F F F F F F S F B B n n n n v z x z z k 4 4 4 4 4 2 2 2 3 1 2 h c : ",
", , , , , , % , , , , , > , , > % > > % > > , # o . o o # # # , > : , , > , > % , % > , > % % > % , , % , , # , , : , , : , , , "
};
