/* XPM */
static char *result[] = {
/* columns rows colors chars-per-pixel */
"64 64 198 2 ",
"   c #040303",
".  c #090101",
"X  c #0C0A0A",
"o  c #120604",
"O  c #140906",
"+  c #1A0C06",
"@  c #130C0C",
"#  c #1D0F09",
"$  c #16110E",
"%  c #1B120B",
"&  c #141313",
"*  c #1A1414",
"=  c #1F1A16",
"-  c #1B1B1B",
";  c #230F07",
":  c #230F08",
">  c #231007",
",  c #21110B",
"<  c #2A160D",
"1  c #361304",
"2  c #381506",
"3  c #3A1709",
"4  c #32180D",
"5  c #3D1B0B",
"6  c #221710",
"7  c #251A12",
"8  c #2C1B12",
"9  c #221D1D",
"0  c #321E14",
"q  c #29201A",
"w  c #322117",
"e  c #382418",
"r  c #3A2619",
"t  c #3D291C",
"y  c #242323",
"u  c #2A2424",
"i  c #252D2E",
"p  c #2B2A2A",
"a  c #332D2D",
"s  c #2C393B",
"d  c #333333",
"f  c #3B3535",
"g  c #3E3939",
"h  c #421E0D",
"j  c #411F11",
"k  c #44210E",
"l  c #49230E",
"z  c #452212",
"x  c #4A2515",
"c  c #4E2815",
"v  c #492618",
"b  c #422A1C",
"n  c #4C2C1B",
"m  c #502A16",
"M  c #522D1B",
"N  c #4C311F",
"B  c #53321D",
"V  c #5B361B",
"C  c #643B1D",
"Z  c #6A3E1D",
"A  c #442F21",
"S  c #4B3221",
"D  c #4B3627",
"F  c #553622",
"G  c #5B3622",
"H  c #563924",
"J  c #5B3B25",
"K  c #5C3D28",
"L  c #423C3C",
"P  c #623623",
"I  c #633D26",
"U  c #683D23",
"Y  c #623F28",
"T  c #6D411F",
"R  c #5E422E",
"E  c #644027",
"W  c #6F4220",
"Q  c #65422B",
"!  c #6B452D",
"~  c #6E482F",
"^  c #744421",
"/  c #7B4B24",
"(  c #71452E",
")  c #72492E",
"_  c #6C4730",
"`  c #6D4930",
"'  c #744C32",
"]  c #7A4E32",
"[  c #745036",
"{  c #7C5235",
"}  c #7E5439",
"|  c #3D4748",
" . c #474242",
".. c #4A4545",
"X. c #4E4A4A",
"o. c #514D4D",
"O. c #49585A",
"+. c #555252",
"@. c #595555",
"#. c #5F5A5A",
"$. c #615D5D",
"%. c #4E7074",
"&. c #567173",
"*. c #666262",
"=. c #696666",
"-. c #6E6A6A",
";. c #726E6E",
":. c #757272",
">. c #797676",
",. c #7C7979",
"<. c #814E26",
"1. c #825027",
"2. c #855229",
"3. c #8A542A",
"4. c #8F582D",
"5. c #935B2F",
"6. c #815537",
"7. c #825639",
"8. c #85593A",
"9. c #8A5C3D",
"0. c #985E31",
"q. c #915E3E",
"w. c #9C6132",
"e. c #A66737",
"r. c #A96937",
"t. c #8D5F41",
"y. c #915E40",
"u. c #8F6143",
"i. c #956242",
"p. c #996544",
"a. c #9C6846",
"s. c #9A6748",
"d. c #9D6A49",
"f. c #A16C47",
"g. c #A26D49",
"h. c #A6714C",
"j. c #A9734E",
"k. c #A47251",
"l. c #AB7552",
"z. c #AE7A54",
"x. c #B17D56",
"c. c #B27E59",
"v. c #827F7F",
"b. c #B5825A",
"n. c #B9855D",
"m. c #BE8B63",
"M. c #C18E66",
"N. c #C28F68",
"B. c #5B8185",
"V. c #678083",
"C. c #6C8587",
"Z. c #78898B",
"A. c #76A5AA",
"S. c #858383",
"D. c #898686",
"F. c #8C8989",
"G. c #918E8E",
"H. c #839798",
"J. c #949393",
"K. c #989797",
"L. c #9C9B9B",
"P. c #88AFB3",
"I. c #8DB1B5",
"U. c #8EB6BA",
"Y. c #A4A3A3",
"T. c #A9A6A6",
"R. c #ADACAC",
"E. c #B0AFAF",
"W. c #B3B2B2",
"Q. c #B6BABA",
"!. c #BCBBBB",
"~. c #94C0C5",
"^. c #9AC6CB",
"/. c #9CC8CC",
"(. c #A0CACF",
"). c #A8C8CB",
"_. c #B6C4C5",
"`. c #AACED2",
"'. c #B8D3D5",
"]. c #B6D6D9",
"[. c #C4C3C3",
"{. c #C8C7C7",
"}. c #CCCBCB",
"|. c #D0CFCF",
" X c #C4D5D7",
".X c #D3D2D2",
"XX c #DCDCDC",
"oX c #CAE2E4",
"OX c #D7E6E8",
"+X c #D6E8EA",
"@X c #E5E4E4",
"#X c #E5E9E9",
"$X c #ECEBEB",
"%X c #E7F2F3",
"&X c #EBF4F4",
"*X c #F4F4F4",
"=X c #F8F7F7",
"-X c #FFFFFF",
/* pixels */
"@ ; ; > > > > > > > > > > > : ; > > : > > : : : : > > : > > : > > > : : : ; ; : > > > > > > > > > > > > > > > > : : ; ; : : : > ",
"> z c c c v c c c c c c c c c c c c c c c c c c c c x c c c c c c c x x c 5 3 l k k k k h k l l 5 k 2 5 5 k z 3 5 5 3 h h j j , ",
": V ) 7.i.s.d.s.i.t.8.8.q.i.i.t.i.a.a.a.i.8.8.7.' ' } 7.} } } } 7.7.} } ' z l 3.2./ 5./ T / / / C C l B ! { ) R Q R B ] ] ! F : ",
": x i.b.m.m.m.m.  n.c.z.n.n.c.z.j.j.j.g.d.a.d.t.S 0 0 0 w w w w w w 0 w 8 + 4 0.w.4.r.3.^ 3./ 2.^ Z l B ) H   ~ Q ` E 9.9.' H , ",
"# I M.M.m.b.[ = i q } m.n.c.j.h.a.i.9.8.' K J G , . . . . . . . . . . . . . + Z C C w.5.^ 2./ / ^ ^ l B 7 q p % K ` _ t.9.` H , ",
": ! n.b.j.j.R   d & A ` d.` ` ! ` k.x.k.A + O o . . . . . . . . . . . . . . . O o + n w./ / V M V V l e * y s   E ! ! t.9.Q H , ",
": I z.c.n.b.R   d d & & b.        ! Q t . . . * L o.o.o.X.X.+.X.X.o.o.o.o.o.u . . .   C n M       6 l   d d d   K ! Q 8.8.Y H * ",
", P j.f.w.s.H   d p &     d p p y . . . . . . p F.W.W.W.E.W.E.W.W.W.E.W.E.W.$.. . . . . .   a p d y     y p d   K _ Q 7.8.Q F : ",
": h U 6.q.p.K   p     X d d d - X . . . g =.,.K.}.XXXXXXXXXXXXXXXXXXXXXXXXXXW.S.;.@.9 . . . @ u d d d     & p   Y ~ I } 9.E F , ",
": U c.c.z.k.[ D &       i d q X X O @ 6 :.[.#X-X-X-X-X-X-X-X-X-X-X-X-X-X-X-X-X-X.XY...* @ o . & d d p     X & 8 J ' Q { 9.' H , ",
", U M.N.M.M.m.m.X     X y 9 X . p -.D.Y.{.@X=X-X-X-X-X-X-X-X-X-X-X-X-X-X-X-X-X-X$XXXW.J.,.o.O X * y p         G K ! I ' t.] H , ",
", ] M.M.M.M.m.m.m.    X y @ X 9 $.W.XX-X-X-X-X-X-X-X-X-X-X-X-X-X-X-X-X-X-X-X-X-X-X-X-X*X|.G.a & . * i     e _ H E K K ) t.{ K , ",
", P k.k.l.l.l.l.l.x.D . @ . u ;.R.@X*X-X-X-X-X-X-X-X-X-X-X-X-X-X-X-X-X-X-X-X-X-X-X-X-X=X$X}.G.X.. X *   K 8.! H Q K H _ 9.{ J : ",
", j m M , c M M M x 4 O o u #.E.XX=X-X-X-X-X-X-X-X-X-X-X-X-X-X-X-X-X-X-X-X-X-X-X-X-X-X-X-X$X}.D.d = . # S } ( I ' _ Y 8 9.6.K , ",
", j G v X b S F G 0 O . 9 -.E.XX=X-X-X-X-X-X-X-X-X-X-X-X-X-X-X-X-X-X-X-X-X-X-X-X-X-X-X-X-X=X=X}.K. .. . < ` ' Y _ Y K X ' [ K , ",
": M D   d   0 Q _ b . . y K.XX=X-X-X-X-X-X-X-X-X-X-X-X-X-X-X-X-X-X-X-X-X-X-X-X-X-X-X-X-X-X-X-X$X.X$.. . # Q 8.Y _ 0   d   H K , ",
"# M K   d d -   t.n . . p W.=X-X-X-X-X-X-X-X-X-X-X-X-X-X-X-X-X-X-X-X-X-X-X-X-X-X-X-X-X-X-X-X-X-X=X;.. . + E t.I   - d d   H R , ",
"# m K   p d p y O , . g :.|.-X-X-X-X-X-X-X-X-X-X-X-X-X-X-X-X-X-X-X-X-X-X-X-X-X-X-X-X-X-X-X-X-X-X-XY.o.9 o 0 K $ p p d p   H Q , ",
"# j b   p d d y . . @ :.[.$X-X-X-X-X-X-X-X-X-X-X-X-X-X-X-X-X-X-X-X-X-X-X-X-X-X-X-X-X-X-X-X-X-X-X-XXXT.L . . , & d d d p   K Q % ",
": j b   p d a y . . @ F.@X=X-X-X-X-X-X-X-X-X-X-X-X-X-X-X-X-X-X-X-X-X-X-X-X-X-X-X-X-X-X-X-X-X-X-X-X$X}.o.. .   p d d d p   K Q , ",
"# X     p p p - . @ u Y.-X-X-X-X-X-X-X-X-X-X-X-X-X-X-X-X-X-X-X-X-X-X-X-X-X-X-X-X-X-X-X-X-X-X-X-X-X-X@X=.* . . - d p i p     @ % ",
"  y 9 &   - @ X . L D.}.-X-X-X-X-X-X-X-X-X-X-X-X-X-X-X-X-X-X-X-X-X-X-X-X-X-X-X-X-X-X-X-X-X-X-X-X-X-X*XR.=.9 . . - y y   - 9 y   ",
"  y p y - & . . . #.!.@X-X-X-X-X-X-X-X-X-X-X-X-X-X-X-X-X-X-X-X-X-X-X-X-X-X-X-X-X-X-X-X-X-X-X-X-X-X-X=X|.J.a . . X * - - y p y   ",
"  9 p d d   . . . #.!.@X-X-X-X-X-X-X-X-X-X-X-X-X-X-X-X-X-X-X-X-X-X-X-X-X-X-X-X-X-X-X-X-X-X-X-X-X-X-X=X}.G.a . . .     d d p 9   ",
"  y p i d y X . . #.!.@X-X-X-X-X-X-X-X-X-X-X-X-X-X-X-X-X-X-X=X}.!.@X-X-X-X-X-X=X}.W.@X-X-X-X-X*X@X[.Y.F.$.9 . . * p i d y p y   ",
"  & X   p y X . . $.Q.@X-X-X-X-X-X-X-X-X-X-X-X-X-X-X-X-X-X-X$X;...[.-X-X-X-X-X=X>.L !.-X-X-X-X@X!.*.9 * * . . . * d d p   & &   ",
"O @ & - p 9 . . . +.Y.{.@X*X-X-X-X-X-X-X-X-X-X-X-X-X-X-X-X%X'.+.9 -.G.G.G.G.G.F.L u W.-X-X*X@XT.=.a . . . . . . * p p p - & $ O ",
", @ $ y y - X . . ..F.Y.[.$X-X-X-X-X-X-X-X-X-X-X-X-X-X-X-XoXU.| . . . . . . . . . u E.-X-X@X!.=.. . . . . . . . & y y y y * % % ",
"% n t         . . 9 ..D.[.$X-X-X-X-X-X-X-X-X-X-X-X-X-X%XoX].~.Z.O.- . . . . . . g ,.|.-X-X[.=.;.F.F.G.F.;.q . . .         H Y , ",
", n R 8.7.Q r   . . o ;.!.@X=X-X-X-X-X-X-X-X-X-X-X-X-X+X`.^.^./.P.| & & & & * - ,.{.$X-X-XY.9 =.$X@X@X@XQ.f . . . t K _ ~ 8.E , ",
"% M Q 7.{ E t . . . o $.Y.!.XX*X-X-X-X-X-X-X-X-X-X-X-X*X+X).P.'. XH.V.V.V.V.V.C.Q.#X*X-X-XT.9 u #.#.$.$...= . .   r K ! ) 9.! % ",
", M { 9.) E t   X . X  .,.Y.}.&X-X-X-X-X-X-X-X-X-X-X-X-X-X'.I.OX*X]./././././.(.OX-X-X-X-XW.L u u u q O . . . .   r Y Q ] t.Q , ",
"> B } 8.Q Q r   y @ . * L F.{.*X-X-X-X-X-X-X-X-X-X-X-X-X-X&XOX&X&X]./././././.(.+X-X-X-X-X.XJ.D.F.D.,.a . . X -   t E Q 7.8.Y , ",
", B 7.6.Q Q E [   & . . 9 >.!.XX*X-X-X-X-X-X-X-X-X-X-X-X-X-X-X-X&X]./././././.(.+X-X-X-X-X$X|._.Q.E.K.L . . @ . ' ' Q Q 9.] K , ",
", F 7.{ Q Q E {   @ . . = *.L.Q..X=X-X-X-X-X-X-X-X-X-X-X-X-X-X-X&X]./././././.(.+X-X-X-X-X=X=XXXW.Y.v.a . . X   ~ E Q ' 9.! H , ",
", M } } Q Q ! [   X X . @ g =.K.!.XX$X-X-X-X-X-X-X-X-X-X-X-X-X-X&X]./././././.(.+X-X-X-X-X=X@X{.Y.>.o.9 . . X   ! R ! ) t.` F , ",
", n [ 6.! E ` {         . . a :.L.W.XX-X-X-X-X-X-X-X-X-X-X-X-X-X&X]./././././.(.+X-X-X-X-X@X_.Y.F. .X . .       ! Q ( ! 7.! H > ",
", n ~ 7.! Q b   d p p y * X & f =.L.!.XXXXOX*X-X-X-X-X-X-X-X-X-X&X]./././././.(.+X-X-X=X@X{.T.>. .9 . & y u p d   e Q ! E H F , ",
"% n ~ 7.! Q 6.'             . . a >.K.R.E.!.@X=X-X-X-X-X-X-X-X-X&X]././././././.oX-X=X@X!.L.D.... . . .         h k h h h 5 k % ",
"> n ! 7.! ~ 7.~ t b 6   - * @ . & d  .X.>.Y.[.XX=X-X-X-X-X-X-X-X&X]././././.U.P._.|.[.L.*. .g 9 . X @ -   % b b ] ] ] ] ) ( I , ",
", n Q 8.! ~ 7.~ 6.) r X d d y & . . . .  .>.G.R.XX$X=X*X*X*X=X*X#X`.~.~.~.~.A.B.Z.K.Z.@.- . . . X - i a X D b.c.b.b.n.b.c.x.9.: ",
"% n ! 8.! ) { ) 8.' e X y d i - * . . . - p d +.J.W.{.}.}.}.}.}._.U.A.A.A.A.%.i d f a 9 @ . . @ y p d p X S l.b.M.M.n.c.M.M.u.: ",
", n ` 8.Q ~ ~ 7.7.' { F   - & - & . .   . . . 6 o.:.S.D.F.D.D.D.Z.&.%.%.%.%.s . . . . .   . . X - - -   } y.q.q.w.p.y.y.s.z.t., ",
", M } 7.E ~ ~ 8.[ ' S %   X X X .   X X X . . . * 9 u u u u u u u y - - - - X . . . . .   X   X   X X   w Q d.p.i.p.p.g.h.g.t., ",
"% B } 7.E ! ` 8.` R w X X X X X X X   X @ X . . . . . . . . . . . . . . . . . . . . X X X   X X X @ X X X a 6.j.g.y.q.f.i.a.) : ",
"> V 6.} E ! ) } Q   - d i d d d i d X   @ X . . X . . . . . . . . . . .   . . . .   & & X X d p d d d i d 9 . g.g.8.q.p.f.h.7., ",
"> M { 7.E ! ~ ' Q } e                 X & . . . a @.=.>.>.>.>.>.>.>.>.=.+.u o . . . & & X               . b y.y.y.g.p.g.j.g.] : ",
", n ] 7.E ! ! ! E } [ F S   - y i y X X & . . . *.XX$X-X-X-X-X-X-X-X-X*XXXY.*.u .   X & X X y p y -   8.y.y.h.g.j.g.g.p.8.] P , ",
"> n ' 9.E ' Q Q ~ ] 8.! V O = - d y & @ X X . . =.$X=X-X-X-X-X-X-X-X-X$X.XE.S.d   . X X & & p d y 9 t a.g.j.l.l.x.c.n.b.x.j.8.: ",
", n ' 9.! { ~ ! ~ ! 9.~ R 5 6 X p p i -   X . . @.[.@X-X-X-X-X-X-X-X-XT...L a @ . X &   - p d d X q 9.6.y.g.l.c.n.x.l.g.g.j.9., ",
"> n ' u.` ` ! ` ! E 8.' H k 6 X p d p -   X . . f S.!.$X=X-X-X-X-X-X-XL.a = . . o X &   - p d p X , ! W Y I U U ( ( U ( ( _ I : ",
"% n ` t.' Y E _ Q R } ' J 5 T T   d p -   - & . @ 9 >.}.#X-X-X-X-X-X-X}.G.L . . . X @   - p d   < 5 5 j j v m v m v m v v v v : ",
", n ` 9.} R K E V R { { J k ^ T   p i -   y - $ @ . L >.G.R..X$X=X-X-X$X}.,.L * . . X . - p i   S Y Y _ _ [ { 6.} [ Q K K K F : ",
"> n ` 9.7.E Q Q V R ' { J 5 T C X y y -   y - - & . X @ # d G.|.=X-X-X=X=X}.J.f . . X   - p y X ! 8.6.6.7.6.} 7.8.9.8.} 7.] M , ",
", n Q 9.8.E ` ! B R ) ~ H k T / 1.  & - -   y y - @ X . . $ ..-.v.D.D.[.-X.XL.g . . . * - &   Q ! _ _ _ _ _ Y _ E ~ { 7.7.' G > ",
", n Q 8.9.E ` ! V E ~ } R 5 T ^ 1.              .   . . . . . . . . . ,.=X|.L.f . .           ~ _ _ ! Q Y Y Y Y ! E E E E ! G % ",
"> n J } 9.E ! ! H ! ' 9.R k T ^ 1.M O   & & - - - - * $ & @ . . . . . =.|.D. .- . $ X & X X N [ { 7.7.6.' ! Q Q Q ~ _ ! E E J , ",
"> n H { 9.! Q ! H ~ { 9.E 5 T T / 2.% X & & y y y - y y y 9 @ . . . . o.L. .. . X - * & X $ 8.{ ' ) ~ ) ' ' { ' ' ' ' ! Q ! G , ",
"> n J } t.' ! E R ! } 8.R 5 T / ^ / %                           . . . 9 g = . .           O ] { { ) E E E R Q ! ! ! ! ! ! J z , ",
", n K 7.t.' ~ ! E ! 8.6.R 5 T / / / 3.^ 2.r.2.2.w.W 1 z ' ' ! ! ! S , O . O < F ] 7.8.9.} } { { ] { { { { ] ) E I Y E ~ ] ] G , ",
"> n Q 9.9.{ ! E ! ~ 9.} J k C ^ / / 3./ / r.5.3.e.W 1 n 7.t.9.9.} ' H 0 . r ! 7.8.7.} ) ' ~ ' [ { } } } } 6.6.7.8.9.8.t.9.9.I , ",
"% n ! 9.9.) E ! ~ ] q.7.J k T Z 3.<.3./ / r.w.5.e.^ 1 x _ ' ' ' } 7.} S 8 F ! ! E E K H H B H V V H B V F F J I Y Q Q ! _ _ G , ",
", v F I I B x V V M J J B k V l C Z Z V C ^ T V ^ V 1 5 B B F F B F F M n S M n B n n n b x x z z k 5 5 5 5 3 3 3 2 2 2 3 j v , ",
", , # : , , % , , % , % > > > > , , : % > > , , , , , , % : # , , : , , , , , , , % > , , # , , % > 6 % , , , , , # , , > , , , "
};
