/* XPM */
static char *result[] = {
/* columns rows colors chars-per-pixel */
"64 64 180 2 ",
"   c #090100",
".  c #0D0809",
"X  c #110603",
"o  c #150906",
"O  c #1A0B06",
"+  c #140C0C",
"@  c #1C0E09",
"#  c #1E100A",
"$  c #171010",
"%  c #1A1313",
"&  c #171819",
"*  c #1F1818",
"=  c #230F07",
"-  c #2D0E03",
";  c #230F08",
":  c #231007",
">  c #22110B",
",  c #2A160D",
"<  c #2D190E",
"1  c #351304",
"2  c #3A1606",
"3  c #3B1709",
"4  c #341B0E",
"5  c #3D1B0B",
"6  c #2C1A11",
"7  c #231C1C",
"8  c #321E13",
"9  c #381F10",
"0  c #372216",
"q  c #3B2214",
"w  c #3D2619",
"e  c #1D2122",
"r  c #2B2525",
"t  c #25282A",
"y  c #2E2828",
"u  c #332D2D",
"i  c #363131",
"p  c #3B3636",
"a  c #3E3939",
"s  c #421E0D",
"d  c #411F11",
"f  c #44200E",
"g  c #49230E",
"h  c #442312",
"j  c #4A2514",
"k  c #4D2916",
"l  c #432718",
"z  c #492618",
"x  c #432A1B",
"c  c #4C2C1A",
"v  c #522D1A",
"b  c #4D301E",
"n  c #573117",
"m  c #53321E",
"M  c #5B361B",
"N  c #603619",
"B  c #653A1C",
"V  c #6A3E1D",
"C  c #4B2F20",
"Z  c #4E3222",
"A  c #553622",
"S  c #5A3622",
"D  c #573823",
"F  c #5B3B25",
"G  c #5D3D28",
"H  c #423D3D",
"J  c #663A24",
"K  c #633D26",
"L  c #623F29",
"P  c #6E411F",
"I  c #71431F",
"U  c #644027",
"Y  c #6E4221",
"T  c #65422A",
"R  c #6B452D",
"E  c #6E482F",
"W  c #744422",
"Q  c #784722",
"!  c #774823",
"~  c #7C4B25",
"^  c #72462E",
"/  c #72492E",
"(  c #7C4C2C",
")  c #6D4730",
"_  c #6D4930",
"`  c #744C32",
"'  c #794E33",
"]  c #755036",
"[  c #7C5235",
"{  c #7E5438",
"}  c #3B494B",
"|  c #464141",
" . c #4A4545",
".. c #4E4949",
"X. c #524D4D",
"o. c #565252",
"O. c #5A5656",
"+. c #5E5959",
"@. c #615D5D",
"#. c #445F62",
"$. c #586C6E",
"%. c #646161",
"&. c #696565",
"*. c #6D6A6A",
"=. c #726F6F",
"-. c #747171",
";. c #787575",
":. c #7C7979",
">. c #814E27",
",. c #824F28",
"<. c #825027",
"1. c #855229",
"2. c #8B552B",
"3. c #8E582C",
"4. c #945B2E",
"5. c #815537",
"6. c #825639",
"7. c #85593A",
"8. c #8B5C3D",
"9. c #995E31",
"0. c #915E3E",
"q. c #9C6132",
"w. c #A56636",
"e. c #895E42",
"r. c #925E40",
"t. c #8F6142",
"y. c #956242",
"u. c #9A6544",
"i. c #9D6946",
"p. c #956748",
"a. c #9E6A49",
"s. c #A16C47",
"d. c #A26D49",
"f. c #A6714D",
"g. c #A9734D",
"h. c #A67150",
"j. c #AB7652",
"k. c #AD7A54",
"l. c #B17D56",
"z. c #B17E59",
"x. c #827E7E",
"c. c #B5825B",
"v. c #B9865E",
"b. c #BE8B63",
"n. c #C18E66",
"m. c #C28F68",
"M. c #587F84",
"N. c #739497",
"B. c #7CAAAF",
"V. c #848282",
"C. c #888585",
"Z. c #8D8C8C",
"A. c #918E8E",
"S. c #879496",
"D. c #959494",
"F. c #989696",
"G. c #9C9A9A",
"H. c #A09E9E",
"J. c #8FB0B4",
"K. c #A4A2A2",
"L. c #A8A8A9",
"P. c #ADADAD",
"I. c #B4B3B3",
"U. c #BABABA",
"Y. c #C0BEBE",
"T. c #95C1C6",
"R. c #99C5CA",
"E. c #9CC8CC",
"W. c #BFDBDE",
"Q. c #C3C2C2",
"!. c #C8C7C7",
"~. c #CDCCCC",
"^. c #D3D3D3",
"/. c #DBDBDB",
"(. c #CDE3E5",
"). c #E3E3E3",
"_. c #ECECEC",
"`. c #F4F4F4",
"'. c #F5F9FA",
"]. c #FFFFFF",
/* pixels */
"+ = = : : : : : = : = = = = = = : : = : : = = = = ; ; ; = = = = = = ; ; ; = = = : : : : : : : : : : : : : : : : : : : ; ; ; ; > ",
": h k k k k k k k k k k k k k k k k k k k k c c 5 ; , : , : , ; = , : : , = = s f s g f s f g f s s 2 5 5 f f 5 q 5 3 s s f s > ",
"; M / 6.y.p.a.p.y.8.7.7.r.y.y.0.p.u.u.p.r.{ ' [ w                           o B ! W 2.~ V ~ ~ ~ B B f m R ' ' G U G m ' ' ) A ; ",
"; j y.c.b.b.n.b.n.c.z.l.v.v.l.l.g.g.g.g.{ x 0 w >                           X < 9 9 Y 2.I 2.<.1.I V g m / 8.{ E T _ U 8.8.` D > ",
"@ L n.n.n.c.k.k.k.c.c.v.v.z.g.d.p.[ ^ R Z o     * y y y y y y y y y y y y y 7 X     q ! M P Q ~ I Q g m ` 8./ E G ) ` e.8._ D # ",
"; R v.c.g.g.h.f.f.a.a.a.d.s.s.s.y.A 8 8 ,       ..Z.Z.Z.Z.Z.Z.Z.Z.Z.Z.Z.Z.Z.*.7     O , : < B ~ >.~ j v ` 8.R E L R R e.8.T D # ",
"; K k.l.c.c.k.k.j.k.z.c.z.k.j.8.L 6     % i  .o.D.~.~.~.^.^.~.~.~.^.~.^.~.^.P.*...H 7     X h M V Q g A ] 7.R R F _ T 7.7.L D % ",
"; J g.a.q.p.a.a.s.a.a.d.g.d.p.A O .     p Z.U./._.'.'.`.`.`.`.`.`.`.`.'.`.'._.).!.L.+.        4 B I g m [ 6.R K L R T 6.7.T A > ",
"; s J 5.0.u.s.g.g.k.g.d.u.] L 6 X p o.%.A.!.).].].].].].].].].].].].].].].].].].`./.K.=.+. .7 o q n f A 6.] R F G E T ] 8.T S > ",
"; J z.z.l.d.i.u.d.k.a.e.s.L     * :.Q._.'.].].].].].].].].].].].].].].].].].].].].'.'.`.^.H.a     , s m _ _ R A F ` T ' 8.` A > ",
"> ^ n.m.n.n.n.b.b.b.k.6.S 6   H =.I.).'.].].].].].].].].].].].].].].].].].].].].].].].]._.~.C.X.* O : q R ' ) S F R L ` e.' F > ",
"> ^ n.n.n.n.n.n.b.b.b.] o . % -.Q._.].].].].].].].].].].].].].].].].].].].].].].].].].].].'.^.F.p .   : T ] ) D T L F ` e.[ F > ",
"> J h.h.h.h.k.j.k.p.G 8   p ;.I.).'.].].].].].].].].].].].].].].].].].].].].].].].].].].].'._.~.Z.X.$ o 6 L R S T F S R 0.{ F ; ",
"> s v z c v v v v 9 X     @.!.).].].].].].].].].].].].].].].].].].].].].].].].].].].].].].].].`.^.C.*     C R K _ R R T 8.{ G ; ",
"; h S S Z A A A S l o     =._.'.].].].].].].].].].].].].].].].].].].].].].].].].].].].].].].].'.`.K.7     C ` L _ R ` R e.{ G @ ",
"; c ] ) ) T L L D C O % u D.].].].].].].].].].].].].].].].].].].].].].].].].].].].].].].].].].].].Y.X.7   0 T F R R ` ) ' { G > ",
"@ c 8.8.8.8.8.' w +   H Z.!.].].].].].].].].].].].].].].].].].].].].].].].].].].].].].].].].].].].).K.+.  o , x _ T E E ` 6.L > ",
"; c 7.8.7.7.5.T ,     X.Q.).].].].].].].].].].].].].].].].].].].].].].].].].].].].].].].].].].].]._./.:..   X x ` _ T R / 6.T # ",
"; s J T ^ R R A >     @.).].].].].].].].].].].].].].].].].].].].].].].].].].].].].].].].].].].].].].'.A.X   . x ` ` T R ` 7.T # ",
"; d G R ) L Z 8 O *  .D.`.].].].].].].].].].].].].].].].].].].`./.I.C.C.C.C.C.C.K.^._.].].].].].].].].U.@.u   > Z R T R ` 8.T # ",
"# j T U L D ,     i F.^.'.].].].].].].].].].].].].].].].].].].).I.@.X . .       | K.^.].].].].].].].].).U.O.    # D R R ` 6.T > ",
"# f R E R R 6     i F.^.'.].].].].].].].].].].].].].].].].].].U.O.-.D.F.x.u     7  .H.].].].].].].].].).U.O.    # A E R ' [ F > ",
"# M { 6.[ E 6     i F.^.'.].].].].].].].].].].].].].].].].].].G.+ x.].].^.X.        -.].].].].].].].]./.U.O.    # D ` E [ ] D > ",
"> F 6.7.8.6.0     i F.^.'.].].].].].].].].].].].].].].].].].].G.+ x.].]./...        ;.].].].].].].].].).U.O.    + G ` ) ] ` A # ",
"> m L U U L 6     i F.^.'.].].].].].].].].].].].].].].].].].].G.+ %.Q.Q.K.H         -.].].].].'.`.).!.P.Z.|     @ U ` R ] / D : ",
"# 5 f q f q @     i D.^.'.].].].].].].].].].].].].].].].].].].G.+ 7 p p i +         ;.].].].].`.^.F...u y $     + U E E ] [ F > ",
": j c m A m >     u C.Y.).`.].].].].].].].].].].].].].].].].].G.+                   ;.].].'._.^.D.o.$           @ L R R ] ] F # ",
"# c F [ ` T 6     t ;.H.U./.].].].].].].].].].].].].].].].].].G.+                   -.].].'.^.G.a +             @ F F _ ' { F > ",
"> c L 6.{ T x 6 o % H ;.P./.].].].].].].].].].].].].].].].].].U.+.y             * ..K.].]._.F.*.=.=.-.=.=.p     @ S F ) ` 7.K ; ",
"# c L 7.6.T R D >      .L./.].].].].].].].].].].].].].].].].].).U.+.            | K./.].].).O.p Q.].].].].:.    + A G ) / 7.T ; ",
"# c R 6.[ U _ U ,     a A.U./._.].].].].].].].].].].].].].].].`./.K.$.$.$.$.$.$.S.~._.].].).O.7 @.-.-.;.;.p     @ D G R ` 8.) @ ",
"# m ] 8./ U E T 6 .   u -.F.I.).].].].].].].].].].].].].].].].].].(.E.E.E.E.E.R.(.'.].].].).%.$ $ % + +         > D L L ' e.T # ",
"# m { 7.T T T E D 8 + $ y -.U.).].].].].].].].].].].].].].].].].].(.E.E.E.E.E.E.W.'.].].]._.K.;.;.;.;. .      8 A T T L 6.6.L > ",
"# M 7.6.T T T ` _ x :     o.P.^.`.'.].].].].].].].].].].].].].].].(.E.E.E.E.E.E.W.'.].].].'./.Q.U.I.P.&..   X x ` ` T R 8.' L > ",
"# m 6.[ T T T [ _ c #     ..D.I.^._.].].].].].].].].].].].].].].].(.R.E.E.E.E.E.W.'.].].].'.`.).E.P.F.+..   . l R T R _ e.) A > ",
": m { [ T T T [ T D x +   y %.Z.I.^._.'.].].].].].].].].].].].].].(.E.E.E.E.E.E.W.'.].].].]._./.Y.D.*.a   O 8 c R L R _ 8._ A > ",
"> b ' [ R T E ] U E ] 8   + * +.D.I.^.`.].].].].].].].].].].].].].(.E.E.E.E.E.E.W.'.].].].'.^.I.G.&.r +   x [ v E T R R 6.E m : ",
"> c E { R T ' ' U ` 8.x = X   u +.Z.P.^.).)._.].].].].].].].].].].(.E.E.E.E.E.E.W.'.].]._./.U.D.&.H . X 6 A ' j F T R R T D A > ",
"# c E 6.R T 6./ T ` 6.M x =   . > $.D.P.U.U./.].].].].].].].].].].(.E.E.E.E.E.E.(.`.].]./.I.G.-.8 X   ; d h h s s f s s s 5 q : ",
": b T 7.R E 6./ / / 7.G c 1 j : . i ..+.-.D.U./._.].].].].].].].].(.E.E.E.E.T.J.R.^.~.Q.Z.+...p $ O 9 A ^ ' ( ' ' ( ' ( / / L : ",
"> b T 7.R E 6.E [ / 7.G b s 2.j X       y -.D.P.^.].'.].'.].].'.].(.R.R.T.T.B.N.B.L.D.M.a       . 9 r.l.z.z.v.z.c.c.v.z.z.l.8.; ",
"# c R 7.R / [ / 7.' 5.F m 2 >.~ c :     $ i | ..C.U.!.^.^.^.^.^.~.R.B.B.B.B.N.} } } H H *     o C 5.g.l.j.g.j.z.n.b.v.z.n.n.y.; ",
"# c _ 8.T E E 6.6.' [ F m 2 ~ q.! c O @ X       | ;.Z.F.F.G.G.G.G.N.M.M.N.M.#.&     X X . > > w ^ r.u.r.r.r.r.0.y.i.0.r.a.k.e.> ",
": b ] 7.U E E 7.] ` ' S m 2 I 9.,.( P n 4 .     % y p p a p p p p i t t t t e .       X Z e.e.p.j.d.r.d.g.g.d.r.y.u.y.f.g.g.6.> ",
": m { 6.U R E 7.R ] ` S S 2 W 4.1.2.q.~ n 4 > , X                           o 6 8 6 4 6 ) a.u.u.a.d.d.d.g.u.d.g.d.r.r.s.y.y.' ; ",
"# n 5.{ U R / [ R [ ] S D 3 Q 3.~ 1.2.~ V P M n o                           + F 6.7.7.[ r.g.h.h.d.d.d.y.s.g.d.d.d.8.r.y.s.g.6.; ",
"> m { { U R E ` T [ 5.F S 3 Q 1.<.1.<.~ I 1.n #     r  .X.+.+.+.O.X.| r     X R d.8.6.^ 8.g.g.i.u.a.g.f.r.0.r.0.r.d.u.d.g.s.' ; ",
": c ' 6.U E R R R [ 6.L S 3 I I 1.I 1.~ P n < X r o.A.~./.).)._._./.!.D.o.r X w R y.u.y.i.y.r.s.a.u.y.i.f.d.d.h.g.d.s.y.7.' J > ",
"> c ' 8.T / T R R ' 8.T D 5 I I >.! <.<.W :     X.I.).].].].].].].].]./.I.O..   2 +.u.d.d.d.s.a.i.i.i.i.d.g.j.k.l.z.v.c.l.g.8.; ",
"> c ` 8.R ] E R E R 8.E D 5 I ~ I <.>.1.<.>     %./.`.].].].].].].].].`./.K.%.r = 8 L r.d.d.d.d.s.u.7.5.r.d.j.z.v.l.j.h.d.g.7.> ",
": b _ t.E E R _ T U 7.` F 5 P ~ V <.~ 3.<.>     *._.'.].].].].].].].]._.^.I.C.i X o 8 L ^ ^ T J J L ^ J J L ^ J W ^ J J ^ ^ J > ",
"# c _ t.] L L _ T U { ] F f I 1.W ~ <.4.~ >     o.Q.).].].].].].].].].L. .H y $ X - 3 s s s 5 5 3 5 s s d f z z c z v c z z h > ",
": c _ 8.{ L F T D U [ ] F g I <.~ ~ <.q.<.l :   p V.U._.'.].].].].].].G.u %     O x L ` { ] E R L T L R ) ] { { { ] E F G U A ; ",
"# c _ 8.7.L U T m U ' ] F q I ~ <.I <.w.2.! n @ + 7 :.!._.].].].].].].~.D.|     X O w [ 6.{ 7.6.6.6.6.6.{ 6.{ 7.7.8.6.[ 6.] v # ",
": b R 8.7.T _ R m T ` R F f I ~ 1.I 1.q.2.2.W j ,   H ;.A.P.^._.'.].]._.~.:.a %     6 D L T T T ) R R ) R ) L L T E [ 5.{ ` S : ",
"# c L 6.7.T _ E D T ` [ G f P I 1.I <.q.3.3.1.2.n   . + # i Z.~.`.].].'.'.!.D.p     6 G R E E ` ` R ) T L L L R T U L T T R F # ",
": c F 5.8.T R ) m E ] 8.U 5 P I 1.~ 1.3.4.4.1.4.W 5 X     #  .=.x.C.C.Q.].^.H.H     6 G E ` E ` 6.6.6.{ ` R T R R R / R T T M > ",
": c F ] 8.T R T D E [ 8.G q P I I 1.~ <.9.q.>.2.4.V O                 :.'.^.F.p     6 R [ 7.7.[ ` E E ` ` ' ' / / ` ` R T R S > ",
"> c F { e.` R T U R [ 7.U f P ~ I <.1.~ 4.w.>.2.4.V - < w 0 +         &.^.C. .7 o 8 b U T E ` [ [ / T U G U T R E E R R T G h > ",
"> c G 6.8.' _ T L E 7.{ G 5 P ~ ~ ~ 1.Q 1.w.1.1.q.P 1 h ` R 6 X o X   X.F. .    < E 7.6.7.[ [ [ ' ' [ [ [ ' / U U F T R ` ' S > ",
"# c T 7.q.] ) U R / 8.{ F f B ! Q ~ 2.Q >.w.4.3.w.P 1 k { 7._ G F 0 . 7 H 7 X x R [ [ ] ` E ` ' [ { { { [ 5.5.6.8.6.8.e.8.8.L > ",
": c R e.8./ L ) E ] 0.{ F q P B 2.,.2.~ ~ w.9.4.w.W 1 j _ ' ` ] { G , o   o , m T U G D m D m D D D m M A D F L L R L T ) ^ F > ",
": z S G F m k D M b F F A f N g B V V n B W V M Y B 1 h Z v A A A c x >   6 x c m c c c c l x g h h 9 5 5 5 5 3 3 2 2 3 3 5 j > ",
"# > > > # : : # : # : # # : : : > > > > > ; > > # > # : > > @ > > > ; O . O > : # : # : # # # : # # : : > # # > > @ > > > > > # "
};
