/* XPM */
static char *result[] = {
/* columns rows colors chars-per-pixel */
"64 64 181 2 ",
"   c #040303",
".  c #090101",
"X  c #0C0A0A",
"o  c #110604",
"O  c #140A06",
"+  c #1A0B05",
"@  c #130C0C",
"#  c #1D0E09",
"$  c #16110E",
"%  c #1B120C",
"&  c #141313",
"*  c #1A1414",
"=  c #1B1918",
"-  c #1B1A1A",
";  c #230F07",
":  c #230F08",
">  c #231007",
",  c #22110B",
"<  c #2A160D",
"1  c #2B180E",
"2  c #361304",
"3  c #381506",
"4  c #3A1709",
"5  c #331C0E",
"6  c #3D1B0C",
"7  c #221710",
"8  c #251A12",
"9  c #2C1B12",
"0  c #221D1D",
"q  c #301E14",
"w  c #381F10",
"e  c #29201A",
"r  c #322117",
"t  c #382317",
"y  c #3B2619",
"u  c #3D291C",
"i  c #1D2122",
"p  c #242323",
"a  c #2B2525",
"s  c #242C2E",
"d  c #2B2A2A",
"f  c #332D2D",
"g  c #333333",
"h  c #3B3636",
"j  c #3E3939",
"k  c #421E0D",
"l  c #411F11",
"z  c #44200E",
"x  c #49230E",
"c  c #442312",
"v  c #442717",
"b  c #4A2514",
"n  c #4E2816",
"m  c #432A1C",
"M  c #4C2C1A",
"N  c #522D1B",
"B  c #4E311F",
"V  c #53321D",
"C  c #5C361B",
"Z  c #603619",
"A  c #653B1D",
"S  c #6A3E1D",
"D  c #4B2F20",
"F  c #4B3121",
"G  c #4B3627",
"H  c #543622",
"J  c #5B3622",
"K  c #563924",
"L  c #5B3B25",
"P  c #5C3D28",
"I  c #423D3D",
"U  c #663A24",
"Y  c #633D26",
"T  c #623F28",
"R  c #6D411F",
"E  c #70411F",
"W  c #5E422E",
"Q  c #644027",
"!  c #6E4221",
"~  c #65422B",
"^  c #6B452D",
"/  c #6E482F",
"(  c #744421",
")  c #7B4A24",
"_  c #794826",
"`  c #71452E",
"'  c #72492E",
"]  c #6C4730",
"[  c #6D4930",
"{  c #744C32",
"}  c #7A4E32",
"|  c #745036",
" . c #7C5235",
".. c #7D5439",
"X. c #3B494B",
"o. c #464141",
"O. c #4A4545",
"+. c #4E4949",
"@. c #524D4D",
"#. c #565252",
"$. c #5A5656",
"%. c #5E5959",
"&. c #615D5D",
"*. c #445F62",
"=. c #586C6E",
"-. c #646161",
";. c #696565",
":. c #6D6A6A",
">. c #726F6F",
",. c #747171",
"<. c #787575",
"1. c #7C7979",
"2. c #824F27",
"3. c #825127",
"4. c #855229",
"5. c #8A542A",
"6. c #945B2F",
"7. c #815537",
"8. c #825639",
"9. c #85593A",
"0. c #8A5C3D",
"q. c #915E3E",
"w. c #9D6233",
"e. c #A66737",
"r. c #A96836",
"t. c #8E5F42",
"y. c #915E40",
"u. c #956242",
"i. c #996544",
"p. c #9C6847",
"a. c #996849",
"s. c #A16C47",
"d. c #A26D49",
"f. c #A6714C",
"g. c #A9734D",
"h. c #A67150",
"j. c #AB7552",
"k. c #AE7A54",
"l. c #B17D55",
"z. c #B27E59",
"x. c #827E7E",
"c. c #B5825A",
"v. c #B9855D",
"b. c #BE8B63",
"n. c #C18E66",
"m. c #C28F68",
"M. c #587F84",
"N. c #739497",
"B. c #7CAAAF",
"V. c #888585",
"C. c #8D8C8C",
"Z. c #918E8E",
"A. c #879496",
"S. c #959494",
"D. c #989696",
"F. c #9C9A9A",
"G. c #A09E9E",
"H. c #9BA5A6",
"J. c #89B6BB",
"K. c #A4A2A2",
"L. c #A8A8A9",
"P. c #ADADAD",
"I. c #B4B3B3",
"U. c #BABABA",
"Y. c #C0BEBE",
"T. c #A5BFC2",
"R. c #95C1C6",
"E. c #99C5CA",
"W. c #9CC8CC",
"Q. c #BFDBDE",
"!. c #C3C2C2",
"~. c #C8C7C7",
"^. c #CDCCCC",
"/. c #D3D3D3",
"(. c #DBDBDB",
"). c #CDE3E5",
"_. c #E3E3E3",
"`. c #ECECEC",
"'. c #F4F4F4",
"]. c #F5F9FA",
"[. c #FFFFFF",
/* pixels */
"@ ; ; > > ; > > ; > > > > > > > , , ; > > ; : : : : : : ; ; ; ; ; ; ; ; ; ; ; ; > > > > > > > > > > > > > , > > ; : ; ; ; : : , ",
"> c n n n n n n n n n n n n n n n n n n n n n n 6 , ; < > , < < ; ; > , < ; ; 6 z k x z k x z x k k 3 6 6 z z 6 6 6 4 k k k k , ",
": C ' 8.u.a.a.a.u.0.9.9.u.u.u.y.i.i.p.i.u. .} | v . . . . . . . . . . . . . + Z ) ( 5.2.S ) ) ) A A x V ^ | ' W ~ W V } } ^ J , ",
": b u.c.b.b.b.b.  v.z.k.c.v.l.k.g.f.j.f. .m t u , . . . . . . . . . . . . . . 5 w 5 ! 5.E 5.3.4.E S z V ' K   / ~ ] Q 0.0.{ K , ",
"# Y n.n.b.c.| 0 d e %.c.b.z.g.d.a. .^ ^ F O . . * d a d a f a f a a d a a a 0 o . . y ( C R ) ) E ) x V 8 0 s * W ] ] t.0.] K % ",
": ^ v.c.j.g.W   g % B | p.] ] ] ~ H q 9 # . . . @.C.Z.Z.Z.Z.Z.Z.Z.Z.Z.Z.Z.Z.:.0 . . o < > 1 c N C Z x t = e g   T ^ ^ 0.0.~ K , ",
": U k.l.c.c.W   g g - @ c.      . < . . * h +.@.S.^.^.^.^.^.^.^.^././.^.^.^.P.>.+.I 0 .   o . .   7 x   g g h   T ^ ~ 9.t.P K , ",
"% U f.d.w.a.K   g d &     g d & X . . . h C.U.(.`.'.'.].'.'.'.'.'.'.'.].'.'.`._.~.L.$.. . . . @ d p     i d g   P ^ ~ ..9.~ K , ",
": k U 8.q.i.L   d     X g s e @ @ g $.-.Z.~.`.].[.[.[.[.[.[.[.[.[.[.[.[.[.[.[.[.'.(.K.>.%.O.0 X = a g     & d   T ^ Y  .0.~ K , ",
": U z.z.l.h.| F &       s e     * 1.!.`.].].[.[.[.[.[.[.[.[.[.[.[.[.[.[.[.[.[.[.[.].].'./.G.j . . $ d     X & 9 P ' ~  .0.{ K , ",
", ` b.n.n.n.b.b.        & @ . j :.I.`.'.[.[.[.[.[.[.[.[.[.[.[.[.[.[.[.[.[.[.[.[.[.[.[.[.`.^.V.@.* o &         J T ^ Y { y. .K : ",
", ` n.m.n.n.n.b.m.    X . o * ,.!.`.[.[.[.[.[.[.[.[.[.[.[.[.[.[.[.[.[.[.[.[.[.[.[.[.[.[.[.]./.D.h X .     r ] K Q P P ' y.| L , ",
", U h.h.j.j.j.j.j.a.9 . . j <.I.`.'.[.[.[.[.[.[.[.[.[.[.[.[.[.[.[.[.[.[.[.[.[.[.[.[.[.[.[.].`.^.Z.@.$ . 7 T ] J ~ L J ] t.} P : ",
", l N n % n N N N l o . . &.~._.[.[.[.[.[.[.[.[.[.[.[.[.[.[.[.[.[.[.[.[.[.[.[.[.[.[.[.[.[.[.[.'./.V.- . . F ^ Y [ ] ~ 8 0...L , ",
": l H D X u B H H v O . . >.`.].[.[.[.[.[.[.[.[.[.[.[.[.[.[.[.[.[.[.[.[.[.[.[.[.[.[.[.[.[.[.[.].`.K.0 . . M { T [ Q P X | | P , ",
"# n H   g X 9 W L m O * f S.[.[.[.[.[.[.[.[.[.[.[.[.[.[.[.[.[.[.[.[.[.[.[.[.[.[.[.[.[.[.[.[.[.[.[.Y.@.0 . t ~ L ] r   g   K P , ",
"# N P   g g -   v + . j C.~.[.[.[.[.[.[.[.[.[.[.[.[.[.[.[.[.[.[.[.[.[.[.[.[.[.[.[.[.[.[.[.[.[.[.[.(.L.$.. O < m . - g g   P P % ",
"# M P   s g d p X   . @.Y.`.[.[.[.[.[.[.[.[.[.[.[.[.[.[.[.[.[.[.[.[.[.[.[.[.[.[.[.[.[.[.[.[.[.[.[.'.(.1.X . O O d d g d   P T % ",
": l v   d g g d . . . &._.[.[.[.[.[.[.[.[.[.[.[.[.[.[.[.[.[.[.[.[.[.[.[.[.[.[.[.[.[.[.[.[.[.[.[.[.].].S.X . . X g g g d   P T , ",
"# c m   d g a - o 7 +.S.'.[.[.[.[.[.[.[.[.[.[.[.[.[.[.[.[.[.[.'._.P.V.V.V.V.V.V.L./.`.[.[.[.[.[.[.[.[.U.%.f . & i d g d   P ~ , ",
"% O     d a & . . h S./.].[.[.[.[.[.[.[.[.[.[.[.[.[.[.[.[.[.[._.I.&.o o X . . . I G./.[.[.[.[.[.[.[.[._.U.$.. . X p d s     @ , ",
"  - i =   i @ . . f D./.].[.[.[.[.[.[.[.[.[.[.[.[.[.[.[.[.[.[.U.$.,.S.S.x.f . . 0 O.G.[.[.[.[.[.[.[.[._.U.$.. . X - a   - i p   ",
"  p d p - & X . . g D./.].[.[.[.[.[.[.[.[.[.[.[.[.[.[.[.[.[.[.F.@ x.[.[./.@.. . . . <.[.[.[.[.[.[.[.[.(.U.$.. . . & - - p a p   ",
"  p s g g   . . . f D./.].[.[.[.[.[.[.[.[.[.[.[.[.[.[.[.[.[.[.F.@ x.[.[.(.+.. . . . <.[.[.[.[.[.[.[.[._.U.$.. . . .   g g d i   ",
"  i d d g g & . . f D./.].[.[.[.[.[.[.[.[.[.[.[.[.[.[.[.[.[.[.F.@ -.Y.Y.K.I . . . . ,.[.[.[.[.].'._.~.P.C.o..   @ p d g d d i   ",
"  & @   d d * . . g S./.].[.[.[.[.[.[.[.[.[.[.[.[.[.[.[.[.[.[.F.@ 0 h I f # . .   . <.[.[.[.[.'./.D.+.g a & . . X p g d   @ &   ",
"O O & - d d & . . f C.U._.'.[.[.[.[.[.[.[.[.[.[.[.[.[.[.[.[.[.F.@ . . . . . . . . . <.[.[.[.`./.Z.#.@ . . . . . o 0 d s - @ @ O ",
"% $ & i p p X . . a ,.K.U.(.[.[.[.[.[.[.[.[.[.[.[.[.[.[.[.[.[.F.@ . . . . . . . . . <.[.[.'./.F.I + . . . . . . X = a p p * * % ",
", M u         . . * I <.P.(.[.[.[.[.[.[.[.[.[.[.[.[.[.[.[.[.[.U.%.d . . . . .   0 +.G.[.[.`.F.;.>.>.>.>.>.h . . . .       P W % ",
"% M W 9.8.~ u   . . . O.L.(.[.[.[.[.[.[.[.[.[.[.[.[.[.[.[.[.[._.U.%.. . . . . . I K.(.[.[._.$.h !.[.[.[.[.1.. . . q P ] { 9.~ > ",
", N ~ 9. .Q u   X . . j Z.U.(.`.[.[.[.[.[.[.[.[.[.[.[.[.[.[.[.'.(.H.=.=.=.=.=.=.A.^.`.[.[._.$.0 %.<.<.<.<.h . .   9 P ^ { 0.^ % ",
"% N  .0./ Q u   X . . f ,.S.U.(.[.[.[.[.[.[.[.[.[.[.[.[.[.[.[.[.[.).W.W.W.W.W.E.).].[.[.[._.-.% & & * o . . . . . 9 T Y } 0.~ > ",
"% B  .0.^ ~ y   0 * . & d >.U._.[.[.[.[.[.[.[.[.[.[.[.[.[.[.[.[.[.).W.W.W.W.W.W.Q.].[.[.[.`.K.<.<.<.<.O.. . . & . y ~ ~ 9.9.T , ",
"> C 9.8.~ ~ Q |   0 X . . #.P./.'.].[.[.[.[.[.[.[.[.[.[.[.[.[.[.[.).W.W.W.W.W.W.Q.].[.[.[.].(.!.U.I.P.;.X . . . { { ~ ~ 9.} T , ",
", H ....~ Q Q |   & X . . +.S.I.^.`.[.[.[.[.[.[.[.[.[.[.[.[.[.[.[.).W.W.W.W.W.W.Q.].[.[.[.].'._.Q.P.F.$.X . .   / ~ ~ { 9.] K , ",
"> N .. .~ Q ^ }   X . . . f ;.C.I./.`.].[.[.[.[.[.[.[.[.[.[.[.[.[.).W.W.W.W.W.W.Q.].[.[.[.[.`.(.P.Z.:.j . . .   ~ Q ^ [ t.[ K , ",
"% M | 8.^ W ^  .      . . @ * %.F.I.^.'.[.[.[.[.[.[.[.[.[.[.[.[.[.).W.W.W.W.W.W.Q.].[.[.[.]./.U.D.:.a O . .     ^ ~ ^ ^ 8.^ K > ",
", M / 7.^ ^ m   g s d d - @ . f %.C.I./._._.`.[.[.[.[.[.[.[.[.[.[.).W.W.W.W.W.W.Q.].[.[.`.(.U.S.-.I @ X & p d g   t ^ ^ Q K H , ",
", M / 9./ ^ 8.'             . . - -.S.I.U.U.(.[.[.[.[.[.[.[.[.[.[.).W.W.W.W.W.W.Q.].].[.(.I.F.>.a . . .         6 x z z k k t , ",
", M ~ 8.Q / 8./ u m * X - = X X @ d +.$.,.S.U.(.`.[.[.[.[.[.[.[.[.).W.W.W.W.R.J.U././.W.C.%.+.h @ o @ *   % m m } } } _ ` ` U , ",
"% M ^ 9.^ [ 9./  .' u X g g g & . . . . d ,.S.P./.[.].].].[.[.].[.).E.E.E.E.J.N.B.H.F.N.j . . .   & p f X G c.z.c.c.c.c.z.l.0.: ",
", M ~ 9.~ {  .' 9.{ t   d g d i * . . . * f I +.V.U.^././././././.T.B.B.B.B.N.X.j O.I h 0   . . = p g d X F k.c.b.b.v.c.n.n.u.> ",
", M [ 9.~ / / 8.7. . .H   - - - & .   . . . . . I <.C.F.F.F.F.F.D.N.M.M.M.M.*.& . . . . . . . X & = -   ..q.q.q.u.i.q.y.a.j.t.% ",
", V  .8.Q / / 9.| { B %   X   X X     X X . . . * d g h h h h h h f s s s s i X . . . . .     X   X X   r ~ d.i.i.i.i.d.h.d.t.: ",
"> V  .8.Q ^ / 9./ W e X X & X X X X     @ .   . . . . . . . . . . . . . . . . . . .   . X   @ X @ X & X X f } f.d.y.q.s.u.i.} : ",
"> V 8.7.Q ^ ' ..~   - g s g g g s g & X & & .   . .   .   . . . . . . . . . .       & & X X g d g g g s g 0 . f.d.0.q.i.d.f.7.% ",
", N ..7.Q ^ / { Q  .t                 X & -   . . . a I @.%.$.%.%.@.I 0 . . . .     & & X               . m y.q.y.d.y.g.d.d.7.: ",
"> M | 8.Q ^ ^ ^ ^ ..| K m   - a s i   X & X . . a #.S.~.(.`.`.`.`.(.^.Z.#.a . X X X & & X   i s p -   8.q.y.d.f.f.d.d.i.9.{ U : ",
", M | 0.~ { ^ ^ ^ | 0.^ K + = e s s = @ X X . . @.I._.[.[.[.[.[.[.[.[._.I.$.@ .   & & X & & s g i i u i.d.j.j.j.l.z.v.c.l.g.0.# ",
", M { 0.^ | ^ ^ / Q 0./ K 6 % X p d d =   . . . &.(.'.[.[.[.[.[.[.[.[.`._.G.-.a . X X   - d g g @ q 0.7.y.d.j.z.c.l.j.d.d.f.0., ",
"% M { t.[ [ ^ [ / R ..' W 6 8 X d g d i   . . . ;.`.].[.[.[.[.[.[.[.[.`./.P.V.f . . X   - d g a X , ^ U T U U ` ` ` ` ^ ` ] U , ",
"> M { 0.} T Q ] ^ W  .| C 6 R R   g d -   X . . #.Y.`.[.[.[.[.[.[.[.[.L.+.I f @ X & -   - d g   < 4 k c l c b b n n n b b b c , ",
", M [ 0...W L ~ L Q  .| W z R R   s d -   $ X . h V.U.`.].[.[.[.[.[.[.F.f * . . o & -   i d s   F Y T ] ] {  .8...| ^ P P P H : ",
", M [ 0.9.Q Q ~ V Q |  .C 6 R A X d a -   - $   @ 0 1.~.`.[.[.[.[.[.[.^.S.I . . . . &   - p a X ] 9.8.8.8.8...8.9.9.9.7.9. .N # ",
"> M ~ 0.9.W / ^ V ~ ' / K z R ) )   & - -   = $ X . I <.Z.P./.`.].[.[.`.^.x.I * . .   = = &   ^ ~ ] ^ ^ ] ] ] T Q '  .7...{ J , ",
", M ~ 9.0.Q / ^ K ~ /  .W w R _ 4.              . . X O & f Z.^.'.[.[.].'.~.S.g . .   .       ' { ] ] ~ T T T T ^ ~ T ~ ~ ^ K , ",
"> M P 7.0.~ ^ ^ V ^ ' 0.~ z R E 5.V O X & & - i & @ . . . & O.:.x.V.V.!.]./.G.I . . . X X X B |  .9.9.7.' ^ ^ ^ Q ^ ^ ^ ~ ~ J > ",
"> n K  .0.~ ^ ~ P ^  .0.W 6 R E E 3.%   & & i i p p & . . . . . . . . 1.]./.D.I . . X & X % 9. .' / / ' { | { ' ' { { ^ ~ ^ K , ",
", M P  .0.{ ^ ~ W ^  .9.W z R ) E 3.#               .   . . . . . . . ;./.V.W - . .       @ '  . .' Q Q Q W Q ^ ^ ^ ^ ^ ^ P b > ",
", M P 9.0.{ / ^ Q ^ 9.8.W 6 R ) ) ) 4.) 5.e.4.4.w.R 2 c { ~ 9 o O o . @.F.O.. . 9 ^ 9.9.9... . .}  . . . .} ' Q Q Q ~ / { { J > ",
", M ~ 9.q.{ ' ~ ^ / 0...C z A E _ ) 5.) ) r.6.5.e.R 2 n t...] P P w o 0 j - O m ~ ....{ [ / ' |  ... . ...7.9.9.9.0.9.t.0.0.Y , ",
"> M ~ t.0.' Q ^ ^  .q.7.W 6 A R 5.2.5.) ) r.w.6.e.( 2 n ] { { | ..P 8 o   O < V ~ Q P K K K C L L C K V V H L P T ~ T ] ] ] J , ",
", b K Y P N n C C B L L V z Z n A S S C A ( S C ( Z 2 6 V V V H H D D , . < m D B M M n n v c c c 6 6 6 6 6 6 4 4 4 3 3 4 l b , ",
", : % , , , % , , # > % > , > > , , : % , : , , , % , , % , , , : : , + o + : : , , > % , , % > 7 , > 7 , > # , , # , , , , , , "
};
