/* XPM */
static char *result[] = {
/* columns rows colors chars-per-pixel */
"64 64 202 2 ",
"   c #090101",
".  c #0F0808",
"X  c #110603",
"o  c #190702",
"O  c #150906",
"+  c #1A0B06",
"@  c #130C0B",
"#  c #1D0E09",
"$  c #1F100A",
"%  c #161112",
"&  c #1B1414",
"*  c #1D1B1C",
"=  c #230F07",
"-  c #2C0D03",
";  c #230F08",
":  c #231007",
">  c #21110B",
",  c #2A170E",
"<  c #2C160C",
"1  c #361304",
"2  c #3A1606",
"3  c #30160B",
"4  c #3B1709",
"5  c #351C0E",
"6  c #3D1B0B",
"7  c #2D1A12",
"8  c #231D1D",
"9  c #321E14",
"0  c #3C1D11",
"q  c #342016",
"w  c #3C2314",
"e  c #3E2719",
"r  c #2A2424",
"t  c #262828",
"y  c #2F2929",
"u  c #332D2D",
"i  c #2C393B",
"p  c #363131",
"a  c #3B3535",
"s  c #3E3939",
"d  c #421E0D",
"f  c #411F11",
"g  c #44210E",
"h  c #49220E",
"j  c #442312",
"k  c #4A2514",
"l  c #4D2915",
"z  c #442719",
"x  c #432A1B",
"c  c #4C2C1B",
"v  c #502A16",
"b  c #522D1B",
"n  c #4B301E",
"m  c #53321E",
"M  c #5C361B",
"N  c #5E371A",
"B  c #603619",
"V  c #643B1D",
"C  c #6A3E1D",
"Z  c #4D3220",
"A  c #553622",
"S  c #5A3622",
"D  c #573824",
"F  c #5B3B25",
"G  c #5E3D28",
"H  c #423C3C",
"J  c #623623",
"K  c #633D26",
"L  c #683D23",
"P  c #623F29",
"I  c #6E421F",
"U  c #70421F",
"Y  c #644027",
"T  c #6E4220",
"R  c #65422B",
"E  c #6B452D",
"W  c #6E482F",
"Q  c #744421",
"!  c #794723",
"~  c #774823",
"^  c #7C4B25",
"/  c #71452E",
"(  c #72492E",
")  c #79492F",
"_  c #6A4630",
"`  c #6D4930",
"'  c #744C32",
"]  c #794E33",
"[  c #775137",
"{  c #7C5235",
"}  c #7E5539",
"|  c #3D4748",
" . c #474242",
".. c #4A4545",
"X. c #4E4A4A",
"o. c #514D4D",
"O. c #49585A",
"+. c #555252",
"@. c #595555",
"#. c #5F5A5A",
"$. c #615D5D",
"%. c #4E7074",
"&. c #567173",
"*. c #666262",
"=. c #696666",
"-. c #6E6A6A",
";. c #726E6E",
":. c #757272",
">. c #797676",
",. c #7C7979",
"<. c #814E27",
"1. c #824F28",
"2. c #835027",
"3. c #855229",
"4. c #8B552B",
"5. c #8F592D",
"6. c #935A2E",
"7. c #985D2F",
"8. c #815537",
"9. c #825639",
"0. c #85593B",
"q. c #8B5C3D",
"w. c #975D30",
"e. c #9B5F31",
"r. c #915E3F",
"t. c #9C6132",
"y. c #A36535",
"u. c #A66837",
"i. c #A96937",
"p. c #8E5F41",
"a. c #925E40",
"s. c #8F6143",
"d. c #956242",
"f. c #9A6645",
"g. c #9D6946",
"h. c #97694A",
"j. c #9E6A48",
"k. c #A16C47",
"l. c #A26D49",
"z. c #A6714D",
"x. c #A9734D",
"c. c #A77552",
"v. c #AB7652",
"b. c #AD7A54",
"n. c #B17D56",
"m. c #B17E59",
"M. c #827F7F",
"N. c #B5825A",
"B. c #B9865E",
"V. c #BE8B63",
"C. c #C18E66",
"Z. c #C28F68",
"A. c #5B8185",
"S. c #678083",
"D. c #6C8587",
"F. c #78898B",
"G. c #76A5AA",
"H. c #7FACB1",
"J. c #858383",
"K. c #898686",
"L. c #8C8989",
"P. c #918E8E",
"I. c #839798",
"U. c #949393",
"Y. c #989797",
"T. c #9C9B9B",
"R. c #88AFB3",
"E. c #8DB1B5",
"W. c #8EB6BA",
"Q. c #A4A3A3",
"!. c #A9A6A6",
"~. c #ADACAC",
"^. c #B0AFAF",
"/. c #B3B2B2",
"(. c #B6BABA",
"). c #BCBBBB",
"_. c #94C0C5",
"`. c #9AC6CB",
"'. c #9CC8CC",
"]. c #A0CACF",
"[. c #A8C8CB",
"{. c #B6C4C5",
"}. c #AACED2",
"|. c #B8D3D5",
" X c #B6D6D9",
".X c #C4C3C3",
"XX c #C8C7C7",
"oX c #CCCBCB",
"OX c #C8D3D4",
"+X c #D3D2D2",
"@X c #DCDCDC",
"#X c #CAE2E4",
"$X c #D7E6E8",
"%X c #D6E8EA",
"&X c #E5E4E4",
"*X c #E5E9E9",
"=X c #ECEBEB",
"-X c #E7F2F3",
";X c #EBF4F4",
":X c #F4F4F4",
">X c #F8F7F7",
",X c #FFFFFF",
/* pixels */
"@ = = : : : : : = : ; = : : = = ; ; ; > = = ; ; ; = : = : : = : : : ; ; ; ; ; : : : : : : : : : : : : : : : : $ : : : > = ; ; > ",
": j l v l l l v l l l l l l l v l l l l v v l l l l l l l l l l v l l l l 4 4 h g g g g d g h g g g 2 6 6 g g 6 6 6 4 g d d d > ",
": S ) 8.d.h.j.h.d.q.0.0.a.d.d.r.d.g.g.f.d.q.0.9.] [ { 9.} } } } } } } [ ' w g 4.3.^ 6.^ I ^ ^ ^ V V g m R { ] F R P m ' ] _ S > ",
"; k s.N.V.V.V.V.V.B.m.b.B.B.m.b.x.x.x.l.j.d.j.p.Z 7 9 9 9 q r q q q q q 7 + 3 t.t.5.u.4.U 4.^ 3.U C g m ' q.} E R ` Y q.q.' D ; ",
"# K V.C.V.N.b.b.b.N.N.B.B.m.x.l.g.a.q.0.' G F S $                           = C I M t.6.U 1.<.^ U ! k m ) q.' W P ` ` p.q.` D $ ",
"; E B.N.b.x.z.z.z.j.j.j.k.j.g.k.l.z.n.B._ $ # +                               O + , T t.^ 3.<.~ <.^ h A ' q.E W P ` R p.q.R D $ ",
"; L b.N.N.N.c.b.c.b.N.N.m.b.b.z.p._ _ R 7     % H o.o.X.X.X.o.X.X.X.X.o.o.o.y     O w V v V ^ ^ U ! h m [ 0.E E G E R 9.0.P D & ",
"# J x.k.t.h.g.j.k.j.j.k.z.z.g.g.` @           y L./././././././././.^./././.#.            5 T 3.! U h m { 8.E K P E R } q.P S > ",
"; d L 8.r.a.l.x.x.m.x.l.f.d.d.P 9 X     a =.,.Y.oX@X@X@X@X@X@X@X@X@X@X@X@X@X/.J.;.@.8     # 5 V ^ Q g m } [ W D P E R [ q.E S $ ",
"; L m.m.n.z.g.f.k.b.k.q.g.k.' >   @ % & :..X*X,X,X,X,X,X,X,X,X,X,X,X,X,X,X,X,X,X+XQ...% @ X   5 ~ Q h m ` ` E D G ` R [ q.( D : ",
"; L C.Z.Z.Z.V.V.B.B.m.z.a.G 9 X y =.K.Q.XX*X>X,X,X,X,X,X,X,X,X,X,X,X,X,X,X,X,X,X=X@X(.U.,.o.@ # 5 m h m E ' E S G E R ' p.] D > ",
"& ) C.Z.C.C.C.C.C.C.C.b.p.7 . 8 $.(.@X,X,X,X,X,X,X,X,X,X,X,X,X,X,X,X,X,X,X,X,X,X,X,X,X=X+XL.p @   w d c W 9._ S Y P F W q.[ G > ",
"; L z.c.c.c.v.v.v.n.c.E , . r -.~.&X:X,X,X,X,X,X,X,X,X,X,X,X,X,X,X,X,X,X,X,X,X,X,X,X,X>X:X.XU.X.  + : w E 0._ S R F F E p.{ G ; ",
"; f b v l l b b b k 0 # . t #.~.@X>X,X,X,X,X,X,X,X,X,X,X,X,X,X,X,X,X,X,X,X,X,X,X,X,X,X,X,X=XoXK.p &   , A } W K ' E E P q.} G > ",
"; f S A A A A S S 9 O   * -.^.&X:X,X,X,X,X,X,X,X,X,X,X,X,X,X,X,X,X,X,X,X,X,X,X,X,X,X,X,X,X>X:XoXY. .  O , _ ' K W E ' E 0.} G # ",
"# c [ ` _ R R R ` x     r Y.@X:X,X,X,X,X,X,X,X,X,X,X,X,X,X,X,X,X,X,X,X,X,X,X,X,X,X,X,X,X,X,X,X=X+X$.    # R 0.P W R ' ` [ } G ; ",
"; b 0.a.p.q.q.q.q.n     y ^.>X,X,X,X,X,X,X,X,X,X,X,X,X,X,X,X,X,X,X,X,X,X,X,X,X,X,X,X,X,X,X,X,X,X>X;.    # R q.R E R W E ' 0.G : ",
"# c 0.0.0.8.8.P z , . a :.oX,X,X,X,X,X,X,X,X,X,X,X,X,X,X,X,X,X,X,X,X,X,X,X,X,X,X,X,X,X,X,X,X,X,X,XQ.o.8 X 9 G G ` ` R E ( 0.R $ ",
"; f J E _ E E z     @ ;..X=X,X,X,X,X,X,X,X,X,X,X,X,X,X,X,X,X,X,X,X,X,X,X,X,X,X,X,X,X,X,X,X,X,X,X,X@XQ. .    7 D ' ' R E ' 0.R $ ",
"# f K E ` E E z X   @ L.&X>X,X,X,X,X,X,X,X,X,X,X,X,X,X,X,X,X,X,X,X,X,X,X,X,X,X,X,X,X,X,X,X,X,X,X,X=XoXo.    7 F { [ E E ` q.R $ ",
"$ k R R K F A 9   @ y Q.,X,X,X,X,X,X,X,X,X,X,X,X,X,X,X,X,X,X,X,X,X,X,X,X,X,X,X,X,X,X,X,X,X,X,X,X,X,X&X=.% X , Z { ' E E ' 0.P > ",
"$ g E E E D 7 +   H K.oX,X,X,X,X,X,X,X,X,X,X,X,X,X,X,X,X,X,X,X,X,X,X,X,X,X,X,X,X,X,X,X,X,X,X,X,X,X,X:X~.=.8 O > D W E E ] } G > ",
"$ m } 0.[ A +     $.(.&X,X,X,X,X,X,X,X,X,X,X,X,X,X,X,X,X,X,X,X,X,X,X,X,X,X,X,X,X,X,X,X,X,X,X,X,X,X,X:XoXU.u     w ' ' W [ [ S $ ",
"> F 9.0.0.R #     $.(.&X,X,X,X,X,X,X,X,X,X,X,X,X,X,X,X,X,X,X,X,X,X,X,X,X,X,X,X,X,X,X,X,X,X,X,X,X,X,X:X+XU.y     q [ ' W [ ` S $ ",
": m R P Y n O     $.(.&X,X,X,X,X,X,X,X,X,X,X,X,X,X,X,X,X,X,X>XoX(.*X,X,X,X,X,X>XoX/.&X,X,X,X,X:X&X.XQ.L.*.8     9 { ' E [ ' F : ",
"> 6 g w j 3 X     #.(.&X,X,X,X,X,X,X,X,X,X,X,X,X,X,X,X,X,X,X=X;....X,X,X,X,X,X:X,.H ).,X,X,X,X&X).=.8 & @       9 8.W W [ ' F > ",
"$ k c m m x O     +.!.XX&X:X,X,X,X,X,X,X,X,X,X,X,X,X,X,X,X-X|.+.8 -.P.P.P.P.P.L.H r ^.,X,X:X&X!.=.u             9 { E E { [ F $ ",
": c F { ` Z O     ..L.Q..X=X,X,X,X,X,X,X,X,X,X,X,X,X,X,X,X#XW.|                   r ^.,X,X&X).=.                9 ' Y E ' { G $ ",
"$ c P 0.{ F e ,   8 ..K..X=X,X,X,X,X,X,X,X,X,X,X,X,X,X-X#X X_.F.O.*             s ,.+X,X,X.X=.-.P.P.L.L.;.8     9 ` G ` ) 9.P > ",
"$ c G 0.0.R E x .   @ -.).&X>X,X,X,X,X,X,X,X,X,X,X,X,X%X}.`.`.'.R.| % % % % % * ,.XX=X,X,X!.8 =.&X*X*X*X(.a     9 ` S ` W 0.R > ",
"$ b R 0.{ R W x     . #.Q.).@X:X,X,X,X,X,X,X,X,X,X,X,X:X%X[.R.|.OXI.S.S.S.S.S.D.(.*X:X,X,X!., y $.$.$.$...8     q W G E ' q.R > ",
"$ n [ q.( Y E A $ O .  .,.Q.oX;X,X,X,X,X,X,X,X,X,X,X,X,X,X|.E.$X;X X'.'.'.'.'.].$X,X,X,X,X/.H r 8 r 8 O       @ z E P R ] q.R > ",
"> m } 0.R R R Y D ,   & s L.XX:X,X,X,X,X,X,X,X,X,X,X,X,X,X-X$X:X;X X'.'.'.'.'.'.%X,X,X,X,X+XY.L.K.L.,.u     $ x R ` R R 9.0.P > ",
"> m 0.9.R R R [ _ 9     * ,.).@X:X,X,X,X,X,X,X,X,X,X,X,X,X,X,X,X;X X'.'.'.'.'.].%X,X,X,X,X=XoX.X(.~.Y.s     , D ' ' R R q.] G > ",
"> m } { E R R { ` q     * =.T.(.+X>X,X,X,X,X,X,X,X,X,X,X,X,X,X,X;X X].'.'.'.'.].%X,X,X,X,X,X:X@X/.Q.J.p     , S W R R ' 0.E D > ",
": m { { R R Y { R n w O @ s =.Y.).@X=X,X,X,X,X,X,X,X,X,X,X,X,X,X;X X].'.'.'.].].%X,X,X,X,X:X&X.XQ.>.X.8   9 Z S E P R ' p.` S > ",
"$ n [ { E Y W { R W ' ,     u :.T.(.@X,X,X,X,X,X,X,X,X,X,X,X,X,X;X X'.'.'.'.'.].%X,X,X,X,X*X.XQ.L. ..   # R 0.m E Y W W } W D $ ",
": c W 8.E Y ' [ Y ' 9.z >   $ a =.Y.(.@X@X$X:X,X,X,X,X,X,X,X,X,X;X X'.'.'.'.'.].%X,X,X:X&XXXQ.>. .8   # z E [ c G R R R R D A : ",
"> c W 0.E E 9.( E ( 0.F w o     p >.Y.~.~.).&X,X,X,X,X,X,X,X,X,X;X X'.'.'.'.'.'.$X>X>X&X).T.K...    . 3 j j k 4 g g g g d 6 w : ",
"> c R 9.E E 0.( E ( 0.F c 3 j O % p H o.>.Q..X@X:X,X,X,X,X,X,X,X;X X'.'.'.'.W.H.{.+X{.T.*. .s 8   , c K ) ) ) ) ) ] ) ) ( / K : ",
"$ c E 0.E ( 0.E { ( 9.G m 2 T 5 O        .>.P.~.@X-X:X:X:X:X:X:X-X}._._._._.G.A.F.Y.N.O.8     X , P x.v.m.m.B.m.N.N.m.B.m.n.p.# ",
"$ c R 0.R ( } ( 0.{ { G m 2 ^ ~ k X     * y p +.U./.XXoXoXoXoXoX{.E.G.G.G.G.%.t i a i * X     7 L a.v.b.v.x.v.m.V.C.V.N.V.V.s.# ",
"> c ` 0.R ( W } 9.' [ F m 2 ^ t.V w , : X     & o.:.J.K.K.K.L.K.L.&.%.%.%.%.i         . 1 9 9 _ a.p.k.a.a.a.a.a.f.f.r.t.g.v.p.> ",
"> m [ 0.Y E W 0.[ ' ] A m 2 ! e.~ 2.~ N <     . & 8 r r r r r r t * * * * * @         8 @.h.h.v.m.z.a.k.x.x.l.a.d.f.f.l.z.l.p.> ",
": m } 8.Y E ( 0.W ] ] S b 2 ! 5.2.4.w.^ j 5 , X                             X 9 e q e S q.g.f.f.l.l.l.k.x.f.l.x.k.a.r.k.d.f.' ; ",
": m 8.} Y E W } E { ] S S d Q 5.^ 3.4.2.N c , X X                             9 G q.d.q.g.l.x.x.l.l.l.a.f.x.l.l.k.q.r.f.l.z.9.> ",
": m { 9.Y E W ' R { { G S 4 ~ 1.2.3.2.^ M :     u +.=.>.>.>.:.>.:.>.>.=.+.t .   , W { / p.v.x.f.f.l.x.x.f.a.a.a.a.k.a.x.x.l.] > ",
": c [ 0.Y E E E R } 0.P S 4 U ! 3.U 2.^ V >     $.@X:X,X,X,X,X,X,X,X,X;X@XQ.*.r @ q P q.f.a.a.l.g.f.a.g.l.l.l.x.x.l.k.f.0.] J > ",
"$ c ' q.R ' R E E [ q.R D 6 I U ^ ~ 2.2.Q >     =.=X>X,X,X,X,X,X,X,X,X=X+X/.J.u X # Z a.l.l.l.l.g.f.g.g.l.x.v.b.n.m.V.m.n.x.0.; ",
": c ' q.E [ E E E E q.W F 6 I ~ U 2.2.3.^ :     @..X&X,X,X,X,X,X,X,X,X!...s u % > P p.l.l.l.l.l.l.f.0.8.a.l.v.m.m.n.v.x.l.x.p.; ",
"$ c ' s.` ` E ` E Y 0.( D g I 2.C 2.^ 6.5.w :   s J.).=X>X,X,X,X,X,X,XT.p &     # z S L / L E J L P / L K K L P ) L / L / / J ; ",
"$ c ' q.' P R E R Y } [ F g U 2.~ ^ 2.6.7.~ m + @ 8 >.oX*X,X,X,X,X,X,XoXU.H       X ; f f f 6 6 6 6 d f f j b l v l b z k k j & ",
"$ n ` q.} P F R F Y { [ F g U 2.^ ^ 2.t.6.3.~ l ,   H >.P.~.+X*X>X,X,X=XoXM.s &     7 _ [ ] ' R K P P / ` ' [ { { [ R G G G A ; ",
": c _ q.} P R R m Y [ [ F 6 U ^ 2.U 2.y.6.4.4.6.v   O @ & p P.+X:X,X,X>X:XoXU.a     7 ] 9.9.9.9.0.9.9.9.} } [ p.0.q.0.8.0.] b > ",
": c E q.0.Y ` E m Y ` ` F g I ^ 2.U 3.t.5.4.6.6.Q 9 X     % ..;.M.K.K..X,X+XT.s     , D R R R R _ _ _ / _ ` / P R W [ 8.} ' A > ",
"$ c P 0.q.R ` ` m R ` { Y 6 I ^ 3.U 2.t.4.6.4.6.5.C o                 ,.>X+XT.s     7 G E W W ' ` / E P P P P P E R K R R E F > ",
": c F } q.R E E D ` ' q.Y 6 I U 3.^ 3.5.7.7.3.6.6.V - : 9 9 @         =.+XK. .* O q n R W ' W ' { 0.0.{ ( E R E Y E W E L R F > ",
"$ c F { q.R E E F E { q.G w I U U 3.2.^ 7.e.^ 5.6.C 1 k E A , O O     o.Y. .  X , D W [ { 0.0.{ ' ( W ( ' { ' ' ( ' ' E R R S > ",
"> m F { q.( E R G E } 0.Y w I ^ U 2.2.^ 6.y.^ 4.6.C 2 k E R A n x ,   8 a * X 9 m G R Y E E ' { { ( R Y Y G Y R W E E E R G k : ",
": x G 9.r.[ W R R E 0.} F 6 I ^ ^ ^ 3.~ 3.i.3.3.t.I 2 g ' ' E E W A , X   O , A ' 0.0.0.9.{ { { ] { { { { { ( Y K Y R W ' ] S $ ",
": c Y 0.q.] E R R ( q.} F 6 I U ! ^ 4.! ^ u.w.5.u.U 1 l 9.q.q.0.} ' G 9   e E { 0.0.{ ] ` W ( [ { { } } 8.8.9.0.0.0.0.p.q.q.L ; ",
"$ c E q.q.( Y E ( { q.8.G g I I 4.1.4.^ ! u.e.6.u.U 1 k ` ' ' ] } } [ n 9 A E E R G G D D D M D D D m m m S F K L E P E ` ` S & ",
"# c F F Y m x M m m F F m 6 N h V C C M V Q C N Q B 1 g Z A A A A A S n c c m m m c c c x k j j g w 6 6 5 6 5 4 4 4 3 2 4 d k > ",
": > > > > > > : $ : > > > > : $ > > # > : ; > $ $ > > $ $ : # $ ; ; $ > > > > $ > > $ > $ : > > > : $ , > > ; > > $ > $ ; > > > "
};
