/* XPM */
static char *result[] = {
/* columns rows colors chars-per-pixel */
"64 64 151 2 ",
"   c #170E0A",
".  c #1F0F09",
"X  c #1E1009",
"o  c #230F07",
"O  c #230F08",
"+  c #231007",
"@  c #21110B",
"#  c #231D0F",
"$  c #361304",
"%  c #381506",
"&  c #331508",
"*  c #3A1709",
"=  c #331D0E",
"-  c #3D1B0B",
";  c #231E11",
":  c #291E11",
">  c #262113",
",  c #2C2415",
"<  c #2E2817",
"1  c #2E2618",
"2  c #26291B",
"3  c #2D2A1C",
"4  c #322515",
"5  c #3D2413",
"6  c #342816",
"7  c #3B2B17",
"8  c #302719",
"9  c #342B1B",
"0  c #392E1D",
"q  c #3A301F",
"w  c #332E22",
"e  c #333325",
"r  c #3C3321",
"t  c #343629",
"y  c #35382D",
"u  c #3D3D2D",
"i  c #373E31",
"p  c #383E30",
"a  c #421E0D",
"s  c #44210E",
"d  c #49230D",
"f  c #452312",
"g  c #4A2615",
"h  c #4E2815",
"j  c #402D1A",
"k  c #4C2C1A",
"l  c #502916",
"z  c #522D1B",
"x  c #43311E",
"c  c #4B331E",
"v  c #5C3317",
"b  c #53321E",
"n  c #59361E",
"m  c #56391E",
"M  c #5C3A1D",
"N  c #603617",
"B  c #61371A",
"V  c #643B1C",
"C  c #6A3E1D",
"Z  c #413623",
"A  c #4B3521",
"S  c #453926",
"D  c #4A3A25",
"F  c #463C28",
"G  c #493E2A",
"H  c #553622",
"J  c #5B3521",
"K  c #553A25",
"L  c #5B3B25",
"P  c #553E29",
"I  c #5C3E28",
"U  c #623623",
"Y  c #623D26",
"T  c #683C25",
"R  c #623F28",
"E  c #374136",
"W  c #394234",
"Q  c #3B483C",
"!  c #6D411F",
"~  c #70411F",
"^  c #4D412C",
"/  c #51432D",
"(  c #5C412A",
")  c #434231",
"_  c #4D4C3B",
"`  c #644225",
"'  c #6A4322",
"]  c #65422A",
"[  c #6A452D",
"{  c #65482E",
"}  c #6D482F",
"|  c #744421",
" . c #754824",
".. c #7B4B24",
"X. c #71462D",
"o. c #72492F",
"O. c #7B4E29",
"+. c #7F502B",
"@. c #6D4730",
"#. c #654B33",
"$. c #6D4A31",
"%. c #734C32",
"&. c #7A4E33",
"*. c #6B5035",
"=. c #6E5239",
"-. c #755035",
";. c #7C5235",
":. c #7E5438",
">. c #7C5A3C",
",. c #7A5E42",
"<. c #814E26",
"1. c #834F28",
"2. c #825127",
"3. c #845229",
"4. c #8B552B",
"5. c #8F592D",
"6. c #945B2E",
"7. c #815537",
"8. c #825639",
"9. c #85593B",
"0. c #8A5C3D",
"q. c #975D30",
"w. c #9A5F31",
"e. c #9C6132",
"r. c #A56536",
"t. c #A66837",
"y. c #A96937",
"u. c #8E5F41",
"i. c #8E6142",
"p. c #946242",
"a. c #996645",
"s. c #946947",
"d. c #9A6748",
"f. c #9D6B49",
"g. c #997552",
"h. c #A16C47",
"j. c #A16D4A",
"k. c #A6714D",
"l. c #AA734E",
"z. c #A67150",
"x. c #A97452",
"c. c #AD7A54",
"v. c #AD7D58",
"b. c #B17D56",
"n. c #B17E59",
"m. c #B5825A",
"M. c #BA865D",
"N. c #B78961",
"B. c #BE8B62",
"V. c #C08D64",
"C. c #C28F68",
/* pixels */
"  o o + + + + + o + O o + o o o + + + + + + O O O o o o o o o o + + + + o + + + + + + o + + + + + + + + @ + + @ o O O O O O O O ",
"@ s h h h h h h h h h h h h l h h h h h h h h l h h h h h h l l l h h l h * * d d d d d - s d d - a % - - s s * a - * a a a a @ ",
"O J %.7.p.d.f.d.p.0.9.9.u.p.p.u.a.d.a.s.p.9.9.0.u.e.d.j.j.f.f.j.j.f.f.a.e.l h 4.3...6...! ......V V d b [ ;.-.L ] I b &.&.@.H O ",
"O h u.m.B.B.V.B.B.M.n.v.M.M.b.b.l.l.l.k.f.a.f.l.c.m.M.M.M.V.V.V.V.B.B.B.c.z h w.w.4.y.4.~ 4.2.3.| C d b o.0.7.[ ] $.` 0.0.%.L @ ",
". T V.V.V.m.c.c.x.m.m.M.M.n.x.j.0.-.] ] { { ] %.-.-.$.$.$.%.>.>.>.9.k.M.c.z l 6.5. .O.` m ! V M M n 5 j L ;.%.$.R $.@.u.0.@.K O ",
". [ M.m.c.l.x.k.k.f.f.f.h.h.h.a.;.D q x D D Z Z x Z c Z Z Z 0 6 q { p.k.k.z h 6.2.M q 7 7 q 7 7 7 7 , > x { [ [ R { ] 8.9.{ K @ ",
"O T c.b.m.v.c.x.x.c.m.x.f.s.d.0.( 9 < , 9 8 < < < 3 9 9 4 , > > : x $.i.0.h d O.' x 3 < < < 9 < 6 < < , < c K ` I @.] u.u.R H @ ",
". U l.f.e.d.f.f.j.f.d.i.{ D P P Z 9 9 r r r r r r r Z r q 9 , , > 6 x ( K 4 4 m D q r r r q r r r r r q 9 9 0 c H @.R -.u.] H @ ",
"O a T 7.0.a.h.x.l.b.k.$.0 , 9 q r r F F G G G G F G ^ ^ F Z 9 9 6 < 9 9 < : 1 9 r Z F G G G D G ^ F F S r 9 < 9 A @.R ;.9.] H @ ",
"O T n.n.n.j.d.d.j.j.$.x < 9 9 q r S G ^ ^ ^ ^ ^ ^ ^ / / P G Z 0 9 < < , : : 1 9 Z S G / ^ / ^ ^ ^ ^ ^ ^ S 0 < 6 A @.] &.u.%.K @ ",
"O X.V.C.C.C.B.B.m.>.Z < 9 r r F G G G G G G G G G G G ^ G G D Z w 9 < 1 , 1 9 r F G G G G ^ ^ G ^ ^ ^ G S r 9 6 A } T &.u.-.L O ",
"O X.C.V.V.C.N.g.,.r < 9 r ^ ^ ^ ) G G G G G G G G G G G G ^ G S x 9 8 1 1 8 r S ^ ^ G G G G G ^ ^ F ^ ^ F r 0 0 K L L $.u.;.L @ ",
"O T z.z.z.x.d./ F 9 9 r S F ^ ^ G G G G G G G G G G G G G ^ G F Z w 9 8 1 8 0 D / / ^ G G G ^ ^ ^ F ^ ^ G Z 0 7 K K U @.u.;.L O ",
"O a l k l k k 2 3 w Z F F ^ G F G G G G G G G G G G G G G G G F Z r 8 1 : 8 w S / / / / G G G ^ F ^ ^ ^ F Z 9 0 I @.@.R 9.7.I @ ",
". f J H H H A 2 3 r F ^ ^ ^ ^ F G G G G G G G G G G G G G G G F S w 6 : ; 1 w F / / / G G G G G ^ ^ ^ ^ G r 9 7 I ] &.R u.:.I @ ",
". k -.%.@.] P 2 e r G / ^ ^ ^ F F G G G G G G G G G G G G G G G S 0 , ; ; 1 0 A ^ / G G G G G G ^ F ^ ^ D w 8 0 K @.%.R %.8.I @ ",
". l 0.u.0.0.&.2 w q ^ ^ ^ ^ ^ ) ^ ^ ^ ^ ^ ^ ^ ^ G G G G G ^ F D r 9 , ; # , 9 S ^ / G G G G G G F ^ G S w 6 , 7 K ] } } %.8.R O ",
". k 9.9.9.7.$.3 w t ^ ^ ^ ^ ^ x ) x ) x x ) ^ S G G G G G / D Z 9 1 , : ; , 9 F / ^ G G G G G G ^ ^ F r 9 1 , 7 L @.] [ o.9.I O ",
". a U [ @.[ P 2 e q S ^ ^ x ^ ^ ^ x ) ^ ^ ^ ^ u G G F G G / F r 9 , 1 1 > > 9 r G G G G G G G G G G r 0 1 ; : 9 ( %.] [ @.u.] @ ",
"O f I [ @.@.( 3 3 q ^ ^ ) ^ ) ^ ^ ^ ^ ^ u ^ ^ x G G G G / / F r < , < 1 > , < 9 r G ^ ^ ^ ^ P G D Z 9 9 1 , : 7 { %.] [ @.u.] @ ",
"X g ] ( I L H 2 q r ) ^ F ^ F ^ S ^ F ^ ^ ^ ) S G G G G G / A r 8 , 1 1 8 1 , > 9 Z ^ / G G G G Z 9 1 8 1 : : 0 } %.[ [ %.8.R @ ",
"X s [ [ } } I 2 3 r ^ ^ ^ F ^ F ^ S ) F x ^ ^ ^ G G G ^ G F r w 8 1 1 8 8 8 : ; , 9 Z F Z Z D Z 9 6 , 1 1 1 , j $.@.} { &.:.I @ ",
"@ n :.9.;.%.] 3 3 u ^ ^ F F F ^ ^ S S ^ S ^ ^ ^ G G ^ / F Z 8 8 8 1 1 8 1 8 < , , , 9 9 9 w 0 w 9 < < 8 1 , : 0 { %.%.@.;.-.H O ",
"@ L 9.9.0.0.=.3 3 r F ^ F ^ F ^ F ^ ^ S ^ ^ ^ ^ G G / / D 0 , 1 1 8 8 8 < 9 < < , > > > 1 : 1 1 9 < 8 8 1 , , 0 I &.%.@.;.%.H @ ",
"@ b R ` ] ] ( 3 w r ^ ^ ^ F ^ F ^ F F ^ ^ ^ ^ ^ F F ^ / S 0 : : 8 8 8 8 8 8 8 8 1 , ; ; ; : : 2 1 8 8 8 1 , : 6 K 8.o.[ ;.%.L @ ",
"O - a 5 f s 5 2 3 t ^ ^ G ^ F ^ F ^ ^ F F ^ F F r S ^ ^ S 0 1 1 1 8 8 8 8 1 8 8 8 1 1 , > > , , 1 8 8 8 1 , , 7 L 8.} } ;.%.L @ ",
"O g k b H H A 3 3 r F ^ S F F ^ ^ ^ F ^ ^ F F S r r S F Z 9 1 1 1 8 8 8 8 8 8 8 8 8 8 1 2 : > , 1 1 1 8 1 8 0 x R :.[ } &.&.L . ",
"X k L ;.%.[ I 2 e r F F u r F ^ ^ F ^ F F F S r q r r r r 9 1 1 8 8 8 8 8 8 8 8 8 8 8 1 1 , , > , : 1 1 8 Z ] H $.;.L } %.:.I X ",
"@ k I 9.;.] K 3 3 r S x u q F ^ S F F ^ F S r r r r q q 9 3 < 8 8 8 8 8 8 8 8 8 8 8 8 8 1 1 , : ; , , > < P ;.L %.%.I @.%.8.R O ",
"X k I 9.9.] P 2 3 u ^ S x q r r q u ^ ^ ^ r 0 9 Z Z q 9 < 6 1 8 8 8 8 8 8 8 8 8 8 1 8 8 8 1 , , , , > > , I &.L %.o.L @.o.9.] O ",
"@ z ] 9.;.R ( 3 e q ^ S Z q q q q q ^ ^ F r 9 r ^ ^ q 9 , < < 8 8 8 8 8 8 8 8 8 8 8 8 8 8 8 1 1 , , , ; , H { R %.o.I @.@.u.] @ ",
"@ c &.u.%.R ] e q u ^ S S q q q q q q r r r q Z ^ ^ S 6 , , 8 8 8 8 8 8 8 8 8 8 8 8 8 8 8 8 8 1 < , , > : Z D I %.@.R R &.u.] @ ",
"@ b 8.9.[ ] I F F F G F S S Z r w 8 8 0 w r Z F / ( Z 8 : 1 8 8 8 8 8 8 8 8 8 8 8 8 8 1 8 8 8 8 1 1 : , : 3 t P @.@.R R u.9.R O ",
"@ b 8.8.] ] ( S ^ F G G G G G Z r 6 1 8 7 9 r F / G Z 8 2 1 1 8 8 < 8 8 8 8 1 8 8 8 8 8 8 8 8 8 1 8 8 , 1 w w t I @.] ] u.@.R @ ",
"@ H 8.;.] R I Z r F F ^ ^ G G S Z 0 8 8 1 8 0 r S r w 8 4 1 8 8 8 8 8 8 8 8 8 8 8 8 8 8 8 8 8 8 8 8 8 , 1 3 1 w r A P @.u.@.K @ ",
"O z ;.;.[ ] I 8 9 r G ^ G G ^ F Z r 9 8 8 8 8 8 9 9 8 8 1 8 8 8 8 8 8 8 8 8 8 8 8 8 8 8 8 8 8 1 8 8 8 8 8 < 1 1 3 w A @.u.@.H @ ",
"@ k &.:.[ T I 1 9 r G ^ G G G S r w 6 9 6 8 8 , 1 , , 1 8 8 8 8 8 8 8 8 8 8 8 8 1 8 1 8 8 1 8 , < 8 1 1 8 4 8 : 2 , x ] :.[ H @ ",
"@ k $.:.[ ] { < 9 r ^ ^ G F S Z 0 8 6 w r w 9 8 1 1 1 8 8 8 8 8 8 8 8 8 8 8 8 1 8 1 1 1 1 < 8 4 1 1 8 1 1 8 8 1 > , x ] R H H @ ",
"@ k } 8.] } $.< 9 r F ^ G S Z r w 9 w Z Z S r 0 6 8 1 1 8 8 8 8 8 8 8 8 8 8 1 1 8 6 9 6 8 8 9 9 8 6 8 8 8 8 8 1 > : = f a - s X ",
"@ k [ 8.[ } $.< 9 r ^ ^ G S r r r r Z D F F D x w 8 , 1 1 8 8 8 8 1 8 1 8 8 1 8 0 w r w 8 6 0 w w 0 9 0 0 9 9 : > 4 c X.o.X.Y @ ",
"@ k ] 9.[ o.%.< 9 Z G P F r r r Z F G G ^ / G A r 8 : 8 8 8 8 8 8 1 1 1 8 8 4 8 9 x Z r w w Z F Z r r r r 0 9 , > 9 *.x.m.c.0.@ ",
"X k { 9.] %.[ < 9 Z G G F Z r r S F G G G G F r 9 8 8 8 8 8 8 8 8 8 8 w 8 8 8 w r r Z r r F F F F Z r r Z w 9 < : 0 *.l.V.V.i.@ ",
"@ k @.9.] @.( 8 0 r F G Z Z Z Z Z S S F F Z r 9 8 1 1 1 8 8 8 8 8 9 8 9 8 8 9 9 r 7 w Z F F G G F Z Z r w 0 9 < > 6 P 0.f.c.i.@ ",
"@ H &.9.T } R < 6 0 Z Z r r r r r r x Z r 9 , , 1 < 1 8 8 8 8 6 9 9 w 9 8 4 9 r r w r Z G G G G G F Z r Z 0 0 8 > 6 ( f.k.k.9.@ ",
"@ z :.7.R [ ] , 1 9 0 w 9 0 q w 0 w 0 w 0 9 > > > , < 8 8 9 9 9 r w r 9 8 8 8 w r Z S F G G G G G G S r q 0 0 , , 6 L p.p.a.o.+ ",
"@ b 7.:.R [ ] 2 1 1 1 8 8 9 0 0 0 9 0 9 9 < , : > > , < 8 , 9 q r j w 9 8 8 8 9 r Z G G G G G G F Z S r r 0 9 8 > 8 K u.j.l.7.@ ",
"@ z :.8.R { I 2 1 2 , 1 4 9 9 r r 0 0 0 w 9 < > > > > , , 9 9 q r w 0 8 8 8 8 9 Z Z ^ ^ G / G G Z Z r r w w 9 , > 6 I f.k.h.7.O ",
"@ z -.9.T [ I , 2 < 8 8 < 9 9 0 r r r r r 9 9 , > ; : , < , 9 9 0 9 6 8 4 1 8 9 r Z G / G G G G Z r r r r r 9 , : 9 R u.9.&.U O ",
"@ k &.9.] o.I 9 9 3 , < < 9 w w q r r r q q 9 , , : ; > > < 3 9 8 8 8 1 8 8 8 8 w Z F Z F D Z Z Z r r r r w 7 4 ; 0 $.c.c.l.9.@ ",
"@ k &.0.[ ;.] D Z < , , < 9 7 0 9 9 q q 0 9 9 8 , > ; ; > > > , 1 1 1 8 8 8 8 8 7 w r r r r r x r r r r r x w 8 : 9 #.d.k.k.9.@ ",
"@ k $.i.$.@.[ { I 0 4 , 1 1 < 8 < 9 < 6 9 9 8 4 < , > ; # ; ; > : , 1 8 8 8 8 8 8 8 9 8 8 w w 9 0 r r r r w 0 8 , , x T X.o.T @ ",
"@ k $.u.&.R R @.T K A 6 , > , : , > > < , < 8 9 9 4 > ; # ; ; # ; ; 1 : 8 8 8 8 1 8 8 8 8 8 8 9 9 0 r w 9 0 9 1 : : 4 g g g f @ ",
"@ k *.0.7.L L ] L R } Z ; ; ; > ; ; > > < 4 4 9 6 8 , ; # # # ; ; : ; , 1 8 4 8 8 8 8 8 8 8 8 8 6 8 6 8 9 9 8 1 > , x K I I H O ",
"@ k [ 0.9.] T ] H ` -.] 6 : , 9 6 , 7 c 7 9 , < 8 < , : 0 9 0 9 0 0 j w 8 1 8 1 : 8 : 8 8 1 1 1 < 8 , 1 : 8 8 : > < K ;.8.;.z @ ",
"@ k [ 9.9.R $.[ b ] o.] c = b M ! m ` +.` c < 2 2 1 : 5 $.$.[ [ $.%.%.( w 1 1 8 8 : 8 4 : : 2 1 1 1 , 1 1 8 , 1 , < A ;.:.&.H @ ",
"@ k ] 9.0.] @.} H ] o.;.( s ! ~ 2.! 2.e.3.` 0 2 1 8 = g %.;.-.} ] T ] L Z 1 1 8 w 8 1 w 4 w w w 9 1 8 1 8 8 8 8 9 w Z ] ] [ H @ ",
"@ k L 8.0.] [ [ H [ %.0.] f C | 4...3.4.6.3.L D A c & - n ] $.[ [ [ X.} K j x A x w w y y u S D D e e e e e e e r P R [ T ] H @ ",
"O k L ;.0.] [ [ L [ ;.0.I a C | ~ 3.<...w.6. ...+.V $ g ] R ] ] ] ] ] ] R P ] [ P F y i i _ =.-.( W W y W p u ) / [ %.[ ] { J @ ",
"@ k L ;.0.%.[ ] L } 7.8.L 5 C ..~ 2.2...6.r...4.e.V $ g [ } @.] R J H n L J L ] I p i E Q _ #.;.#.) W W W W W ) { [ [ [ [ Y g @ ",
"@ k I 8.0.&.o.] ] } 8.7.I s C ......3.| 4.r.3.3.e.! $ d %.%.[ [ [ [ } [ { [ [ [ %.8.9.9.u.;.;.;.;.-.;.7.:.%.o.` R R ] } %.%.J @ ",
"O k ] 9.0.&.} ] [ o.0.;.L a C | ....4.....y.q.4.t.! $ h 8.u.0.9.8.&.%.} ;.:.9.9.0.8.;.%.o.} o.-.;.;.7.;.:.7.9.9.9.0.9.u.0.0.T @ ",
"X k @.0.0.X.` [ } ;.0.8.I a C C 4.1.4.....t.w.6.t.| $ g @.%.%.&.:.8.&.{ } } [ [ { ] L L H n K K m K H n H K L L R ] T @.@.@.H @ ",
". k H R Y z g J b b L M b a N h V C C v B | C N ' V $ s H c H H H H H H b b b z k k k k g f g f f s - - - * * * * % * & * a g @ ",
". . O O @ @ @ @ @ @ @ @ @ @ @ O @ @ @ @ @ O @ @ @ @ @ X X O . @ X O @ @ X @ @ @ @ @ @ @ @ @ X @ X @ @ @ @ @ X @ @ @ @ @ @ @ @ @ "
};
